<?xml version="1.0" encoding="utf-8" standalone="no"?>
<!DOCTYPE svg PUBLIC "-//W3C//DTD SVG 1.1//EN"
  "http://www.w3.org/Graphics/SVG/1.1/DTD/svg11.dtd">
<svg xmlns:xlink="http://www.w3.org/1999/xlink" width="441.79012pt" height="310.048879pt" viewBox="0 0 441.79012 310.048879" xmlns="http://www.w3.org/2000/svg" version="1.1">
 <metadata>
  <rdf:RDF xmlns:dc="http://purl.org/dc/elements/1.1/" xmlns:cc="http://creativecommons.org/ns#" xmlns:rdf="http://www.w3.org/1999/02/22-rdf-syntax-ns#">
   <cc:Work>
    <dc:type rdf:resource="http://purl.org/dc/dcmitype/StillImage"/>
    <dc:date>2025-04-05T20:29:48.210690</dc:date>
    <dc:format>image/svg+xml</dc:format>
    <dc:creator>
     <cc:Agent>
      <dc:title>Matplotlib v3.10.1, https://matplotlib.org/</dc:title>
     </cc:Agent>
    </dc:creator>
   </cc:Work>
  </rdf:RDF>
 </metadata>
 <defs>
  <style type="text/css">*{stroke-linejoin: round; stroke-linecap: butt}</style>
 </defs>
 <g id="figure_1">
  <g id="patch_1">
   <path d="M 0 310.048879 
L 441.79012 310.048879 
L 441.79012 0 
L 0 0 
z
" style="fill: #ffffff"/>
  </g>
  <g id="axes_1">
   <g id="patch_2">
    <path d="M 43.711299 281.295328 
L 434.311299 281.295328 
L 434.311299 4.095328 
L 43.711299 4.095328 
z
" style="fill: #ffffff"/>
   </g>
   <g id="matplotlib.axis_1">
    <g id="xtick_1">
     <g id="line2d_1">
      <path d="M 43.711299 281.295328 
L 43.711299 4.095328 
" clip-path="url(#p5660b8ebe3)" style="fill: none; stroke: #b0b0b0; stroke-width: 0.8; stroke-linecap: square"/>
     </g>
     <g id="line2d_2">
      <defs>
       <path id="me0f77f5361" d="M 0 0 
L 0 -3.5 
" style="stroke: #000000; stroke-width: 0.8"/>
      </defs>
      <g>
       <use xlink:href="#me0f77f5361" x="43.711299" y="281.295328" style="stroke: #000000; stroke-width: 0.8"/>
      </g>
     </g>
     <g id="text_1">
      <!-- $\mathdefault{0.0}$ -->
      <g transform="translate(36.232478 293.097507) scale(0.12 -0.12)">
       <defs>
        <path id="CMR17-30" d="M 2688 2025 
C 2688 2416 2682 3080 2413 3591 
C 2176 4039 1798 4198 1466 4198 
C 1158 4198 768 4058 525 3597 
C 269 3118 243 2524 243 2025 
C 243 1661 250 1106 448 619 
C 723 -39 1216 -128 1466 -128 
C 1760 -128 2208 -7 2470 600 
C 2662 1042 2688 1559 2688 2025 
z
M 1466 -26 
C 1056 -26 813 325 723 812 
C 653 1188 653 1738 653 2096 
C 653 2588 653 2997 736 3387 
C 858 3929 1216 4096 1466 4096 
C 1728 4096 2067 3923 2189 3400 
C 2272 3036 2278 2607 2278 2096 
C 2278 1680 2278 1169 2202 792 
C 2067 95 1690 -26 1466 -26 
z
" transform="scale(0.015625)"/>
        <path id="CMMI12-3a" d="M 1178 307 
C 1178 492 1024 619 870 619 
C 685 619 557 466 557 313 
C 557 128 710 0 864 0 
C 1050 0 1178 153 1178 307 
z
" transform="scale(0.015625)"/>
       </defs>
       <use xlink:href="#CMR17-30" transform="scale(0.996264)"/>
       <use xlink:href="#CMMI12-3a" transform="translate(45.690477 0) scale(0.996264)"/>
       <use xlink:href="#CMR17-30" transform="translate(72.787654 0) scale(0.996264)"/>
      </g>
     </g>
    </g>
    <g id="xtick_2">
     <g id="line2d_3">
      <path d="M 92.536299 281.295328 
L 92.536299 4.095328 
" clip-path="url(#p5660b8ebe3)" style="fill: none; stroke: #b0b0b0; stroke-width: 0.8; stroke-linecap: square"/>
     </g>
     <g id="line2d_4">
      <g>
       <use xlink:href="#me0f77f5361" x="92.536299" y="281.295328" style="stroke: #000000; stroke-width: 0.8"/>
      </g>
     </g>
     <g id="text_2">
      <!-- $\mathdefault{0.5}$ -->
      <g transform="translate(85.057478 293.097507) scale(0.12 -0.12)">
       <defs>
        <path id="CMR17-35" d="M 730 3692 
C 794 3666 1056 3584 1325 3584 
C 1920 3584 2246 3911 2432 4100 
C 2432 4157 2432 4192 2394 4192 
C 2387 4192 2374 4192 2323 4163 
C 2099 4058 1837 3973 1517 3973 
C 1325 3973 1037 3999 723 4139 
C 653 4171 640 4171 634 4171 
C 602 4171 595 4164 595 4037 
L 595 2203 
C 595 2089 595 2057 659 2057 
C 691 2057 704 2070 736 2114 
C 941 2401 1222 2522 1542 2522 
C 1766 2522 2246 2382 2246 1289 
C 2246 1085 2246 715 2054 421 
C 1894 159 1645 25 1370 25 
C 947 25 518 320 403 814 
C 429 807 480 795 506 795 
C 589 795 749 840 749 1038 
C 749 1210 627 1280 506 1280 
C 358 1280 262 1190 262 1011 
C 262 454 704 -128 1382 -128 
C 2042 -128 2669 440 2669 1264 
C 2669 2030 2170 2624 1549 2624 
C 1222 2624 947 2503 730 2274 
L 730 3692 
z
" transform="scale(0.015625)"/>
       </defs>
       <use xlink:href="#CMR17-30" transform="scale(0.996264)"/>
       <use xlink:href="#CMMI12-3a" transform="translate(45.690477 0) scale(0.996264)"/>
       <use xlink:href="#CMR17-35" transform="translate(72.787654 0) scale(0.996264)"/>
      </g>
     </g>
    </g>
    <g id="xtick_3">
     <g id="line2d_5">
      <path d="M 141.361299 281.295328 
L 141.361299 4.095328 
" clip-path="url(#p5660b8ebe3)" style="fill: none; stroke: #b0b0b0; stroke-width: 0.8; stroke-linecap: square"/>
     </g>
     <g id="line2d_6">
      <g>
       <use xlink:href="#me0f77f5361" x="141.361299" y="281.295328" style="stroke: #000000; stroke-width: 0.8"/>
      </g>
     </g>
     <g id="text_3">
      <!-- $\mathdefault{1.0}$ -->
      <g transform="translate(133.882478 293.097507) scale(0.12 -0.12)">
       <defs>
        <path id="CMR17-31" d="M 1702 4058 
C 1702 4192 1696 4192 1606 4192 
C 1357 3916 979 3827 621 3827 
C 602 3827 570 3827 563 3808 
C 557 3795 557 3782 557 3648 
C 755 3648 1088 3686 1344 3839 
L 1344 461 
C 1344 236 1331 160 781 160 
L 589 160 
L 589 0 
C 896 0 1216 0 1523 0 
C 1830 0 2150 0 2458 0 
L 2458 160 
L 2266 160 
C 1715 160 1702 230 1702 458 
L 1702 4058 
z
" transform="scale(0.015625)"/>
       </defs>
       <use xlink:href="#CMR17-31" transform="scale(0.996264)"/>
       <use xlink:href="#CMMI12-3a" transform="translate(45.690477 0) scale(0.996264)"/>
       <use xlink:href="#CMR17-30" transform="translate(72.787654 0) scale(0.996264)"/>
      </g>
     </g>
    </g>
    <g id="xtick_4">
     <g id="line2d_7">
      <path d="M 190.186299 281.295328 
L 190.186299 4.095328 
" clip-path="url(#p5660b8ebe3)" style="fill: none; stroke: #b0b0b0; stroke-width: 0.8; stroke-linecap: square"/>
     </g>
     <g id="line2d_8">
      <g>
       <use xlink:href="#me0f77f5361" x="190.186299" y="281.295328" style="stroke: #000000; stroke-width: 0.8"/>
      </g>
     </g>
     <g id="text_4">
      <!-- $\mathdefault{1.5}$ -->
      <g transform="translate(182.707478 293.097507) scale(0.12 -0.12)">
       <use xlink:href="#CMR17-31" transform="scale(0.996264)"/>
       <use xlink:href="#CMMI12-3a" transform="translate(45.690477 0) scale(0.996264)"/>
       <use xlink:href="#CMR17-35" transform="translate(72.787654 0) scale(0.996264)"/>
      </g>
     </g>
    </g>
    <g id="xtick_5">
     <g id="line2d_9">
      <path d="M 239.011299 281.295328 
L 239.011299 4.095328 
" clip-path="url(#p5660b8ebe3)" style="fill: none; stroke: #b0b0b0; stroke-width: 0.8; stroke-linecap: square"/>
     </g>
     <g id="line2d_10">
      <g>
       <use xlink:href="#me0f77f5361" x="239.011299" y="281.295328" style="stroke: #000000; stroke-width: 0.8"/>
      </g>
     </g>
     <g id="text_5">
      <!-- $\mathdefault{2.0}$ -->
      <g transform="translate(231.532478 293.097507) scale(0.12 -0.12)">
       <defs>
        <path id="CMR17-32" d="M 2669 989 
L 2554 989 
C 2490 536 2438 459 2413 420 
C 2381 369 1920 369 1830 369 
L 602 369 
C 832 619 1280 1072 1824 1597 
C 2214 1967 2669 2402 2669 3035 
C 2669 3790 2067 4224 1395 4224 
C 691 4224 262 3604 262 3030 
C 262 2780 448 2748 525 2748 
C 589 2748 781 2787 781 3010 
C 781 3207 614 3264 525 3264 
C 486 3264 448 3258 422 3245 
C 544 3790 915 4058 1306 4058 
C 1862 4058 2227 3617 2227 3035 
C 2227 2479 1901 2000 1536 1584 
L 262 146 
L 262 0 
L 2515 0 
L 2669 989 
z
" transform="scale(0.015625)"/>
       </defs>
       <use xlink:href="#CMR17-32" transform="scale(0.996264)"/>
       <use xlink:href="#CMMI12-3a" transform="translate(45.690477 0) scale(0.996264)"/>
       <use xlink:href="#CMR17-30" transform="translate(72.787654 0) scale(0.996264)"/>
      </g>
     </g>
    </g>
    <g id="xtick_6">
     <g id="line2d_11">
      <path d="M 287.836299 281.295328 
L 287.836299 4.095328 
" clip-path="url(#p5660b8ebe3)" style="fill: none; stroke: #b0b0b0; stroke-width: 0.8; stroke-linecap: square"/>
     </g>
     <g id="line2d_12">
      <g>
       <use xlink:href="#me0f77f5361" x="287.836299" y="281.295328" style="stroke: #000000; stroke-width: 0.8"/>
      </g>
     </g>
     <g id="text_6">
      <!-- $\mathdefault{2.5}$ -->
      <g transform="translate(280.357478 293.097507) scale(0.12 -0.12)">
       <use xlink:href="#CMR17-32" transform="scale(0.996264)"/>
       <use xlink:href="#CMMI12-3a" transform="translate(45.690477 0) scale(0.996264)"/>
       <use xlink:href="#CMR17-35" transform="translate(72.787654 0) scale(0.996264)"/>
      </g>
     </g>
    </g>
    <g id="xtick_7">
     <g id="line2d_13">
      <path d="M 336.661299 281.295328 
L 336.661299 4.095328 
" clip-path="url(#p5660b8ebe3)" style="fill: none; stroke: #b0b0b0; stroke-width: 0.8; stroke-linecap: square"/>
     </g>
     <g id="line2d_14">
      <g>
       <use xlink:href="#me0f77f5361" x="336.661299" y="281.295328" style="stroke: #000000; stroke-width: 0.8"/>
      </g>
     </g>
     <g id="text_7">
      <!-- $\mathdefault{3.0}$ -->
      <g transform="translate(329.182478 293.097507) scale(0.12 -0.12)">
       <defs>
        <path id="CMR17-33" d="M 1414 2157 
C 1984 2157 2234 1662 2234 1090 
C 2234 320 1824 25 1453 25 
C 1114 25 563 194 390 693 
C 422 680 454 680 486 680 
C 640 680 755 782 755 948 
C 755 1133 614 1216 486 1216 
C 378 1216 211 1165 211 926 
C 211 335 787 -128 1466 -128 
C 2176 -128 2720 430 2720 1085 
C 2720 1707 2208 2157 1600 2227 
C 2086 2328 2554 2756 2554 3329 
C 2554 3820 2048 4179 1472 4179 
C 890 4179 378 3829 378 3329 
C 378 3110 544 3072 627 3072 
C 762 3072 877 3155 877 3321 
C 877 3486 762 3569 627 3569 
C 602 3569 570 3569 544 3557 
C 730 3959 1235 4032 1459 4032 
C 1683 4032 2106 3925 2106 3320 
C 2106 3143 2080 2828 1862 2550 
C 1670 2304 1453 2304 1242 2284 
C 1210 2284 1062 2269 1037 2269 
C 992 2263 966 2257 966 2208 
C 966 2163 973 2157 1101 2157 
L 1414 2157 
z
" transform="scale(0.015625)"/>
       </defs>
       <use xlink:href="#CMR17-33" transform="scale(0.996264)"/>
       <use xlink:href="#CMMI12-3a" transform="translate(45.690477 0) scale(0.996264)"/>
       <use xlink:href="#CMR17-30" transform="translate(72.787654 0) scale(0.996264)"/>
      </g>
     </g>
    </g>
    <g id="xtick_8">
     <g id="line2d_15">
      <path d="M 385.486299 281.295328 
L 385.486299 4.095328 
" clip-path="url(#p5660b8ebe3)" style="fill: none; stroke: #b0b0b0; stroke-width: 0.8; stroke-linecap: square"/>
     </g>
     <g id="line2d_16">
      <g>
       <use xlink:href="#me0f77f5361" x="385.486299" y="281.295328" style="stroke: #000000; stroke-width: 0.8"/>
      </g>
     </g>
     <g id="text_8">
      <!-- $\mathdefault{3.5}$ -->
      <g transform="translate(378.007478 293.097507) scale(0.12 -0.12)">
       <use xlink:href="#CMR17-33" transform="scale(0.996264)"/>
       <use xlink:href="#CMMI12-3a" transform="translate(45.690477 0) scale(0.996264)"/>
       <use xlink:href="#CMR17-35" transform="translate(72.787654 0) scale(0.996264)"/>
      </g>
     </g>
    </g>
    <g id="xtick_9">
     <g id="line2d_17">
      <path d="M 434.311299 281.295328 
L 434.311299 4.095328 
" clip-path="url(#p5660b8ebe3)" style="fill: none; stroke: #b0b0b0; stroke-width: 0.8; stroke-linecap: square"/>
     </g>
     <g id="line2d_18">
      <g>
       <use xlink:href="#me0f77f5361" x="434.311299" y="281.295328" style="stroke: #000000; stroke-width: 0.8"/>
      </g>
     </g>
     <g id="text_9">
      <!-- $\mathdefault{4.0}$ -->
      <g transform="translate(426.832478 293.097507) scale(0.12 -0.12)">
       <defs>
        <path id="CMR17-34" d="M 2150 4122 
C 2150 4256 2144 4256 2029 4256 
L 128 1254 
L 128 1088 
L 1779 1088 
L 1779 457 
C 1779 224 1766 160 1318 160 
L 1197 160 
L 1197 0 
C 1402 0 1747 0 1965 0 
C 2182 0 2528 0 2733 0 
L 2733 160 
L 2611 160 
C 2163 160 2150 224 2150 457 
L 2150 1088 
L 2803 1088 
L 2803 1254 
L 2150 1254 
L 2150 4122 
z
M 1798 3703 
L 1798 1254 
L 256 1254 
L 1798 3703 
z
" transform="scale(0.015625)"/>
       </defs>
       <use xlink:href="#CMR17-34" transform="scale(0.996264)"/>
       <use xlink:href="#CMMI12-3a" transform="translate(45.690477 0) scale(0.996264)"/>
       <use xlink:href="#CMR17-30" transform="translate(72.787654 0) scale(0.996264)"/>
      </g>
     </g>
    </g>
    <g id="text_10">
     <!-- $z$ -->
     <g transform="translate(236.292354 307.724283) scale(0.12 -0.12)">
      <defs>
       <path id="CMMI12-7a" d="M 813 486 
C 1088 803 1312 1004 1632 1296 
C 2016 1632 2182 1793 2272 1891 
C 2720 2338 2944 2713 2944 2764 
C 2944 2816 2893 2816 2880 2816 
C 2835 2816 2822 2793 2790 2750 
C 2630 2494 2477 2367 2310 2367 
C 2176 2367 2106 2421 1984 2565 
C 1850 2715 1741 2816 1555 2816 
C 1088 2816 806 2257 806 2128 
C 806 2108 813 2068 870 2068 
C 922 2068 928 2091 947 2133 
C 1056 2372 1363 2414 1485 2414 
C 1619 2414 1747 2376 1882 2327 
C 2125 2240 2227 2240 2291 2240 
C 2336 2240 2362 2240 2394 2246 
C 2182 1994 1837 1683 1549 1418 
L 902 816 
C 512 415 275 33 275 -12 
C 275 -51 307 -64 346 -64 
C 384 -64 390 -57 435 14 
C 538 163 742 384 979 384 
C 1114 384 1178 342 1306 193 
C 1427 61 1536 -64 1741 -64 
C 2368 -64 2726 732 2726 876 
C 2726 903 2720 942 2656 942 
C 2605 942 2598 917 2579 855 
C 2438 488 2061 338 1811 338 
C 1677 338 1549 376 1414 425 
C 1158 512 1088 512 1005 512 
C 941 512 870 512 813 486 
z
" transform="scale(0.015625)"/>
      </defs>
      <use xlink:href="#CMMI12-7a" transform="scale(0.996264)"/>
     </g>
    </g>
   </g>
   <g id="matplotlib.axis_2">
    <g id="ytick_1">
     <g id="line2d_19">
      <path d="M 43.711299 281.239565 
L 434.311299 281.239565 
" clip-path="url(#p5660b8ebe3)" style="fill: none; stroke: #b0b0b0; stroke-width: 0.8; stroke-linecap: square"/>
     </g>
     <g id="line2d_20">
      <defs>
       <path id="md330d4c42d" d="M 0 0 
L 3.5 0 
" style="stroke: #000000; stroke-width: 0.8"/>
      </defs>
      <g>
       <use xlink:href="#md330d4c42d" x="43.711299" y="281.239565" style="stroke: #000000; stroke-width: 0.8"/>
      </g>
     </g>
     <g id="text_11">
      <!-- $\mathdefault{−0.2}$ -->
      <g transform="translate(15.955168 285.390655) scale(0.12 -0.12)">
       <defs>
        <path id="CMSY10-0" d="M 4218 1472 
C 4326 1472 4442 1472 4442 1600 
C 4442 1728 4326 1728 4218 1728 
L 755 1728 
C 646 1728 531 1728 531 1600 
C 531 1472 646 1472 755 1472 
L 4218 1472 
z
" transform="scale(0.015625)"/>
       </defs>
       <use xlink:href="#CMSY10-0" transform="scale(0.996264)"/>
       <use xlink:href="#CMR17-30" transform="translate(77.487468 0) scale(0.996264)"/>
       <use xlink:href="#CMMI12-3a" transform="translate(123.177945 0) scale(0.996264)"/>
       <use xlink:href="#CMR17-32" transform="translate(150.275122 0) scale(0.996264)"/>
      </g>
     </g>
    </g>
    <g id="ytick_2">
     <g id="line2d_21">
      <path d="M 43.711299 241.655497 
L 434.311299 241.655497 
" clip-path="url(#p5660b8ebe3)" style="fill: none; stroke: #b0b0b0; stroke-width: 0.8; stroke-linecap: square"/>
     </g>
     <g id="line2d_22">
      <g>
       <use xlink:href="#md330d4c42d" x="43.711299" y="241.655497" style="stroke: #000000; stroke-width: 0.8"/>
      </g>
     </g>
     <g id="text_12">
      <!-- $\mathdefault{0.0}$ -->
      <g transform="translate(25.253658 245.806587) scale(0.12 -0.12)">
       <use xlink:href="#CMR17-30" transform="scale(0.996264)"/>
       <use xlink:href="#CMMI12-3a" transform="translate(45.690477 0) scale(0.996264)"/>
       <use xlink:href="#CMR17-30" transform="translate(72.787654 0) scale(0.996264)"/>
      </g>
     </g>
    </g>
    <g id="ytick_3">
     <g id="line2d_23">
      <path d="M 43.711299 202.07143 
L 434.311299 202.07143 
" clip-path="url(#p5660b8ebe3)" style="fill: none; stroke: #b0b0b0; stroke-width: 0.8; stroke-linecap: square"/>
     </g>
     <g id="line2d_24">
      <g>
       <use xlink:href="#md330d4c42d" x="43.711299" y="202.07143" style="stroke: #000000; stroke-width: 0.8"/>
      </g>
     </g>
     <g id="text_13">
      <!-- $\mathdefault{0.2}$ -->
      <g transform="translate(25.253658 206.222519) scale(0.12 -0.12)">
       <use xlink:href="#CMR17-30" transform="scale(0.996264)"/>
       <use xlink:href="#CMMI12-3a" transform="translate(45.690477 0) scale(0.996264)"/>
       <use xlink:href="#CMR17-32" transform="translate(72.787654 0) scale(0.996264)"/>
      </g>
     </g>
    </g>
    <g id="ytick_4">
     <g id="line2d_25">
      <path d="M 43.711299 162.487362 
L 434.311299 162.487362 
" clip-path="url(#p5660b8ebe3)" style="fill: none; stroke: #b0b0b0; stroke-width: 0.8; stroke-linecap: square"/>
     </g>
     <g id="line2d_26">
      <g>
       <use xlink:href="#md330d4c42d" x="43.711299" y="162.487362" style="stroke: #000000; stroke-width: 0.8"/>
      </g>
     </g>
     <g id="text_14">
      <!-- $\mathdefault{0.4}$ -->
      <g transform="translate(25.253658 166.638452) scale(0.12 -0.12)">
       <use xlink:href="#CMR17-30" transform="scale(0.996264)"/>
       <use xlink:href="#CMMI12-3a" transform="translate(45.690477 0) scale(0.996264)"/>
       <use xlink:href="#CMR17-34" transform="translate(72.787654 0) scale(0.996264)"/>
      </g>
     </g>
    </g>
    <g id="ytick_5">
     <g id="line2d_27">
      <path d="M 43.711299 122.903294 
L 434.311299 122.903294 
" clip-path="url(#p5660b8ebe3)" style="fill: none; stroke: #b0b0b0; stroke-width: 0.8; stroke-linecap: square"/>
     </g>
     <g id="line2d_28">
      <g>
       <use xlink:href="#md330d4c42d" x="43.711299" y="122.903294" style="stroke: #000000; stroke-width: 0.8"/>
      </g>
     </g>
     <g id="text_15">
      <!-- $\mathdefault{0.6}$ -->
      <g transform="translate(25.253658 127.054384) scale(0.12 -0.12)">
       <defs>
        <path id="CMR17-36" d="M 678 2176 
C 678 3690 1395 4032 1811 4032 
C 1946 4032 2272 4009 2400 3776 
C 2298 3776 2106 3776 2106 3553 
C 2106 3381 2246 3323 2336 3323 
C 2394 3323 2566 3348 2566 3560 
C 2566 3954 2246 4179 1805 4179 
C 1043 4179 243 3390 243 1984 
C 243 253 966 -128 1478 -128 
C 2099 -128 2688 427 2688 1283 
C 2688 2081 2170 2662 1517 2662 
C 1126 2662 838 2407 678 1960 
L 678 2176 
z
M 1478 25 
C 691 25 691 1200 691 1436 
C 691 1896 909 2560 1504 2560 
C 1613 2560 1926 2560 2138 2120 
C 2253 1870 2253 1609 2253 1289 
C 2253 944 2253 690 2118 434 
C 1978 171 1773 25 1478 25 
z
" transform="scale(0.015625)"/>
       </defs>
       <use xlink:href="#CMR17-30" transform="scale(0.996264)"/>
       <use xlink:href="#CMMI12-3a" transform="translate(45.690477 0) scale(0.996264)"/>
       <use xlink:href="#CMR17-36" transform="translate(72.787654 0) scale(0.996264)"/>
      </g>
     </g>
    </g>
    <g id="ytick_6">
     <g id="line2d_29">
      <path d="M 43.711299 83.319226 
L 434.311299 83.319226 
" clip-path="url(#p5660b8ebe3)" style="fill: none; stroke: #b0b0b0; stroke-width: 0.8; stroke-linecap: square"/>
     </g>
     <g id="line2d_30">
      <g>
       <use xlink:href="#md330d4c42d" x="43.711299" y="83.319226" style="stroke: #000000; stroke-width: 0.8"/>
      </g>
     </g>
     <g id="text_16">
      <!-- $\mathdefault{0.8}$ -->
      <g transform="translate(25.253658 87.470316) scale(0.12 -0.12)">
       <defs>
        <path id="CMR17-38" d="M 1741 2264 
C 2144 2467 2554 2773 2554 3263 
C 2554 3841 1990 4179 1472 4179 
C 890 4179 378 3759 378 3180 
C 378 3021 416 2747 666 2505 
C 730 2442 998 2251 1171 2130 
C 883 1983 211 1634 211 934 
C 211 279 838 -128 1459 -128 
C 2144 -128 2720 362 2720 1010 
C 2720 1590 2330 1857 2074 2029 
L 1741 2264 
z
M 902 2822 
C 851 2854 595 3051 595 3351 
C 595 3739 998 4032 1459 4032 
C 1965 4032 2336 3676 2336 3262 
C 2336 2669 1670 2331 1638 2331 
C 1632 2331 1626 2331 1574 2370 
L 902 2822 
z
M 2080 1519 
C 2176 1449 2483 1240 2483 851 
C 2483 381 2010 25 1472 25 
C 890 25 448 438 448 940 
C 448 1443 838 1862 1280 2060 
L 2080 1519 
z
" transform="scale(0.015625)"/>
       </defs>
       <use xlink:href="#CMR17-30" transform="scale(0.996264)"/>
       <use xlink:href="#CMMI12-3a" transform="translate(45.690477 0) scale(0.996264)"/>
       <use xlink:href="#CMR17-38" transform="translate(72.787654 0) scale(0.996264)"/>
      </g>
     </g>
    </g>
    <g id="ytick_7">
     <g id="line2d_31">
      <path d="M 43.711299 43.735158 
L 434.311299 43.735158 
" clip-path="url(#p5660b8ebe3)" style="fill: none; stroke: #b0b0b0; stroke-width: 0.8; stroke-linecap: square"/>
     </g>
     <g id="line2d_32">
      <g>
       <use xlink:href="#md330d4c42d" x="43.711299" y="43.735158" style="stroke: #000000; stroke-width: 0.8"/>
      </g>
     </g>
     <g id="text_17">
      <!-- $\mathdefault{1.0}$ -->
      <g transform="translate(25.253658 47.886248) scale(0.12 -0.12)">
       <use xlink:href="#CMR17-31" transform="scale(0.996264)"/>
       <use xlink:href="#CMMI12-3a" transform="translate(45.690477 0) scale(0.996264)"/>
       <use xlink:href="#CMR17-30" transform="translate(72.787654 0) scale(0.996264)"/>
      </g>
     </g>
    </g>
    <g id="ytick_8">
     <g id="line2d_33">
      <path d="M 43.711299 4.15109 
L 434.311299 4.15109 
" clip-path="url(#p5660b8ebe3)" style="fill: none; stroke: #b0b0b0; stroke-width: 0.8; stroke-linecap: square"/>
     </g>
     <g id="line2d_34">
      <g>
       <use xlink:href="#md330d4c42d" x="43.711299" y="4.15109" style="stroke: #000000; stroke-width: 0.8"/>
      </g>
     </g>
     <g id="text_18">
      <!-- $\mathdefault{1.2}$ -->
      <g transform="translate(25.253658 8.30218) scale(0.12 -0.12)">
       <use xlink:href="#CMR17-31" transform="scale(0.996264)"/>
       <use xlink:href="#CMMI12-3a" transform="translate(45.690477 0) scale(0.996264)"/>
       <use xlink:href="#CMR17-32" transform="translate(72.787654 0) scale(0.996264)"/>
      </g>
     </g>
    </g>
    <g id="text_19">
     <!-- $S(z)$ -->
     <g transform="translate(8.966376 154.180616) rotate(-90) scale(0.12 -0.12)">
      <defs>
       <path id="CMMI12-53" d="M 4064 4423 
C 4064 4480 4019 4480 4006 4480 
C 3981 4480 3974 4474 3898 4378 
C 3859 4333 3597 4001 3590 3995 
C 3379 4410 2957 4480 2688 4480 
C 1875 4480 1139 3743 1139 3025 
C 1139 2549 1427 2269 1741 2161 
C 1811 2135 2189 2033 2381 1989 
C 2707 1900 2790 1875 2925 1735 
C 2950 1703 3078 1557 3078 1258 
C 3078 667 2528 57 1888 57 
C 1363 57 781 280 781 991 
C 781 1112 806 1265 826 1328 
C 826 1348 832 1378 832 1391 
C 832 1417 819 1449 768 1449 
C 710 1449 704 1436 678 1328 
L 352 24 
C 352 18 326 -64 326 -71 
C 326 -128 378 -128 390 -128 
C 416 -128 422 -122 499 -26 
L 794 356 
C 947 126 1280 -128 1875 -128 
C 2701 -128 3456 666 3456 1460 
C 3456 1728 3392 1963 3149 2197 
C 3014 2331 2899 2363 2310 2516 
C 1882 2630 1824 2649 1709 2751 
C 1600 2858 1517 3011 1517 3227 
C 1517 3761 2061 4308 2669 4308 
C 3296 4308 3590 3926 3590 3323 
C 3590 3158 3558 2986 3558 2961 
C 3558 2903 3610 2903 3629 2903 
C 3686 2903 3693 2922 3718 3024 
L 4064 4423 
z
" transform="scale(0.015625)"/>
       <path id="CMR17-28" d="M 1958 -1561 
C 1958 -1555 1958 -1542 1939 -1523 
C 1645 -1224 858 -407 858 1581 
C 858 3569 1632 4379 1946 4697 
C 1946 4704 1958 4717 1958 4736 
C 1958 4755 1939 4768 1914 4768 
C 1843 4768 1299 4296 986 3594 
C 666 2887 576 2199 576 1588 
C 576 1128 621 351 1005 -471 
C 1312 -1135 1837 -1600 1914 -1600 
C 1946 -1600 1958 -1587 1958 -1561 
z
" transform="scale(0.015625)"/>
       <path id="CMR17-29" d="M 1683 1581 
C 1683 2040 1638 2817 1254 3639 
C 947 4303 422 4768 346 4768 
C 326 4768 301 4761 301 4729 
C 301 4717 307 4710 314 4697 
C 621 4378 1402 3568 1402 1584 
C 1402 -407 627 -1217 314 -1537 
C 307 -1549 301 -1556 301 -1568 
C 301 -1600 326 -1600 346 -1600 
C 416 -1600 960 -1128 1274 -426 
C 1594 281 1683 969 1683 1581 
z
" transform="scale(0.015625)"/>
      </defs>
      <use xlink:href="#CMMI12-53" transform="scale(0.996264)"/>
      <use xlink:href="#CMR17-28" transform="translate(65.794439 0) scale(0.996264)"/>
      <use xlink:href="#CMMI12-7a" transform="translate(101.075207 0) scale(0.996264)"/>
      <use xlink:href="#CMR17-29" transform="translate(150.830352 0) scale(0.996264)"/>
     </g>
    </g>
   </g>
   <g id="line2d_35">
    <path d="M 43.711299 142.695328 
L 434.311299 142.695328 
L 434.311299 142.695328 
" clip-path="url(#p5660b8ebe3)" style="fill: none; stroke: #1f77b4; stroke-width: 1.5; stroke-linecap: square"/>
   </g>
   <g id="line2d_36">
    <path d="M 43.711299 142.695328 
L 52.42255 107.843264 
L 57.032091 90.335031 
L 60.82129 76.787107 
L 64.141722 65.712945 
L 67.149643 56.435465 
L 69.884117 48.699676 
L 72.42327 42.16621 
L 74.767105 36.729497 
L 76.954684 32.198016 
L 78.986007 28.479641 
L 80.900138 25.421771 
L 82.697078 22.95552 
L 84.376826 21.011756 
L 85.978446 19.489205 
L 87.501938 18.34438 
L 88.947303 17.534321 
L 90.31454 17.017066 
L 91.642712 16.74739 
L 92.970885 16.707641 
L 94.259994 16.889015 
L 95.588167 17.302172 
L 96.955404 17.966581 
L 98.361704 18.901687 
L 99.846133 20.163559 
L 101.408689 21.793636 
L 103.049373 23.833894 
L 104.807249 26.387124 
L 106.682316 29.520263 
L 108.674576 33.300066 
L 110.784027 37.791525 
L 113.049733 43.153025 
L 115.471695 49.468112 
L 118.088977 56.927252 
L 120.940642 65.744289 
L 124.065755 76.147222 
L 127.581506 88.648427 
L 131.683216 104.094427 
L 136.878716 124.587343 
L 152.855854 188.235663 
L 156.9185 203.158863 
L 160.434252 215.249436 
L 163.559364 225.222739 
L 166.411029 233.598474 
L 169.028311 240.614474 
L 171.450273 246.489801 
L 173.71598 251.416498 
L 175.825431 255.484866 
L 177.778626 258.789246 
L 179.61463 261.477735 
L 181.333442 263.61929 
L 182.974126 265.318735 
L 184.536682 266.619757 
L 185.982046 267.544499 
L 187.388347 268.185197 
L 188.755584 268.561877 
L 190.083757 268.694644 
L 191.372865 268.603533 
L 192.701038 268.283189 
L 194.029211 267.733577 
L 195.435512 266.90286 
L 196.880876 265.784192 
L 198.404369 264.317044 
L 200.005989 262.459758 
L 201.724801 260.113069 
L 203.52174 257.276047 
L 205.435872 253.83315 
L 207.506259 249.635312 
L 209.693838 244.684963 
L 212.037672 238.821362 
L 214.576826 231.853745 
L 217.311299 223.686567 
L 220.31922 213.981745 
L 223.639652 202.497879 
L 227.428851 188.567687 
L 231.999328 170.879057 
L 238.757384 143.724605 
L 247.742082 107.767184 
L 252.351623 90.263025 
L 256.140822 76.71964 
L 259.461254 65.650281 
L 262.469175 56.37777 
L 265.203649 48.646968 
L 267.742802 42.118498 
L 270.086637 36.686681 
L 272.274216 32.159989 
L 274.305539 28.44623 
L 276.21967 25.392841 
L 278.01661 22.930897 
L 279.696358 20.991234 
L 281.297978 19.472649 
L 282.82147 18.331637 
L 284.266835 17.525224 
L 285.634072 17.011436 
L 286.962244 16.745139 
L 288.290417 16.708773 
L 289.579526 16.893428 
L 290.907699 17.309958 
L 292.274936 17.977824 
L 293.681236 18.916463 
L 295.165665 20.182032 
L 296.728221 21.815955 
L 298.368905 23.860189 
L 300.126781 26.417598 
L 302.001848 29.555088 
L 303.994108 33.339373 
L 306.103559 37.835403 
L 308.369265 43.201586 
L 310.791227 49.521394 
L 313.408509 56.985271 
L 316.260174 65.807 
L 319.385287 76.214467 
L 322.901038 88.71996 
L 327.002748 104.169803 
L 332.198248 124.665701 
L 348.136322 188.161831 
L 352.198968 203.089387 
L 355.71472 215.18469 
L 358.839832 225.162894 
L 361.691497 233.543629 
L 364.308779 240.564627 
L 366.730741 246.444893 
L 368.996448 251.376458 
L 371.105899 255.44955 
L 373.098158 258.819996 
L 374.934162 261.504124 
L 376.652973 263.641513 
L 378.293658 265.336918 
L 379.81715 266.60542 
L 381.262514 267.533798 
L 382.668815 268.178054 
L 384.036052 268.558209 
L 385.364225 268.694357 
L 386.653334 268.606529 
L 387.981506 268.289563 
L 389.309679 267.743316 
L 390.71598 266.916143 
L 392.161344 265.801089 
L 393.684837 264.33771 
L 395.286457 262.484333 
L 397.005269 260.141767 
L 398.802208 257.30896 
L 400.71634 253.870433 
L 402.786727 249.677161 
L 404.974306 244.731435 
L 407.31814 238.872531 
L 409.857294 231.909674 
L 412.591767 223.747204 
L 415.599688 214.047016 
L 418.92012 202.567557 
L 422.709319 188.641421 
L 427.279796 170.956222 
L 434.037852 143.803778 
L 434.311299 142.695328 
L 434.311299 142.695328 
" clip-path="url(#p5660b8ebe3)" style="fill: none; stroke: #ff7f0e; stroke-width: 1.5; stroke-linecap: square"/>
   </g>
   <g id="line2d_37">
    <path d="M 43.711299 142.695328 
L 48.789607 102.429632 
L 51.445953 83.142564 
L 53.633532 68.804092 
L 55.547663 57.661313 
L 57.266475 48.911146 
L 58.829031 42.062448 
L 60.274396 36.702897 
L 61.563505 32.727569 
L 62.774486 29.685193 
L 63.868275 27.507074 
L 64.883937 25.958903 
L 65.82147 24.924039 
L 66.680876 24.296772 
L 67.501218 23.973812 
L 68.282496 23.906016 
L 69.063775 24.060973 
L 69.884117 24.450284 
L 70.782586 25.125547 
L 71.798248 26.176438 
L 72.970165 27.727409 
L 74.337402 29.927909 
L 76.01715 33.084728 
L 78.32192 37.940461 
L 83.51742 49.029963 
L 85.353424 52.349624 
L 86.876916 54.666806 
L 88.205089 56.299983 
L 89.377006 57.408164 
L 90.431731 58.120559 
L 91.408329 58.529635 
L 92.345863 58.690597 
L 93.283397 58.622581 
L 94.22093 58.326389 
L 95.197528 57.779031 
L 96.252253 56.922281 
L 97.385107 55.709385 
L 98.674216 53.987146 
L 100.11958 51.670431 
L 101.838392 48.475592 
L 104.104099 43.752469 
L 109.885557 31.471311 
L 111.565305 28.545936 
L 112.932541 26.593398 
L 114.104459 25.29559 
L 115.12012 24.492754 
L 116.01859 24.05771 
L 116.838932 23.903608 
L 117.62021 23.985703 
L 118.401488 24.302217 
L 119.182766 24.863043 
L 120.042172 25.772573 
L 120.940642 27.06172 
L 121.91724 28.865856 
L 122.971965 31.295685 
L 124.143883 34.589981 
L 125.393928 38.796859 
L 126.761164 44.211224 
L 128.245593 51.029777 
L 129.886277 59.65587 
L 131.72228 70.569159 
L 133.792667 84.29293 
L 136.21463 101.912197 
L 139.41787 126.990539 
L 147.308779 189.464326 
L 149.808869 207.092807 
L 151.91832 220.436736 
L 153.754324 230.698413 
L 155.434072 238.867484 
L 156.957564 245.207657 
L 158.324801 250.004018 
L 159.61391 253.742991 
L 160.785827 256.484372 
L 161.840552 258.423741 
L 162.81715 259.783696 
L 163.71562 260.67557 
L 164.535962 261.199436 
L 165.31724 261.450452 
L 166.098518 261.469958 
L 166.879796 261.269178 
L 167.739202 260.808467 
L 168.676736 260.039273 
L 169.731461 258.870887 
L 170.942442 257.179677 
L 172.387807 254.750357 
L 174.184747 251.256197 
L 176.880156 245.454654 
L 180.747483 237.186153 
L 182.661614 233.619146 
L 184.224171 231.148489 
L 185.591407 229.38403 
L 186.802388 228.169582 
L 187.896178 227.375292 
L 188.911839 226.906769 
L 189.849373 226.710131 
L 190.786907 226.742354 
L 191.724441 227.003056 
L 192.701038 227.514222 
L 193.755764 228.333308 
L 194.888617 229.508035 
L 196.138662 231.134501 
L 197.584027 233.402104 
L 199.263775 236.474573 
L 201.412289 240.900143 
L 207.896898 254.590318 
L 209.498518 257.284172 
L 210.826691 259.098199 
L 211.959544 260.282416 
L 212.936142 260.99842 
L 213.795548 261.372365 
L 214.61589 261.489214 
L 215.397168 261.369744 
L 216.178446 261.014174 
L 216.959724 260.412787 
L 217.81913 259.457129 
L 218.7176 258.118337 
L 219.694198 256.258952 
L 220.787987 253.666457 
L 221.959904 250.283127 
L 223.249013 245.835504 
L 224.61625 240.294969 
L 226.139742 233.148182 
L 227.81949 224.135195 
L 229.655494 213.028077 
L 231.764945 198.84178 
L 234.265035 180.434335 
L 237.663595 153.604519 
L 244.460714 99.632545 
L 247.038932 81.13262 
L 249.187447 67.246211 
L 251.062514 56.500329 
L 252.781326 47.905728 
L 254.304819 41.360027 
L 255.711119 36.245192 
L 257.000228 32.350582 
L 258.172145 29.468868 
L 259.265935 27.338548 
L 260.281596 25.833659 
L 261.180066 24.871638 
L 262.039472 24.264904 
L 262.82075 23.969312 
L 263.602028 23.907223 
L 264.383307 24.0676 
L 265.203649 24.462265 
L 266.102118 25.142968 
L 267.11778 26.199439 
L 268.289697 27.756054 
L 269.656934 29.962005 
L 271.336682 33.12378 
L 273.641452 37.983125 
L 278.797888 48.992051 
L 280.633892 52.317127 
L 282.157384 54.639974 
L 283.485557 56.278794 
L 284.657474 57.392381 
L 285.751263 58.131126 
L 286.727861 58.535315 
L 287.665395 58.691518 
L 288.602928 58.61873 
L 289.540462 58.317813 
L 290.51706 57.765641 
L 291.571785 56.903887 
L 292.704639 55.685928 
L 293.993748 53.958434 
L 295.439112 51.636613 
L 297.157924 48.437 
L 299.423631 43.710105 
L 305.166025 31.508157 
L 306.845773 28.576871 
L 308.213009 26.618136 
L 309.384927 25.314077 
L 310.400588 24.505164 
L 311.299058 24.06427 
L 312.1194 23.904467 
L 312.900678 23.980837 
L 313.681956 24.291365 
L 314.463234 24.845972 
L 315.32264 25.748424 
L 316.22111 27.02995 
L 317.197708 28.8256 
L 318.252433 31.246099 
L 319.424351 34.529923 
L 320.674396 38.725638 
L 322.041632 44.127964 
L 323.526061 50.933856 
L 325.166745 59.546722 
L 326.963685 70.201626 
L 328.995008 83.615258 
L 331.41697 101.174693 
L 334.581146 125.893654 
L 342.745503 190.471612 
L 345.206529 207.744056 
L 347.276916 220.784581 
L 349.112919 231.003525 
L 350.792667 239.130433 
L 352.31616 245.430678 
L 353.683397 250.190484 
L 354.933442 253.793796 
L 356.105359 256.524799 
L 357.160084 258.455008 
L 358.136682 259.806703 
L 359.035152 260.691222 
L 359.855494 261.208616 
L 360.636772 261.453717 
L 361.41805 261.467574 
L 362.199328 261.26144 
L 363.058734 260.795205 
L 363.996268 260.020454 
L 365.050993 258.846441 
L 366.261974 257.149635 
L 367.707339 254.714903 
L 369.504279 251.216012 
L 372.199688 245.411573 
L 376.067015 237.147292 
L 377.981146 233.58558 
L 379.543703 231.120533 
L 380.910939 229.361761 
L 382.12192 228.152829 
L 383.21571 227.36381 
L 384.231371 226.900349 
L 385.168905 226.708465 
L 386.106439 226.745461 
L 387.043973 227.010899 
L 388.02057 227.5269 
L 389.075296 228.351022 
L 390.208149 229.530858 
L 391.458194 231.162495 
L 392.903559 233.435319 
L 394.583307 236.51263 
L 396.770885 241.026192 
L 403.138302 254.482921 
L 404.739922 257.194667 
L 406.068095 259.027384 
L 407.200948 260.230154 
L 408.177546 260.963962 
L 409.076016 261.366665 
L 409.896358 261.489267 
L 410.677636 261.375566 
L 411.458914 261.026021 
L 412.240192 260.430889 
L 413.099598 259.482342 
L 413.998068 258.151199 
L 414.974666 256.300324 
L 416.029391 253.819133 
L 417.201308 250.467233 
L 418.451353 246.19898 
L 419.81859 240.718471 
L 421.303018 233.830412 
L 422.943703 225.131767 
L 424.779706 214.144539 
L 426.850093 200.349065 
L 429.311119 182.368495 
L 432.592487 156.594849 
L 434.311299 142.695328 
L 434.311299 142.695328 
" clip-path="url(#p5660b8ebe3)" style="fill: none; stroke: #2ca02c; stroke-width: 1.5; stroke-linecap: square"/>
   </g>
   <g id="line2d_38">
    <path d="M 43.711299 142.695328 
L 47.539562 97.492119 
L 49.531821 76.570481 
L 51.172505 61.552302 
L 52.61787 50.303833 
L 53.867915 42.215197 
L 55.000768 36.25423 
L 56.01643 32.027144 
L 56.9149 29.157169 
L 57.735242 27.229568 
L 58.438392 26.083582 
L 59.063415 25.439599 
L 59.649373 25.140289 
L 60.196268 25.112439 
L 60.743162 25.312984 
L 61.368185 25.802349 
L 62.071335 26.655693 
L 62.930741 28.082765 
L 63.985467 30.314757 
L 65.352703 33.790264 
L 67.696538 40.488654 
L 70.040372 46.935504 
L 71.485737 50.27228 
L 72.657654 52.441438 
L 73.634252 53.819979 
L 74.493658 54.684753 
L 75.274936 55.178095 
L 76.01715 55.386463 
L 76.7203 55.352673 
L 77.423451 55.10036 
L 78.204729 54.575706 
L 79.064135 53.72261 
L 80.079796 52.382148 
L 81.290777 50.393492 
L 82.892397 47.302986 
L 87.61913 37.90748 
L 88.908239 35.975055 
L 89.962964 34.766489 
L 90.900498 34.014804 
L 91.72084 33.625163 
L 92.502118 33.495555 
L 93.244333 33.593254 
L 94.025611 33.926491 
L 94.845953 34.52311 
L 95.783487 35.496752 
L 96.838212 36.928404 
L 98.127321 39.083109 
L 99.846133 42.441501 
L 104.104099 50.958416 
L 105.393207 52.950308 
L 106.447933 54.193347 
L 107.346403 54.926748 
L 108.127681 55.295427 
L 108.869895 55.39919 
L 109.573045 55.267864 
L 110.276196 54.909275 
L 111.057474 54.244397 
L 111.91688 53.195734 
L 112.893478 51.620219 
L 113.987267 49.414602 
L 115.31544 46.211133 
L 117.151443 41.137867 
L 120.667195 31.323542 
L 121.956304 28.44019 
L 122.932901 26.75449 
L 123.753243 25.754636 
L 124.41733 25.265966 
L 125.003289 25.098014 
L 125.550183 25.180944 
L 126.097078 25.50951 
L 126.683036 26.14851 
L 127.308059 27.17264 
L 128.011209 28.765149 
L 128.792487 31.101124 
L 129.690957 34.545614 
L 130.667555 39.225006 
L 131.761344 45.623735 
L 132.972325 54.104879 
L 134.339562 65.35261 
L 135.902118 80.166245 
L 137.777186 100.220737 
L 140.31634 130.015466 
L 145.511839 191.451285 
L 147.465035 211.569552 
L 149.066655 225.875194 
L 150.472955 236.520695 
L 151.723 244.351946 
L 152.81679 249.89948 
L 153.832451 253.954732 
L 154.730921 256.676189 
L 155.512199 258.401942 
L 156.21535 259.465845 
L 156.840372 260.040357 
L 157.387267 260.270843 
L 157.934162 260.261005 
L 158.481056 260.025143 
L 159.106079 259.498517 
L 159.848293 258.549359 
L 160.707699 257.065092 
L 161.762424 254.777291 
L 163.168725 251.146246 
L 166.02039 242.966402 
L 167.973586 237.751666 
L 169.340822 234.701005 
L 170.473676 232.686176 
L 171.450273 231.377691 
L 172.309679 230.577564 
L 173.090957 230.143969 
L 173.794108 229.993796 
L 174.497258 230.067613 
L 175.239472 230.380764 
L 176.02075 230.958008 
L 176.91922 231.911276 
L 177.973946 233.37836 
L 179.263054 235.584352 
L 181.059994 239.154309 
L 184.771065 246.623683 
L 186.138302 248.836883 
L 187.271155 250.272792 
L 188.247753 251.168024 
L 189.107159 251.668273 
L 189.888437 251.877977 
L 190.630651 251.856725 
L 191.411929 251.602727 
L 192.232271 251.086172 
L 193.130741 250.240829 
L 194.146403 248.962306 
L 195.357384 247.05196 
L 196.880876 244.197205 
L 202.467015 233.273084 
L 203.599868 231.736048 
L 204.576466 230.767036 
L 205.396808 230.242511 
L 206.139022 230.01405 
L 206.842172 230.023599 
L 207.545323 230.258845 
L 208.287537 230.754215 
L 209.107879 231.594187 
L 210.006349 232.85507 
L 211.02201 234.681513 
L 212.232991 237.349672 
L 213.756484 241.298048 
L 216.764405 249.920546 
L 218.561344 254.660931 
L 219.772325 257.271039 
L 220.709859 258.817496 
L 221.491137 259.71795 
L 222.155224 260.166134 
L 222.741182 260.29532 
L 223.288077 260.173818 
L 223.834972 259.80456 
L 224.42093 259.119834 
L 225.085017 257.965468 
L 225.827231 256.179626 
L 226.647573 253.575355 
L 227.546043 249.943486 
L 228.561704 244.843018 
L 229.655494 238.173506 
L 230.905539 229.097317 
L 232.311839 217.144735 
L 233.91346 201.534484 
L 235.866655 180.184097 
L 238.71832 146.257635 
L 242.859094 97.27518 
L 244.851353 76.378892 
L 246.492037 61.387374 
L 247.898338 50.442545 
L 249.148383 42.329478 
L 250.281236 36.345859 
L 251.296898 32.098531 
L 252.195368 29.211029 
L 253.01571 27.26797 
L 253.757924 26.058214 
L 254.382946 25.424965 
L 254.968905 25.135199 
L 255.5158 25.115756 
L 256.062694 25.324183 
L 256.687717 25.821869 
L 257.390867 26.683647 
L 258.250273 28.119617 
L 259.304999 30.360321 
L 260.672235 33.843408 
L 263.055134 40.658302 
L 265.32084 46.886198 
L 266.766205 50.23174 
L 267.938122 52.40974 
L 268.953784 53.843319 
L 269.813189 54.700508 
L 270.594468 55.186824 
L 271.336682 55.388539 
L 272.039832 55.348578 
L 272.782046 55.069753 
L 273.563325 54.526442 
L 274.461794 53.608606 
L 275.477456 52.236263 
L 276.727501 50.146964 
L 278.407249 46.862773 
L 282.665215 38.338696 
L 283.993388 36.264615 
L 285.087177 34.942208 
L 286.024711 34.131351 
L 286.884117 33.67223 
L 287.665395 33.50104 
L 288.407609 33.559117 
L 289.188887 33.851355 
L 290.009229 34.406624 
L 290.907699 35.29164 
L 291.962424 36.667117 
L 293.212469 38.697586 
L 294.81409 41.763117 
L 299.736142 51.514732 
L 300.947123 53.284395 
L 301.962784 54.397433 
L 302.82219 55.032218 
L 303.603469 55.342118 
L 304.306619 55.391328 
L 305.009769 55.215991 
L 305.751983 54.784032 
L 306.533261 54.056584 
L 307.392667 52.941494 
L 308.369265 51.295707 
L 309.502118 48.932116 
L 310.908419 45.441699 
L 312.939742 39.723431 
L 315.791407 31.762827 
L 317.11958 28.713794 
L 318.135242 26.900245 
L 318.955584 25.851615 
L 319.658734 25.296696 
L 320.244693 25.10313 
L 320.791587 25.160545 
L 321.338482 25.462164 
L 321.924441 26.070855 
L 322.549463 27.061209 
L 323.252613 28.614216 
L 324.033892 30.904846 
L 324.893298 34.131426 
L 325.869895 38.713048 
L 326.963685 45.003107 
L 328.174666 53.367921 
L 329.502838 64.152105 
L 331.026331 78.404892 
L 332.862334 97.817908 
L 335.284297 126.013369 
L 341.065755 194.208665 
L 342.940822 213.244529 
L 344.503379 226.992104 
L 345.870615 237.188914 
L 347.12066 244.897094 
L 348.21445 250.33514 
L 349.191047 254.156762 
L 350.089517 256.826006 
L 350.870795 258.508007 
L 351.573946 259.534261 
L 352.198968 260.076954 
L 352.745863 260.281041 
L 353.292757 260.246283 
L 353.839652 259.987096 
L 354.464675 259.435896 
L 355.206889 258.460615 
L 356.105359 256.873163 
L 357.199148 254.449428 
L 358.644513 250.659769 
L 363.996268 236.062653 
L 365.246313 233.560821 
L 366.301038 231.928041 
L 367.199508 230.917553 
L 368.01985 230.314839 
L 368.762064 230.036504 
L 369.465215 230.005205 
L 370.168365 230.194642 
L 370.910579 230.624313 
L 371.769985 231.397846 
L 372.746583 232.601522 
L 373.9185 234.432239 
L 375.402928 237.201959 
L 381.145323 248.403031 
L 382.31724 249.986308 
L 383.332901 251.000125 
L 384.231371 251.588634 
L 385.012649 251.85147 
L 385.754864 251.881222 
L 386.497078 251.696048 
L 387.278356 251.27282 
L 388.137762 250.547385 
L 389.11436 249.4156 
L 390.247213 247.740932 
L 391.653514 245.230223 
L 393.762964 240.933582 
L 396.575566 235.279226 
L 397.981866 232.950936 
L 399.075656 231.535682 
L 400.013189 230.660536 
L 400.833532 230.182445 
L 401.575746 229.998448 
L 402.278896 230.05155 
L 402.982046 230.331034 
L 403.724261 230.873047 
L 404.544603 231.76348 
L 405.443072 233.076951 
L 406.497798 235.037703 
L 407.747843 237.871391 
L 409.349463 242.112156 
L 414.310579 255.698831 
L 415.404369 257.871859 
L 416.302838 259.19965 
L 417.045053 259.925531 
L 417.670075 260.243578 
L 418.21697 260.282473 
L 418.724801 260.105239 
L 419.271695 259.672042 
L 419.857654 258.915577 
L 420.52174 257.676383 
L 421.263955 255.792083 
L 422.084297 253.075649 
L 423.02183 249.136426 
L 424.037492 243.852987 
L 425.170345 236.722152 
L 426.42039 227.38683 
L 427.826691 215.167342 
L 429.467375 198.887925 
L 431.498698 176.359307 
L 434.311299 142.695328 
L 434.311299 142.695328 
" clip-path="url(#p5660b8ebe3)" style="fill: none; stroke: #d62728; stroke-width: 1.5; stroke-linecap: square"/>
   </g>
   <g id="line2d_39">
    <path d="M 43.711299 142.695328 
L 46.836412 93.782259 
L 48.477096 71.507803 
L 49.805269 56.268017 
L 50.977186 45.25892 
L 51.992847 37.699628 
L 52.891317 32.575294 
L 53.672595 29.294935 
L 54.375746 27.244393 
L 54.961704 26.156399 
L 55.469535 25.644122 
L 55.899238 25.504436 
L 56.289877 25.596843 
L 56.71958 25.923824 
L 57.266475 26.653119 
L 57.930561 27.956113 
L 58.750903 30.091313 
L 59.844693 33.601599 
L 61.993207 41.450402 
L 63.712019 47.303288 
L 64.844873 50.418802 
L 65.782406 52.379849 
L 66.563685 53.531277 
L 67.227771 54.147709 
L 67.81373 54.412717 
L 68.360624 54.427822 
L 68.907519 54.226291 
L 69.532541 53.745111 
L 70.235692 52.910496 
L 71.095098 51.523972 
L 72.188887 49.303141 
L 73.946763 45.136303 
L 76.134342 40.07152 
L 77.306259 37.899945 
L 78.243793 36.596533 
L 79.025071 35.855077 
L 79.728221 35.47561 
L 80.353243 35.373152 
L 80.978266 35.490688 
L 81.642352 35.849267 
L 82.384567 36.517665 
L 83.243973 37.607608 
L 84.298698 39.325564 
L 85.82219 42.289393 
L 88.712919 47.967407 
L 89.845773 49.678099 
L 90.744243 50.671747 
L 91.525521 51.230274 
L 92.228671 51.470655 
L 92.892757 51.462207 
L 93.556844 51.225156 
L 94.259994 50.732415 
L 95.080336 49.863966 
L 96.01787 48.53061 
L 97.228851 46.389056 
L 99.41643 41.950196 
L 101.135242 38.696702 
L 102.229031 37.060697 
L 103.127501 36.089108 
L 103.869715 35.585576 
L 104.533802 35.385277 
L 105.158824 35.422059 
L 105.783847 35.680219 
L 106.486997 36.231752 
L 107.268275 37.154164 
L 108.166745 38.580633 
L 109.299598 40.839224 
L 110.940282 44.68272 
L 113.401308 50.407385 
L 114.495098 52.403468 
L 115.354504 53.553696 
L 116.057654 54.162144 
L 116.682676 54.422434 
L 117.229571 54.419157 
L 117.776466 54.192066 
L 118.362424 53.69614 
L 119.026511 52.819143 
L 119.768725 51.454715 
L 120.667195 49.299213 
L 121.760984 46.038578 
L 123.284477 40.697991 
L 126.058014 30.878859 
L 127.073676 28.113509 
L 127.854954 26.574654 
L 128.479976 25.803656 
L 128.948743 25.532904 
L 129.378446 25.538612 
L 129.769085 25.769135 
L 130.198788 26.284919 
L 130.706619 27.267212 
L 131.292577 28.927372 
L 131.956664 31.521629 
L 132.698878 35.348612 
L 133.558284 41.027957 
L 134.534882 49.105664 
L 135.628671 60.13614 
L 136.878716 75.103177 
L 138.402208 96.211328 
L 140.472595 128.326453 
L 144.769625 195.685606 
L 146.371245 216.88928 
L 147.660354 231.220968 
L 148.793207 241.495113 
L 149.769805 248.504038 
L 150.668275 253.421979 
L 151.449553 256.527981 
L 152.11364 258.344614 
L 152.699598 259.350822 
L 153.168365 259.775634 
L 153.598068 259.885814 
L 154.027771 259.745594 
L 154.496538 259.327605 
L 155.043433 258.521897 
L 155.746583 257.045346 
L 156.645053 254.571594 
L 157.856034 250.516531 
L 161.801488 236.791447 
L 162.856214 234.144454 
L 163.71562 232.541006 
L 164.457834 231.593672 
L 165.082856 231.120558 
L 165.668815 230.94633 
L 166.21571 231.013541 
L 166.801668 231.321477 
L 167.465755 231.94622 
L 168.247033 233.01801 
L 169.184567 234.706588 
L 170.473676 237.539913 
L 174.41913 246.562208 
L 175.473856 248.263326 
L 176.333261 249.251696 
L 177.075476 249.785775 
L 177.739562 250.001297 
L 178.364585 249.976084 
L 179.028671 249.71185 
L 179.731821 249.178209 
L 180.552163 248.254023 
L 181.528761 246.792269 
L 182.81787 244.421195 
L 186.958644 236.466666 
L 187.974306 235.139003 
L 188.833712 234.367937 
L 189.575926 233.992312 
L 190.240012 233.896081 
L 190.904099 234.029353 
L 191.607249 234.416395 
L 192.388527 235.128327 
L 193.286997 236.27855 
L 194.380786 238.07395 
L 195.943343 241.127822 
L 198.71688 246.57791 
L 199.849733 248.292172 
L 200.748203 249.275893 
L 201.490417 249.79069 
L 202.154504 250.001696 
L 202.779526 249.975265 
L 203.404549 249.727465 
L 204.068635 249.224398 
L 204.849913 248.329593 
L 205.748383 246.931069 
L 206.842172 244.783728 
L 208.404729 241.160226 
L 211.100138 234.883674 
L 212.193928 232.910985 
L 213.053334 231.784515 
L 213.756484 231.198375 
L 214.381506 230.959587 
L 214.928401 230.98259 
L 215.475296 231.22991 
L 216.061254 231.747659 
L 216.725341 232.649011 
L 217.506619 234.123308 
L 218.405089 236.329508 
L 219.498878 239.639341 
L 221.061434 245.161168 
L 223.678716 254.42168 
L 224.694378 257.208455 
L 225.475656 258.769224 
L 226.100678 259.560985 
L 226.569445 259.84908 
L 226.999148 259.860514 
L 227.389787 259.646532 
L 227.81949 259.149911 
L 228.327321 258.191432 
L 228.91328 256.560084 
L 229.577366 253.999832 
L 230.31958 250.211965 
L 231.178986 244.57845 
L 232.155584 236.552098 
L 233.249373 225.576154 
L 234.499418 210.664655 
L 236.02291 189.609999 
L 238.093298 157.535056 
L 242.429391 89.566014 
L 244.031011 68.382956 
L 245.32012 54.071548 
L 246.452973 43.816889 
L 247.429571 36.825294 
L 248.328041 31.923207 
L 249.109319 28.830571 
L 249.773406 27.02478 
L 250.359364 26.027614 
L 250.828131 25.609615 
L 251.257834 25.505311 
L 251.687537 25.651024 
L 252.156304 26.074536 
L 252.703198 26.886031 
L 253.406349 28.368931 
L 254.304819 30.848932 
L 255.554864 35.049047 
L 259.383126 48.404454 
L 260.437852 51.096366 
L 261.297258 52.741644 
L 262.039472 53.727155 
L 262.703559 54.254574 
L 263.289517 54.44173 
L 263.836412 54.386207 
L 264.42237 54.090158 
L 265.086457 53.477821 
L 265.867735 52.418806 
L 266.805269 50.742456 
L 268.055314 48.011237 
L 272.157024 38.668272 
L 273.172685 37.061062 
L 274.032091 36.094496 
L 274.774306 35.580525 
L 275.438392 35.383386 
L 276.063415 35.425766 
L 276.727501 35.707621 
L 277.430651 36.258711 
L 278.250993 37.20101 
L 279.227591 38.680242 
L 280.5167 41.06611 
L 284.540282 48.820288 
L 285.555944 50.175741 
L 286.41535 50.97426 
L 287.157564 51.375458 
L 287.82165 51.495271 
L 288.485737 51.385561 
L 289.149823 51.049378 
L 289.892037 50.417354 
L 290.751443 49.376247 
L 291.806169 47.715137 
L 293.212469 45.039575 
L 296.611029 38.405035 
L 297.665755 36.88921 
L 298.525161 36.006681 
L 299.267375 35.540954 
L 299.931461 35.376481 
L 300.556484 35.447807 
L 301.181506 35.740457 
L 301.884657 36.329664 
L 302.665935 37.291128 
L 303.603469 38.828448 
L 304.775386 41.226177 
L 306.611389 45.590165 
L 308.681776 50.367308 
L 309.775566 52.372645 
L 310.634972 53.532308 
L 311.338122 54.149636 
L 311.963144 54.418497 
L 312.510039 54.423094 
L 313.056934 54.204085 
L 313.642892 53.716889 
L 314.306979 52.84965 
L 315.049193 51.495629 
L 315.947663 49.351494 
L 317.041452 46.101966 
L 318.525881 40.913581 
L 321.41661 30.700146 
L 322.432271 27.978349 
L 323.21355 26.483836 
L 323.799508 25.786891 
L 324.268275 25.527752 
L 324.697978 25.544931 
L 325.088617 25.786519 
L 325.51832 26.315114 
L 326.026151 27.313321 
L 326.612109 28.992725 
L 327.276196 31.60968 
L 328.01841 35.462758 
L 328.877816 41.172659 
L 329.854414 49.284575 
L 330.948203 60.351342 
L 332.198248 75.35529 
L 333.72174 96.498913 
L 335.792127 128.640504 
L 340.050093 195.407216 
L 341.651713 216.652014 
L 342.979886 231.417085 
L 344.112739 241.652248 
L 345.089337 248.626511 
L 345.987807 253.512748 
L 346.769085 256.592025 
L 347.433171 258.386981 
L 348.01913 259.375115 
L 348.487897 259.786309 
L 348.9176 259.884745 
L 349.347303 259.733549 
L 349.81607 259.304525 
L 350.362964 258.487255 
L 351.066115 256.998024 
L 351.964585 254.511796 
L 353.21463 250.30655 
L 357.003829 237.070462 
L 358.058554 234.359473 
L 358.957024 232.633371 
L 359.699238 231.653307 
L 360.363325 231.130834 
L 360.949283 230.947989 
L 361.496178 231.007411 
L 362.082136 231.307427 
L 362.746223 231.923905 
L 363.527501 232.987187 
L 364.465035 234.667626 
L 365.71508 237.402295 
L 369.777726 246.669336 
L 370.793388 248.289974 
L 371.652793 249.269636 
L 372.395008 249.795679 
L 373.059094 250.003848 
L 373.684117 249.971765 
L 374.348203 249.700475 
L 375.051353 249.159842 
L 375.871695 248.228391 
L 376.848293 246.759616 
L 378.137402 244.382579 
L 382.239112 236.496125 
L 383.254774 235.160482 
L 384.11418 234.381548 
L 384.856394 233.998605 
L 385.52048 233.895633 
L 386.184567 234.022177 
L 386.887717 234.402316 
L 387.629931 235.065162 
L 388.489337 236.1379 
L 389.544063 237.829804 
L 390.989427 240.608581 
L 394.153604 246.80855 
L 395.247393 248.416707 
L 396.145863 249.359747 
L 396.888077 249.836856 
L 397.552163 250.012098 
L 398.177186 249.951141 
L 398.802208 249.66883 
L 399.505359 249.0909 
L 400.286637 248.141102 
L 401.224171 246.615943 
L 402.357024 244.315933 
L 404.1149 240.158792 
L 406.341542 235.003292 
L 407.435332 233.002574 
L 408.294738 231.847624 
L 408.997888 231.234733 
L 409.62291 230.970155 
L 410.169805 230.969494 
L 410.7167 231.192544 
L 411.302658 231.684104 
L 411.966745 232.556223 
L 412.708959 233.91545 
L 413.607429 236.065273 
L 414.701218 239.320363 
L 416.185647 244.512975 
L 419.037312 254.601408 
L 420.052973 257.345098 
L 420.834252 258.861869 
L 421.42021 259.578443 
L 421.888977 259.854986 
L 422.31868 259.855001 
L 422.709319 259.629999 
L 423.139022 259.12061 
L 423.646853 258.146262 
L 424.232811 256.495713 
L 424.896898 253.912798 
L 425.639112 250.098857 
L 426.498518 244.434789 
L 427.475116 236.374195 
L 428.568905 225.361883 
L 429.81895 210.413336 
L 431.342442 189.322979 
L 433.412829 157.221184 
L 434.311299 142.695328 
L 434.311299 142.695328 
" clip-path="url(#p5660b8ebe3)" style="fill: none; stroke: #9467bd; stroke-width: 1.5; stroke-linecap: square"/>
   </g>
   <g id="patch_3">
    <path d="M 43.711299 281.295328 
L 43.711299 4.095328 
" style="fill: none; stroke: #000000; stroke-width: 0.8; stroke-linejoin: miter; stroke-linecap: square"/>
   </g>
   <g id="patch_4">
    <path d="M 434.311299 281.295328 
L 434.311299 4.095328 
" style="fill: none; stroke: #000000; stroke-width: 0.8; stroke-linejoin: miter; stroke-linecap: square"/>
   </g>
   <g id="patch_5">
    <path d="M 43.711299 281.295328 
L 434.311299 281.295328 
" style="fill: none; stroke: #000000; stroke-width: 0.8; stroke-linejoin: miter; stroke-linecap: square"/>
   </g>
   <g id="patch_6">
    <path d="M 43.711299 4.095328 
L 434.311299 4.095328 
" style="fill: none; stroke: #000000; stroke-width: 0.8; stroke-linejoin: miter; stroke-linecap: square"/>
   </g>
   <g id="legend_1">
    <g id="patch_7">
     <path d="M 362.314391 97.318306 
L 425.911299 97.318306 
Q 428.311299 97.318306 428.311299 94.918306 
L 428.311299 12.495328 
Q 428.311299 10.095328 425.911299 10.095328 
L 362.314391 10.095328 
Q 359.914391 10.095328 359.914391 12.495328 
L 359.914391 94.918306 
Q 359.914391 97.318306 362.314391 97.318306 
z
" style="fill: #ffffff; opacity: 0.8; stroke: #cccccc; stroke-linejoin: miter"/>
    </g>
    <g id="line2d_40">
     <path d="M 364.714391 19.095328 
L 376.714391 19.095328 
L 388.714391 19.095328 
" style="fill: none; stroke: #1f77b4; stroke-width: 1.5; stroke-linecap: square"/>
    </g>
    <g id="text_20">
     <!-- $m$=0 -->
     <g transform="translate(398.314391 23.295328) scale(0.12 -0.12)">
      <defs>
       <path id="CMMI12-6d" d="M 1318 1871 
C 1331 1910 1491 2229 1728 2433 
C 1894 2586 2112 2689 2362 2689 
C 2618 2689 2707 2497 2707 2242 
C 2707 2203 2707 2076 2630 1775 
L 2470 1118 
C 2419 926 2298 453 2285 383 
C 2259 287 2221 121 2221 96 
C 2221 6 2291 -64 2387 -64 
C 2579 -64 2611 83 2669 313 
L 3053 1839 
C 3066 1890 3398 2689 4102 2689 
C 4358 2689 4448 2497 4448 2242 
C 4448 1884 4198 1188 4058 805 
C 4000 651 3968 568 3968 453 
C 3968 166 4166 -64 4474 -64 
C 5069 -64 5293 875 5293 913 
C 5293 945 5267 971 5229 971 
C 5171 971 5165 952 5133 843 
C 4986 332 4749 64 4493 64 
C 4429 64 4326 64 4326 269 
C 4326 436 4403 640 4429 710 
C 4544 1018 4832 1773 4832 2145 
C 4832 2528 4608 2816 4122 2816 
C 3693 2816 3347 2574 3091 2197 
C 3072 2542 2861 2816 2381 2816 
C 1811 2816 1510 2415 1395 2255 
C 1376 2618 1114 2816 832 2816 
C 646 2816 499 2727 378 2484 
C 262 2254 173 1865 173 1839 
C 173 1814 198 1782 243 1782 
C 294 1782 301 1788 339 1935 
C 435 2312 557 2689 813 2689 
C 960 2689 1011 2586 1011 2395 
C 1011 2254 947 2005 902 1807 
L 723 1118 
C 698 996 627 709 595 594 
C 550 428 480 128 480 96 
C 480 6 550 -64 646 -64 
C 723 -64 813 -26 864 70 
C 877 102 934 326 966 453 
L 1107 1028 
L 1318 1871 
z
" transform="scale(0.015625)"/>
       <path id="CMR17-3d" d="M 4115 2017 
C 4211 2017 4307 2017 4307 2125 
C 4307 2240 4198 2240 4090 2240 
L 512 2240 
C 403 2240 294 2240 294 2125 
C 294 2017 390 2017 486 2017 
L 4115 2017 
z
M 4090 896 
C 4198 896 4307 896 4307 1011 
C 4307 1119 4211 1119 4115 1119 
L 486 1119 
C 390 1119 294 1119 294 1011 
C 294 896 403 896 512 896 
L 4090 896 
z
" transform="scale(0.015625)"/>
      </defs>
      <use xlink:href="#CMMI12-6d" transform="scale(0.996264)"/>
      <use xlink:href="#CMR17-3d" transform="translate(85.327224 0) scale(0.996264)"/>
      <use xlink:href="#CMR17-30" transform="translate(157.042013 0) scale(0.996264)"/>
     </g>
    </g>
    <g id="line2d_41">
     <path d="M 364.714391 35.819923 
L 376.714391 35.819923 
L 388.714391 35.819923 
" style="fill: none; stroke: #ff7f0e; stroke-width: 1.5; stroke-linecap: square"/>
    </g>
    <g id="text_21">
     <!-- $m$=1 -->
     <g transform="translate(398.314391 40.019923) scale(0.12 -0.12)">
      <use xlink:href="#CMMI12-6d" transform="scale(0.996264)"/>
      <use xlink:href="#CMR17-3d" transform="translate(85.327224 0) scale(0.996264)"/>
      <use xlink:href="#CMR17-31" transform="translate(157.042013 0) scale(0.996264)"/>
     </g>
    </g>
    <g id="line2d_42">
     <path d="M 364.714391 52.544519 
L 376.714391 52.544519 
L 388.714391 52.544519 
" style="fill: none; stroke: #2ca02c; stroke-width: 1.5; stroke-linecap: square"/>
    </g>
    <g id="text_22">
     <!-- $m$=2 -->
     <g transform="translate(398.314391 56.744519) scale(0.12 -0.12)">
      <use xlink:href="#CMMI12-6d" transform="scale(0.996264)"/>
      <use xlink:href="#CMR17-3d" transform="translate(85.327224 0) scale(0.996264)"/>
      <use xlink:href="#CMR17-32" transform="translate(157.042013 0) scale(0.996264)"/>
     </g>
    </g>
    <g id="line2d_43">
     <path d="M 364.714391 69.269115 
L 376.714391 69.269115 
L 388.714391 69.269115 
" style="fill: none; stroke: #d62728; stroke-width: 1.5; stroke-linecap: square"/>
    </g>
    <g id="text_23">
     <!-- $m$=3 -->
     <g transform="translate(398.314391 73.469115) scale(0.12 -0.12)">
      <use xlink:href="#CMMI12-6d" transform="scale(0.996264)"/>
      <use xlink:href="#CMR17-3d" transform="translate(85.327224 0) scale(0.996264)"/>
      <use xlink:href="#CMR17-33" transform="translate(157.042013 0) scale(0.996264)"/>
     </g>
    </g>
    <g id="line2d_44">
     <path d="M 364.714391 85.993711 
L 376.714391 85.993711 
L 388.714391 85.993711 
" style="fill: none; stroke: #9467bd; stroke-width: 1.5; stroke-linecap: square"/>
    </g>
    <g id="text_24">
     <!-- $m$=4 -->
     <g transform="translate(398.314391 90.193711) scale(0.12 -0.12)">
      <use xlink:href="#CMMI12-6d" transform="scale(0.996264)"/>
      <use xlink:href="#CMR17-3d" transform="translate(85.327224 0) scale(0.996264)"/>
      <use xlink:href="#CMR17-34" transform="translate(157.042013 0) scale(0.996264)"/>
     </g>
    </g>
   </g>
  </g>
 </g>
 <defs>
  <clipPath id="p5660b8ebe3">
   <rect x="43.711299" y="4.095328" width="390.6" height="277.2"/>
  </clipPath>
 </defs>
</svg>
