<?xml version="1.0" encoding="utf-8" standalone="no"?>
<!DOCTYPE svg PUBLIC "-//W3C//DTD SVG 1.1//EN"
  "http://www.w3.org/Graphics/SVG/1.1/DTD/svg11.dtd">
<svg xmlns:xlink="http://www.w3.org/1999/xlink" width="356.01012pt" height="337.109034pt" viewBox="0 0 356.01012 337.109034" xmlns="http://www.w3.org/2000/svg" version="1.1">
 <metadata>
  <rdf:RDF xmlns:dc="http://purl.org/dc/elements/1.1/" xmlns:cc="http://creativecommons.org/ns#" xmlns:rdf="http://www.w3.org/1999/02/22-rdf-syntax-ns#">
   <cc:Work>
    <dc:type rdf:resource="http://purl.org/dc/dcmitype/StillImage"/>
    <dc:date>2025-04-05T22:04:44.901710</dc:date>
    <dc:format>image/svg+xml</dc:format>
    <dc:creator>
     <cc:Agent>
      <dc:title>Matplotlib v3.10.1, https://matplotlib.org/</dc:title>
     </cc:Agent>
    </dc:creator>
   </cc:Work>
  </rdf:RDF>
 </metadata>
 <defs>
  <style type="text/css">*{stroke-linejoin: round; stroke-linecap: butt}</style>
 </defs>
 <g id="figure_1">
  <g id="patch_1">
   <path d="M 0 337.109034 
L 356.01012 337.109034 
L 356.01012 0 
L 0 0 
z
" style="fill: #ffffff"/>
  </g>
  <g id="axes_1">
   <g id="patch_2">
    <path d="M 47.211299 303.52709 
L 348.531299 303.52709 
L 348.531299 4.15109 
L 47.211299 4.15109 
z
" style="fill: #ffffff"/>
   </g>
   <g id="matplotlib.axis_1">
    <g id="xtick_1">
     <g id="line2d_1">
      <defs>
       <path id="ma2c0a1f98b" d="M 0 0 
L 0 3.5 
" style="stroke: #000000; stroke-width: 0.8"/>
      </defs>
      <g>
       <use xlink:href="#ma2c0a1f98b" x="47.211299" y="303.52709" style="stroke: #000000; stroke-width: 0.8"/>
      </g>
     </g>
     <g id="text_1">
      <!-- $\mathdefault{−2.0}$ -->
      <g transform="translate(35.083234 318.82927) scale(0.12 -0.12)">
       <defs>
        <path id="CMSY10-0" d="M 4218 1472 
C 4326 1472 4442 1472 4442 1600 
C 4442 1728 4326 1728 4218 1728 
L 755 1728 
C 646 1728 531 1728 531 1600 
C 531 1472 646 1472 755 1472 
L 4218 1472 
z
" transform="scale(0.015625)"/>
        <path id="CMR17-32" d="M 2669 989 
L 2554 989 
C 2490 536 2438 459 2413 420 
C 2381 369 1920 369 1830 369 
L 602 369 
C 832 619 1280 1072 1824 1597 
C 2214 1967 2669 2402 2669 3035 
C 2669 3790 2067 4224 1395 4224 
C 691 4224 262 3604 262 3030 
C 262 2780 448 2748 525 2748 
C 589 2748 781 2787 781 3010 
C 781 3207 614 3264 525 3264 
C 486 3264 448 3258 422 3245 
C 544 3790 915 4058 1306 4058 
C 1862 4058 2227 3617 2227 3035 
C 2227 2479 1901 2000 1536 1584 
L 262 146 
L 262 0 
L 2515 0 
L 2669 989 
z
" transform="scale(0.015625)"/>
        <path id="CMMI12-3a" d="M 1178 307 
C 1178 492 1024 619 870 619 
C 685 619 557 466 557 313 
C 557 128 710 0 864 0 
C 1050 0 1178 153 1178 307 
z
" transform="scale(0.015625)"/>
        <path id="CMR17-30" d="M 2688 2025 
C 2688 2416 2682 3080 2413 3591 
C 2176 4039 1798 4198 1466 4198 
C 1158 4198 768 4058 525 3597 
C 269 3118 243 2524 243 2025 
C 243 1661 250 1106 448 619 
C 723 -39 1216 -128 1466 -128 
C 1760 -128 2208 -7 2470 600 
C 2662 1042 2688 1559 2688 2025 
z
M 1466 -26 
C 1056 -26 813 325 723 812 
C 653 1188 653 1738 653 2096 
C 653 2588 653 2997 736 3387 
C 858 3929 1216 4096 1466 4096 
C 1728 4096 2067 3923 2189 3400 
C 2272 3036 2278 2607 2278 2096 
C 2278 1680 2278 1169 2202 792 
C 2067 95 1690 -26 1466 -26 
z
" transform="scale(0.015625)"/>
       </defs>
       <use xlink:href="#CMSY10-0" transform="scale(0.996264)"/>
       <use xlink:href="#CMR17-32" transform="translate(77.487468 0) scale(0.996264)"/>
       <use xlink:href="#CMMI12-3a" transform="translate(123.177945 0) scale(0.996264)"/>
       <use xlink:href="#CMR17-30" transform="translate(150.275122 0) scale(0.996264)"/>
      </g>
     </g>
    </g>
    <g id="xtick_2">
     <g id="line2d_2">
      <g>
       <use xlink:href="#ma2c0a1f98b" x="84.876299" y="303.52709" style="stroke: #000000; stroke-width: 0.8"/>
      </g>
     </g>
     <g id="text_2">
      <!-- $\mathdefault{−1.5}$ -->
      <g transform="translate(72.748234 318.82927) scale(0.12 -0.12)">
       <defs>
        <path id="CMR17-31" d="M 1702 4058 
C 1702 4192 1696 4192 1606 4192 
C 1357 3916 979 3827 621 3827 
C 602 3827 570 3827 563 3808 
C 557 3795 557 3782 557 3648 
C 755 3648 1088 3686 1344 3839 
L 1344 461 
C 1344 236 1331 160 781 160 
L 589 160 
L 589 0 
C 896 0 1216 0 1523 0 
C 1830 0 2150 0 2458 0 
L 2458 160 
L 2266 160 
C 1715 160 1702 230 1702 458 
L 1702 4058 
z
" transform="scale(0.015625)"/>
        <path id="CMR17-35" d="M 730 3692 
C 794 3666 1056 3584 1325 3584 
C 1920 3584 2246 3911 2432 4100 
C 2432 4157 2432 4192 2394 4192 
C 2387 4192 2374 4192 2323 4163 
C 2099 4058 1837 3973 1517 3973 
C 1325 3973 1037 3999 723 4139 
C 653 4171 640 4171 634 4171 
C 602 4171 595 4164 595 4037 
L 595 2203 
C 595 2089 595 2057 659 2057 
C 691 2057 704 2070 736 2114 
C 941 2401 1222 2522 1542 2522 
C 1766 2522 2246 2382 2246 1289 
C 2246 1085 2246 715 2054 421 
C 1894 159 1645 25 1370 25 
C 947 25 518 320 403 814 
C 429 807 480 795 506 795 
C 589 795 749 840 749 1038 
C 749 1210 627 1280 506 1280 
C 358 1280 262 1190 262 1011 
C 262 454 704 -128 1382 -128 
C 2042 -128 2669 440 2669 1264 
C 2669 2030 2170 2624 1549 2624 
C 1222 2624 947 2503 730 2274 
L 730 3692 
z
" transform="scale(0.015625)"/>
       </defs>
       <use xlink:href="#CMSY10-0" transform="scale(0.996264)"/>
       <use xlink:href="#CMR17-31" transform="translate(77.487468 0) scale(0.996264)"/>
       <use xlink:href="#CMMI12-3a" transform="translate(123.177945 0) scale(0.996264)"/>
       <use xlink:href="#CMR17-35" transform="translate(150.275122 0) scale(0.996264)"/>
      </g>
     </g>
    </g>
    <g id="xtick_3">
     <g id="line2d_3">
      <g>
       <use xlink:href="#ma2c0a1f98b" x="122.541299" y="303.52709" style="stroke: #000000; stroke-width: 0.8"/>
      </g>
     </g>
     <g id="text_3">
      <!-- $\mathdefault{−1.0}$ -->
      <g transform="translate(110.413234 318.82927) scale(0.12 -0.12)">
       <use xlink:href="#CMSY10-0" transform="scale(0.996264)"/>
       <use xlink:href="#CMR17-31" transform="translate(77.487468 0) scale(0.996264)"/>
       <use xlink:href="#CMMI12-3a" transform="translate(123.177945 0) scale(0.996264)"/>
       <use xlink:href="#CMR17-30" transform="translate(150.275122 0) scale(0.996264)"/>
      </g>
     </g>
    </g>
    <g id="xtick_4">
     <g id="line2d_4">
      <g>
       <use xlink:href="#ma2c0a1f98b" x="160.206299" y="303.52709" style="stroke: #000000; stroke-width: 0.8"/>
      </g>
     </g>
     <g id="text_4">
      <!-- $\mathdefault{−0.5}$ -->
      <g transform="translate(148.078234 318.82927) scale(0.12 -0.12)">
       <use xlink:href="#CMSY10-0" transform="scale(0.996264)"/>
       <use xlink:href="#CMR17-30" transform="translate(77.487468 0) scale(0.996264)"/>
       <use xlink:href="#CMMI12-3a" transform="translate(123.177945 0) scale(0.996264)"/>
       <use xlink:href="#CMR17-35" transform="translate(150.275122 0) scale(0.996264)"/>
      </g>
     </g>
    </g>
    <g id="xtick_5">
     <g id="line2d_5">
      <g>
       <use xlink:href="#ma2c0a1f98b" x="197.871299" y="303.52709" style="stroke: #000000; stroke-width: 0.8"/>
      </g>
     </g>
     <g id="text_5">
      <!-- $\mathdefault{0.0}$ -->
      <g transform="translate(190.392478 318.82927) scale(0.12 -0.12)">
       <use xlink:href="#CMR17-30" transform="scale(0.996264)"/>
       <use xlink:href="#CMMI12-3a" transform="translate(45.690477 0) scale(0.996264)"/>
       <use xlink:href="#CMR17-30" transform="translate(72.787654 0) scale(0.996264)"/>
      </g>
     </g>
    </g>
    <g id="xtick_6">
     <g id="line2d_6">
      <g>
       <use xlink:href="#ma2c0a1f98b" x="235.536299" y="303.52709" style="stroke: #000000; stroke-width: 0.8"/>
      </g>
     </g>
     <g id="text_6">
      <!-- $\mathdefault{0.5}$ -->
      <g transform="translate(228.057478 318.82927) scale(0.12 -0.12)">
       <use xlink:href="#CMR17-30" transform="scale(0.996264)"/>
       <use xlink:href="#CMMI12-3a" transform="translate(45.690477 0) scale(0.996264)"/>
       <use xlink:href="#CMR17-35" transform="translate(72.787654 0) scale(0.996264)"/>
      </g>
     </g>
    </g>
    <g id="xtick_7">
     <g id="line2d_7">
      <g>
       <use xlink:href="#ma2c0a1f98b" x="273.201299" y="303.52709" style="stroke: #000000; stroke-width: 0.8"/>
      </g>
     </g>
     <g id="text_7">
      <!-- $\mathdefault{1.0}$ -->
      <g transform="translate(265.722478 318.82927) scale(0.12 -0.12)">
       <use xlink:href="#CMR17-31" transform="scale(0.996264)"/>
       <use xlink:href="#CMMI12-3a" transform="translate(45.690477 0) scale(0.996264)"/>
       <use xlink:href="#CMR17-30" transform="translate(72.787654 0) scale(0.996264)"/>
      </g>
     </g>
    </g>
    <g id="xtick_8">
     <g id="line2d_8">
      <g>
       <use xlink:href="#ma2c0a1f98b" x="310.866299" y="303.52709" style="stroke: #000000; stroke-width: 0.8"/>
      </g>
     </g>
     <g id="text_8">
      <!-- $\mathdefault{1.5}$ -->
      <g transform="translate(303.387478 318.82927) scale(0.12 -0.12)">
       <use xlink:href="#CMR17-31" transform="scale(0.996264)"/>
       <use xlink:href="#CMMI12-3a" transform="translate(45.690477 0) scale(0.996264)"/>
       <use xlink:href="#CMR17-35" transform="translate(72.787654 0) scale(0.996264)"/>
      </g>
     </g>
    </g>
    <g id="xtick_9">
     <g id="line2d_9">
      <g>
       <use xlink:href="#ma2c0a1f98b" x="348.531299" y="303.52709" style="stroke: #000000; stroke-width: 0.8"/>
      </g>
     </g>
     <g id="text_9">
      <!-- $\mathdefault{2.0}$ -->
      <g transform="translate(341.052478 318.82927) scale(0.12 -0.12)">
       <use xlink:href="#CMR17-32" transform="scale(0.996264)"/>
       <use xlink:href="#CMMI12-3a" transform="translate(45.690477 0) scale(0.996264)"/>
       <use xlink:href="#CMR17-30" transform="translate(72.787654 0) scale(0.996264)"/>
      </g>
     </g>
    </g>
    <g id="text_10">
     <!-- $\beta=\Delta\alpha/(\Delta k-2\pi/\Lambda)$ -->
     <g transform="translate(141.367057 334.120242) scale(0.12 -0.12)">
      <defs>
       <path id="CMMI12-c" d="M 3622 3701 
C 3622 4081 3296 4480 2714 4480 
C 1888 4480 1363 3477 1197 2816 
L 186 -1172 
C 173 -1223 211 -1236 243 -1236 
C 288 -1236 320 -1230 326 -1198 
L 774 586 
C 838 229 1190 -64 1568 -64 
C 2483 -64 3347 650 3347 1599 
C 3347 1841 3290 2083 3155 2287 
C 3078 2408 2982 2497 2880 2574 
C 3341 2815 3622 3200 3622 3701 
z
M 2509 2580 
C 2406 2542 2304 2529 2182 2529 
C 2093 2529 2010 2523 1894 2561 
C 1958 2606 2054 2618 2189 2618 
C 2304 2618 2419 2606 2509 2580 
z
M 3290 3758 
C 3290 3410 3117 2903 2701 2669 
C 2579 2718 2413 2752 2272 2752 
C 2138 2752 1754 2752 1754 2555 
C 1754 2389 2106 2389 2214 2389 
C 2381 2389 2528 2432 2682 2484 
C 2886 2318 2976 2101 2976 1783 
C 2976 1413 2874 1115 2752 841 
C 2541 369 2042 64 1600 64 
C 1133 64 890 432 890 864 
C 890 922 890 1005 915 1099 
L 1331 2771 
C 1542 3603 2080 4353 2701 4353 
C 3162 4353 3290 4036 3290 3758 
z
" transform="scale(0.015625)"/>
       <path id="CMR17-3d" d="M 4115 2017 
C 4211 2017 4307 2017 4307 2125 
C 4307 2240 4198 2240 4090 2240 
L 512 2240 
C 403 2240 294 2240 294 2125 
C 294 2017 390 2017 486 2017 
L 4115 2017 
z
M 4090 896 
C 4198 896 4307 896 4307 1011 
C 4307 1119 4211 1119 4115 1119 
L 486 1119 
C 390 1119 294 1119 294 1011 
C 294 896 403 896 512 896 
L 4090 896 
z
" transform="scale(0.015625)"/>
       <path id="CMR17-1" d="M 2598 4403 
C 2547 4512 2522 4512 2470 4512 
C 2394 4512 2387 4499 2342 4409 
L 269 109 
C 262 96 237 38 237 32 
C 237 6 243 0 358 0 
L 4576 0 
C 4691 0 4698 6 4698 32 
C 4698 38 4672 96 4666 109 
L 2598 4403 
z
M 2310 4038 
L 4083 358 
L 531 358 
L 2310 4038 
z
" transform="scale(0.015625)"/>
       <path id="CMMI12-b" d="M 2963 1616 
C 2963 2235 2611 2815 1933 2815 
C 1094 2815 256 1902 256 996 
C 256 441 602 -64 1254 -64 
C 1651 -64 2125 89 2579 472 
C 2669 115 2867 -64 3142 -64 
C 3488 -64 3661 294 3661 377 
C 3661 434 3616 434 3597 434 
C 3546 434 3539 415 3520 364 
C 3462 204 3315 64 3162 64 
C 2963 64 2963 472 2963 862 
C 3616 1641 3770 2446 3770 2452 
C 3770 2510 3718 2510 3699 2510 
C 3642 2510 3635 2491 3610 2376 
C 3526 2095 3360 1597 2963 1073 
L 2963 1616 
z
M 2560 626 
C 1997 121 1491 64 1267 64 
C 813 64 685 466 685 766 
C 685 1040 826 1692 1024 2044 
C 1286 2491 1645 2688 1933 2688 
C 2554 2688 2554 1877 2554 1341 
C 2554 1182 2547 1016 2547 856 
C 2547 728 2554 696 2560 626 
z
" transform="scale(0.015625)"/>
       <path id="CMMI12-3d" d="M 2746 4562 
C 2746 4569 2784 4666 2784 4678 
C 2784 4755 2720 4800 2669 4800 
C 2637 4800 2579 4800 2528 4659 
L 384 -1363 
C 384 -1370 346 -1465 346 -1478 
C 346 -1555 410 -1600 461 -1600 
C 499 -1600 557 -1593 602 -1459 
L 2746 4562 
z
" transform="scale(0.015625)"/>
       <path id="CMR17-28" d="M 1958 -1561 
C 1958 -1555 1958 -1542 1939 -1523 
C 1645 -1224 858 -407 858 1581 
C 858 3569 1632 4379 1946 4697 
C 1946 4704 1958 4717 1958 4736 
C 1958 4755 1939 4768 1914 4768 
C 1843 4768 1299 4296 986 3594 
C 666 2887 576 2199 576 1588 
C 576 1128 621 351 1005 -471 
C 1312 -1135 1837 -1600 1914 -1600 
C 1946 -1600 1958 -1587 1958 -1561 
z
" transform="scale(0.015625)"/>
       <path id="CMMI12-6b" d="M 1798 4257 
C 1805 4283 1818 4321 1818 4352 
C 1818 4416 1754 4416 1741 4416 
C 1734 4416 1504 4393 1389 4377 
C 1280 4377 1184 4358 1069 4358 
C 915 4345 870 4339 870 4224 
C 870 4160 934 4160 998 4160 
C 1325 4160 1325 4103 1325 4040 
C 1325 4015 1325 4002 1293 3888 
L 378 248 
C 352 152 352 140 352 101 
C 352 -38 461 -64 525 -64 
C 704 -64 742 77 794 275 
L 1094 1469 
C 1555 1418 1830 1226 1830 920 
C 1830 881 1830 856 1811 760 
C 1786 664 1786 588 1786 556 
C 1786 185 2029 -64 2355 -64 
C 2650 -64 2803 204 2854 294 
C 2989 530 3072 888 3072 913 
C 3072 945 3046 971 3008 971 
C 2950 971 2944 945 2918 843 
C 2829 511 2694 64 2368 64 
C 2240 64 2157 128 2157 370 
C 2157 492 2182 632 2208 728 
C 2234 843 2234 849 2234 926 
C 2234 1303 1894 1514 1306 1590 
C 1536 1731 1766 1980 1856 2076 
C 2221 2484 2470 2689 2765 2689 
C 2912 2689 2950 2650 2995 2612 
C 2758 2586 2669 2420 2669 2293 
C 2669 2139 2790 2088 2880 2088 
C 3053 2088 3206 2235 3206 2440 
C 3206 2625 3059 2816 2771 2816 
C 2419 2816 2131 2567 1677 2056 
C 1613 1980 1376 1737 1139 1648 
L 1798 4257 
z
" transform="scale(0.015625)"/>
       <path id="CMMI12-19" d="M 1658 2408 
L 2381 2408 
C 2208 1692 2099 1226 2099 716 
C 2099 626 2099 -64 2362 -64 
C 2496 -64 2611 57 2611 166 
C 2611 197 2611 210 2566 306 
C 2394 747 2394 1296 2394 1341 
C 2394 1379 2394 1832 2528 2408 
L 3245 2408 
C 3328 2408 3539 2408 3539 2612 
C 3539 2752 3418 2752 3302 2752 
L 1197 2752 
C 1050 2752 832 2752 538 2440 
C 371 2254 166 1916 166 1878 
C 166 1840 198 1827 237 1827 
C 282 1827 288 1846 320 1884 
C 653 2408 986 2408 1146 2408 
L 1510 2408 
C 1370 1929 1210 1373 685 256 
C 634 154 634 140 634 102 
C 634 -32 749 -64 806 -64 
C 992 -64 1043 102 1120 370 
C 1222 696 1222 709 1286 964 
L 1658 2408 
z
" transform="scale(0.015625)"/>
       <path id="CMR17-3" d="M 2150 4403 
C 2118 4505 2112 4512 2048 4512 
C 1984 4512 1978 4505 1946 4403 
L 685 576 
C 570 237 358 160 147 160 
L 147 0 
C 256 0 480 0 595 0 
C 755 0 1005 0 1158 -6 
L 1158 160 
C 819 160 800 404 800 449 
C 800 494 813 532 832 596 
L 1894 3835 
L 3008 461 
C 3040 372 3040 359 3040 340 
C 3040 160 2771 160 2637 160 
L 2637 0 
C 2822 0 3149 0 3347 0 
C 3507 0 3802 0 3949 -6 
L 3949 160 
C 3667 160 3552 160 3475 384 
L 2150 4403 
z
" transform="scale(0.015625)"/>
       <path id="CMR17-29" d="M 1683 1581 
C 1683 2040 1638 2817 1254 3639 
C 947 4303 422 4768 346 4768 
C 326 4768 301 4761 301 4729 
C 301 4717 307 4710 314 4697 
C 621 4378 1402 3568 1402 1584 
C 1402 -407 627 -1217 314 -1537 
C 307 -1549 301 -1556 301 -1568 
C 301 -1600 326 -1600 346 -1600 
C 416 -1600 960 -1128 1274 -426 
C 1594 281 1683 969 1683 1581 
z
" transform="scale(0.015625)"/>
      </defs>
      <use xlink:href="#CMMI12-c" transform="scale(0.996264)"/>
      <use xlink:href="#CMR17-3d" transform="translate(88.268024 0) scale(0.996264)"/>
      <use xlink:href="#CMR17-1" transform="translate(187.656822 0) scale(0.996264)"/>
      <use xlink:href="#CMMI12-b" transform="translate(264.576411 0) scale(0.996264)"/>
      <use xlink:href="#CMMI12-3d" transform="translate(327.257434 0) scale(0.996264)"/>
      <use xlink:href="#CMR17-28" transform="translate(376.032353 0) scale(0.996264)"/>
      <use xlink:href="#CMR17-1" transform="translate(411.313121 0) scale(0.996264)"/>
      <use xlink:href="#CMMI12-6b" transform="translate(488.232711 0) scale(0.996264)"/>
      <use xlink:href="#CMSY10-0" transform="translate(564.451118 0) scale(0.996264)"/>
      <use xlink:href="#CMR17-32" transform="translate(664.077793 0) scale(0.996264)"/>
      <use xlink:href="#CMMI12-19" transform="translate(709.76827 0) scale(0.996264)"/>
      <use xlink:href="#CMMI12-3d" transform="translate(768.678871 0) scale(0.996264)"/>
      <use xlink:href="#CMR17-3" transform="translate(817.45379 0) scale(0.996264)"/>
      <use xlink:href="#CMR17-29" transform="translate(881.321312 0) scale(0.996264)"/>
     </g>
    </g>
   </g>
   <g id="matplotlib.axis_2">
    <g id="ytick_1">
     <g id="line2d_10">
      <defs>
       <path id="m6565557ccf" d="M 0 0 
L -3.5 0 
" style="stroke: #000000; stroke-width: 0.8"/>
      </defs>
      <g>
       <use xlink:href="#m6565557ccf" x="47.211299" y="303.52709" style="stroke: #000000; stroke-width: 0.8"/>
      </g>
     </g>
     <g id="text_11">
      <!-- $\mathdefault{−2.0}$ -->
      <g transform="translate(15.955168 307.67818) scale(0.12 -0.12)">
       <use xlink:href="#CMSY10-0" transform="scale(0.996264)"/>
       <use xlink:href="#CMR17-32" transform="translate(77.487468 0) scale(0.996264)"/>
       <use xlink:href="#CMMI12-3a" transform="translate(123.177945 0) scale(0.996264)"/>
       <use xlink:href="#CMR17-30" transform="translate(150.275122 0) scale(0.996264)"/>
      </g>
     </g>
    </g>
    <g id="ytick_2">
     <g id="line2d_11">
      <g>
       <use xlink:href="#m6565557ccf" x="47.211299" y="266.10509" style="stroke: #000000; stroke-width: 0.8"/>
      </g>
     </g>
     <g id="text_12">
      <!-- $\mathdefault{−1.5}$ -->
      <g transform="translate(15.955168 270.25618) scale(0.12 -0.12)">
       <use xlink:href="#CMSY10-0" transform="scale(0.996264)"/>
       <use xlink:href="#CMR17-31" transform="translate(77.487468 0) scale(0.996264)"/>
       <use xlink:href="#CMMI12-3a" transform="translate(123.177945 0) scale(0.996264)"/>
       <use xlink:href="#CMR17-35" transform="translate(150.275122 0) scale(0.996264)"/>
      </g>
     </g>
    </g>
    <g id="ytick_3">
     <g id="line2d_12">
      <g>
       <use xlink:href="#m6565557ccf" x="47.211299" y="228.68309" style="stroke: #000000; stroke-width: 0.8"/>
      </g>
     </g>
     <g id="text_13">
      <!-- $\mathdefault{−1.0}$ -->
      <g transform="translate(15.955168 232.83418) scale(0.12 -0.12)">
       <use xlink:href="#CMSY10-0" transform="scale(0.996264)"/>
       <use xlink:href="#CMR17-31" transform="translate(77.487468 0) scale(0.996264)"/>
       <use xlink:href="#CMMI12-3a" transform="translate(123.177945 0) scale(0.996264)"/>
       <use xlink:href="#CMR17-30" transform="translate(150.275122 0) scale(0.996264)"/>
      </g>
     </g>
    </g>
    <g id="ytick_4">
     <g id="line2d_13">
      <g>
       <use xlink:href="#m6565557ccf" x="47.211299" y="191.26109" style="stroke: #000000; stroke-width: 0.8"/>
      </g>
     </g>
     <g id="text_14">
      <!-- $\mathdefault{−0.5}$ -->
      <g transform="translate(15.955168 195.41218) scale(0.12 -0.12)">
       <use xlink:href="#CMSY10-0" transform="scale(0.996264)"/>
       <use xlink:href="#CMR17-30" transform="translate(77.487468 0) scale(0.996264)"/>
       <use xlink:href="#CMMI12-3a" transform="translate(123.177945 0) scale(0.996264)"/>
       <use xlink:href="#CMR17-35" transform="translate(150.275122 0) scale(0.996264)"/>
      </g>
     </g>
    </g>
    <g id="ytick_5">
     <g id="line2d_14">
      <g>
       <use xlink:href="#m6565557ccf" x="47.211299" y="153.83909" style="stroke: #000000; stroke-width: 0.8"/>
      </g>
     </g>
     <g id="text_15">
      <!-- $\mathdefault{0.0}$ -->
      <g transform="translate(25.253658 157.99018) scale(0.12 -0.12)">
       <use xlink:href="#CMR17-30" transform="scale(0.996264)"/>
       <use xlink:href="#CMMI12-3a" transform="translate(45.690477 0) scale(0.996264)"/>
       <use xlink:href="#CMR17-30" transform="translate(72.787654 0) scale(0.996264)"/>
      </g>
     </g>
    </g>
    <g id="ytick_6">
     <g id="line2d_15">
      <g>
       <use xlink:href="#m6565557ccf" x="47.211299" y="116.41709" style="stroke: #000000; stroke-width: 0.8"/>
      </g>
     </g>
     <g id="text_16">
      <!-- $\mathdefault{0.5}$ -->
      <g transform="translate(25.253658 120.56818) scale(0.12 -0.12)">
       <use xlink:href="#CMR17-30" transform="scale(0.996264)"/>
       <use xlink:href="#CMMI12-3a" transform="translate(45.690477 0) scale(0.996264)"/>
       <use xlink:href="#CMR17-35" transform="translate(72.787654 0) scale(0.996264)"/>
      </g>
     </g>
    </g>
    <g id="ytick_7">
     <g id="line2d_16">
      <g>
       <use xlink:href="#m6565557ccf" x="47.211299" y="78.99509" style="stroke: #000000; stroke-width: 0.8"/>
      </g>
     </g>
     <g id="text_17">
      <!-- $\mathdefault{1.0}$ -->
      <g transform="translate(25.253658 83.14618) scale(0.12 -0.12)">
       <use xlink:href="#CMR17-31" transform="scale(0.996264)"/>
       <use xlink:href="#CMMI12-3a" transform="translate(45.690477 0) scale(0.996264)"/>
       <use xlink:href="#CMR17-30" transform="translate(72.787654 0) scale(0.996264)"/>
      </g>
     </g>
    </g>
    <g id="ytick_8">
     <g id="line2d_17">
      <g>
       <use xlink:href="#m6565557ccf" x="47.211299" y="41.57309" style="stroke: #000000; stroke-width: 0.8"/>
      </g>
     </g>
     <g id="text_18">
      <!-- $\mathdefault{1.5}$ -->
      <g transform="translate(25.253658 45.72418) scale(0.12 -0.12)">
       <use xlink:href="#CMR17-31" transform="scale(0.996264)"/>
       <use xlink:href="#CMMI12-3a" transform="translate(45.690477 0) scale(0.996264)"/>
       <use xlink:href="#CMR17-35" transform="translate(72.787654 0) scale(0.996264)"/>
      </g>
     </g>
    </g>
    <g id="ytick_9">
     <g id="line2d_18">
      <g>
       <use xlink:href="#m6565557ccf" x="47.211299" y="4.15109" style="stroke: #000000; stroke-width: 0.8"/>
      </g>
     </g>
     <g id="text_19">
      <!-- $\mathdefault{2.0}$ -->
      <g transform="translate(25.253658 8.30218) scale(0.12 -0.12)">
       <use xlink:href="#CMR17-32" transform="scale(0.996264)"/>
       <use xlink:href="#CMMI12-3a" transform="translate(45.690477 0) scale(0.996264)"/>
       <use xlink:href="#CMR17-30" transform="translate(72.787654 0) scale(0.996264)"/>
      </g>
     </g>
    </g>
    <g id="text_20">
     <!-- $\delta=(\Delta k-2\pi/\Lambda)L/2$ -->
     <g transform="translate(8.966376 207.794563) rotate(-90) scale(0.12 -0.12)">
      <defs>
       <path id="CMMI12-e" d="M 1664 2795 
C 845 2597 256 1748 256 1001 
C 256 319 717 -64 1229 -64 
C 1984 -64 2496 970 2496 1818 
C 2496 2392 2227 2744 2067 2954 
C 1830 3254 1446 3746 1446 4052 
C 1446 4161 1530 4352 1811 4352 
C 2010 4352 2131 4282 2323 4173 
C 2381 4134 2528 4052 2611 4052 
C 2746 4052 2842 4185 2842 4287 
C 2842 4409 2746 4428 2522 4479 
C 2221 4543 2131 4543 2022 4543 
C 1914 4543 1286 4543 1286 3892 
C 1286 3579 1446 3216 1664 2795 
z
M 1734 2669 
C 1978 2165 2074 1974 2074 1560 
C 2074 1063 1805 63 1235 63 
C 986 63 627 229 627 821 
C 627 1235 864 2439 1734 2669 
z
" transform="scale(0.015625)"/>
       <path id="CMMI12-4c" d="M 2349 3861 
C 2406 4103 2426 4167 2989 4167 
C 3162 4167 3206 4167 3206 4288 
C 3206 4352 3136 4352 3110 4352 
C 2982 4352 2835 4352 2707 4352 
L 1850 4352 
C 1728 4352 1587 4352 1466 4352 
C 1414 4352 1344 4352 1344 4231 
C 1344 4167 1402 4167 1498 4167 
C 1888 4167 1888 4116 1888 4046 
C 1888 4034 1888 3995 1862 3899 
L 998 472 
C 941 249 928 185 480 185 
C 358 185 294 185 294 70 
C 294 0 333 0 461 0 
L 3328 0 
C 3469 0 3475 6 3520 121 
L 4013 1478 
C 4026 1510 4038 1548 4038 1567 
C 4038 1605 4006 1631 3974 1631 
C 3968 1631 3936 1631 3923 1605 
C 3910 1599 3910 1586 3859 1465 
C 3654 905 3366 185 2285 185 
L 1670 185 
C 1581 185 1568 185 1530 192 
C 1459 198 1453 211 1453 262 
C 1453 307 1466 345 1478 401 
L 2349 3861 
z
" transform="scale(0.015625)"/>
      </defs>
      <use xlink:href="#CMMI12-e" transform="scale(0.996264)"/>
      <use xlink:href="#CMR17-3d" transform="translate(74.615395 0) scale(0.996264)"/>
      <use xlink:href="#CMR17-28" transform="translate(174.004192 0) scale(0.996264)"/>
      <use xlink:href="#CMR17-1" transform="translate(209.28496 0) scale(0.996264)"/>
      <use xlink:href="#CMMI12-6b" transform="translate(286.20455 0) scale(0.996264)"/>
      <use xlink:href="#CMSY10-0" transform="translate(362.422957 0) scale(0.996264)"/>
      <use xlink:href="#CMR17-32" transform="translate(462.049632 0) scale(0.996264)"/>
      <use xlink:href="#CMMI12-19" transform="translate(507.740109 0) scale(0.996264)"/>
      <use xlink:href="#CMMI12-3d" transform="translate(566.65071 0) scale(0.996264)"/>
      <use xlink:href="#CMR17-3" transform="translate(615.425629 0) scale(0.996264)"/>
      <use xlink:href="#CMR17-29" transform="translate(679.293151 0) scale(0.996264)"/>
      <use xlink:href="#CMMI12-4c" transform="translate(714.573918 0) scale(0.996264)"/>
      <use xlink:href="#CMMI12-3d" transform="translate(780.944794 0) scale(0.996264)"/>
      <use xlink:href="#CMR17-32" transform="translate(829.719713 0) scale(0.996264)"/>
     </g>
    </g>
   </g>
   <g id="QuadContourSet_1">
    <path clip-path="url(#pb7d20aaaf8)" style="fill: none; stroke: #000000; stroke-width: 1.5"/>
    <path d="M 161.443861 303.52709 
L 163.647118 302.999121 
L 166.00233 302.665867 
L 168.831893 302.503332 
L 172.184763 302.540321 
L 181.458412 302.78558 
L 183.224822 302.522078 
L 184.402428 302.145486 
L 184.588187 302.063384 
M 192.991113 282.09477 
L 193.970479 280.849601 
L 195.000884 279.914222 
L 196.03129 279.297451 
L 197.061695 278.961553 
L 198.0921 278.888195 
L 199.122506 279.072726 
L 200.005711 279.443743 
L 201.012081 280.126914 
L 201.919321 281.012654 
L 202.901205 282.320681 
L 203.732084 283.783192 
L 204.568935 285.690706 
L 205.400836 288.170724 
L 206.235985 291.388249 
L 207.848705 297.823297 
L 208.521056 299.432059 
L 209.159915 300.455817 
L 209.868163 301.226371 
L 210.751368 301.856945 
L 211.781773 302.31302 
L 213.159723 302.649583 
L 214.87299 302.823944 
L 217.375403 302.83489 
L 228.857064 302.590816 
L 231.506678 302.895722 
L 233.778866 303.380839 
L 234.298737 303.52709 
M 298.679447 303.52709 
L 299.184891 298.993306 
L 299.955041 294.14569 
L 300.970849 289.194482 
L 302.188618 284.368196 
L 303.602186 279.688161 
L 305.160769 275.300628 
L 306.873478 271.14617 
L 308.715489 267.256817 
L 310.700698 263.5758 
L 312.825881 260.090513 
L 315.131555 256.726738 
L 317.619135 253.483886 
L 320.350217 250.29169 
L 323.270562 247.220417 
L 326.451182 244.200259 
L 329.8368 241.288143 
L 333.51682 238.412558 
L 333.86609 238.153323 
M 57.570088 235.127178 
L 61.677494 238.006597 
L 65.468435 240.931619 
L 68.997015 243.935529 
L 72.235432 246.984954 
L 75.179448 250.056712 
L 77.906009 253.216712 
L 80.397715 256.434236 
L 82.726583 259.798011 
L 84.894699 263.320485 
L 86.878366 266.964315 
L 88.72192 270.815467 
L 90.412376 274.861874 
L 91.960337 279.145002 
L 93.348798 283.63694 
L 94.567411 288.316976 
L 95.600437 293.143262 
L 96.413944 297.969548 
L 96.98303 302.649583 
L 97.063152 303.52709 
M 338.17251 72.551002 
L 334.065105 69.671582 
L 330.274163 66.74656 
L 326.745584 63.74265 
L 323.507166 60.693226 
L 320.563151 57.621468 
L 317.836589 54.461468 
L 315.344883 51.243944 
L 313.016016 47.880169 
L 310.847899 44.357695 
L 308.864233 40.713865 
L 307.020679 36.862713 
L 305.330223 32.816305 
L 303.782262 28.533178 
L 302.393801 24.041239 
L 301.175188 19.361204 
L 300.142161 14.534918 
L 299.328655 9.708632 
L 298.759569 5.028597 
L 298.679447 4.15109 
M 97.063152 4.15109 
L 96.557707 8.684874 
L 95.787557 13.53249 
L 94.77175 18.483698 
L 93.55398 23.309984 
L 92.140412 27.990019 
L 90.58183 32.377552 
L 88.869121 36.53201 
L 87.027109 40.421363 
L 85.0419 44.10238 
L 82.916718 47.587666 
L 80.611044 50.951442 
L 78.123463 54.194294 
L 75.392381 57.38649 
L 72.472036 60.457763 
L 69.291417 63.477921 
L 65.905799 66.390037 
L 62.225779 69.265622 
L 61.876509 69.524857 
M 234.298737 4.15109 
L 232.095481 4.679059 
L 229.740269 5.012313 
L 226.910705 5.174848 
L 223.557836 5.137859 
L 214.284186 4.892599 
L 212.517777 5.156102 
L 211.340171 5.532694 
L 211.154411 5.614796 
M 202.751485 25.58341 
L 201.77212 26.828578 
L 200.741715 27.763958 
L 199.711309 28.380729 
L 198.680904 28.716627 
L 197.650498 28.789985 
L 196.620093 28.605454 
L 195.736888 28.234437 
L 194.730518 27.551266 
L 193.823278 26.665526 
L 192.841394 25.357499 
L 192.010514 23.894988 
L 191.173664 21.987474 
L 190.341763 19.507455 
L 189.506614 16.289931 
L 187.893893 9.854883 
L 187.221542 8.246121 
L 186.582684 7.222363 
L 185.874436 6.451808 
L 184.991231 5.821235 
L 183.960825 5.36516 
L 182.582876 5.028597 
L 180.869609 4.854236 
L 178.367196 4.84329 
L 166.885535 5.087364 
L 164.235921 4.782457 
L 161.963732 4.297341 
L 161.443861 4.15109 
L 161.443861 4.15109 
" clip-path="url(#pb7d20aaaf8)" style="fill: none; stroke: #000000; stroke-width: 1.5"/>
    <path d="M 47.211299 192.610206 
L 51.480122 194.533545 
L 55.260203 196.471285 
L 58.76419 198.518801 
L 61.931377 200.635607 
L 64.728192 202.772515 
L 67.2326 204.953849 
L 69.594535 207.293867 
L 71.941031 209.932085 
L 74.47905 213.143911 
L 77.960023 217.970197 
L 84.201234 226.599012 
L 90.71565 235.081575 
L 96.523561 242.77456 
L 100.382006 248.244174 
L 103.736399 253.385312 
L 106.703651 258.3355 
L 109.512462 263.454289 
L 112.299739 269.011831 
L 115.365261 275.648902 
L 119.676564 284.9532 
L 120.958891 287.178316 
L 122.031187 288.609478 
L 122.872501 289.398559 
L 123.608505 289.82815 
L 124.344509 290.018848 
L 125.080513 289.988448 
L 125.963717 289.699492 
L 126.994123 289.085853 
L 128.31893 287.993039 
L 130.379741 285.930119 
L 141.4198 274.036067 
L 143.565398 271.351848 
L 145.165477 269.011831 
L 146.592112 266.525562 
L 147.838155 263.893042 
L 148.975664 260.96802 
L 150.148965 257.311743 
L 151.754736 251.461699 
L 153.583117 245.02665 
L 154.89872 241.224122 
L 156.189828 238.152849 
L 157.522725 235.520329 
L 159.03293 233.03406 
L 160.624678 230.840294 
L 162.388739 228.792778 
L 164.332344 226.891514 
L 166.296732 225.261706 
L 168.551932 223.67399 
L 171.021478 222.211479 
L 173.681971 220.895219 
L 176.600786 219.703068 
L 179.692003 218.678592 
L 183.077621 217.79357 
L 186.642593 217.09269 
L 190.43766 216.577082 
L 194.26488 216.27701 
L 198.239301 216.186666 
L 202.213722 216.318224 
L 206.188143 216.677063 
L 210.015364 217.251683 
L 213.548183 218.002611 
L 216.933801 218.94872 
L 220.025017 220.038887 
L 222.969033 221.317732 
L 225.618647 222.713515 
L 228.066735 224.258994 
L 230.213122 225.867756 
L 232.242682 227.666308 
L 234.018999 229.524034 
L 235.679363 231.571549 
L 237.247508 233.868062 
L 238.614718 236.251584 
L 239.947311 239.030355 
L 241.171238 242.101628 
L 242.399536 245.801771 
L 243.831551 250.876694 
L 246.176854 259.213007 
L 247.422572 262.723033 
L 248.636697 265.501804 
L 249.957204 267.988073 
L 251.445263 270.32809 
L 253.190197 272.668108 
L 255.500405 275.377197 
L 259.530724 279.688161 
L 268.012472 288.511771 
L 269.337279 289.468118 
L 270.367684 289.920262 
L 271.103688 290.03182 
L 271.860069 289.925738 
L 272.575696 289.59963 
L 273.3117 289.023791 
L 274.194905 288.020293 
L 275.255267 286.415711 
L 276.588007 283.929443 
L 278.610928 279.598299 
L 283.615755 268.653046 
L 286.306959 263.308038 
L 289.122951 258.189249 
L 292.1534 253.150414 
L 295.391817 248.19822 
L 299.071837 242.976501 
L 300.010913 241.696165 
M 313.425272 224.061301 
L 318.506278 216.946439 
L 322.182359 211.941177 
L 324.684773 208.900735 
L 327.1445 206.270109 
L 329.645213 203.930091 
L 332.339213 201.724912 
L 335.283229 199.616187 
L 338.423101 197.641294 
L 341.907264 195.711407 
L 345.881685 193.774382 
L 348.531299 192.610206 
M 348.531299 115.067974 
L 344.262477 113.144635 
L 340.482395 111.206894 
L 336.978409 109.159379 
L 333.811221 107.042573 
L 331.014406 104.905665 
L 328.509999 102.724331 
L 326.148064 100.384313 
L 323.801568 97.746094 
L 321.263549 94.534269 
L 317.782576 89.707983 
L 311.541365 81.079168 
L 305.026949 72.596604 
L 299.219037 64.90362 
L 295.360593 59.434005 
L 292.006199 54.292868 
L 289.038948 49.34268 
L 286.230137 44.223891 
L 283.44286 38.666349 
L 280.377337 32.029278 
L 276.066035 22.72498 
L 274.783708 20.499864 
L 273.711412 19.068702 
L 272.870098 18.27962 
L 272.134094 17.85003 
L 271.39809 17.659332 
L 270.662086 17.689732 
L 269.778881 17.978688 
L 268.748476 18.592327 
L 267.423669 19.68514 
L 265.362858 21.74806 
L 254.322799 33.642113 
L 252.177201 36.326332 
L 250.577121 38.666349 
L 249.150487 41.152618 
L 247.904443 43.785138 
L 246.766935 46.71016 
L 245.593634 50.366437 
L 243.987863 56.216481 
L 242.159482 62.65153 
L 240.843879 66.454058 
L 239.55277 69.525331 
L 238.219873 72.157851 
L 236.709669 74.64412 
L 235.117921 76.837886 
L 233.35386 78.885402 
L 231.410254 80.786666 
L 229.445867 82.416474 
L 227.190666 84.00419 
L 224.721121 85.466701 
L 222.060628 86.782961 
L 219.141812 87.975112 
L 216.050596 88.999588 
L 212.664978 89.88461 
L 209.100006 90.58549 
L 205.304939 91.101098 
L 201.477718 91.40117 
L 197.503297 91.491513 
L 193.528876 91.359956 
L 189.554455 91.001117 
L 185.727235 90.426496 
L 182.194416 89.675568 
L 178.808798 88.729459 
L 175.717582 87.639293 
L 172.773566 86.360448 
L 170.123952 84.964664 
L 167.675863 83.419186 
L 165.529477 81.810424 
L 163.499917 80.011872 
L 161.7236 78.154146 
L 160.063235 76.106631 
L 158.49509 73.810117 
L 157.127881 71.426596 
L 155.795288 68.647825 
L 154.571361 65.576552 
L 153.343063 61.876409 
L 151.911047 56.801486 
L 149.565744 48.465173 
L 148.320027 44.955147 
L 147.105901 42.176376 
L 145.785395 39.690107 
L 144.297336 37.350089 
L 142.552401 35.010072 
L 140.242193 32.300982 
L 136.211874 27.990019 
L 127.730127 19.166409 
L 126.40532 18.210062 
L 125.374914 17.757918 
L 124.63891 17.64636 
L 123.88253 17.752442 
L 123.166903 18.07855 
L 122.430899 18.654389 
L 121.547694 19.657887 
L 120.487331 21.262469 
L 119.154592 23.748737 
L 117.131671 28.07988 
L 112.126844 39.025133 
L 109.43564 44.370142 
L 106.619647 49.488931 
L 103.589199 54.527766 
L 100.350781 59.47996 
L 96.670762 64.701679 
L 95.731686 65.982015 
M 82.317326 83.616879 
L 77.23632 90.731741 
L 73.560239 95.737003 
L 71.057826 98.777444 
L 68.598099 101.408071 
L 66.097386 103.748088 
L 63.403385 105.953268 
L 60.45937 108.061993 
L 57.319498 110.036886 
L 53.835334 111.966773 
L 49.860913 113.903798 
L 47.211299 115.067974 
L 47.211299 115.067974 
" clip-path="url(#pb7d20aaaf8)" style="fill: none; stroke: #000000; stroke-width: 1.5"/>
    <path d="M 47.211299 173.098276 
L 58.398559 174.660599 
L 68.408212 176.276205 
L 77.53466 177.961801 
L 86.366707 179.81287 
L 95.198754 181.894799 
L 104.914006 184.425417 
L 122.7253 189.118132 
L 128.31893 190.304551 
L 133.323757 191.138408 
L 138.181382 191.72432 
L 143.33341 192.121873 
L 149.221441 192.347238 
L 156.58148 192.393889 
L 168.063141 192.213152 
L 192.056868 191.814235 
L 206.040943 191.832667 
L 221.938627 192.089529 
L 241.663532 192.399839 
L 249.023571 192.276915 
L 254.764401 191.966497 
L 259.916429 191.46739 
L 264.81814 190.767492 
L 269.778881 189.834882 
L 275.372511 188.553146 
L 275.556914 188.507636 
M 296.966694 182.801141 
L 306.137474 180.549417 
L 314.67512 178.675046 
L 323.507166 176.95662 
L 333.075217 175.322201 
L 343.379272 173.788778 
L 348.531299 173.098276 
M 348.531299 134.579904 
L 337.34404 133.017581 
L 327.334387 131.401974 
L 318.207938 129.716379 
L 309.375891 127.865309 
L 300.543844 125.78338 
L 296.818907 124.838925 
M 275.408739 119.133966 
L 269.48448 117.782162 
L 264.479653 116.854982 
L 259.622027 116.175979 
L 254.617201 115.700708 
L 249.023571 115.401265 
L 242.399536 115.280352 
L 233.273087 115.355707 
L 196.03129 115.881157 
L 181.605613 115.739447 
L 149.957445 115.316449 
L 143.627811 115.539761 
L 138.181382 115.95386 
L 133.176556 116.560964 
L 128.31893 117.373629 
L 123.019702 118.491851 
L 116.395667 120.140976 
L 87.985916 127.500901 
L 79.30107 129.364235 
L 70.02742 131.118613 
L 60.164968 132.748522 
L 49.566512 134.270032 
L 47.211299 134.579904 
L 47.211299 134.579904 
" clip-path="url(#pb7d20aaaf8)" style="fill: none; stroke: #000000; stroke-width: 1.5"/>
    <path d="M 47.211299 160.558613 
L 71.205027 161.552131 
L 92.401939 162.644943 
L 113.30445 163.948006 
L 139.358989 165.82219 
L 162.469511 167.417635 
L 175.570381 168.095105 
L 186.75764 168.455773 
L 197.356097 168.578541 
L 207.954553 168.477391 
L 218.847411 168.149209 
L 230.770674 167.564778 
L 245.637953 166.602059 
L 250.15096 166.279053 
M 272.249265 164.658625 
L 294.950215 163.140979 
L 315.999927 161.965786 
L 338.521646 160.945202 
L 348.531299 160.558613 
M 348.531299 147.119566 
L 324.537572 146.126048 
L 303.340659 145.033236 
L 282.438148 143.730174 
L 256.38361 141.85599 
L 233.273087 140.260544 
L 220.172218 139.583075 
L 208.984958 139.222407 
L 198.386502 139.099639 
L 187.788046 139.200789 
L 176.895188 139.528971 
L 164.971925 140.113402 
L 150.104646 141.076121 
L 145.591639 141.399127 
M 123.493333 143.019555 
L 100.792384 144.537201 
L 79.742672 145.712393 
L 57.220952 146.732978 
L 47.211299 147.119566 
L 47.211299 147.119566 
" clip-path="url(#pb7d20aaaf8)" style="fill: none; stroke: #000000; stroke-width: 1.5"/>
   </g>
   <g id="patch_3">
    <path d="M 47.211299 303.52709 
L 47.211299 4.15109 
" style="fill: none; stroke: #000000; stroke-width: 0.8; stroke-linejoin: miter; stroke-linecap: square"/>
   </g>
   <g id="patch_4">
    <path d="M 348.531299 303.52709 
L 348.531299 4.15109 
" style="fill: none; stroke: #000000; stroke-width: 0.8; stroke-linejoin: miter; stroke-linecap: square"/>
   </g>
   <g id="patch_5">
    <path d="M 47.211299 303.52709 
L 348.531299 303.52709 
" style="fill: none; stroke: #000000; stroke-width: 0.8; stroke-linejoin: miter; stroke-linecap: square"/>
   </g>
   <g id="patch_6">
    <path d="M 47.211299 4.15109 
L 348.531299 4.15109 
" style="fill: none; stroke: #000000; stroke-width: 0.8; stroke-linejoin: miter; stroke-linecap: square"/>
   </g>
   <g id="text_21">
    <!-- $\mathdefault{1.0}$ -->
    <g transform="translate(190.020472 300.478133) rotate(-73.634369) scale(0.12 -0.12)">
     <use xlink:href="#CMR17-31" transform="scale(0.996264)"/>
     <use xlink:href="#CMMI12-3a" transform="translate(45.690477 0) scale(0.996264)"/>
     <use xlink:href="#CMR17-30" transform="translate(72.787654 0) scale(0.996264)"/>
    </g>
   </g>
   <g id="text_22">
    <!-- $\mathdefault{1.0}$ -->
    <g transform="translate(338.25885 238.461091) rotate(-31.437588) scale(0.12 -0.12)">
     <use xlink:href="#CMR17-31" transform="scale(0.996264)"/>
     <use xlink:href="#CMMI12-3a" transform="translate(45.690477 0) scale(0.996264)"/>
     <use xlink:href="#CMR17-30" transform="translate(72.787654 0) scale(0.996264)"/>
    </g>
   </g>
   <g id="text_23">
    <!-- $\mathdefault{1.0}$ -->
    <g transform="translate(40.13802 228.188926) rotate(-329.728092) scale(0.12 -0.12)">
     <use xlink:href="#CMR17-31" transform="scale(0.996264)"/>
     <use xlink:href="#CMMI12-3a" transform="translate(45.690477 0) scale(0.996264)"/>
     <use xlink:href="#CMR17-30" transform="translate(72.787654 0) scale(0.996264)"/>
    </g>
   </g>
   <g id="text_24">
    <!-- $\mathdefault{1.0}$ -->
    <g transform="translate(339.673194 77.111541) rotate(-329.728092) scale(0.12 -0.12)">
     <use xlink:href="#CMR17-31" transform="scale(0.996264)"/>
     <use xlink:href="#CMMI12-3a" transform="translate(45.690477 0) scale(0.996264)"/>
     <use xlink:href="#CMR17-30" transform="translate(72.787654 0) scale(0.996264)"/>
    </g>
   </g>
   <g id="text_25">
    <!-- $\mathdefault{1.0}$ -->
    <g transform="translate(47.839482 82.118666) rotate(-31.437588) scale(0.12 -0.12)">
     <use xlink:href="#CMR17-31" transform="scale(0.996264)"/>
     <use xlink:href="#CMMI12-3a" transform="translate(45.690477 0) scale(0.996264)"/>
     <use xlink:href="#CMR17-30" transform="translate(72.787654 0) scale(0.996264)"/>
    </g>
   </g>
   <g id="text_26">
    <!-- $\mathdefault{1.0}$ -->
    <g transform="translate(207.242964 23.235932) rotate(-73.634369) scale(0.12 -0.12)">
     <use xlink:href="#CMR17-31" transform="scale(0.996264)"/>
     <use xlink:href="#CMMI12-3a" transform="translate(45.690477 0) scale(0.996264)"/>
     <use xlink:href="#CMR17-30" transform="translate(72.787654 0) scale(0.996264)"/>
    </g>
   </g>
   <g id="text_27">
    <!-- $\mathdefault{1.5}$ -->
    <g transform="translate(304.542367 240.637075) rotate(-52.48329) scale(0.12 -0.12)">
     <use xlink:href="#CMR17-31" transform="scale(0.996264)"/>
     <use xlink:href="#CMMI12-3a" transform="translate(45.690477 0) scale(0.996264)"/>
     <use xlink:href="#CMR17-35" transform="translate(72.787654 0) scale(0.996264)"/>
    </g>
   </g>
   <g id="text_28">
    <!-- $\mathdefault{1.5}$ -->
    <g transform="translate(86.832411 82.545449) rotate(-52.48329) scale(0.12 -0.12)">
     <use xlink:href="#CMR17-31" transform="scale(0.996264)"/>
     <use xlink:href="#CMMI12-3a" transform="translate(45.690477 0) scale(0.996264)"/>
     <use xlink:href="#CMR17-35" transform="translate(72.787654 0) scale(0.996264)"/>
    </g>
   </g>
   <g id="text_29">
    <!-- $\mathdefault{2.0}$ -->
    <g transform="translate(279.825581 190.504923) rotate(-15.126254) scale(0.12 -0.12)">
     <use xlink:href="#CMR17-32" transform="scale(0.996264)"/>
     <use xlink:href="#CMMI12-3a" transform="translate(45.690477 0) scale(0.996264)"/>
     <use xlink:href="#CMR17-30" transform="translate(72.787654 0) scale(0.996264)"/>
    </g>
   </g>
   <g id="text_30">
    <!-- $\mathdefault{2.0}$ -->
    <g transform="translate(278.11858 122.903686) rotate(-344.875669) scale(0.12 -0.12)">
     <use xlink:href="#CMR17-32" transform="scale(0.996264)"/>
     <use xlink:href="#CMMI12-3a" transform="translate(45.690477 0) scale(0.996264)"/>
     <use xlink:href="#CMR17-30" transform="translate(72.787654 0) scale(0.996264)"/>
    </g>
   </g>
   <g id="text_31">
    <!-- $\mathdefault{2.5}$ -->
    <g transform="translate(253.960877 168.996217) rotate(-4.213167) scale(0.12 -0.12)">
     <use xlink:href="#CMR17-32" transform="scale(0.996264)"/>
     <use xlink:href="#CMMI12-3a" transform="translate(45.690477 0) scale(0.996264)"/>
     <use xlink:href="#CMR17-35" transform="translate(72.787654 0) scale(0.996264)"/>
    </g>
   </g>
   <g id="text_32">
    <!-- $\mathdefault{2.5}$ -->
    <g transform="translate(127.303658 145.742292) rotate(-4.213167) scale(0.12 -0.12)">
     <use xlink:href="#CMR17-32" transform="scale(0.996264)"/>
     <use xlink:href="#CMMI12-3a" transform="translate(45.690477 0) scale(0.996264)"/>
     <use xlink:href="#CMR17-35" transform="translate(72.787654 0) scale(0.996264)"/>
    </g>
   </g>
  </g>
 </g>
 <defs>
  <clipPath id="pb7d20aaaf8">
   <rect x="47.211299" y="4.15109" width="301.32" height="299.376"/>
  </clipPath>
 </defs>
</svg>
