<?xml version="1.0" encoding="utf-8" standalone="no"?>
<!DOCTYPE svg PUBLIC "-//W3C//DTD SVG 1.1//EN"
  "http://www.w3.org/Graphics/SVG/1.1/DTD/svg11.dtd">
<svg xmlns:xlink="http://www.w3.org/1999/xlink" width="356.01012pt" height="337.109034pt" viewBox="0 0 356.01012 337.109034" xmlns="http://www.w3.org/2000/svg" version="1.1">
 <metadata>
  <rdf:RDF xmlns:dc="http://purl.org/dc/elements/1.1/" xmlns:cc="http://creativecommons.org/ns#" xmlns:rdf="http://www.w3.org/1999/02/22-rdf-syntax-ns#">
   <cc:Work>
    <dc:type rdf:resource="http://purl.org/dc/dcmitype/StillImage"/>
    <dc:date>2025-04-08T12:21:57.791698</dc:date>
    <dc:format>image/svg+xml</dc:format>
    <dc:creator>
     <cc:Agent>
      <dc:title>Matplotlib v3.10.1, https://matplotlib.org/</dc:title>
     </cc:Agent>
    </dc:creator>
   </cc:Work>
  </rdf:RDF>
 </metadata>
 <defs>
  <style type="text/css">*{stroke-linejoin: round; stroke-linecap: butt}</style>
 </defs>
 <g id="figure_1">
  <g id="patch_1">
   <path d="M 0 337.109034 
L 356.01012 337.109034 
L 356.01012 0 
L 0 0 
z
" style="fill: #ffffff"/>
  </g>
  <g id="axes_1">
   <g id="patch_2">
    <path d="M 47.211299 303.52709 
L 348.531299 303.52709 
L 348.531299 4.15109 
L 47.211299 4.15109 
z
" style="fill: #ffffff"/>
   </g>
   <g id="matplotlib.axis_1">
    <g id="xtick_1">
     <g id="line2d_1">
      <defs>
       <path id="mf3fc6027c0" d="M 0 0 
L 0 3.5 
" style="stroke: #000000; stroke-width: 0.8"/>
      </defs>
      <g>
       <use xlink:href="#mf3fc6027c0" x="47.211299" y="303.52709" style="stroke: #000000; stroke-width: 0.8"/>
      </g>
     </g>
     <g id="text_1">
      <!-- $\mathdefault{−2.0}$ -->
      <g transform="translate(35.083234 318.82927) scale(0.12 -0.12)">
       <defs>
        <path id="CMSY10-0" d="M 4218 1472 
C 4326 1472 4442 1472 4442 1600 
C 4442 1728 4326 1728 4218 1728 
L 755 1728 
C 646 1728 531 1728 531 1600 
C 531 1472 646 1472 755 1472 
L 4218 1472 
z
" transform="scale(0.015625)"/>
        <path id="CMR17-32" d="M 2669 989 
L 2554 989 
C 2490 536 2438 459 2413 420 
C 2381 369 1920 369 1830 369 
L 602 369 
C 832 619 1280 1072 1824 1597 
C 2214 1967 2669 2402 2669 3035 
C 2669 3790 2067 4224 1395 4224 
C 691 4224 262 3604 262 3030 
C 262 2780 448 2748 525 2748 
C 589 2748 781 2787 781 3010 
C 781 3207 614 3264 525 3264 
C 486 3264 448 3258 422 3245 
C 544 3790 915 4058 1306 4058 
C 1862 4058 2227 3617 2227 3035 
C 2227 2479 1901 2000 1536 1584 
L 262 146 
L 262 0 
L 2515 0 
L 2669 989 
z
" transform="scale(0.015625)"/>
        <path id="CMMI12-3a" d="M 1178 307 
C 1178 492 1024 619 870 619 
C 685 619 557 466 557 313 
C 557 128 710 0 864 0 
C 1050 0 1178 153 1178 307 
z
" transform="scale(0.015625)"/>
        <path id="CMR17-30" d="M 2688 2025 
C 2688 2416 2682 3080 2413 3591 
C 2176 4039 1798 4198 1466 4198 
C 1158 4198 768 4058 525 3597 
C 269 3118 243 2524 243 2025 
C 243 1661 250 1106 448 619 
C 723 -39 1216 -128 1466 -128 
C 1760 -128 2208 -7 2470 600 
C 2662 1042 2688 1559 2688 2025 
z
M 1466 -26 
C 1056 -26 813 325 723 812 
C 653 1188 653 1738 653 2096 
C 653 2588 653 2997 736 3387 
C 858 3929 1216 4096 1466 4096 
C 1728 4096 2067 3923 2189 3400 
C 2272 3036 2278 2607 2278 2096 
C 2278 1680 2278 1169 2202 792 
C 2067 95 1690 -26 1466 -26 
z
" transform="scale(0.015625)"/>
       </defs>
       <use xlink:href="#CMSY10-0" transform="scale(0.996264)"/>
       <use xlink:href="#CMR17-32" transform="translate(77.487468 0) scale(0.996264)"/>
       <use xlink:href="#CMMI12-3a" transform="translate(123.177945 0) scale(0.996264)"/>
       <use xlink:href="#CMR17-30" transform="translate(150.275122 0) scale(0.996264)"/>
      </g>
     </g>
    </g>
    <g id="xtick_2">
     <g id="line2d_2">
      <g>
       <use xlink:href="#mf3fc6027c0" x="84.876299" y="303.52709" style="stroke: #000000; stroke-width: 0.8"/>
      </g>
     </g>
     <g id="text_2">
      <!-- $\mathdefault{−1.5}$ -->
      <g transform="translate(72.748234 318.82927) scale(0.12 -0.12)">
       <defs>
        <path id="CMR17-31" d="M 1702 4058 
C 1702 4192 1696 4192 1606 4192 
C 1357 3916 979 3827 621 3827 
C 602 3827 570 3827 563 3808 
C 557 3795 557 3782 557 3648 
C 755 3648 1088 3686 1344 3839 
L 1344 461 
C 1344 236 1331 160 781 160 
L 589 160 
L 589 0 
C 896 0 1216 0 1523 0 
C 1830 0 2150 0 2458 0 
L 2458 160 
L 2266 160 
C 1715 160 1702 230 1702 458 
L 1702 4058 
z
" transform="scale(0.015625)"/>
        <path id="CMR17-35" d="M 730 3692 
C 794 3666 1056 3584 1325 3584 
C 1920 3584 2246 3911 2432 4100 
C 2432 4157 2432 4192 2394 4192 
C 2387 4192 2374 4192 2323 4163 
C 2099 4058 1837 3973 1517 3973 
C 1325 3973 1037 3999 723 4139 
C 653 4171 640 4171 634 4171 
C 602 4171 595 4164 595 4037 
L 595 2203 
C 595 2089 595 2057 659 2057 
C 691 2057 704 2070 736 2114 
C 941 2401 1222 2522 1542 2522 
C 1766 2522 2246 2382 2246 1289 
C 2246 1085 2246 715 2054 421 
C 1894 159 1645 25 1370 25 
C 947 25 518 320 403 814 
C 429 807 480 795 506 795 
C 589 795 749 840 749 1038 
C 749 1210 627 1280 506 1280 
C 358 1280 262 1190 262 1011 
C 262 454 704 -128 1382 -128 
C 2042 -128 2669 440 2669 1264 
C 2669 2030 2170 2624 1549 2624 
C 1222 2624 947 2503 730 2274 
L 730 3692 
z
" transform="scale(0.015625)"/>
       </defs>
       <use xlink:href="#CMSY10-0" transform="scale(0.996264)"/>
       <use xlink:href="#CMR17-31" transform="translate(77.487468 0) scale(0.996264)"/>
       <use xlink:href="#CMMI12-3a" transform="translate(123.177945 0) scale(0.996264)"/>
       <use xlink:href="#CMR17-35" transform="translate(150.275122 0) scale(0.996264)"/>
      </g>
     </g>
    </g>
    <g id="xtick_3">
     <g id="line2d_3">
      <g>
       <use xlink:href="#mf3fc6027c0" x="122.541299" y="303.52709" style="stroke: #000000; stroke-width: 0.8"/>
      </g>
     </g>
     <g id="text_3">
      <!-- $\mathdefault{−1.0}$ -->
      <g transform="translate(110.413234 318.82927) scale(0.12 -0.12)">
       <use xlink:href="#CMSY10-0" transform="scale(0.996264)"/>
       <use xlink:href="#CMR17-31" transform="translate(77.487468 0) scale(0.996264)"/>
       <use xlink:href="#CMMI12-3a" transform="translate(123.177945 0) scale(0.996264)"/>
       <use xlink:href="#CMR17-30" transform="translate(150.275122 0) scale(0.996264)"/>
      </g>
     </g>
    </g>
    <g id="xtick_4">
     <g id="line2d_4">
      <g>
       <use xlink:href="#mf3fc6027c0" x="160.206299" y="303.52709" style="stroke: #000000; stroke-width: 0.8"/>
      </g>
     </g>
     <g id="text_4">
      <!-- $\mathdefault{−0.5}$ -->
      <g transform="translate(148.078234 318.82927) scale(0.12 -0.12)">
       <use xlink:href="#CMSY10-0" transform="scale(0.996264)"/>
       <use xlink:href="#CMR17-30" transform="translate(77.487468 0) scale(0.996264)"/>
       <use xlink:href="#CMMI12-3a" transform="translate(123.177945 0) scale(0.996264)"/>
       <use xlink:href="#CMR17-35" transform="translate(150.275122 0) scale(0.996264)"/>
      </g>
     </g>
    </g>
    <g id="xtick_5">
     <g id="line2d_5">
      <g>
       <use xlink:href="#mf3fc6027c0" x="197.871299" y="303.52709" style="stroke: #000000; stroke-width: 0.8"/>
      </g>
     </g>
     <g id="text_5">
      <!-- $\mathdefault{0.0}$ -->
      <g transform="translate(190.392478 318.82927) scale(0.12 -0.12)">
       <use xlink:href="#CMR17-30" transform="scale(0.996264)"/>
       <use xlink:href="#CMMI12-3a" transform="translate(45.690477 0) scale(0.996264)"/>
       <use xlink:href="#CMR17-30" transform="translate(72.787654 0) scale(0.996264)"/>
      </g>
     </g>
    </g>
    <g id="xtick_6">
     <g id="line2d_6">
      <g>
       <use xlink:href="#mf3fc6027c0" x="235.536299" y="303.52709" style="stroke: #000000; stroke-width: 0.8"/>
      </g>
     </g>
     <g id="text_6">
      <!-- $\mathdefault{0.5}$ -->
      <g transform="translate(228.057478 318.82927) scale(0.12 -0.12)">
       <use xlink:href="#CMR17-30" transform="scale(0.996264)"/>
       <use xlink:href="#CMMI12-3a" transform="translate(45.690477 0) scale(0.996264)"/>
       <use xlink:href="#CMR17-35" transform="translate(72.787654 0) scale(0.996264)"/>
      </g>
     </g>
    </g>
    <g id="xtick_7">
     <g id="line2d_7">
      <g>
       <use xlink:href="#mf3fc6027c0" x="273.201299" y="303.52709" style="stroke: #000000; stroke-width: 0.8"/>
      </g>
     </g>
     <g id="text_7">
      <!-- $\mathdefault{1.0}$ -->
      <g transform="translate(265.722478 318.82927) scale(0.12 -0.12)">
       <use xlink:href="#CMR17-31" transform="scale(0.996264)"/>
       <use xlink:href="#CMMI12-3a" transform="translate(45.690477 0) scale(0.996264)"/>
       <use xlink:href="#CMR17-30" transform="translate(72.787654 0) scale(0.996264)"/>
      </g>
     </g>
    </g>
    <g id="xtick_8">
     <g id="line2d_8">
      <g>
       <use xlink:href="#mf3fc6027c0" x="310.866299" y="303.52709" style="stroke: #000000; stroke-width: 0.8"/>
      </g>
     </g>
     <g id="text_8">
      <!-- $\mathdefault{1.5}$ -->
      <g transform="translate(303.387478 318.82927) scale(0.12 -0.12)">
       <use xlink:href="#CMR17-31" transform="scale(0.996264)"/>
       <use xlink:href="#CMMI12-3a" transform="translate(45.690477 0) scale(0.996264)"/>
       <use xlink:href="#CMR17-35" transform="translate(72.787654 0) scale(0.996264)"/>
      </g>
     </g>
    </g>
    <g id="xtick_9">
     <g id="line2d_9">
      <g>
       <use xlink:href="#mf3fc6027c0" x="348.531299" y="303.52709" style="stroke: #000000; stroke-width: 0.8"/>
      </g>
     </g>
     <g id="text_9">
      <!-- $\mathdefault{2.0}$ -->
      <g transform="translate(341.052478 318.82927) scale(0.12 -0.12)">
       <use xlink:href="#CMR17-32" transform="scale(0.996264)"/>
       <use xlink:href="#CMMI12-3a" transform="translate(45.690477 0) scale(0.996264)"/>
       <use xlink:href="#CMR17-30" transform="translate(72.787654 0) scale(0.996264)"/>
      </g>
     </g>
    </g>
    <g id="text_10">
     <!-- $\Delta\alpha/(\Delta k-2\pi/\Lambda)$ -->
     <g transform="translate(152.875848 334.120242) scale(0.12 -0.12)">
      <defs>
       <path id="CMR17-1" d="M 2598 4403 
C 2547 4512 2522 4512 2470 4512 
C 2394 4512 2387 4499 2342 4409 
L 269 109 
C 262 96 237 38 237 32 
C 237 6 243 0 358 0 
L 4576 0 
C 4691 0 4698 6 4698 32 
C 4698 38 4672 96 4666 109 
L 2598 4403 
z
M 2310 4038 
L 4083 358 
L 531 358 
L 2310 4038 
z
" transform="scale(0.015625)"/>
       <path id="CMMI12-b" d="M 2963 1616 
C 2963 2235 2611 2815 1933 2815 
C 1094 2815 256 1902 256 996 
C 256 441 602 -64 1254 -64 
C 1651 -64 2125 89 2579 472 
C 2669 115 2867 -64 3142 -64 
C 3488 -64 3661 294 3661 377 
C 3661 434 3616 434 3597 434 
C 3546 434 3539 415 3520 364 
C 3462 204 3315 64 3162 64 
C 2963 64 2963 472 2963 862 
C 3616 1641 3770 2446 3770 2452 
C 3770 2510 3718 2510 3699 2510 
C 3642 2510 3635 2491 3610 2376 
C 3526 2095 3360 1597 2963 1073 
L 2963 1616 
z
M 2560 626 
C 1997 121 1491 64 1267 64 
C 813 64 685 466 685 766 
C 685 1040 826 1692 1024 2044 
C 1286 2491 1645 2688 1933 2688 
C 2554 2688 2554 1877 2554 1341 
C 2554 1182 2547 1016 2547 856 
C 2547 728 2554 696 2560 626 
z
" transform="scale(0.015625)"/>
       <path id="CMMI12-3d" d="M 2746 4562 
C 2746 4569 2784 4666 2784 4678 
C 2784 4755 2720 4800 2669 4800 
C 2637 4800 2579 4800 2528 4659 
L 384 -1363 
C 384 -1370 346 -1465 346 -1478 
C 346 -1555 410 -1600 461 -1600 
C 499 -1600 557 -1593 602 -1459 
L 2746 4562 
z
" transform="scale(0.015625)"/>
       <path id="CMR17-28" d="M 1958 -1561 
C 1958 -1555 1958 -1542 1939 -1523 
C 1645 -1224 858 -407 858 1581 
C 858 3569 1632 4379 1946 4697 
C 1946 4704 1958 4717 1958 4736 
C 1958 4755 1939 4768 1914 4768 
C 1843 4768 1299 4296 986 3594 
C 666 2887 576 2199 576 1588 
C 576 1128 621 351 1005 -471 
C 1312 -1135 1837 -1600 1914 -1600 
C 1946 -1600 1958 -1587 1958 -1561 
z
" transform="scale(0.015625)"/>
       <path id="CMMI12-6b" d="M 1798 4257 
C 1805 4283 1818 4321 1818 4352 
C 1818 4416 1754 4416 1741 4416 
C 1734 4416 1504 4393 1389 4377 
C 1280 4377 1184 4358 1069 4358 
C 915 4345 870 4339 870 4224 
C 870 4160 934 4160 998 4160 
C 1325 4160 1325 4103 1325 4040 
C 1325 4015 1325 4002 1293 3888 
L 378 248 
C 352 152 352 140 352 101 
C 352 -38 461 -64 525 -64 
C 704 -64 742 77 794 275 
L 1094 1469 
C 1555 1418 1830 1226 1830 920 
C 1830 881 1830 856 1811 760 
C 1786 664 1786 588 1786 556 
C 1786 185 2029 -64 2355 -64 
C 2650 -64 2803 204 2854 294 
C 2989 530 3072 888 3072 913 
C 3072 945 3046 971 3008 971 
C 2950 971 2944 945 2918 843 
C 2829 511 2694 64 2368 64 
C 2240 64 2157 128 2157 370 
C 2157 492 2182 632 2208 728 
C 2234 843 2234 849 2234 926 
C 2234 1303 1894 1514 1306 1590 
C 1536 1731 1766 1980 1856 2076 
C 2221 2484 2470 2689 2765 2689 
C 2912 2689 2950 2650 2995 2612 
C 2758 2586 2669 2420 2669 2293 
C 2669 2139 2790 2088 2880 2088 
C 3053 2088 3206 2235 3206 2440 
C 3206 2625 3059 2816 2771 2816 
C 2419 2816 2131 2567 1677 2056 
C 1613 1980 1376 1737 1139 1648 
L 1798 4257 
z
" transform="scale(0.015625)"/>
       <path id="CMMI12-19" d="M 1658 2408 
L 2381 2408 
C 2208 1692 2099 1226 2099 716 
C 2099 626 2099 -64 2362 -64 
C 2496 -64 2611 57 2611 166 
C 2611 197 2611 210 2566 306 
C 2394 747 2394 1296 2394 1341 
C 2394 1379 2394 1832 2528 2408 
L 3245 2408 
C 3328 2408 3539 2408 3539 2612 
C 3539 2752 3418 2752 3302 2752 
L 1197 2752 
C 1050 2752 832 2752 538 2440 
C 371 2254 166 1916 166 1878 
C 166 1840 198 1827 237 1827 
C 282 1827 288 1846 320 1884 
C 653 2408 986 2408 1146 2408 
L 1510 2408 
C 1370 1929 1210 1373 685 256 
C 634 154 634 140 634 102 
C 634 -32 749 -64 806 -64 
C 992 -64 1043 102 1120 370 
C 1222 696 1222 709 1286 964 
L 1658 2408 
z
" transform="scale(0.015625)"/>
       <path id="CMR17-3" d="M 2150 4403 
C 2118 4505 2112 4512 2048 4512 
C 1984 4512 1978 4505 1946 4403 
L 685 576 
C 570 237 358 160 147 160 
L 147 0 
C 256 0 480 0 595 0 
C 755 0 1005 0 1158 -6 
L 1158 160 
C 819 160 800 404 800 449 
C 800 494 813 532 832 596 
L 1894 3835 
L 3008 461 
C 3040 372 3040 359 3040 340 
C 3040 160 2771 160 2637 160 
L 2637 0 
C 2822 0 3149 0 3347 0 
C 3507 0 3802 0 3949 -6 
L 3949 160 
C 3667 160 3552 160 3475 384 
L 2150 4403 
z
" transform="scale(0.015625)"/>
       <path id="CMR17-29" d="M 1683 1581 
C 1683 2040 1638 2817 1254 3639 
C 947 4303 422 4768 346 4768 
C 326 4768 301 4761 301 4729 
C 301 4717 307 4710 314 4697 
C 621 4378 1402 3568 1402 1584 
C 1402 -407 627 -1217 314 -1537 
C 307 -1549 301 -1556 301 -1568 
C 301 -1600 326 -1600 346 -1600 
C 416 -1600 960 -1128 1274 -426 
C 1594 281 1683 969 1683 1581 
z
" transform="scale(0.015625)"/>
      </defs>
      <use xlink:href="#CMR17-1" transform="scale(0.996264)"/>
      <use xlink:href="#CMMI12-b" transform="translate(76.91959 0) scale(0.996264)"/>
      <use xlink:href="#CMMI12-3d" transform="translate(139.600613 0) scale(0.996264)"/>
      <use xlink:href="#CMR17-28" transform="translate(188.375531 0) scale(0.996264)"/>
      <use xlink:href="#CMR17-1" transform="translate(223.656299 0) scale(0.996264)"/>
      <use xlink:href="#CMMI12-6b" transform="translate(300.575889 0) scale(0.996264)"/>
      <use xlink:href="#CMSY10-0" transform="translate(376.794297 0) scale(0.996264)"/>
      <use xlink:href="#CMR17-32" transform="translate(476.420971 0) scale(0.996264)"/>
      <use xlink:href="#CMMI12-19" transform="translate(522.111449 0) scale(0.996264)"/>
      <use xlink:href="#CMMI12-3d" transform="translate(581.022049 0) scale(0.996264)"/>
      <use xlink:href="#CMR17-3" transform="translate(629.796968 0) scale(0.996264)"/>
      <use xlink:href="#CMR17-29" transform="translate(693.66449 0) scale(0.996264)"/>
     </g>
    </g>
   </g>
   <g id="matplotlib.axis_2">
    <g id="ytick_1">
     <g id="line2d_10">
      <defs>
       <path id="m63fcfb475c" d="M 0 0 
L -3.5 0 
" style="stroke: #000000; stroke-width: 0.8"/>
      </defs>
      <g>
       <use xlink:href="#m63fcfb475c" x="47.211299" y="303.52709" style="stroke: #000000; stroke-width: 0.8"/>
      </g>
     </g>
     <g id="text_11">
      <!-- $\mathdefault{−2.0}$ -->
      <g transform="translate(15.955168 307.67818) scale(0.12 -0.12)">
       <use xlink:href="#CMSY10-0" transform="scale(0.996264)"/>
       <use xlink:href="#CMR17-32" transform="translate(77.487468 0) scale(0.996264)"/>
       <use xlink:href="#CMMI12-3a" transform="translate(123.177945 0) scale(0.996264)"/>
       <use xlink:href="#CMR17-30" transform="translate(150.275122 0) scale(0.996264)"/>
      </g>
     </g>
    </g>
    <g id="ytick_2">
     <g id="line2d_11">
      <g>
       <use xlink:href="#m63fcfb475c" x="47.211299" y="266.10509" style="stroke: #000000; stroke-width: 0.8"/>
      </g>
     </g>
     <g id="text_12">
      <!-- $\mathdefault{−1.5}$ -->
      <g transform="translate(15.955168 270.25618) scale(0.12 -0.12)">
       <use xlink:href="#CMSY10-0" transform="scale(0.996264)"/>
       <use xlink:href="#CMR17-31" transform="translate(77.487468 0) scale(0.996264)"/>
       <use xlink:href="#CMMI12-3a" transform="translate(123.177945 0) scale(0.996264)"/>
       <use xlink:href="#CMR17-35" transform="translate(150.275122 0) scale(0.996264)"/>
      </g>
     </g>
    </g>
    <g id="ytick_3">
     <g id="line2d_12">
      <g>
       <use xlink:href="#m63fcfb475c" x="47.211299" y="228.68309" style="stroke: #000000; stroke-width: 0.8"/>
      </g>
     </g>
     <g id="text_13">
      <!-- $\mathdefault{−1.0}$ -->
      <g transform="translate(15.955168 232.83418) scale(0.12 -0.12)">
       <use xlink:href="#CMSY10-0" transform="scale(0.996264)"/>
       <use xlink:href="#CMR17-31" transform="translate(77.487468 0) scale(0.996264)"/>
       <use xlink:href="#CMMI12-3a" transform="translate(123.177945 0) scale(0.996264)"/>
       <use xlink:href="#CMR17-30" transform="translate(150.275122 0) scale(0.996264)"/>
      </g>
     </g>
    </g>
    <g id="ytick_4">
     <g id="line2d_13">
      <g>
       <use xlink:href="#m63fcfb475c" x="47.211299" y="191.26109" style="stroke: #000000; stroke-width: 0.8"/>
      </g>
     </g>
     <g id="text_14">
      <!-- $\mathdefault{−0.5}$ -->
      <g transform="translate(15.955168 195.41218) scale(0.12 -0.12)">
       <use xlink:href="#CMSY10-0" transform="scale(0.996264)"/>
       <use xlink:href="#CMR17-30" transform="translate(77.487468 0) scale(0.996264)"/>
       <use xlink:href="#CMMI12-3a" transform="translate(123.177945 0) scale(0.996264)"/>
       <use xlink:href="#CMR17-35" transform="translate(150.275122 0) scale(0.996264)"/>
      </g>
     </g>
    </g>
    <g id="ytick_5">
     <g id="line2d_14">
      <g>
       <use xlink:href="#m63fcfb475c" x="47.211299" y="153.83909" style="stroke: #000000; stroke-width: 0.8"/>
      </g>
     </g>
     <g id="text_15">
      <!-- $\mathdefault{0.0}$ -->
      <g transform="translate(25.253658 157.99018) scale(0.12 -0.12)">
       <use xlink:href="#CMR17-30" transform="scale(0.996264)"/>
       <use xlink:href="#CMMI12-3a" transform="translate(45.690477 0) scale(0.996264)"/>
       <use xlink:href="#CMR17-30" transform="translate(72.787654 0) scale(0.996264)"/>
      </g>
     </g>
    </g>
    <g id="ytick_6">
     <g id="line2d_15">
      <g>
       <use xlink:href="#m63fcfb475c" x="47.211299" y="116.41709" style="stroke: #000000; stroke-width: 0.8"/>
      </g>
     </g>
     <g id="text_16">
      <!-- $\mathdefault{0.5}$ -->
      <g transform="translate(25.253658 120.56818) scale(0.12 -0.12)">
       <use xlink:href="#CMR17-30" transform="scale(0.996264)"/>
       <use xlink:href="#CMMI12-3a" transform="translate(45.690477 0) scale(0.996264)"/>
       <use xlink:href="#CMR17-35" transform="translate(72.787654 0) scale(0.996264)"/>
      </g>
     </g>
    </g>
    <g id="ytick_7">
     <g id="line2d_16">
      <g>
       <use xlink:href="#m63fcfb475c" x="47.211299" y="78.99509" style="stroke: #000000; stroke-width: 0.8"/>
      </g>
     </g>
     <g id="text_17">
      <!-- $\mathdefault{1.0}$ -->
      <g transform="translate(25.253658 83.14618) scale(0.12 -0.12)">
       <use xlink:href="#CMR17-31" transform="scale(0.996264)"/>
       <use xlink:href="#CMMI12-3a" transform="translate(45.690477 0) scale(0.996264)"/>
       <use xlink:href="#CMR17-30" transform="translate(72.787654 0) scale(0.996264)"/>
      </g>
     </g>
    </g>
    <g id="ytick_8">
     <g id="line2d_17">
      <g>
       <use xlink:href="#m63fcfb475c" x="47.211299" y="41.57309" style="stroke: #000000; stroke-width: 0.8"/>
      </g>
     </g>
     <g id="text_18">
      <!-- $\mathdefault{1.5}$ -->
      <g transform="translate(25.253658 45.72418) scale(0.12 -0.12)">
       <use xlink:href="#CMR17-31" transform="scale(0.996264)"/>
       <use xlink:href="#CMMI12-3a" transform="translate(45.690477 0) scale(0.996264)"/>
       <use xlink:href="#CMR17-35" transform="translate(72.787654 0) scale(0.996264)"/>
      </g>
     </g>
    </g>
    <g id="ytick_9">
     <g id="line2d_18">
      <g>
       <use xlink:href="#m63fcfb475c" x="47.211299" y="4.15109" style="stroke: #000000; stroke-width: 0.8"/>
      </g>
     </g>
     <g id="text_19">
      <!-- $\mathdefault{2.0}$ -->
      <g transform="translate(25.253658 8.30218) scale(0.12 -0.12)">
       <use xlink:href="#CMR17-32" transform="scale(0.996264)"/>
       <use xlink:href="#CMMI12-3a" transform="translate(45.690477 0) scale(0.996264)"/>
       <use xlink:href="#CMR17-30" transform="translate(72.787654 0) scale(0.996264)"/>
      </g>
     </g>
    </g>
    <g id="text_20">
     <!-- $(\Delta k-2\pi/\Lambda)L/2$ -->
     <g transform="translate(8.966376 197.104936) rotate(-90) scale(0.12 -0.12)">
      <defs>
       <path id="CMMI12-4c" d="M 2349 3861 
C 2406 4103 2426 4167 2989 4167 
C 3162 4167 3206 4167 3206 4288 
C 3206 4352 3136 4352 3110 4352 
C 2982 4352 2835 4352 2707 4352 
L 1850 4352 
C 1728 4352 1587 4352 1466 4352 
C 1414 4352 1344 4352 1344 4231 
C 1344 4167 1402 4167 1498 4167 
C 1888 4167 1888 4116 1888 4046 
C 1888 4034 1888 3995 1862 3899 
L 998 472 
C 941 249 928 185 480 185 
C 358 185 294 185 294 70 
C 294 0 333 0 461 0 
L 3328 0 
C 3469 0 3475 6 3520 121 
L 4013 1478 
C 4026 1510 4038 1548 4038 1567 
C 4038 1605 4006 1631 3974 1631 
C 3968 1631 3936 1631 3923 1605 
C 3910 1599 3910 1586 3859 1465 
C 3654 905 3366 185 2285 185 
L 1670 185 
C 1581 185 1568 185 1530 192 
C 1459 198 1453 211 1453 262 
C 1453 307 1466 345 1478 401 
L 2349 3861 
z
" transform="scale(0.015625)"/>
      </defs>
      <use xlink:href="#CMR17-28" transform="scale(0.996264)"/>
      <use xlink:href="#CMR17-1" transform="translate(35.280768 0) scale(0.996264)"/>
      <use xlink:href="#CMMI12-6b" transform="translate(112.200358 0) scale(0.996264)"/>
      <use xlink:href="#CMSY10-0" transform="translate(188.418765 0) scale(0.996264)"/>
      <use xlink:href="#CMR17-32" transform="translate(288.04544 0) scale(0.996264)"/>
      <use xlink:href="#CMMI12-19" transform="translate(333.735917 0) scale(0.996264)"/>
      <use xlink:href="#CMMI12-3d" transform="translate(392.646518 0) scale(0.996264)"/>
      <use xlink:href="#CMR17-3" transform="translate(441.421437 0) scale(0.996264)"/>
      <use xlink:href="#CMR17-29" transform="translate(505.288959 0) scale(0.996264)"/>
      <use xlink:href="#CMMI12-4c" transform="translate(540.569726 0) scale(0.996264)"/>
      <use xlink:href="#CMMI12-3d" transform="translate(606.940602 0) scale(0.996264)"/>
      <use xlink:href="#CMR17-32" transform="translate(655.715521 0) scale(0.996264)"/>
     </g>
    </g>
   </g>
   <g id="QuadContourSet_1">
    <path clip-path="url(#p1ce0dbecc7)" style="fill: none; stroke-dasharray: 5.55,2.4; stroke-dashoffset: 0; stroke: #000000; stroke-width: 1.5"/>
    <path d="M 275.581926 287.265253 
L 277.580523 285.950473 
L 279.641333 284.861454 
L 281.702144 284.027046 
L 283.762955 283.438853 
L 285.676566 283.113751 
L 287.590176 283.01241 
L 289.356585 283.140148 
L 291.013111 283.490689 
L 292.447802 284.027423 
L 293.625408 284.692924 
L 294.66885 285.538205 
L 295.548273 286.561962 
L 296.229362 287.731971 
L 296.717216 289.048231 
L 297.013557 290.510742 
L 297.121131 292.265755 
L 297.011026 294.181613 
L 296.642459 296.507037 
L 295.98062 299.200908 
L 294.950215 302.429013 
L 294.554743 303.52709 
M 294.554743 4.15109 
L 295.785309 7.807367 
L 296.549919 10.732389 
L 296.979063 13.218658 
L 297.120227 15.266173 
L 297.031728 17.021187 
L 296.757035 18.483698 
L 296.275022 19.84719 
L 295.64941 20.969966 
L 294.803014 22.00669 
L 293.772609 22.883327 
L 292.54949 23.602486 
L 291.270195 24.109194 
L 289.731944 24.479993 
L 288.031778 24.655034 
L 286.265369 24.62041 
L 284.351759 24.362357 
L 282.438148 23.889388 
L 280.377337 23.143406 
L 279.179625 22.595297 
L 279.179625 22.595297 
" clip-path="url(#p1ce0dbecc7)" style="fill: none; stroke-dasharray: 5.55,2.4; stroke-dashoffset: 0; stroke: #000000; stroke-width: 1.5"/>
    <path d="M 244.8911 303.52709 
L 247.779989 295.775782 
L 250.569173 288.90198 
L 253.231565 282.905685 
L 255.800859 277.640645 
L 258.327617 272.96061 
L 260.702037 269.011831 
L 263.007645 265.593329 
L 265.215657 262.701986 
L 267.423669 260.17861 
L 269.596998 258.042998 
L 271.545291 256.406463 
L 273.606101 254.94084 
L 275.814113 253.643502 
L 278.169326 252.530124 
L 280.671739 251.6027 
L 283.468554 250.813292 
L 286.706971 250.142915 
L 288.151183 249.906909 
M 325.303907 246.564332 
L 333.66402 245.490887 
L 341.907264 244.204928 
L 348.531299 243.00722 
M 348.531299 277.283821 
L 343.290503 280.565667 
L 338.668847 283.708891 
L 333.958422 287.179352 
L 329.395198 290.822483 
L 324.979174 294.634882 
L 320.563151 298.753176 
L 316.256269 303.088337 
L 315.837967 303.52709 
M 348.531299 64.67096 
L 340.288056 63.202613 
L 332.192013 61.981642 
L 323.801568 60.944591 
L 321.343022 60.682309 
M 284.234601 57.043989 
L 281.407743 56.305991 
L 278.758129 55.388032 
L 276.358672 54.315217 
L 274.194905 53.109539 
L 272.087567 51.682697 
L 270.073283 50.058942 
L 268.012472 48.111647 
L 265.930316 45.832653 
L 263.743649 43.08999 
L 261.535637 39.949664 
L 259.263747 36.326332 
L 256.873832 32.08505 
L 254.47 27.374219 
L 251.902228 21.847473 
L 249.23295 15.558676 
L 246.497135 8.538623 
L 244.8911 4.15109 
M 315.837967 4.15109 
L 319.866969 8.246121 
L 324.09597 12.244927 
L 328.544239 16.14368 
L 332.928016 19.701303 
L 337.638441 23.234019 
L 342.496067 26.589732 
L 347.648095 29.860903 
L 348.531299 30.394359 
L 348.531299 30.394359 
" clip-path="url(#p1ce0dbecc7)" style="fill: none; stroke-dasharray: 5.55,2.4; stroke-dashoffset: 0; stroke: #000000; stroke-width: 1.5"/>
    <path d="M 232.371657 303.52709 
L 234.49069 296.360786 
L 236.079885 290.21824 
L 237.174957 285.099451 
L 237.857294 280.85817 
L 238.22159 277.201892 
L 238.319646 273.984368 
L 238.186057 271.059346 
L 237.830271 268.280575 
L 237.247508 265.566534 
L 236.437552 262.869284 
L 235.269523 259.798011 
L 233.420288 255.642879 
L 230.179952 248.390426 
L 228.755238 244.587897 
L 227.677796 241.077871 
L 226.837499 237.567844 
L 226.231123 234.057818 
L 225.853615 230.547791 
L 225.702972 227.037765 
L 225.775223 223.67399 
L 226.07033 220.310214 
L 226.579025 217.09269 
L 227.29569 214.021417 
L 228.166691 211.242646 
L 229.21869 208.610127 
L 230.476272 206.076843 
L 231.860615 203.78384 
L 233.446437 201.590074 
L 235.202661 199.542558 
L 237.120051 197.641294 
L 239.308319 195.788556 
L 241.663532 194.080127 
L 244.403893 192.376255 
L 247.428972 190.767492 
L 250.78998 189.237709 
L 254.617201 187.750386 
L 258.886023 186.338655 
L 263.743649 184.97691 
L 269.190078 183.689129 
L 275.372511 182.463344 
L 282.290948 181.321266 
L 290.23979 180.240077 
L 299.071837 179.263617 
L 309.08149 178.380545 
L 320.268749 177.617562 
L 323.12209 177.455511 
M 348.531299 288.909681 
L 342.93767 292.420139 
L 337.764429 295.922033 
L 332.928016 299.455895 
L 328.217591 303.176383 
L 327.792456 303.52709 
M 348.531299 207.144825 
L 345.587284 209.219272 
L 343.077118 211.242646 
L 341.17126 213.054128 
L 339.835043 214.606422 
L 338.958792 215.922682 
L 338.420862 217.09269 
L 338.182042 218.116448 
L 338.197075 218.993955 
L 338.410764 219.72521 
L 338.869448 220.456466 
L 339.552052 221.095784 
L 340.435256 221.638795 
L 341.760063 222.176056 
L 343.379272 222.596618 
L 345.587284 222.93525 
L 348.384099 223.130453 
L 348.531299 223.135523 
M 348.531299 131.163723 
L 335.577631 130.792501 
L 322.771163 130.203374 
L 310.847899 129.43258 
L 300.249443 128.529749 
L 290.828593 127.509878 
L 282.585349 126.401029 
L 275.22531 125.188096 
L 268.895676 123.924948 
L 263.302047 122.586629 
L 258.444421 121.203754 
L 254.175598 119.767957 
L 250.288543 118.226947 
L 246.843201 116.618185 
L 243.871544 114.991311 
L 241.160589 113.25441 
L 238.719516 111.419284 
L 236.650278 109.598132 
L 234.670711 107.550617 
L 232.978686 105.480245 
L 231.482795 103.309335 
L 230.137639 100.969318 
L 228.963961 98.483049 
L 227.964106 95.850529 
L 227.140349 93.071758 
L 226.468985 90.000485 
L 226.002303 86.782961 
L 225.747057 83.419186 
L 225.712238 80.05541 
L 225.900766 76.545384 
L 226.316182 73.035358 
L 226.660697 71.00634 
M 238.250557 35.743722 
L 238.318278 32.962556 
L 238.168338 29.745032 
L 237.778041 26.235006 
L 237.091486 22.139975 
L 236.045108 17.313689 
L 234.57174 11.609896 
L 232.598608 4.882345 
L 232.371657 4.15109 
M 348.531299 84.542657 
L 345.440083 84.759564 
L 343.08487 85.144371 
L 341.434855 85.612952 
L 340.139676 86.197957 
L 339.25765 86.823046 
L 338.651291 87.514216 
L 338.299911 88.245472 
L 338.160706 89.122979 
L 338.254341 90.000485 
L 338.592772 91.024243 
L 339.25765 92.249712 
L 340.181897 93.510511 
L 341.657276 95.119274 
L 343.673674 96.945077 
L 346.028886 98.787042 
L 348.531299 100.533355 
M 327.792456 4.15109 
L 332.384032 7.807367 
L 337.196839 11.355221 
L 342.348866 14.872692 
L 347.942496 18.411135 
L 348.531299 18.768499 
L 348.531299 18.768499 
" clip-path="url(#p1ce0dbecc7)" style="fill: none; stroke-dasharray: 5.55,2.4; stroke-dashoffset: 0; stroke: #000000; stroke-width: 1.5"/>
    <path d="M 50.211814 303.52709 
L 47.211299 301.430425 
M 186.517247 303.52709 
L 186.651771 301.772077 
L 187.005424 300.163315 
L 187.50042 298.847055 
L 188.240196 297.530795 
L 189.181618 296.360786 
L 189.456209 296.083938 
M 197.871299 274.165408 
L 197.797699 14.658867 
L 195.969997 14.534918 
L 194.412081 14.24003 
L 192.792872 13.717258 
L 191.320865 12.999843 
L 190.141061 12.1949 
L 189.045591 11.171143 
L 188.229648 10.131947 
L 187.493644 8.816508 
L 186.962828 7.368614 
L 186.651771 5.906103 
L 186.519688 4.297341 
L 186.517247 4.15109 
M 209.225351 303.52709 
L 209.090828 301.772077 
L 208.737174 300.163315 
L 208.242178 298.847055 
L 207.502402 297.530795 
L 206.560981 296.360786 
L 205.59934 295.481495 
L 204.29516 294.605773 
L 203.096438 294.020768 
L 201.477718 293.47605 
L 199.711309 293.134824 
L 197.9449 293.019313 
L 197.871299 293.289513 
L 197.871299 303.52709 
M 345.530784 303.52709 
L 348.531299 301.430425 
M 47.211299 299.141488 
L 52.666327 302.649583 
L 53.929771 303.52709 
M 348.531299 299.141488 
L 343.076272 302.649583 
L 341.812827 303.52709 
M 47.211299 6.247755 
L 50.211814 4.15109 
M 348.531299 6.247755 
L 345.530784 4.15109 
M 53.929771 4.15109 
L 49.098845 7.368614 
L 47.211299 8.536691 
M 197.871299 4.15109 
L 197.9449 14.658867 
L 199.772601 14.534918 
L 201.330518 14.24003 
L 202.949726 13.717258 
L 204.421734 12.999843 
L 205.601538 12.1949 
L 206.697008 11.171143 
L 207.51295 10.131947 
L 208.248954 8.816508 
L 208.77977 7.368614 
L 209.090828 5.906103 
L 209.222911 4.297341 
L 209.225351 4.15109 
M 341.812827 4.15109 
L 346.643754 7.368614 
L 348.531299 8.536691 
L 348.531299 8.536691 
" clip-path="url(#p1ce0dbecc7)" style="fill: none; stroke: #000000; stroke-width: 1.5"/>
    <path d="M 163.370942 303.52709 
L 161.251908 296.360786 
L 159.662714 290.21824 
L 158.567642 285.099451 
L 157.885305 280.85817 
L 157.521009 277.201892 
L 157.422953 273.984368 
L 157.556541 271.059346 
L 157.885852 268.437806 
M 167.72094 242.284869 
L 168.617684 238.884104 
L 169.311135 235.374078 
L 169.773997 231.864051 
L 170.009837 228.354025 
L 170.017057 224.843999 
L 169.801183 221.480223 
L 169.375667 218.262699 
L 168.74847 215.191426 
L 167.91594 212.243212 
L 166.901363 209.487633 
L 165.755862 207.001364 
L 164.442135 204.661347 
L 162.911114 202.39559 
L 161.291905 200.377957 
L 159.378295 198.355276 
L 157.281305 196.471285 
L 154.962271 194.69084 
L 152.312657 192.951551 
L 149.368642 191.300573 
L 146.123089 189.743735 
L 142.450205 188.238587 
L 138.328583 186.799898 
L 133.765359 185.445912 
L 128.613332 184.150556 
L 122.7253 182.904575 
L 116.101265 181.733718 
L 108.594025 180.634969 
L 100.05638 179.613497 
L 90.341128 178.680889 
L 79.595471 177.874097 
L 67.525007 177.196188 
L 54.86574 176.707126 
L 47.211299 176.514457 
M 47.211299 288.909681 
L 52.804929 292.420139 
L 57.978169 295.922033 
L 62.814582 299.455895 
L 67.525007 303.176383 
L 67.950143 303.52709 
M 47.211299 207.144825 
L 50.155315 209.219272 
L 52.66548 211.242646 
L 54.571338 213.054128 
L 55.907556 214.606422 
L 56.783807 215.922682 
L 57.321737 217.09269 
L 57.560557 218.116448 
L 57.545523 218.993955 
L 57.331835 219.72521 
L 56.873151 220.456466 
L 56.190547 221.095784 
L 55.307342 221.638795 
L 53.982535 222.176056 
L 52.363327 222.596618 
L 50.155315 222.93525 
L 47.3585 223.130453 
L 47.211299 223.135523 
M 47.211299 131.163723 
L 60.164968 130.792501 
L 72.971436 130.203374 
L 84.894699 129.43258 
L 95.493156 128.529749 
L 104.914006 127.509878 
L 113.157249 126.401029 
L 120.517289 125.188096 
L 126.846922 123.924948 
L 132.440552 122.586629 
L 137.298178 121.203754 
L 141.567 119.767957 
L 145.454056 118.226947 
L 148.899398 116.618185 
L 151.871055 114.991311 
L 154.582009 113.25441 
L 157.023082 111.419284 
L 159.092321 109.598132 
L 161.071887 107.550617 
L 162.763913 105.480245 
L 164.259803 103.309335 
L 165.60496 100.969318 
L 166.778638 98.483049 
L 167.778493 95.850529 
L 168.60225 93.071758 
L 169.273614 90.000485 
L 169.740296 86.782961 
L 169.995541 83.419186 
L 170.030361 80.05541 
L 169.841832 76.545384 
L 169.426417 73.035358 
L 168.781452 69.525331 
L 168.031385 66.47868 
M 158.090061 40.350606 
L 157.67764 37.788843 
L 157.454448 35.010072 
L 157.442734 32.08505 
L 157.651741 28.867526 
L 158.115394 25.211248 
L 158.884177 20.969966 
L 160.017741 15.997429 
L 161.622332 10.001134 
L 163.370942 4.15109 
M 47.211299 84.542657 
L 50.302516 84.759564 
L 52.657728 85.144371 
L 54.307744 85.612952 
L 55.602922 86.197957 
L 56.484949 86.823046 
L 57.091308 87.514216 
L 57.442688 88.245472 
L 57.581892 89.122979 
L 57.488257 90.000485 
L 57.149826 91.024243 
L 56.484949 92.249712 
L 55.560702 93.510511 
L 54.085323 95.119274 
L 52.068925 96.945077 
L 49.713713 98.787042 
L 47.211299 100.533355 
M 67.950143 4.15109 
L 63.358566 7.807367 
L 58.545759 11.355221 
L 53.393732 14.872692 
L 47.800102 18.411135 
L 47.211299 18.768499 
L 47.211299 18.768499 
" clip-path="url(#p1ce0dbecc7)" style="fill: none; stroke: #000000; stroke-width: 1.5"/>
    <path d="M 150.851499 303.52709 
L 147.96261 295.775782 
L 145.173425 288.90198 
L 142.511034 282.905685 
L 139.94174 277.640645 
L 137.414981 272.96061 
L 135.040561 269.011831 
L 132.734953 265.593329 
L 130.526942 262.701986 
L 128.31893 260.17861 
L 126.145601 258.042998 
L 124.197308 256.406463 
L 122.136497 254.94084 
L 119.928485 253.643502 
L 117.573273 252.530124 
L 115.07086 251.6027 
L 112.274045 250.813292 
L 109.035628 250.142915 
L 106.933655 249.809763 
M 79.02725 247.442898 
L 70.174621 246.533855 
L 61.784177 245.448878 
L 53.688134 244.179852 
L 47.211299 243.00722 
M 47.211299 277.283821 
L 52.452095 280.565667 
L 57.073752 283.708891 
L 61.784177 287.179352 
L 65.77488 290.349385 
M 47.211299 64.67096 
L 55.454543 63.202613 
L 63.550586 61.981642 
L 71.941031 60.944591 
L 79.248838 60.215316 
M 107.15384 57.836502 
L 110.802037 57.19709 
L 113.893253 56.436027 
L 116.542867 55.558865 
L 118.89808 54.553597 
L 121.106092 53.375898 
L 123.314103 51.931869 
L 125.374914 50.313141 
L 127.435725 48.408264 
L 129.560583 46.125155 
L 131.58353 43.638887 
L 133.792482 40.567614 
L 136.039788 37.057587 
L 138.394068 32.962556 
L 140.830996 28.273141 
L 143.382159 22.871231 
L 146.030401 16.728684 
L 148.779839 9.774238 
L 150.851499 4.15109 
M 68.762819 14.806857 
L 64.28659 18.536896 
L 59.576165 22.160664 
L 54.862663 25.50375 
L 50.008114 28.678469 
L 47.211299 30.394359 
L 47.211299 30.394359 
" clip-path="url(#p1ce0dbecc7)" style="fill: none; stroke: #000000; stroke-width: 1.5"/>
    <path d="M 124.157086 290.749035 
L 122.212402 288.90198 
L 120.199336 287.293218 
L 118.162076 285.950473 
L 116.101265 284.861454 
L 114.040454 284.027046 
L 111.979643 283.438853 
L 110.066033 283.113751 
L 108.152423 283.01241 
L 106.386014 283.140148 
L 104.729487 283.490689 
L 103.294797 284.027423 
L 102.117191 284.692924 
L 101.073749 285.538205 
L 100.194325 286.561962 
L 99.513237 287.731971 
L 99.025382 289.048231 
L 98.729041 290.510742 
L 98.621467 292.265755 
L 98.731573 294.181613 
L 99.100139 296.507037 
L 99.761978 299.200908 
L 100.792384 302.429013 
L 101.187855 303.52709 
M 101.187855 4.15109 
L 99.957289 7.807367 
L 99.192679 10.732389 
L 98.763536 13.218658 
L 98.622371 15.266173 
L 98.710871 17.021187 
L 98.985563 18.483698 
L 99.467577 19.84719 
L 100.093188 20.969966 
L 100.939585 22.00669 
L 101.96999 22.883327 
L 103.193109 23.602486 
L 104.472403 24.109194 
L 106.010654 24.479993 
L 107.710821 24.655034 
L 109.47723 24.62041 
L 111.39084 24.362357 
L 113.30445 23.889388 
L 115.365261 23.143406 
L 117.43847 22.139975 
L 119.486883 20.885878 
L 121.522027 19.361204 
L 122.103078 18.871233 
L 122.103078 18.871233 
" clip-path="url(#p1ce0dbecc7)" style="fill: none; stroke: #000000; stroke-width: 1.5"/>
    <path clip-path="url(#p1ce0dbecc7)" style="fill: none; stroke: #000000; stroke-width: 1.5"/>
   </g>
   <g id="patch_3">
    <path d="M 47.211299 303.52709 
L 47.211299 4.15109 
" style="fill: none; stroke: #000000; stroke-width: 0.8; stroke-linejoin: miter; stroke-linecap: square"/>
   </g>
   <g id="patch_4">
    <path d="M 348.531299 303.52709 
L 348.531299 4.15109 
" style="fill: none; stroke: #000000; stroke-width: 0.8; stroke-linejoin: miter; stroke-linecap: square"/>
   </g>
   <g id="patch_5">
    <path d="M 47.211299 303.52709 
L 348.531299 303.52709 
" style="fill: none; stroke: #000000; stroke-width: 0.8; stroke-linejoin: miter; stroke-linecap: square"/>
   </g>
   <g id="patch_6">
    <path d="M 47.211299 4.15109 
L 348.531299 4.15109 
" style="fill: none; stroke: #000000; stroke-width: 0.8; stroke-linejoin: miter; stroke-linecap: square"/>
   </g>
   <g id="text_21">
    <!-- $\mathdefault{−0.75}$ -->
    <g transform="translate(257.708435 315.656757) rotate(-54.858297) scale(0.12 -0.12)">
     <defs>
      <path id="CMR17-37" d="M 2886 3941 
L 2886 4081 
L 1382 4081 
C 634 4081 621 4165 595 4288 
L 480 4288 
L 294 3094 
L 410 3094 
C 429 3215 474 3540 550 3661 
C 589 3712 1062 3712 1171 3712 
L 2579 3712 
L 1869 2661 
C 1395 1954 1069 999 1069 165 
C 1069 89 1069 -128 1299 -128 
C 1530 -128 1530 89 1530 171 
L 1530 465 
C 1530 1508 1709 2196 2003 2636 
L 2886 3941 
z
" transform="scale(0.015625)"/>
     </defs>
     <use xlink:href="#CMSY10-0" transform="scale(0.996264)"/>
     <use xlink:href="#CMR17-30" transform="translate(77.487468 0) scale(0.996264)"/>
     <use xlink:href="#CMMI12-3a" transform="translate(123.177945 0) scale(0.996264)"/>
     <use xlink:href="#CMR17-37" transform="translate(150.275122 0) scale(0.996264)"/>
     <use xlink:href="#CMR17-35" transform="translate(195.965599 0) scale(0.996264)"/>
    </g>
   </g>
   <g id="text_22">
    <!-- $\mathdefault{−0.75}$ -->
    <g transform="translate(254.348783 -0.258215) rotate(-308.276568) scale(0.12 -0.12)">
     <use xlink:href="#CMSY10-0" transform="scale(0.996264)"/>
     <use xlink:href="#CMR17-30" transform="translate(77.487468 0) scale(0.996264)"/>
     <use xlink:href="#CMMI12-3a" transform="translate(123.177945 0) scale(0.996264)"/>
     <use xlink:href="#CMR17-37" transform="translate(150.275122 0) scale(0.996264)"/>
     <use xlink:href="#CMR17-35" transform="translate(195.965599 0) scale(0.996264)"/>
    </g>
   </g>
   <g id="text_23">
    <!-- $\mathdefault{−0.50}$ -->
    <g transform="translate(291.969855 252.461417) rotate(-4.735585) scale(0.12 -0.12)">
     <use xlink:href="#CMSY10-0" transform="scale(0.996264)"/>
     <use xlink:href="#CMR17-30" transform="translate(77.487468 0) scale(0.996264)"/>
     <use xlink:href="#CMMI12-3a" transform="translate(123.177945 0) scale(0.996264)"/>
     <use xlink:href="#CMR17-35" transform="translate(150.275122 0) scale(0.996264)"/>
     <use xlink:href="#CMR17-30" transform="translate(195.965599 0) scale(0.996264)"/>
    </g>
   </g>
   <g id="text_24">
    <!-- $\mathdefault{−0.50}$ -->
    <g transform="translate(287.494359 60.824932) rotate(-355.009179) scale(0.12 -0.12)">
     <use xlink:href="#CMSY10-0" transform="scale(0.996264)"/>
     <use xlink:href="#CMR17-30" transform="translate(77.487468 0) scale(0.996264)"/>
     <use xlink:href="#CMMI12-3a" transform="translate(123.177945 0) scale(0.996264)"/>
     <use xlink:href="#CMR17-35" transform="translate(150.275122 0) scale(0.996264)"/>
     <use xlink:href="#CMR17-30" transform="translate(195.965599 0) scale(0.996264)"/>
    </g>
   </g>
   <g id="text_25">
    <!-- $\mathdefault{−0.25}$ -->
    <g transform="translate(326.817772 180.188239) rotate(-1.980269) scale(0.12 -0.12)">
     <use xlink:href="#CMSY10-0" transform="scale(0.996264)"/>
     <use xlink:href="#CMR17-30" transform="translate(77.487468 0) scale(0.996264)"/>
     <use xlink:href="#CMMI12-3a" transform="translate(123.177945 0) scale(0.996264)"/>
     <use xlink:href="#CMR17-32" transform="translate(150.275122 0) scale(0.996264)"/>
     <use xlink:href="#CMR17-35" transform="translate(195.965599 0) scale(0.996264)"/>
    </g>
   </g>
   <g id="text_26">
    <!-- $\mathdefault{−0.25}$ -->
    <g transform="translate(230.358477 68.595641) rotate(-69.735734) scale(0.12 -0.12)">
     <use xlink:href="#CMSY10-0" transform="scale(0.996264)"/>
     <use xlink:href="#CMR17-30" transform="translate(77.487468 0) scale(0.996264)"/>
     <use xlink:href="#CMMI12-3a" transform="translate(123.177945 0) scale(0.996264)"/>
     <use xlink:href="#CMR17-32" transform="translate(150.275122 0) scale(0.996264)"/>
     <use xlink:href="#CMR17-35" transform="translate(195.965599 0) scale(0.996264)"/>
    </g>
   </g>
   <g id="text_27">
    <!-- $\mathdefault{0.00}$ -->
    <g transform="translate(197.427681 298.987687) rotate(-71.625514) scale(0.12 -0.12)">
     <use xlink:href="#CMR17-30" transform="scale(0.996264)"/>
     <use xlink:href="#CMMI12-3a" transform="translate(45.690477 0) scale(0.996264)"/>
     <use xlink:href="#CMR17-30" transform="translate(72.787654 0) scale(0.996264)"/>
     <use xlink:href="#CMR17-30" transform="translate(118.478131 0) scale(0.996264)"/>
    </g>
   </g>
   <g id="text_28">
    <!-- $\mathdefault{0.25}$ -->
    <g transform="translate(161.293195 266.023035) rotate(-67.584501) scale(0.12 -0.12)">
     <use xlink:href="#CMR17-30" transform="scale(0.996264)"/>
     <use xlink:href="#CMMI12-3a" transform="translate(45.690477 0) scale(0.996264)"/>
     <use xlink:href="#CMR17-32" transform="translate(72.787654 0) scale(0.996264)"/>
     <use xlink:href="#CMR17-35" transform="translate(118.478131 0) scale(0.996264)"/>
    </g>
   </g>
   <g id="text_29">
    <!-- $\mathdefault{0.25}$ -->
    <g transform="translate(156.21995 44.976656) rotate(-292.571683) scale(0.12 -0.12)">
     <use xlink:href="#CMR17-30" transform="scale(0.996264)"/>
     <use xlink:href="#CMMI12-3a" transform="translate(45.690477 0) scale(0.996264)"/>
     <use xlink:href="#CMR17-32" transform="translate(72.787654 0) scale(0.996264)"/>
     <use xlink:href="#CMR17-35" transform="translate(118.478131 0) scale(0.996264)"/>
    </g>
   </g>
   <g id="text_30">
    <!-- $\mathdefault{0.50}$ -->
    <g transform="translate(82.384518 250.691615) rotate(-355.540019) scale(0.12 -0.12)">
     <use xlink:href="#CMR17-30" transform="scale(0.996264)"/>
     <use xlink:href="#CMMI12-3a" transform="translate(45.690477 0) scale(0.996264)"/>
     <use xlink:href="#CMR17-35" transform="translate(72.787654 0) scale(0.996264)"/>
     <use xlink:href="#CMR17-30" transform="translate(118.478131 0) scale(0.996264)"/>
    </g>
   </g>
   <g id="text_31">
    <!-- $\mathdefault{0.50}$ -->
    <g transform="translate(66.582422 294.70224) rotate(-316.334239) scale(0.12 -0.12)">
     <use xlink:href="#CMR17-30" transform="scale(0.996264)"/>
     <use xlink:href="#CMMI12-3a" transform="translate(45.690477 0) scale(0.996264)"/>
     <use xlink:href="#CMR17-35" transform="translate(72.787654 0) scale(0.996264)"/>
     <use xlink:href="#CMR17-30" transform="translate(118.478131 0) scale(0.996264)"/>
    </g>
   </g>
   <g id="text_32">
    <!-- $\mathdefault{0.50}$ -->
    <g transform="translate(83.0723 62.933106) rotate(-4.47532) scale(0.12 -0.12)">
     <use xlink:href="#CMR17-30" transform="scale(0.996264)"/>
     <use xlink:href="#CMMI12-3a" transform="translate(45.690477 0) scale(0.996264)"/>
     <use xlink:href="#CMR17-35" transform="translate(72.787654 0) scale(0.996264)"/>
     <use xlink:href="#CMR17-30" transform="translate(118.478131 0) scale(0.996264)"/>
    </g>
   </g>
   <g id="text_33">
    <!-- $\mathdefault{0.50}$ -->
    <g transform="translate(73.576957 14.588414) rotate(-44.377894) scale(0.12 -0.12)">
     <use xlink:href="#CMR17-30" transform="scale(0.996264)"/>
     <use xlink:href="#CMMI12-3a" transform="translate(45.690477 0) scale(0.996264)"/>
     <use xlink:href="#CMR17-35" transform="translate(72.787654 0) scale(0.996264)"/>
     <use xlink:href="#CMR17-30" transform="translate(118.478131 0) scale(0.996264)"/>
    </g>
   </g>
   <g id="text_34">
    <!-- $\mathdefault{0.75}$ -->
    <g transform="translate(124.099292 294.935466) rotate(-301.750538) scale(0.12 -0.12)">
     <use xlink:href="#CMR17-30" transform="scale(0.996264)"/>
     <use xlink:href="#CMMI12-3a" transform="translate(45.690477 0) scale(0.996264)"/>
     <use xlink:href="#CMR17-37" transform="translate(72.787654 0) scale(0.996264)"/>
     <use xlink:href="#CMR17-35" transform="translate(118.478131 0) scale(0.996264)"/>
    </g>
   </g>
   <g id="text_35">
    <!-- $\mathdefault{0.75}$ -->
    <g transform="translate(127.521744 18.280899) rotate(-56.514285) scale(0.12 -0.12)">
     <use xlink:href="#CMR17-30" transform="scale(0.996264)"/>
     <use xlink:href="#CMMI12-3a" transform="translate(45.690477 0) scale(0.996264)"/>
     <use xlink:href="#CMR17-37" transform="translate(72.787654 0) scale(0.996264)"/>
     <use xlink:href="#CMR17-35" transform="translate(118.478131 0) scale(0.996264)"/>
    </g>
   </g>
  </g>
 </g>
 <defs>
  <clipPath id="p1ce0dbecc7">
   <rect x="47.211299" y="4.15109" width="301.32" height="299.376"/>
  </clipPath>
 </defs>
</svg>
