<?xml version="1.0" encoding="utf-8" standalone="no"?>
<!DOCTYPE svg PUBLIC "-//W3C//DTD SVG 1.1//EN"
  "http://www.w3.org/Graphics/SVG/1.1/DTD/svg11.dtd">
<svg xmlns:xlink="http://www.w3.org/1999/xlink" width="358.349429pt" height="307.281944pt" viewBox="0 0 358.349429 307.281944" xmlns="http://www.w3.org/2000/svg" version="1.1">
 <metadata>
  <rdf:RDF xmlns:dc="http://purl.org/dc/elements/1.1/" xmlns:cc="http://creativecommons.org/ns#" xmlns:rdf="http://www.w3.org/1999/02/22-rdf-syntax-ns#">
   <cc:Work>
    <dc:type rdf:resource="http://purl.org/dc/dcmitype/StillImage"/>
    <dc:date>2025-04-08T15:25:46.081257</dc:date>
    <dc:format>image/svg+xml</dc:format>
    <dc:creator>
     <cc:Agent>
      <dc:title>Matplotlib v3.10.1, https://matplotlib.org/</dc:title>
     </cc:Agent>
    </dc:creator>
   </cc:Work>
  </rdf:RDF>
 </metadata>
 <defs>
  <style type="text/css">*{stroke-linejoin: round; stroke-linecap: butt}</style>
 </defs>
 <g id="figure_1">
  <g id="patch_1">
   <path d="M 0 307.281944 
L 358.349429 307.281944 
L 358.349429 0 
L 0 0 
z
" style="fill: #ffffff"/>
  </g>
  <g id="axes_1">
   <g id="patch_2">
    <path d="M 49.550608 81.529412 
L 350.870608 81.529412 
L 350.870608 0 
L 49.550608 0 
z
" style="fill: #ffffff"/>
   </g>
   <g id="matplotlib.axis_1">
    <g id="xtick_1">
     <g id="line2d_1">
      <path d="M 49.550608 81.529412 
L 49.550608 0 
" clip-path="url(#p413b306855)" style="fill: none; stroke: #b0b0b0; stroke-width: 0.8; stroke-linecap: square"/>
     </g>
     <g id="line2d_2">
      <defs>
       <path id="m240b3ffbfd" d="M 0 0 
L 0 -3.5 
" style="stroke: #000000; stroke-width: 0.8"/>
      </defs>
      <g>
       <use xlink:href="#m240b3ffbfd" x="49.550608" y="81.529412" style="stroke: #000000; stroke-width: 0.8"/>
      </g>
     </g>
     <g id="line2d_3">
      <defs>
       <path id="m9480807060" d="M 0 0 
L 0 3.5 
" style="stroke: #000000; stroke-width: 0.8"/>
      </defs>
      <g>
       <use xlink:href="#m9480807060" x="49.550608" y="0" style="stroke: #000000; stroke-width: 0.8"/>
      </g>
     </g>
     <g id="text_1">
      <!-- $\mathdefault{0.0}$ -->
      <g transform="translate(42.071787 93.331592) scale(0.12 -0.12)">
       <defs>
        <path id="CMR17-30" d="M 2688 2025 
C 2688 2416 2682 3080 2413 3591 
C 2176 4039 1798 4198 1466 4198 
C 1158 4198 768 4058 525 3597 
C 269 3118 243 2524 243 2025 
C 243 1661 250 1106 448 619 
C 723 -39 1216 -128 1466 -128 
C 1760 -128 2208 -7 2470 600 
C 2662 1042 2688 1559 2688 2025 
z
M 1466 -26 
C 1056 -26 813 325 723 812 
C 653 1188 653 1738 653 2096 
C 653 2588 653 2997 736 3387 
C 858 3929 1216 4096 1466 4096 
C 1728 4096 2067 3923 2189 3400 
C 2272 3036 2278 2607 2278 2096 
C 2278 1680 2278 1169 2202 792 
C 2067 95 1690 -26 1466 -26 
z
" transform="scale(0.015625)"/>
        <path id="CMMI12-3a" d="M 1178 307 
C 1178 492 1024 619 870 619 
C 685 619 557 466 557 313 
C 557 128 710 0 864 0 
C 1050 0 1178 153 1178 307 
z
" transform="scale(0.015625)"/>
       </defs>
       <use xlink:href="#CMR17-30" transform="scale(0.996264)"/>
       <use xlink:href="#CMMI12-3a" transform="translate(45.690477 0) scale(0.996264)"/>
       <use xlink:href="#CMR17-30" transform="translate(72.787654 0) scale(0.996264)"/>
      </g>
     </g>
    </g>
    <g id="xtick_2">
     <g id="line2d_4">
      <path d="M 109.814608 81.529412 
L 109.814608 0 
" clip-path="url(#p413b306855)" style="fill: none; stroke: #b0b0b0; stroke-width: 0.8; stroke-linecap: square"/>
     </g>
     <g id="line2d_5">
      <g>
       <use xlink:href="#m240b3ffbfd" x="109.814608" y="81.529412" style="stroke: #000000; stroke-width: 0.8"/>
      </g>
     </g>
     <g id="line2d_6">
      <g>
       <use xlink:href="#m9480807060" x="109.814608" y="0" style="stroke: #000000; stroke-width: 0.8"/>
      </g>
     </g>
     <g id="text_2">
      <!-- $\mathdefault{0.2}$ -->
      <g transform="translate(102.335787 93.331592) scale(0.12 -0.12)">
       <defs>
        <path id="CMR17-32" d="M 2669 989 
L 2554 989 
C 2490 536 2438 459 2413 420 
C 2381 369 1920 369 1830 369 
L 602 369 
C 832 619 1280 1072 1824 1597 
C 2214 1967 2669 2402 2669 3035 
C 2669 3790 2067 4224 1395 4224 
C 691 4224 262 3604 262 3030 
C 262 2780 448 2748 525 2748 
C 589 2748 781 2787 781 3010 
C 781 3207 614 3264 525 3264 
C 486 3264 448 3258 422 3245 
C 544 3790 915 4058 1306 4058 
C 1862 4058 2227 3617 2227 3035 
C 2227 2479 1901 2000 1536 1584 
L 262 146 
L 262 0 
L 2515 0 
L 2669 989 
z
" transform="scale(0.015625)"/>
       </defs>
       <use xlink:href="#CMR17-30" transform="scale(0.996264)"/>
       <use xlink:href="#CMMI12-3a" transform="translate(45.690477 0) scale(0.996264)"/>
       <use xlink:href="#CMR17-32" transform="translate(72.787654 0) scale(0.996264)"/>
      </g>
     </g>
    </g>
    <g id="xtick_3">
     <g id="line2d_7">
      <path d="M 170.078608 81.529412 
L 170.078608 0 
" clip-path="url(#p413b306855)" style="fill: none; stroke: #b0b0b0; stroke-width: 0.8; stroke-linecap: square"/>
     </g>
     <g id="line2d_8">
      <g>
       <use xlink:href="#m240b3ffbfd" x="170.078608" y="81.529412" style="stroke: #000000; stroke-width: 0.8"/>
      </g>
     </g>
     <g id="line2d_9">
      <g>
       <use xlink:href="#m9480807060" x="170.078608" y="0" style="stroke: #000000; stroke-width: 0.8"/>
      </g>
     </g>
     <g id="text_3">
      <!-- $\mathdefault{0.4}$ -->
      <g transform="translate(162.599787 93.331592) scale(0.12 -0.12)">
       <defs>
        <path id="CMR17-34" d="M 2150 4122 
C 2150 4256 2144 4256 2029 4256 
L 128 1254 
L 128 1088 
L 1779 1088 
L 1779 457 
C 1779 224 1766 160 1318 160 
L 1197 160 
L 1197 0 
C 1402 0 1747 0 1965 0 
C 2182 0 2528 0 2733 0 
L 2733 160 
L 2611 160 
C 2163 160 2150 224 2150 457 
L 2150 1088 
L 2803 1088 
L 2803 1254 
L 2150 1254 
L 2150 4122 
z
M 1798 3703 
L 1798 1254 
L 256 1254 
L 1798 3703 
z
" transform="scale(0.015625)"/>
       </defs>
       <use xlink:href="#CMR17-30" transform="scale(0.996264)"/>
       <use xlink:href="#CMMI12-3a" transform="translate(45.690477 0) scale(0.996264)"/>
       <use xlink:href="#CMR17-34" transform="translate(72.787654 0) scale(0.996264)"/>
      </g>
     </g>
    </g>
    <g id="xtick_4">
     <g id="line2d_10">
      <path d="M 230.342608 81.529412 
L 230.342608 0 
" clip-path="url(#p413b306855)" style="fill: none; stroke: #b0b0b0; stroke-width: 0.8; stroke-linecap: square"/>
     </g>
     <g id="line2d_11">
      <g>
       <use xlink:href="#m240b3ffbfd" x="230.342608" y="81.529412" style="stroke: #000000; stroke-width: 0.8"/>
      </g>
     </g>
     <g id="line2d_12">
      <g>
       <use xlink:href="#m9480807060" x="230.342608" y="0" style="stroke: #000000; stroke-width: 0.8"/>
      </g>
     </g>
     <g id="text_4">
      <!-- $\mathdefault{0.6}$ -->
      <g transform="translate(222.863787 93.331592) scale(0.12 -0.12)">
       <defs>
        <path id="CMR17-36" d="M 678 2176 
C 678 3690 1395 4032 1811 4032 
C 1946 4032 2272 4009 2400 3776 
C 2298 3776 2106 3776 2106 3553 
C 2106 3381 2246 3323 2336 3323 
C 2394 3323 2566 3348 2566 3560 
C 2566 3954 2246 4179 1805 4179 
C 1043 4179 243 3390 243 1984 
C 243 253 966 -128 1478 -128 
C 2099 -128 2688 427 2688 1283 
C 2688 2081 2170 2662 1517 2662 
C 1126 2662 838 2407 678 1960 
L 678 2176 
z
M 1478 25 
C 691 25 691 1200 691 1436 
C 691 1896 909 2560 1504 2560 
C 1613 2560 1926 2560 2138 2120 
C 2253 1870 2253 1609 2253 1289 
C 2253 944 2253 690 2118 434 
C 1978 171 1773 25 1478 25 
z
" transform="scale(0.015625)"/>
       </defs>
       <use xlink:href="#CMR17-30" transform="scale(0.996264)"/>
       <use xlink:href="#CMMI12-3a" transform="translate(45.690477 0) scale(0.996264)"/>
       <use xlink:href="#CMR17-36" transform="translate(72.787654 0) scale(0.996264)"/>
      </g>
     </g>
    </g>
    <g id="xtick_5">
     <g id="line2d_13">
      <path d="M 290.606608 81.529412 
L 290.606608 0 
" clip-path="url(#p413b306855)" style="fill: none; stroke: #b0b0b0; stroke-width: 0.8; stroke-linecap: square"/>
     </g>
     <g id="line2d_14">
      <g>
       <use xlink:href="#m240b3ffbfd" x="290.606608" y="81.529412" style="stroke: #000000; stroke-width: 0.8"/>
      </g>
     </g>
     <g id="line2d_15">
      <g>
       <use xlink:href="#m9480807060" x="290.606608" y="0" style="stroke: #000000; stroke-width: 0.8"/>
      </g>
     </g>
     <g id="text_5">
      <!-- $\mathdefault{0.8}$ -->
      <g transform="translate(283.127787 93.331592) scale(0.12 -0.12)">
       <defs>
        <path id="CMR17-38" d="M 1741 2264 
C 2144 2467 2554 2773 2554 3263 
C 2554 3841 1990 4179 1472 4179 
C 890 4179 378 3759 378 3180 
C 378 3021 416 2747 666 2505 
C 730 2442 998 2251 1171 2130 
C 883 1983 211 1634 211 934 
C 211 279 838 -128 1459 -128 
C 2144 -128 2720 362 2720 1010 
C 2720 1590 2330 1857 2074 2029 
L 1741 2264 
z
M 902 2822 
C 851 2854 595 3051 595 3351 
C 595 3739 998 4032 1459 4032 
C 1965 4032 2336 3676 2336 3262 
C 2336 2669 1670 2331 1638 2331 
C 1632 2331 1626 2331 1574 2370 
L 902 2822 
z
M 2080 1519 
C 2176 1449 2483 1240 2483 851 
C 2483 381 2010 25 1472 25 
C 890 25 448 438 448 940 
C 448 1443 838 1862 1280 2060 
L 2080 1519 
z
" transform="scale(0.015625)"/>
       </defs>
       <use xlink:href="#CMR17-30" transform="scale(0.996264)"/>
       <use xlink:href="#CMMI12-3a" transform="translate(45.690477 0) scale(0.996264)"/>
       <use xlink:href="#CMR17-38" transform="translate(72.787654 0) scale(0.996264)"/>
      </g>
     </g>
    </g>
    <g id="xtick_6">
     <g id="line2d_16">
      <path d="M 350.870608 81.529412 
L 350.870608 0 
" clip-path="url(#p413b306855)" style="fill: none; stroke: #b0b0b0; stroke-width: 0.8; stroke-linecap: square"/>
     </g>
     <g id="line2d_17">
      <g>
       <use xlink:href="#m240b3ffbfd" x="350.870608" y="81.529412" style="stroke: #000000; stroke-width: 0.8"/>
      </g>
     </g>
     <g id="line2d_18">
      <g>
       <use xlink:href="#m9480807060" x="350.870608" y="0" style="stroke: #000000; stroke-width: 0.8"/>
      </g>
     </g>
     <g id="text_6">
      <!-- $\mathdefault{1.0}$ -->
      <g transform="translate(343.391787 93.331592) scale(0.12 -0.12)">
       <defs>
        <path id="CMR17-31" d="M 1702 4058 
C 1702 4192 1696 4192 1606 4192 
C 1357 3916 979 3827 621 3827 
C 602 3827 570 3827 563 3808 
C 557 3795 557 3782 557 3648 
C 755 3648 1088 3686 1344 3839 
L 1344 461 
C 1344 236 1331 160 781 160 
L 589 160 
L 589 0 
C 896 0 1216 0 1523 0 
C 1830 0 2150 0 2458 0 
L 2458 160 
L 2266 160 
C 1715 160 1702 230 1702 458 
L 1702 4058 
z
" transform="scale(0.015625)"/>
       </defs>
       <use xlink:href="#CMR17-31" transform="scale(0.996264)"/>
       <use xlink:href="#CMMI12-3a" transform="translate(45.690477 0) scale(0.996264)"/>
       <use xlink:href="#CMR17-30" transform="translate(72.787654 0) scale(0.996264)"/>
      </g>
     </g>
    </g>
   </g>
   <g id="matplotlib.axis_2">
    <g id="ytick_1">
     <g id="line2d_19">
      <path d="M 49.550608 67.546883 
L 350.870608 67.546883 
" clip-path="url(#p413b306855)" style="fill: none; stroke: #b0b0b0; stroke-width: 0.8; stroke-linecap: square"/>
     </g>
     <g id="line2d_20">
      <defs>
       <path id="mc9b3cfb049" d="M 0 0 
L 3.5 0 
" style="stroke: #000000; stroke-width: 0.8"/>
      </defs>
      <g>
       <use xlink:href="#mc9b3cfb049" x="49.550608" y="67.546883" style="stroke: #000000; stroke-width: 0.8"/>
      </g>
     </g>
     <g id="line2d_21">
      <defs>
       <path id="m12d5bb22a9" d="M 0 0 
L -3.5 0 
" style="stroke: #000000; stroke-width: 0.8"/>
      </defs>
      <g>
       <use xlink:href="#m12d5bb22a9" x="350.870608" y="67.546883" style="stroke: #000000; stroke-width: 0.8"/>
      </g>
     </g>
     <g id="text_7">
      <!-- $\mathdefault{10^{0}}$ -->
      <g transform="translate(30.110445 71.697972) scale(0.12 -0.12)">
       <use xlink:href="#CMR17-31" transform="scale(0.996264)"/>
       <use xlink:href="#CMR17-30" transform="translate(45.690477 0) scale(0.996264)"/>
       <use xlink:href="#CMR17-30" transform="translate(91.380954 36.153639) scale(0.697382)"/>
      </g>
     </g>
    </g>
    <g id="ytick_2">
     <g id="line2d_22">
      <path d="M 49.550608 19.321016 
L 350.870608 19.321016 
" clip-path="url(#p413b306855)" style="fill: none; stroke: #b0b0b0; stroke-width: 0.8; stroke-linecap: square"/>
     </g>
     <g id="line2d_23">
      <g>
       <use xlink:href="#mc9b3cfb049" x="49.550608" y="19.321016" style="stroke: #000000; stroke-width: 0.8"/>
      </g>
     </g>
     <g id="line2d_24">
      <g>
       <use xlink:href="#m12d5bb22a9" x="350.870608" y="19.321016" style="stroke: #000000; stroke-width: 0.8"/>
      </g>
     </g>
     <g id="text_8">
      <!-- $\mathdefault{10^{1}}$ -->
      <g transform="translate(30.110445 23.472106) scale(0.12 -0.12)">
       <use xlink:href="#CMR17-31" transform="scale(0.996264)"/>
       <use xlink:href="#CMR17-30" transform="translate(45.690477 0) scale(0.996264)"/>
       <use xlink:href="#CMR17-31" transform="translate(91.380954 36.153639) scale(0.697382)"/>
      </g>
     </g>
    </g>
    <g id="ytick_3">
     <g id="line2d_25">
      <defs>
       <path id="mb605f9eb51" d="M 0 0 
L 2 0 
" style="stroke: #000000; stroke-width: 0.6"/>
      </defs>
      <g>
       <use xlink:href="#mb605f9eb51" x="49.550608" y="78.245731" style="stroke: #000000; stroke-width: 0.6"/>
      </g>
     </g>
     <g id="line2d_26">
      <defs>
       <path id="m056979d744" d="M 0 0 
L -2 0 
" style="stroke: #000000; stroke-width: 0.6"/>
      </defs>
      <g>
       <use xlink:href="#m056979d744" x="350.870608" y="78.245731" style="stroke: #000000; stroke-width: 0.6"/>
      </g>
     </g>
    </g>
    <g id="ytick_4">
     <g id="line2d_27">
      <g>
       <use xlink:href="#mb605f9eb51" x="49.550608" y="75.017164" style="stroke: #000000; stroke-width: 0.6"/>
      </g>
     </g>
     <g id="line2d_28">
      <g>
       <use xlink:href="#m056979d744" x="350.870608" y="75.017164" style="stroke: #000000; stroke-width: 0.6"/>
      </g>
     </g>
    </g>
    <g id="ytick_5">
     <g id="line2d_29">
      <g>
       <use xlink:href="#mb605f9eb51" x="49.550608" y="72.220452" style="stroke: #000000; stroke-width: 0.6"/>
      </g>
     </g>
     <g id="line2d_30">
      <g>
       <use xlink:href="#m056979d744" x="350.870608" y="72.220452" style="stroke: #000000; stroke-width: 0.6"/>
      </g>
     </g>
    </g>
    <g id="ytick_6">
     <g id="line2d_31">
      <g>
       <use xlink:href="#mb605f9eb51" x="49.550608" y="69.753577" style="stroke: #000000; stroke-width: 0.6"/>
      </g>
     </g>
     <g id="line2d_32">
      <g>
       <use xlink:href="#m056979d744" x="350.870608" y="69.753577" style="stroke: #000000; stroke-width: 0.6"/>
      </g>
     </g>
    </g>
    <g id="ytick_7">
     <g id="line2d_33">
      <g>
       <use xlink:href="#mb605f9eb51" x="49.550608" y="53.02945" style="stroke: #000000; stroke-width: 0.6"/>
      </g>
     </g>
     <g id="line2d_34">
      <g>
       <use xlink:href="#m056979d744" x="350.870608" y="53.02945" style="stroke: #000000; stroke-width: 0.6"/>
      </g>
     </g>
    </g>
    <g id="ytick_8">
     <g id="line2d_35">
      <g>
       <use xlink:href="#mb605f9eb51" x="49.550608" y="44.537297" style="stroke: #000000; stroke-width: 0.6"/>
      </g>
     </g>
     <g id="line2d_36">
      <g>
       <use xlink:href="#m056979d744" x="350.870608" y="44.537297" style="stroke: #000000; stroke-width: 0.6"/>
      </g>
     </g>
    </g>
    <g id="ytick_9">
     <g id="line2d_37">
      <g>
       <use xlink:href="#mb605f9eb51" x="49.550608" y="38.512018" style="stroke: #000000; stroke-width: 0.6"/>
      </g>
     </g>
     <g id="line2d_38">
      <g>
       <use xlink:href="#m056979d744" x="350.870608" y="38.512018" style="stroke: #000000; stroke-width: 0.6"/>
      </g>
     </g>
    </g>
    <g id="ytick_10">
     <g id="line2d_39">
      <g>
       <use xlink:href="#mb605f9eb51" x="49.550608" y="33.838449" style="stroke: #000000; stroke-width: 0.6"/>
      </g>
     </g>
     <g id="line2d_40">
      <g>
       <use xlink:href="#m056979d744" x="350.870608" y="33.838449" style="stroke: #000000; stroke-width: 0.6"/>
      </g>
     </g>
    </g>
    <g id="ytick_11">
     <g id="line2d_41">
      <g>
       <use xlink:href="#mb605f9eb51" x="49.550608" y="30.019865" style="stroke: #000000; stroke-width: 0.6"/>
      </g>
     </g>
     <g id="line2d_42">
      <g>
       <use xlink:href="#m056979d744" x="350.870608" y="30.019865" style="stroke: #000000; stroke-width: 0.6"/>
      </g>
     </g>
    </g>
    <g id="ytick_12">
     <g id="line2d_43">
      <g>
       <use xlink:href="#mb605f9eb51" x="49.550608" y="26.791298" style="stroke: #000000; stroke-width: 0.6"/>
      </g>
     </g>
     <g id="line2d_44">
      <g>
       <use xlink:href="#m056979d744" x="350.870608" y="26.791298" style="stroke: #000000; stroke-width: 0.6"/>
      </g>
     </g>
    </g>
    <g id="ytick_13">
     <g id="line2d_45">
      <g>
       <use xlink:href="#mb605f9eb51" x="49.550608" y="23.994586" style="stroke: #000000; stroke-width: 0.6"/>
      </g>
     </g>
     <g id="line2d_46">
      <g>
       <use xlink:href="#m056979d744" x="350.870608" y="23.994586" style="stroke: #000000; stroke-width: 0.6"/>
      </g>
     </g>
    </g>
    <g id="ytick_14">
     <g id="line2d_47">
      <g>
       <use xlink:href="#mb605f9eb51" x="49.550608" y="21.527711" style="stroke: #000000; stroke-width: 0.6"/>
      </g>
     </g>
     <g id="line2d_48">
      <g>
       <use xlink:href="#m056979d744" x="350.870608" y="21.527711" style="stroke: #000000; stroke-width: 0.6"/>
      </g>
     </g>
    </g>
    <g id="ytick_15">
     <g id="line2d_49">
      <g>
       <use xlink:href="#mb605f9eb51" x="49.550608" y="4.803584" style="stroke: #000000; stroke-width: 0.6"/>
      </g>
     </g>
     <g id="line2d_50">
      <g>
       <use xlink:href="#m056979d744" x="350.870608" y="4.803584" style="stroke: #000000; stroke-width: 0.6"/>
      </g>
     </g>
    </g>
    <g id="text_9">
     <!-- $S_0(z)/S_0(0)$ -->
     <g transform="translate(23.121653 70.639302) rotate(-90) scale(0.12 -0.12)">
      <defs>
       <path id="CMMI12-53" d="M 4064 4423 
C 4064 4480 4019 4480 4006 4480 
C 3981 4480 3974 4474 3898 4378 
C 3859 4333 3597 4001 3590 3995 
C 3379 4410 2957 4480 2688 4480 
C 1875 4480 1139 3743 1139 3025 
C 1139 2549 1427 2269 1741 2161 
C 1811 2135 2189 2033 2381 1989 
C 2707 1900 2790 1875 2925 1735 
C 2950 1703 3078 1557 3078 1258 
C 3078 667 2528 57 1888 57 
C 1363 57 781 280 781 991 
C 781 1112 806 1265 826 1328 
C 826 1348 832 1378 832 1391 
C 832 1417 819 1449 768 1449 
C 710 1449 704 1436 678 1328 
L 352 24 
C 352 18 326 -64 326 -71 
C 326 -128 378 -128 390 -128 
C 416 -128 422 -122 499 -26 
L 794 356 
C 947 126 1280 -128 1875 -128 
C 2701 -128 3456 666 3456 1460 
C 3456 1728 3392 1963 3149 2197 
C 3014 2331 2899 2363 2310 2516 
C 1882 2630 1824 2649 1709 2751 
C 1600 2858 1517 3011 1517 3227 
C 1517 3761 2061 4308 2669 4308 
C 3296 4308 3590 3926 3590 3323 
C 3590 3158 3558 2986 3558 2961 
C 3558 2903 3610 2903 3629 2903 
C 3686 2903 3693 2922 3718 3024 
L 4064 4423 
z
" transform="scale(0.015625)"/>
       <path id="CMR17-28" d="M 1958 -1561 
C 1958 -1555 1958 -1542 1939 -1523 
C 1645 -1224 858 -407 858 1581 
C 858 3569 1632 4379 1946 4697 
C 1946 4704 1958 4717 1958 4736 
C 1958 4755 1939 4768 1914 4768 
C 1843 4768 1299 4296 986 3594 
C 666 2887 576 2199 576 1588 
C 576 1128 621 351 1005 -471 
C 1312 -1135 1837 -1600 1914 -1600 
C 1946 -1600 1958 -1587 1958 -1561 
z
" transform="scale(0.015625)"/>
       <path id="CMMI12-7a" d="M 813 486 
C 1088 803 1312 1004 1632 1296 
C 2016 1632 2182 1793 2272 1891 
C 2720 2338 2944 2713 2944 2764 
C 2944 2816 2893 2816 2880 2816 
C 2835 2816 2822 2793 2790 2750 
C 2630 2494 2477 2367 2310 2367 
C 2176 2367 2106 2421 1984 2565 
C 1850 2715 1741 2816 1555 2816 
C 1088 2816 806 2257 806 2128 
C 806 2108 813 2068 870 2068 
C 922 2068 928 2091 947 2133 
C 1056 2372 1363 2414 1485 2414 
C 1619 2414 1747 2376 1882 2327 
C 2125 2240 2227 2240 2291 2240 
C 2336 2240 2362 2240 2394 2246 
C 2182 1994 1837 1683 1549 1418 
L 902 816 
C 512 415 275 33 275 -12 
C 275 -51 307 -64 346 -64 
C 384 -64 390 -57 435 14 
C 538 163 742 384 979 384 
C 1114 384 1178 342 1306 193 
C 1427 61 1536 -64 1741 -64 
C 2368 -64 2726 732 2726 876 
C 2726 903 2720 942 2656 942 
C 2605 942 2598 917 2579 855 
C 2438 488 2061 338 1811 338 
C 1677 338 1549 376 1414 425 
C 1158 512 1088 512 1005 512 
C 941 512 870 512 813 486 
z
" transform="scale(0.015625)"/>
       <path id="CMR17-29" d="M 1683 1581 
C 1683 2040 1638 2817 1254 3639 
C 947 4303 422 4768 346 4768 
C 326 4768 301 4761 301 4729 
C 301 4717 307 4710 314 4697 
C 621 4378 1402 3568 1402 1584 
C 1402 -407 627 -1217 314 -1537 
C 307 -1549 301 -1556 301 -1568 
C 301 -1600 326 -1600 346 -1600 
C 416 -1600 960 -1128 1274 -426 
C 1594 281 1683 969 1683 1581 
z
" transform="scale(0.015625)"/>
       <path id="CMMI12-3d" d="M 2746 4562 
C 2746 4569 2784 4666 2784 4678 
C 2784 4755 2720 4800 2669 4800 
C 2637 4800 2579 4800 2528 4659 
L 384 -1363 
C 384 -1370 346 -1465 346 -1478 
C 346 -1555 410 -1600 461 -1600 
C 499 -1600 557 -1593 602 -1459 
L 2746 4562 
z
" transform="scale(0.015625)"/>
      </defs>
      <use xlink:href="#CMMI12-53" transform="scale(0.996264)"/>
      <use xlink:href="#CMR17-30" transform="translate(59.994488 -14.943915) scale(0.697382)"/>
      <use xlink:href="#CMR17-28" transform="translate(92.475802 0) scale(0.996264)"/>
      <use xlink:href="#CMMI12-7a" transform="translate(127.75657 0) scale(0.996264)"/>
      <use xlink:href="#CMR17-29" transform="translate(177.511714 0) scale(0.996264)"/>
      <use xlink:href="#CMMI12-3d" transform="translate(212.792482 0) scale(0.996264)"/>
      <use xlink:href="#CMMI12-53" transform="translate(261.567401 0) scale(0.996264)"/>
      <use xlink:href="#CMR17-30" transform="translate(321.561889 -14.943915) scale(0.697382)"/>
      <use xlink:href="#CMR17-28" transform="translate(354.043203 0) scale(0.996264)"/>
      <use xlink:href="#CMR17-30" transform="translate(389.323971 0) scale(0.996264)"/>
      <use xlink:href="#CMR17-29" transform="translate(435.014448 0) scale(0.996264)"/>
     </g>
    </g>
   </g>
   <g id="line2d_51">
    <path d="M 49.550608 67.546883 
L 77.826972 66.047869 
L 96.677881 65.26523 
L 112.583335 64.822985 
L 127.016062 64.640537 
L 140.859699 64.688675 
L 154.40879 64.961242 
L 167.957881 65.458419 
L 182.096062 66.204282 
L 197.412426 67.240583 
L 215.96879 68.730939 
L 267.80879 73.03223 
L 283.419699 74.01665 
L 298.441517 74.74149 
L 313.757881 75.257436 
L 330.252426 75.588591 
L 348.219699 75.725269 
L 350.870608 75.727516 
L 350.870608 75.727516 
" clip-path="url(#p413b306855)" style="fill: none; stroke: #e50000; stroke-width: 1.5; stroke-linecap: square"/>
   </g>
   <g id="line2d_52">
    <path d="M 49.550608 67.546883 
L 66.339699 67.73953 
L 82.834244 68.150919 
L 99.623335 68.79078 
L 117.590608 69.700959 
L 138.20879 70.977942 
L 169.725153 73.189644 
L 199.179699 75.176804 
L 218.030608 76.223844 
L 234.819699 76.93739 
L 251.60879 77.425729 
L 269.281517 77.713382 
L 290.194244 77.822394 
L 325.539699 77.739549 
L 350.870608 77.693675 
L 350.870608 77.693675 
" clip-path="url(#p413b306855)" style="fill: none; stroke: #15b01a; stroke-width: 1.5; stroke-linecap: square"/>
   </g>
   <g id="line2d_53">
    <path d="M 49.550608 67.546883 
L 68.990608 69.153928 
L 83.717881 70.151222 
L 96.383335 70.792436 
L 108.165153 71.17173 
L 119.652426 71.318387 
L 130.845153 71.241236 
L 142.332426 70.940611 
L 154.40879 70.401039 
L 167.663335 69.582159 
L 183.274244 68.383502 
L 204.481517 66.509623 
L 250.136062 62.421626 
L 269.576062 60.94538 
L 286.954244 59.847146 
L 303.44879 59.026763 
L 319.354244 58.456534 
L 334.965153 58.116983 
L 350.576062 58.000443 
L 350.870608 58.000403 
L 350.870608 58.000403 
" clip-path="url(#p413b306855)" style="fill: none; stroke: #069af3; stroke-width: 1.5; stroke-linecap: square"/>
   </g>
   <g id="line2d_54">
    <path d="M 49.550608 67.546883 
L 56.325153 63.185956 
L 62.805153 59.281855 
L 69.285153 55.642945 
L 75.765153 52.257306 
L 82.539699 48.968705 
L 89.60879 45.786168 
L 96.972426 42.714569 
L 104.630608 39.755931 
L 112.877881 36.809111 
L 121.714244 33.896206 
L 130.845153 31.121481 
L 140.565153 28.400661 
L 150.874244 25.748211 
L 161.772426 23.177015 
L 173.259699 20.699073 
L 185.336062 18.326159 
L 197.706972 16.120334 
L 210.666972 14.034598 
L 223.921517 12.123767 
L 237.765153 10.354495 
L 251.903335 8.775501 
L 266.041517 7.418581 
L 280.474244 6.256254 
L 294.906972 5.314637 
L 309.634244 4.578116 
L 324.361517 4.066013 
L 339.08879 3.776983 
L 350.870608 3.705882 
L 350.870608 3.705882 
" clip-path="url(#p413b306855)" style="fill: none; stroke: #d1b26f; stroke-width: 1.5; stroke-linecap: square"/>
   </g>
   <g id="line2d_55">
    <path d="M 49.550608 67.546883 
L 51.612426 67.567893 
L 53.96879 67.353636 
L 56.325153 66.894376 
L 58.681517 66.208637 
L 61.332426 65.198629 
L 64.277881 63.830999 
L 67.812426 61.933857 
L 72.525153 59.134802 
L 88.430608 49.479771 
L 93.732426 46.604497 
L 98.739699 44.127355 
L 103.746972 41.893943 
L 108.754244 39.906704 
L 113.761517 38.163069 
L 118.76879 36.65805 
L 123.776062 35.38578 
L 128.783335 34.340414 
L 133.790608 33.51665 
L 138.797881 32.910023 
L 143.805153 32.517052 
L 148.812426 32.335321 
L 154.114244 32.371686 
L 159.416062 32.643143 
L 164.423335 33.11633 
L 169.430608 33.802064 
L 174.437881 34.703123 
L 179.445153 35.822968 
L 184.452426 37.165425 
L 189.459699 38.734178 
L 194.466972 40.531923 
L 199.474244 42.559 
L 204.776062 44.950483 
L 210.372426 47.731734 
L 216.557881 51.065182 
L 233.936062 60.638816 
L 237.470608 62.218551 
L 240.416062 63.305088 
L 243.066972 64.060336 
L 245.717881 64.572114 
L 248.074244 64.803791 
L 250.430608 64.815912 
L 252.786972 64.607559 
L 255.143335 64.185849 
L 257.794244 63.47453 
L 260.739699 62.424526 
L 263.979699 61.009619 
L 267.80879 59.07661 
L 273.110608 56.119289 
L 288.426972 47.423146 
L 294.023335 44.565105 
L 299.325153 42.097918 
L 304.626972 39.880438 
L 309.634244 38.019884 
L 314.641517 36.385734 
L 319.64879 34.974922 
L 324.656062 33.783367 
L 329.957881 32.755964 
L 335.259699 31.964925 
L 340.561517 31.406373 
L 345.863335 31.077442 
L 350.870608 30.976051 
L 350.870608 30.976051 
" clip-path="url(#p413b306855)" style="fill: none; stroke: #029386; stroke-width: 1.5; stroke-linecap: square"/>
   </g>
   <g id="patch_3">
    <path d="M 49.550608 81.529412 
L 49.550608 0 
" style="fill: none; stroke: #000000; stroke-width: 0.8; stroke-linejoin: miter; stroke-linecap: square"/>
   </g>
   <g id="patch_4">
    <path d="M 350.870608 81.529412 
L 350.870608 0 
" style="fill: none; stroke: #000000; stroke-width: 0.8; stroke-linejoin: miter; stroke-linecap: square"/>
   </g>
   <g id="patch_5">
    <path d="M 49.550608 81.529412 
L 350.870608 81.529412 
" style="fill: none; stroke: #000000; stroke-width: 0.8; stroke-linejoin: miter; stroke-linecap: square"/>
   </g>
   <g id="patch_6">
    <path d="M 49.550608 0 
L 350.870608 0 
" style="fill: none; stroke: #000000; stroke-width: 0.8; stroke-linejoin: miter; stroke-linecap: square"/>
   </g>
   <g id="legend_1">
    <g id="patch_7">
     <path d="M 260.879683 69.91731 
L 344.570608 69.91731 
Q 346.370608 69.91731 346.370608 68.11731 
L 346.370608 6.3 
Q 346.370608 4.5 344.570608 4.5 
L 260.879683 4.5 
Q 259.079683 4.5 259.079683 6.3 
L 259.079683 68.11731 
Q 259.079683 69.91731 260.879683 69.91731 
z
" style="fill: #ffffff; opacity: 0.8; stroke: #cccccc; stroke-linejoin: miter"/>
    </g>
    <g id="line2d_56">
     <path d="M 262.679683 11.25 
L 280.679683 11.25 
L 298.679683 11.25 
" style="fill: none; stroke: #e50000; stroke-width: 1.5; stroke-linecap: square"/>
    </g>
    <g id="text_10">
     <!-- $\beta=2.0$ -->
     <g transform="translate(305.879683 14.4) scale(0.09 -0.09)">
      <defs>
       <path id="CMMI12-c" d="M 3622 3701 
C 3622 4081 3296 4480 2714 4480 
C 1888 4480 1363 3477 1197 2816 
L 186 -1172 
C 173 -1223 211 -1236 243 -1236 
C 288 -1236 320 -1230 326 -1198 
L 774 586 
C 838 229 1190 -64 1568 -64 
C 2483 -64 3347 650 3347 1599 
C 3347 1841 3290 2083 3155 2287 
C 3078 2408 2982 2497 2880 2574 
C 3341 2815 3622 3200 3622 3701 
z
M 2509 2580 
C 2406 2542 2304 2529 2182 2529 
C 2093 2529 2010 2523 1894 2561 
C 1958 2606 2054 2618 2189 2618 
C 2304 2618 2419 2606 2509 2580 
z
M 3290 3758 
C 3290 3410 3117 2903 2701 2669 
C 2579 2718 2413 2752 2272 2752 
C 2138 2752 1754 2752 1754 2555 
C 1754 2389 2106 2389 2214 2389 
C 2381 2389 2528 2432 2682 2484 
C 2886 2318 2976 2101 2976 1783 
C 2976 1413 2874 1115 2752 841 
C 2541 369 2042 64 1600 64 
C 1133 64 890 432 890 864 
C 890 922 890 1005 915 1099 
L 1331 2771 
C 1542 3603 2080 4353 2701 4353 
C 3162 4353 3290 4036 3290 3758 
z
" transform="scale(0.015625)"/>
       <path id="CMR17-3d" d="M 4115 2017 
C 4211 2017 4307 2017 4307 2125 
C 4307 2240 4198 2240 4090 2240 
L 512 2240 
C 403 2240 294 2240 294 2125 
C 294 2017 390 2017 486 2017 
L 4115 2017 
z
M 4090 896 
C 4198 896 4307 896 4307 1011 
C 4307 1119 4211 1119 4115 1119 
L 486 1119 
C 390 1119 294 1119 294 1011 
C 294 896 403 896 512 896 
L 4090 896 
z
" transform="scale(0.015625)"/>
      </defs>
      <use xlink:href="#CMMI12-c" transform="scale(0.996264)"/>
      <use xlink:href="#CMR17-3d" transform="translate(88.268024 0) scale(0.996264)"/>
      <use xlink:href="#CMR17-32" transform="translate(187.656822 0) scale(0.996264)"/>
      <use xlink:href="#CMMI12-3a" transform="translate(233.347299 0) scale(0.996264)"/>
      <use xlink:href="#CMR17-30" transform="translate(260.444476 0) scale(0.996264)"/>
     </g>
    </g>
    <g id="line2d_57">
     <path d="M 262.679683 23.793462 
L 280.679683 23.793462 
L 298.679683 23.793462 
" style="fill: none; stroke: #15b01a; stroke-width: 1.5; stroke-linecap: square"/>
    </g>
    <g id="text_11">
     <!-- $\beta=1.0$ -->
     <g transform="translate(305.879683 26.943462) scale(0.09 -0.09)">
      <use xlink:href="#CMMI12-c" transform="scale(0.996264)"/>
      <use xlink:href="#CMR17-3d" transform="translate(88.268024 0) scale(0.996264)"/>
      <use xlink:href="#CMR17-31" transform="translate(187.656822 0) scale(0.996264)"/>
      <use xlink:href="#CMMI12-3a" transform="translate(233.347299 0) scale(0.996264)"/>
      <use xlink:href="#CMR17-30" transform="translate(260.444476 0) scale(0.996264)"/>
     </g>
    </g>
    <g id="line2d_58">
     <path d="M 262.679683 36.336924 
L 280.679683 36.336924 
L 298.679683 36.336924 
" style="fill: none; stroke: #069af3; stroke-width: 1.5; stroke-linecap: square"/>
    </g>
    <g id="text_12">
     <!-- $\beta=0.0$ -->
     <g transform="translate(305.879683 39.486924) scale(0.09 -0.09)">
      <use xlink:href="#CMMI12-c" transform="scale(0.996264)"/>
      <use xlink:href="#CMR17-3d" transform="translate(88.268024 0) scale(0.996264)"/>
      <use xlink:href="#CMR17-30" transform="translate(187.656822 0) scale(0.996264)"/>
      <use xlink:href="#CMMI12-3a" transform="translate(233.347299 0) scale(0.996264)"/>
      <use xlink:href="#CMR17-30" transform="translate(260.444476 0) scale(0.996264)"/>
     </g>
    </g>
    <g id="line2d_59">
     <path d="M 262.679683 48.880386 
L 280.679683 48.880386 
L 298.679683 48.880386 
" style="fill: none; stroke: #d1b26f; stroke-width: 1.5; stroke-linecap: square"/>
    </g>
    <g id="text_13">
     <!-- $\beta=-1.0$ -->
     <g transform="translate(305.879683 52.030386) scale(0.09 -0.09)">
      <defs>
       <path id="CMSY10-0" d="M 4218 1472 
C 4326 1472 4442 1472 4442 1600 
C 4442 1728 4326 1728 4218 1728 
L 755 1728 
C 646 1728 531 1728 531 1600 
C 531 1472 646 1472 755 1472 
L 4218 1472 
z
" transform="scale(0.015625)"/>
      </defs>
      <use xlink:href="#CMMI12-c" transform="scale(0.996264)"/>
      <use xlink:href="#CMR17-3d" transform="translate(88.268024 0) scale(0.996264)"/>
      <use xlink:href="#CMSY10-0" transform="translate(187.656822 0) scale(0.996264)"/>
      <use xlink:href="#CMR17-31" transform="translate(265.144289 0) scale(0.996264)"/>
      <use xlink:href="#CMMI12-3a" transform="translate(310.834766 0) scale(0.996264)"/>
      <use xlink:href="#CMR17-30" transform="translate(337.931943 0) scale(0.996264)"/>
     </g>
    </g>
    <g id="line2d_60">
     <path d="M 262.679683 61.423848 
L 280.679683 61.423848 
L 298.679683 61.423848 
" style="fill: none; stroke: #029386; stroke-width: 1.5; stroke-linecap: square"/>
    </g>
    <g id="text_14">
     <!-- $\beta=-2.0$ -->
     <g transform="translate(305.879683 64.573848) scale(0.09 -0.09)">
      <use xlink:href="#CMMI12-c" transform="scale(0.996264)"/>
      <use xlink:href="#CMR17-3d" transform="translate(88.268024 0) scale(0.996264)"/>
      <use xlink:href="#CMSY10-0" transform="translate(187.656822 0) scale(0.996264)"/>
      <use xlink:href="#CMR17-32" transform="translate(265.144289 0) scale(0.996264)"/>
      <use xlink:href="#CMMI12-3a" transform="translate(310.834766 0) scale(0.996264)"/>
      <use xlink:href="#CMR17-30" transform="translate(337.931943 0) scale(0.996264)"/>
     </g>
    </g>
   </g>
  </g>
  <g id="axes_2">
   <g id="patch_8">
    <path d="M 49.550608 179.364706 
L 350.870608 179.364706 
L 350.870608 97.835294 
L 49.550608 97.835294 
z
" style="fill: #ffffff"/>
   </g>
   <g id="matplotlib.axis_3">
    <g id="xtick_7">
     <g id="line2d_61">
      <path d="M 49.550608 179.364706 
L 49.550608 97.835294 
" clip-path="url(#pe3021f9b2f)" style="fill: none; stroke: #b0b0b0; stroke-width: 0.8; stroke-linecap: square"/>
     </g>
     <g id="line2d_62">
      <g>
       <use xlink:href="#m240b3ffbfd" x="49.550608" y="179.364706" style="stroke: #000000; stroke-width: 0.8"/>
      </g>
     </g>
     <g id="line2d_63">
      <g>
       <use xlink:href="#m9480807060" x="49.550608" y="97.835294" style="stroke: #000000; stroke-width: 0.8"/>
      </g>
     </g>
     <g id="text_15">
      <!-- $\mathdefault{0.0}$ -->
      <g transform="translate(42.071787 191.166886) scale(0.12 -0.12)">
       <use xlink:href="#CMR17-30" transform="scale(0.996264)"/>
       <use xlink:href="#CMMI12-3a" transform="translate(45.690477 0) scale(0.996264)"/>
       <use xlink:href="#CMR17-30" transform="translate(72.787654 0) scale(0.996264)"/>
      </g>
     </g>
    </g>
    <g id="xtick_8">
     <g id="line2d_64">
      <path d="M 109.814608 179.364706 
L 109.814608 97.835294 
" clip-path="url(#pe3021f9b2f)" style="fill: none; stroke: #b0b0b0; stroke-width: 0.8; stroke-linecap: square"/>
     </g>
     <g id="line2d_65">
      <g>
       <use xlink:href="#m240b3ffbfd" x="109.814608" y="179.364706" style="stroke: #000000; stroke-width: 0.8"/>
      </g>
     </g>
     <g id="line2d_66">
      <g>
       <use xlink:href="#m9480807060" x="109.814608" y="97.835294" style="stroke: #000000; stroke-width: 0.8"/>
      </g>
     </g>
     <g id="text_16">
      <!-- $\mathdefault{0.2}$ -->
      <g transform="translate(102.335787 191.166886) scale(0.12 -0.12)">
       <use xlink:href="#CMR17-30" transform="scale(0.996264)"/>
       <use xlink:href="#CMMI12-3a" transform="translate(45.690477 0) scale(0.996264)"/>
       <use xlink:href="#CMR17-32" transform="translate(72.787654 0) scale(0.996264)"/>
      </g>
     </g>
    </g>
    <g id="xtick_9">
     <g id="line2d_67">
      <path d="M 170.078608 179.364706 
L 170.078608 97.835294 
" clip-path="url(#pe3021f9b2f)" style="fill: none; stroke: #b0b0b0; stroke-width: 0.8; stroke-linecap: square"/>
     </g>
     <g id="line2d_68">
      <g>
       <use xlink:href="#m240b3ffbfd" x="170.078608" y="179.364706" style="stroke: #000000; stroke-width: 0.8"/>
      </g>
     </g>
     <g id="line2d_69">
      <g>
       <use xlink:href="#m9480807060" x="170.078608" y="97.835294" style="stroke: #000000; stroke-width: 0.8"/>
      </g>
     </g>
     <g id="text_17">
      <!-- $\mathdefault{0.4}$ -->
      <g transform="translate(162.599787 191.166886) scale(0.12 -0.12)">
       <use xlink:href="#CMR17-30" transform="scale(0.996264)"/>
       <use xlink:href="#CMMI12-3a" transform="translate(45.690477 0) scale(0.996264)"/>
       <use xlink:href="#CMR17-34" transform="translate(72.787654 0) scale(0.996264)"/>
      </g>
     </g>
    </g>
    <g id="xtick_10">
     <g id="line2d_70">
      <path d="M 230.342608 179.364706 
L 230.342608 97.835294 
" clip-path="url(#pe3021f9b2f)" style="fill: none; stroke: #b0b0b0; stroke-width: 0.8; stroke-linecap: square"/>
     </g>
     <g id="line2d_71">
      <g>
       <use xlink:href="#m240b3ffbfd" x="230.342608" y="179.364706" style="stroke: #000000; stroke-width: 0.8"/>
      </g>
     </g>
     <g id="line2d_72">
      <g>
       <use xlink:href="#m9480807060" x="230.342608" y="97.835294" style="stroke: #000000; stroke-width: 0.8"/>
      </g>
     </g>
     <g id="text_18">
      <!-- $\mathdefault{0.6}$ -->
      <g transform="translate(222.863787 191.166886) scale(0.12 -0.12)">
       <use xlink:href="#CMR17-30" transform="scale(0.996264)"/>
       <use xlink:href="#CMMI12-3a" transform="translate(45.690477 0) scale(0.996264)"/>
       <use xlink:href="#CMR17-36" transform="translate(72.787654 0) scale(0.996264)"/>
      </g>
     </g>
    </g>
    <g id="xtick_11">
     <g id="line2d_73">
      <path d="M 290.606608 179.364706 
L 290.606608 97.835294 
" clip-path="url(#pe3021f9b2f)" style="fill: none; stroke: #b0b0b0; stroke-width: 0.8; stroke-linecap: square"/>
     </g>
     <g id="line2d_74">
      <g>
       <use xlink:href="#m240b3ffbfd" x="290.606608" y="179.364706" style="stroke: #000000; stroke-width: 0.8"/>
      </g>
     </g>
     <g id="line2d_75">
      <g>
       <use xlink:href="#m9480807060" x="290.606608" y="97.835294" style="stroke: #000000; stroke-width: 0.8"/>
      </g>
     </g>
     <g id="text_19">
      <!-- $\mathdefault{0.8}$ -->
      <g transform="translate(283.127787 191.166886) scale(0.12 -0.12)">
       <use xlink:href="#CMR17-30" transform="scale(0.996264)"/>
       <use xlink:href="#CMMI12-3a" transform="translate(45.690477 0) scale(0.996264)"/>
       <use xlink:href="#CMR17-38" transform="translate(72.787654 0) scale(0.996264)"/>
      </g>
     </g>
    </g>
    <g id="xtick_12">
     <g id="line2d_76">
      <path d="M 350.870608 179.364706 
L 350.870608 97.835294 
" clip-path="url(#pe3021f9b2f)" style="fill: none; stroke: #b0b0b0; stroke-width: 0.8; stroke-linecap: square"/>
     </g>
     <g id="line2d_77">
      <g>
       <use xlink:href="#m240b3ffbfd" x="350.870608" y="179.364706" style="stroke: #000000; stroke-width: 0.8"/>
      </g>
     </g>
     <g id="line2d_78">
      <g>
       <use xlink:href="#m9480807060" x="350.870608" y="97.835294" style="stroke: #000000; stroke-width: 0.8"/>
      </g>
     </g>
     <g id="text_20">
      <!-- $\mathdefault{1.0}$ -->
      <g transform="translate(343.391787 191.166886) scale(0.12 -0.12)">
       <use xlink:href="#CMR17-31" transform="scale(0.996264)"/>
       <use xlink:href="#CMMI12-3a" transform="translate(45.690477 0) scale(0.996264)"/>
       <use xlink:href="#CMR17-30" transform="translate(72.787654 0) scale(0.996264)"/>
      </g>
     </g>
    </g>
   </g>
   <g id="matplotlib.axis_4">
    <g id="ytick_16">
     <g id="line2d_79">
      <path d="M 49.550608 177.423529 
L 350.870608 177.423529 
" clip-path="url(#pe3021f9b2f)" style="fill: none; stroke: #b0b0b0; stroke-width: 0.8; stroke-linecap: square"/>
     </g>
     <g id="line2d_80">
      <g>
       <use xlink:href="#mc9b3cfb049" x="49.550608" y="177.423529" style="stroke: #000000; stroke-width: 0.8"/>
      </g>
     </g>
     <g id="line2d_81">
      <g>
       <use xlink:href="#m12d5bb22a9" x="350.870608" y="177.423529" style="stroke: #000000; stroke-width: 0.8"/>
      </g>
     </g>
     <g id="text_21">
      <!-- $\mathdefault{−1}$ -->
      <g transform="translate(30.899128 181.574619) scale(0.12 -0.12)">
       <use xlink:href="#CMSY10-0" transform="scale(0.996264)"/>
       <use xlink:href="#CMR17-31" transform="translate(77.487468 0) scale(0.996264)"/>
      </g>
     </g>
    </g>
    <g id="ytick_17">
     <g id="line2d_82">
      <path d="M 49.550608 138.6 
L 350.870608 138.6 
" clip-path="url(#pe3021f9b2f)" style="fill: none; stroke: #b0b0b0; stroke-width: 0.8; stroke-linecap: square"/>
     </g>
     <g id="line2d_83">
      <g>
       <use xlink:href="#mc9b3cfb049" x="49.550608" y="138.6" style="stroke: #000000; stroke-width: 0.8"/>
      </g>
     </g>
     <g id="line2d_84">
      <g>
       <use xlink:href="#m12d5bb22a9" x="350.870608" y="138.6" style="stroke: #000000; stroke-width: 0.8"/>
      </g>
     </g>
     <g id="text_22">
      <!-- $\mathdefault{0}$ -->
      <g transform="translate(40.197618 142.75109) scale(0.12 -0.12)">
       <use xlink:href="#CMR17-30" transform="scale(0.996264)"/>
      </g>
     </g>
    </g>
    <g id="ytick_18">
     <g id="line2d_85">
      <path d="M 49.550608 99.776471 
L 350.870608 99.776471 
" clip-path="url(#pe3021f9b2f)" style="fill: none; stroke: #b0b0b0; stroke-width: 0.8; stroke-linecap: square"/>
     </g>
     <g id="line2d_86">
      <g>
       <use xlink:href="#mc9b3cfb049" x="49.550608" y="99.776471" style="stroke: #000000; stroke-width: 0.8"/>
      </g>
     </g>
     <g id="line2d_87">
      <g>
       <use xlink:href="#m12d5bb22a9" x="350.870608" y="99.776471" style="stroke: #000000; stroke-width: 0.8"/>
      </g>
     </g>
     <g id="text_23">
      <!-- $\mathdefault{1}$ -->
      <g transform="translate(40.197618 103.92756) scale(0.12 -0.12)">
       <use xlink:href="#CMR17-31" transform="scale(0.996264)"/>
      </g>
     </g>
    </g>
    <g id="ytick_19">
     <g id="line2d_88">
      <g>
       <use xlink:href="#mb605f9eb51" x="49.550608" y="169.658824" style="stroke: #000000; stroke-width: 0.6"/>
      </g>
     </g>
     <g id="line2d_89">
      <g>
       <use xlink:href="#m056979d744" x="350.870608" y="169.658824" style="stroke: #000000; stroke-width: 0.6"/>
      </g>
     </g>
    </g>
    <g id="ytick_20">
     <g id="line2d_90">
      <g>
       <use xlink:href="#mb605f9eb51" x="49.550608" y="161.894118" style="stroke: #000000; stroke-width: 0.6"/>
      </g>
     </g>
     <g id="line2d_91">
      <g>
       <use xlink:href="#m056979d744" x="350.870608" y="161.894118" style="stroke: #000000; stroke-width: 0.6"/>
      </g>
     </g>
    </g>
    <g id="ytick_21">
     <g id="line2d_92">
      <g>
       <use xlink:href="#mb605f9eb51" x="49.550608" y="154.129412" style="stroke: #000000; stroke-width: 0.6"/>
      </g>
     </g>
     <g id="line2d_93">
      <g>
       <use xlink:href="#m056979d744" x="350.870608" y="154.129412" style="stroke: #000000; stroke-width: 0.6"/>
      </g>
     </g>
    </g>
    <g id="ytick_22">
     <g id="line2d_94">
      <g>
       <use xlink:href="#mb605f9eb51" x="49.550608" y="146.364706" style="stroke: #000000; stroke-width: 0.6"/>
      </g>
     </g>
     <g id="line2d_95">
      <g>
       <use xlink:href="#m056979d744" x="350.870608" y="146.364706" style="stroke: #000000; stroke-width: 0.6"/>
      </g>
     </g>
    </g>
    <g id="ytick_23">
     <g id="line2d_96">
      <g>
       <use xlink:href="#mb605f9eb51" x="49.550608" y="130.835294" style="stroke: #000000; stroke-width: 0.6"/>
      </g>
     </g>
     <g id="line2d_97">
      <g>
       <use xlink:href="#m056979d744" x="350.870608" y="130.835294" style="stroke: #000000; stroke-width: 0.6"/>
      </g>
     </g>
    </g>
    <g id="ytick_24">
     <g id="line2d_98">
      <g>
       <use xlink:href="#mb605f9eb51" x="49.550608" y="123.070588" style="stroke: #000000; stroke-width: 0.6"/>
      </g>
     </g>
     <g id="line2d_99">
      <g>
       <use xlink:href="#m056979d744" x="350.870608" y="123.070588" style="stroke: #000000; stroke-width: 0.6"/>
      </g>
     </g>
    </g>
    <g id="ytick_25">
     <g id="line2d_100">
      <g>
       <use xlink:href="#mb605f9eb51" x="49.550608" y="115.305882" style="stroke: #000000; stroke-width: 0.6"/>
      </g>
     </g>
     <g id="line2d_101">
      <g>
       <use xlink:href="#m056979d744" x="350.870608" y="115.305882" style="stroke: #000000; stroke-width: 0.6"/>
      </g>
     </g>
    </g>
    <g id="ytick_26">
     <g id="line2d_102">
      <g>
       <use xlink:href="#mb605f9eb51" x="49.550608" y="107.541176" style="stroke: #000000; stroke-width: 0.6"/>
      </g>
     </g>
     <g id="line2d_103">
      <g>
       <use xlink:href="#m056979d744" x="350.870608" y="107.541176" style="stroke: #000000; stroke-width: 0.6"/>
      </g>
     </g>
    </g>
    <g id="text_24">
     <!-- $\vbox{\hbox{$S_1(z)/S_0(z),$}\hbox{$S_2(z)/S_0(z)$}}$ -->
     <g transform="translate(23.910336 170.159235) rotate(-90) scale(0.12 -0.12)">
      <defs>
       <path id="CMMI12-3b" d="M 1248 -31 
C 1248 343 1126 619 864 619 
C 659 619 557 453 557 313 
C 557 172 653 0 870 0 
C 954 0 1024 26 1082 83 
C 1094 96 1101 96 1107 96 
C 1120 96 1120 5 1120 -27 
C 1120 -240 1082 -659 710 -1080 
C 640 -1157 640 -1170 640 -1183 
C 640 -1216 672 -1248 704 -1248 
C 755 -1248 1248 -771 1248 -31 
z
" transform="scale(0.015625)"/>
      </defs>
      <use xlink:href="#CMMI12-53" transform="translate(0 124.533001) scale(0.996264)"/>
      <use xlink:href="#CMR17-31" transform="translate(59.994488 109.589087) scale(0.697382)"/>
      <use xlink:href="#CMR17-28" transform="translate(92.475802 124.533001) scale(0.996264)"/>
      <use xlink:href="#CMMI12-7a" transform="translate(127.75657 124.533001) scale(0.996264)"/>
      <use xlink:href="#CMR17-29" transform="translate(177.511714 124.533001) scale(0.996264)"/>
      <use xlink:href="#CMMI12-3d" transform="translate(212.792482 124.533001) scale(0.996264)"/>
      <use xlink:href="#CMMI12-53" transform="translate(261.567401 124.533001) scale(0.996264)"/>
      <use xlink:href="#CMR17-30" transform="translate(321.561889 109.589087) scale(0.697382)"/>
      <use xlink:href="#CMR17-28" transform="translate(354.043203 124.533001) scale(0.996264)"/>
      <use xlink:href="#CMMI12-7a" transform="translate(389.323971 124.533001) scale(0.996264)"/>
      <use xlink:href="#CMR17-29" transform="translate(439.079116 124.533001) scale(0.996264)"/>
      <use xlink:href="#CMMI12-3b" transform="translate(474.359883 124.533001) scale(0.996264)"/>
      <use xlink:href="#CMMI12-53" transform="scale(0.996264)"/>
      <use xlink:href="#CMR17-32" transform="translate(59.994488 -14.943915) scale(0.697382)"/>
      <use xlink:href="#CMR17-28" transform="translate(92.475802 0) scale(0.996264)"/>
      <use xlink:href="#CMMI12-7a" transform="translate(127.75657 0) scale(0.996264)"/>
      <use xlink:href="#CMR17-29" transform="translate(177.511714 0) scale(0.996264)"/>
      <use xlink:href="#CMMI12-3d" transform="translate(212.792482 0) scale(0.996264)"/>
      <use xlink:href="#CMMI12-53" transform="translate(261.567401 0) scale(0.996264)"/>
      <use xlink:href="#CMR17-30" transform="translate(321.561889 -14.943915) scale(0.697382)"/>
      <use xlink:href="#CMR17-28" transform="translate(354.043203 0) scale(0.996264)"/>
      <use xlink:href="#CMMI12-7a" transform="translate(389.323971 0) scale(0.996264)"/>
      <use xlink:href="#CMR17-29" transform="translate(439.079116 0) scale(0.996264)"/>
     </g>
    </g>
   </g>
   <g id="line2d_104">
    <path d="M 49.550608 99.776471 
L 55.441517 99.888781 
L 61.332426 100.225337 
L 67.223335 100.783085 
L 73.40879 101.600133 
L 79.594244 102.644411 
L 86.074244 103.968683 
L 92.84879 105.587757 
L 99.917881 107.511651 
L 107.281517 109.745462 
L 115.234244 112.391481 
L 123.776062 115.468252 
L 133.201517 119.102287 
L 143.805153 123.435432 
L 156.176062 128.741902 
L 172.376062 135.955083 
L 203.303335 149.774968 
L 213.906972 154.233592 
L 222.743335 157.712357 
L 230.401517 160.495086 
L 237.470608 162.830352 
L 243.950608 164.744077 
L 250.136062 166.346417 
L 256.026972 167.653821 
L 261.917881 168.738499 
L 267.80879 169.596543 
L 273.699699 170.230026 
L 279.885153 170.662808 
L 286.070608 170.87467 
L 292.845153 170.882489 
L 300.503335 170.65949 
L 309.92879 170.147124 
L 340.561517 168.291534 
L 348.80879 168.115338 
L 350.870608 168.107647 
L 350.870608 168.107647 
" clip-path="url(#pe3021f9b2f)" style="fill: none; stroke: #e50000; stroke-width: 1.5; stroke-linecap: square"/>
   </g>
   <g id="line2d_105">
    <path d="M 49.550608 138.6 
L 76.059699 125.741244 
L 85.485153 121.462546 
L 94.026972 117.827274 
L 101.979699 114.688919 
L 109.343335 112.01831 
L 116.412426 109.682317 
L 123.481517 107.579812 
L 130.256062 105.79091 
L 137.030608 104.228109 
L 143.805153 102.895111 
L 150.579699 101.794968 
L 157.059699 100.963089 
L 163.539699 100.349128 
L 170.019699 99.955451 
L 176.499699 99.784382 
L 182.979699 99.838025 
L 189.459699 100.117941 
L 195.939699 100.624692 
L 202.419699 101.357258 
L 208.899699 102.312331 
L 215.674244 103.541762 
L 222.44879 104.995564 
L 229.812426 106.809799 
L 237.765153 109.007887 
L 246.896062 111.771641 
L 260.445153 116.138321 
L 275.761517 121.019323 
L 284.303335 123.510558 
L 291.666972 125.437748 
L 298.441517 126.990588 
L 304.921517 128.256519 
L 311.401517 129.297862 
L 317.881517 130.115153 
L 324.656062 130.741802 
L 331.725153 131.172625 
L 339.677881 131.43254 
L 349.692426 131.526478 
L 350.870608 131.527132 
L 350.870608 131.527132 
" clip-path="url(#pe3021f9b2f)" style="fill: none; stroke: #e50000; stroke-width: 1.5; stroke-linecap: square"/>
   </g>
   <g id="line2d_106">
    <path d="M 49.550608 99.776471 
L 59.270608 99.887073 
L 69.285153 100.227864 
L 79.299699 100.794065 
L 89.314244 101.583628 
L 99.32879 102.597022 
L 109.343335 103.836612 
L 119.357881 105.305687 
L 129.077881 106.953749 
L 138.797881 108.821442 
L 148.812426 110.972284 
L 159.121517 113.41645 
L 170.019699 116.23166 
L 182.390608 119.666286 
L 199.179699 124.584057 
L 222.154244 131.293187 
L 233.346972 134.319352 
L 242.772426 136.647285 
L 251.60879 138.602988 
L 259.856062 140.205738 
L 268.103335 141.580519 
L 276.350608 142.724017 
L 284.597881 143.641815 
L 293.139699 144.368987 
L 302.270608 144.920398 
L 312.285153 145.297826 
L 324.066972 145.508602 
L 340.561517 145.554336 
L 350.870608 145.541874 
L 350.870608 145.541874 
" clip-path="url(#pe3021f9b2f)" style="fill: none; stroke: #15b01a; stroke-width: 1.5; stroke-linecap: square"/>
   </g>
   <g id="line2d_107">
    <path d="M 49.550608 138.6 
L 73.40879 131.53107 
L 94.910608 125.388848 
L 113.761517 120.230361 
L 129.666972 116.10239 
L 143.216062 112.810407 
L 154.997881 110.171555 
L 165.601517 108.022029 
L 175.321517 106.278254 
L 184.452426 104.869103 
L 192.994244 103.775303 
L 201.241517 102.94195 
L 209.194244 102.35581 
L 217.146972 101.987186 
L 225.394244 101.831803 
L 233.641517 101.89661 
L 242.477881 102.188699 
L 252.197881 102.737559 
L 263.685153 103.621198 
L 280.179699 105.14105 
L 303.743335 107.292299 
L 316.40879 108.21836 
L 327.896062 108.836048 
L 338.794244 109.198074 
L 349.692426 109.333591 
L 350.870608 109.334867 
L 350.870608 109.334867 
" clip-path="url(#pe3021f9b2f)" style="fill: none; stroke: #15b01a; stroke-width: 1.5; stroke-linecap: square"/>
   </g>
   <g id="line2d_108">
    <path d="M 49.550608 99.776471 
L 350.870608 99.776471 
L 350.870608 99.776471 
" clip-path="url(#pe3021f9b2f)" style="fill: none; stroke: #069af3; stroke-width: 1.5; stroke-linecap: square"/>
   </g>
   <g id="line2d_109">
    <path d="M 49.550608 138.6 
L 350.870608 138.6 
L 350.870608 138.6 
" clip-path="url(#pe3021f9b2f)" style="fill: none; stroke: #069af3; stroke-width: 1.5; stroke-linecap: square"/>
   </g>
   <g id="line2d_110">
    <path d="M 49.550608 99.776471 
L 52.496062 99.89626 
L 55.736062 100.260629 
L 59.565153 100.925696 
L 64.277881 101.988731 
L 70.16879 103.558321 
L 79.005153 106.17143 
L 116.412426 117.475977 
L 130.550608 121.404118 
L 144.394244 125.017653 
L 157.943335 128.327968 
L 171.492426 131.411911 
L 185.041517 134.266542 
L 198.296062 136.834367 
L 211.550608 139.177735 
L 224.805153 141.295607 
L 238.059699 143.188288 
L 251.314244 144.857419 
L 264.56879 146.305773 
L 278.117881 147.561859 
L 291.666972 148.59529 
L 305.510608 149.425718 
L 319.354244 150.032433 
L 333.197881 150.418854 
L 347.336062 150.588546 
L 350.870608 150.59561 
L 350.870608 150.59561 
" clip-path="url(#pe3021f9b2f)" style="fill: none; stroke: #d1b26f; stroke-width: 1.5; stroke-linecap: square"/>
   </g>
   <g id="line2d_111">
    <path d="M 49.550608 138.6 
L 350.870608 138.6 
L 350.870608 138.6 
" clip-path="url(#pe3021f9b2f)" style="fill: none; stroke: #d1b26f; stroke-width: 1.5; stroke-linecap: square"/>
   </g>
   <g id="line2d_112">
    <path d="M 49.550608 99.776471 
L 51.317881 99.880433 
L 53.085153 100.189608 
L 55.146972 100.794922 
L 57.20879 101.63424 
L 59.565153 102.827005 
L 62.805153 104.749318 
L 75.765153 112.788126 
L 79.299699 114.585992 
L 82.834244 116.14893 
L 86.663335 117.588992 
L 90.492426 118.790523 
L 94.616062 119.851455 
L 99.034244 120.75968 
L 104.041517 121.551191 
L 109.343335 122.163553 
L 115.234244 122.623023 
L 122.00879 122.918468 
L 129.372426 123.008311 
L 137.325153 122.877558 
L 145.572426 122.520988 
L 154.114244 121.929019 
L 162.656062 121.111705 
L 170.903335 120.100935 
L 178.856062 118.909524 
L 186.80879 117.49987 
L 195.645153 115.697554 
L 213.612426 111.932674 
L 217.441517 111.414193 
L 220.681517 111.198806 
L 223.332426 111.239868 
L 225.68879 111.491094 
L 227.750608 111.914625 
L 229.812426 112.563021 
L 231.874244 113.469851 
L 233.641517 114.476952 
L 235.40879 115.714542 
L 237.176062 117.195636 
L 239.237881 119.240234 
L 241.299699 121.622884 
L 243.656062 124.733187 
L 246.306972 128.65108 
L 249.841517 134.334931 
L 256.321517 144.833214 
L 258.972426 148.696815 
L 261.32879 151.774101 
L 263.685153 154.471339 
L 265.746972 156.508504 
L 267.80879 158.249473 
L 269.870608 159.709586 
L 271.932426 160.910817 
L 273.994244 161.87891 
L 276.350608 162.734734 
L 278.706972 163.361717 
L 281.357881 163.840272 
L 284.303335 164.14621 
L 287.837881 164.275128 
L 291.961517 164.193726 
L 297.557881 163.837254 
L 306.68879 162.990697 
L 322.005153 161.583844 
L 331.725153 160.927887 
L 340.856062 160.537281 
L 349.692426 160.387127 
L 350.870608 160.384962 
L 350.870608 160.384962 
" clip-path="url(#pe3021f9b2f)" style="fill: none; stroke: #029386; stroke-width: 1.5; stroke-linecap: square"/>
   </g>
   <g id="line2d_113">
    <path d="M 49.550608 138.6 
L 54.263335 131.209651 
L 56.914244 127.451018 
L 59.270608 124.504153 
L 61.332426 122.279731 
L 63.394244 120.402783 
L 65.161517 119.068158 
L 66.92879 117.975152 
L 68.990608 116.982513 
L 71.052426 116.262566 
L 73.114244 115.779422 
L 75.470608 115.471226 
L 78.121517 115.375719 
L 81.066972 115.507874 
L 84.601517 115.900602 
L 89.314244 116.669061 
L 97.561517 118.290208 
L 109.637881 120.620818 
L 118.179699 122.029407 
L 126.426972 123.165417 
L 134.96879 124.116182 
L 143.805153 124.871396 
L 152.641517 125.403592 
L 161.477881 125.710796 
L 169.725153 125.778405 
L 177.383335 125.622413 
L 184.157881 125.271589 
L 190.343335 124.734001 
L 195.939699 124.023422 
L 200.946972 123.162285 
L 205.365153 122.185531 
L 209.48879 121.053584 
L 213.317881 119.779558 
L 217.146972 118.260749 
L 220.681517 116.620001 
L 224.216062 114.739794 
L 228.045153 112.443443 
L 232.757881 109.328015 
L 240.416062 104.221897 
L 243.361517 102.56239 
L 245.717881 101.484234 
L 247.779699 100.769788 
L 249.841517 100.297357 
L 251.903335 100.081651 
L 253.965153 100.123948 
L 256.026972 100.41236 
L 258.08879 100.923691 
L 260.445153 101.740376 
L 263.390608 103.029647 
L 267.219699 104.985491 
L 279.296062 111.34265 
L 283.714244 113.327908 
L 288.132426 115.059575 
L 292.550608 116.545969 
L 297.263335 117.88571 
L 302.270608 119.066076 
L 307.572426 120.083485 
L 313.463335 120.980134 
L 319.943335 121.732938 
L 327.012426 122.327268 
L 334.965153 122.766487 
L 343.801517 123.022745 
L 350.870608 123.081115 
L 350.870608 123.081115 
" clip-path="url(#pe3021f9b2f)" style="fill: none; stroke: #029386; stroke-width: 1.5; stroke-linecap: square"/>
   </g>
   <g id="patch_9">
    <path d="M 49.550608 179.364706 
L 49.550608 97.835294 
" style="fill: none; stroke: #000000; stroke-width: 0.8; stroke-linejoin: miter; stroke-linecap: square"/>
   </g>
   <g id="patch_10">
    <path d="M 350.870608 179.364706 
L 350.870608 97.835294 
" style="fill: none; stroke: #000000; stroke-width: 0.8; stroke-linejoin: miter; stroke-linecap: square"/>
   </g>
   <g id="patch_11">
    <path d="M 49.550608 179.364706 
L 350.870608 179.364706 
" style="fill: none; stroke: #000000; stroke-width: 0.8; stroke-linejoin: miter; stroke-linecap: square"/>
   </g>
   <g id="patch_12">
    <path d="M 49.550608 97.835294 
L 350.870608 97.835294 
" style="fill: none; stroke: #000000; stroke-width: 0.8; stroke-linejoin: miter; stroke-linecap: square"/>
   </g>
   <g id="legend_2">
    <g id="patch_13">
     <path d="M 260.879683 167.752604 
L 344.570608 167.752604 
Q 346.370608 167.752604 346.370608 165.952604 
L 346.370608 104.135294 
Q 346.370608 102.335294 344.570608 102.335294 
L 260.879683 102.335294 
Q 259.079683 102.335294 259.079683 104.135294 
L 259.079683 165.952604 
Q 259.079683 167.752604 260.879683 167.752604 
z
" style="fill: #ffffff; opacity: 0.8; stroke: #cccccc; stroke-linejoin: miter"/>
    </g>
    <g id="line2d_114">
     <path d="M 262.679683 109.085294 
L 280.679683 109.085294 
L 298.679683 109.085294 
" style="fill: none; stroke: #e50000; stroke-width: 1.5; stroke-linecap: square"/>
    </g>
    <g id="text_25">
     <!-- $\beta=2.0$ -->
     <g transform="translate(305.879683 112.235294) scale(0.09 -0.09)">
      <use xlink:href="#CMMI12-c" transform="scale(0.996264)"/>
      <use xlink:href="#CMR17-3d" transform="translate(88.268024 0) scale(0.996264)"/>
      <use xlink:href="#CMR17-32" transform="translate(187.656822 0) scale(0.996264)"/>
      <use xlink:href="#CMMI12-3a" transform="translate(233.347299 0) scale(0.996264)"/>
      <use xlink:href="#CMR17-30" transform="translate(260.444476 0) scale(0.996264)"/>
     </g>
    </g>
    <g id="line2d_115">
     <path d="M 262.679683 121.628756 
L 280.679683 121.628756 
L 298.679683 121.628756 
" style="fill: none; stroke: #15b01a; stroke-width: 1.5; stroke-linecap: square"/>
    </g>
    <g id="text_26">
     <!-- $\beta=1.0$ -->
     <g transform="translate(305.879683 124.778756) scale(0.09 -0.09)">
      <use xlink:href="#CMMI12-c" transform="scale(0.996264)"/>
      <use xlink:href="#CMR17-3d" transform="translate(88.268024 0) scale(0.996264)"/>
      <use xlink:href="#CMR17-31" transform="translate(187.656822 0) scale(0.996264)"/>
      <use xlink:href="#CMMI12-3a" transform="translate(233.347299 0) scale(0.996264)"/>
      <use xlink:href="#CMR17-30" transform="translate(260.444476 0) scale(0.996264)"/>
     </g>
    </g>
    <g id="line2d_116">
     <path d="M 262.679683 134.172218 
L 280.679683 134.172218 
L 298.679683 134.172218 
" style="fill: none; stroke: #069af3; stroke-width: 1.5; stroke-linecap: square"/>
    </g>
    <g id="text_27">
     <!-- $\beta=0.0$ -->
     <g transform="translate(305.879683 137.322218) scale(0.09 -0.09)">
      <use xlink:href="#CMMI12-c" transform="scale(0.996264)"/>
      <use xlink:href="#CMR17-3d" transform="translate(88.268024 0) scale(0.996264)"/>
      <use xlink:href="#CMR17-30" transform="translate(187.656822 0) scale(0.996264)"/>
      <use xlink:href="#CMMI12-3a" transform="translate(233.347299 0) scale(0.996264)"/>
      <use xlink:href="#CMR17-30" transform="translate(260.444476 0) scale(0.996264)"/>
     </g>
    </g>
    <g id="line2d_117">
     <path d="M 262.679683 146.71568 
L 280.679683 146.71568 
L 298.679683 146.71568 
" style="fill: none; stroke: #d1b26f; stroke-width: 1.5; stroke-linecap: square"/>
    </g>
    <g id="text_28">
     <!-- $\beta=-1.0$ -->
     <g transform="translate(305.879683 149.86568) scale(0.09 -0.09)">
      <use xlink:href="#CMMI12-c" transform="scale(0.996264)"/>
      <use xlink:href="#CMR17-3d" transform="translate(88.268024 0) scale(0.996264)"/>
      <use xlink:href="#CMSY10-0" transform="translate(187.656822 0) scale(0.996264)"/>
      <use xlink:href="#CMR17-31" transform="translate(265.144289 0) scale(0.996264)"/>
      <use xlink:href="#CMMI12-3a" transform="translate(310.834766 0) scale(0.996264)"/>
      <use xlink:href="#CMR17-30" transform="translate(337.931943 0) scale(0.996264)"/>
     </g>
    </g>
    <g id="line2d_118">
     <path d="M 262.679683 159.259142 
L 280.679683 159.259142 
L 298.679683 159.259142 
" style="fill: none; stroke: #029386; stroke-width: 1.5; stroke-linecap: square"/>
    </g>
    <g id="text_29">
     <!-- $\beta=-2.0$ -->
     <g transform="translate(305.879683 162.409142) scale(0.09 -0.09)">
      <use xlink:href="#CMMI12-c" transform="scale(0.996264)"/>
      <use xlink:href="#CMR17-3d" transform="translate(88.268024 0) scale(0.996264)"/>
      <use xlink:href="#CMSY10-0" transform="translate(187.656822 0) scale(0.996264)"/>
      <use xlink:href="#CMR17-32" transform="translate(265.144289 0) scale(0.996264)"/>
      <use xlink:href="#CMMI12-3a" transform="translate(310.834766 0) scale(0.996264)"/>
      <use xlink:href="#CMR17-30" transform="translate(337.931943 0) scale(0.996264)"/>
     </g>
    </g>
   </g>
  </g>
  <g id="axes_3">
   <g id="patch_14">
    <path d="M 49.550608 277.2 
L 350.870608 277.2 
L 350.870608 195.670588 
L 49.550608 195.670588 
z
" style="fill: #ffffff"/>
   </g>
   <g id="matplotlib.axis_5">
    <g id="xtick_13">
     <g id="line2d_119">
      <path d="M 49.550608 277.2 
L 49.550608 195.670588 
" clip-path="url(#p72b7348a38)" style="fill: none; stroke: #b0b0b0; stroke-width: 0.8; stroke-linecap: square"/>
     </g>
     <g id="line2d_120">
      <g>
       <use xlink:href="#m240b3ffbfd" x="49.550608" y="277.2" style="stroke: #000000; stroke-width: 0.8"/>
      </g>
     </g>
     <g id="line2d_121">
      <g>
       <use xlink:href="#m9480807060" x="49.550608" y="195.670588" style="stroke: #000000; stroke-width: 0.8"/>
      </g>
     </g>
     <g id="text_30">
      <!-- $\mathdefault{0.0}$ -->
      <g transform="translate(42.071787 289.00218) scale(0.12 -0.12)">
       <use xlink:href="#CMR17-30" transform="scale(0.996264)"/>
       <use xlink:href="#CMMI12-3a" transform="translate(45.690477 0) scale(0.996264)"/>
       <use xlink:href="#CMR17-30" transform="translate(72.787654 0) scale(0.996264)"/>
      </g>
     </g>
    </g>
    <g id="xtick_14">
     <g id="line2d_122">
      <path d="M 109.814608 277.2 
L 109.814608 195.670588 
" clip-path="url(#p72b7348a38)" style="fill: none; stroke: #b0b0b0; stroke-width: 0.8; stroke-linecap: square"/>
     </g>
     <g id="line2d_123">
      <g>
       <use xlink:href="#m240b3ffbfd" x="109.814608" y="277.2" style="stroke: #000000; stroke-width: 0.8"/>
      </g>
     </g>
     <g id="line2d_124">
      <g>
       <use xlink:href="#m9480807060" x="109.814608" y="195.670588" style="stroke: #000000; stroke-width: 0.8"/>
      </g>
     </g>
     <g id="text_31">
      <!-- $\mathdefault{0.2}$ -->
      <g transform="translate(102.335787 289.00218) scale(0.12 -0.12)">
       <use xlink:href="#CMR17-30" transform="scale(0.996264)"/>
       <use xlink:href="#CMMI12-3a" transform="translate(45.690477 0) scale(0.996264)"/>
       <use xlink:href="#CMR17-32" transform="translate(72.787654 0) scale(0.996264)"/>
      </g>
     </g>
    </g>
    <g id="xtick_15">
     <g id="line2d_125">
      <path d="M 170.078608 277.2 
L 170.078608 195.670588 
" clip-path="url(#p72b7348a38)" style="fill: none; stroke: #b0b0b0; stroke-width: 0.8; stroke-linecap: square"/>
     </g>
     <g id="line2d_126">
      <g>
       <use xlink:href="#m240b3ffbfd" x="170.078608" y="277.2" style="stroke: #000000; stroke-width: 0.8"/>
      </g>
     </g>
     <g id="line2d_127">
      <g>
       <use xlink:href="#m9480807060" x="170.078608" y="195.670588" style="stroke: #000000; stroke-width: 0.8"/>
      </g>
     </g>
     <g id="text_32">
      <!-- $\mathdefault{0.4}$ -->
      <g transform="translate(162.599787 289.00218) scale(0.12 -0.12)">
       <use xlink:href="#CMR17-30" transform="scale(0.996264)"/>
       <use xlink:href="#CMMI12-3a" transform="translate(45.690477 0) scale(0.996264)"/>
       <use xlink:href="#CMR17-34" transform="translate(72.787654 0) scale(0.996264)"/>
      </g>
     </g>
    </g>
    <g id="xtick_16">
     <g id="line2d_128">
      <path d="M 230.342608 277.2 
L 230.342608 195.670588 
" clip-path="url(#p72b7348a38)" style="fill: none; stroke: #b0b0b0; stroke-width: 0.8; stroke-linecap: square"/>
     </g>
     <g id="line2d_129">
      <g>
       <use xlink:href="#m240b3ffbfd" x="230.342608" y="277.2" style="stroke: #000000; stroke-width: 0.8"/>
      </g>
     </g>
     <g id="line2d_130">
      <g>
       <use xlink:href="#m9480807060" x="230.342608" y="195.670588" style="stroke: #000000; stroke-width: 0.8"/>
      </g>
     </g>
     <g id="text_33">
      <!-- $\mathdefault{0.6}$ -->
      <g transform="translate(222.863787 289.00218) scale(0.12 -0.12)">
       <use xlink:href="#CMR17-30" transform="scale(0.996264)"/>
       <use xlink:href="#CMMI12-3a" transform="translate(45.690477 0) scale(0.996264)"/>
       <use xlink:href="#CMR17-36" transform="translate(72.787654 0) scale(0.996264)"/>
      </g>
     </g>
    </g>
    <g id="xtick_17">
     <g id="line2d_131">
      <path d="M 290.606608 277.2 
L 290.606608 195.670588 
" clip-path="url(#p72b7348a38)" style="fill: none; stroke: #b0b0b0; stroke-width: 0.8; stroke-linecap: square"/>
     </g>
     <g id="line2d_132">
      <g>
       <use xlink:href="#m240b3ffbfd" x="290.606608" y="277.2" style="stroke: #000000; stroke-width: 0.8"/>
      </g>
     </g>
     <g id="line2d_133">
      <g>
       <use xlink:href="#m9480807060" x="290.606608" y="195.670588" style="stroke: #000000; stroke-width: 0.8"/>
      </g>
     </g>
     <g id="text_34">
      <!-- $\mathdefault{0.8}$ -->
      <g transform="translate(283.127787 289.00218) scale(0.12 -0.12)">
       <use xlink:href="#CMR17-30" transform="scale(0.996264)"/>
       <use xlink:href="#CMMI12-3a" transform="translate(45.690477 0) scale(0.996264)"/>
       <use xlink:href="#CMR17-38" transform="translate(72.787654 0) scale(0.996264)"/>
      </g>
     </g>
    </g>
    <g id="xtick_18">
     <g id="line2d_134">
      <path d="M 350.870608 277.2 
L 350.870608 195.670588 
" clip-path="url(#p72b7348a38)" style="fill: none; stroke: #b0b0b0; stroke-width: 0.8; stroke-linecap: square"/>
     </g>
     <g id="line2d_135">
      <g>
       <use xlink:href="#m240b3ffbfd" x="350.870608" y="277.2" style="stroke: #000000; stroke-width: 0.8"/>
      </g>
     </g>
     <g id="line2d_136">
      <g>
       <use xlink:href="#m9480807060" x="350.870608" y="195.670588" style="stroke: #000000; stroke-width: 0.8"/>
      </g>
     </g>
     <g id="text_35">
      <!-- $\mathdefault{1.0}$ -->
      <g transform="translate(343.391787 289.00218) scale(0.12 -0.12)">
       <use xlink:href="#CMR17-31" transform="scale(0.996264)"/>
       <use xlink:href="#CMMI12-3a" transform="translate(45.690477 0) scale(0.996264)"/>
       <use xlink:href="#CMR17-30" transform="translate(72.787654 0) scale(0.996264)"/>
      </g>
     </g>
    </g>
    <g id="text_36">
     <!-- $z/L$ -->
     <g transform="translate(190.316558 304.293152) scale(0.12 -0.12)">
      <defs>
       <path id="CMMI12-4c" d="M 2349 3861 
C 2406 4103 2426 4167 2989 4167 
C 3162 4167 3206 4167 3206 4288 
C 3206 4352 3136 4352 3110 4352 
C 2982 4352 2835 4352 2707 4352 
L 1850 4352 
C 1728 4352 1587 4352 1466 4352 
C 1414 4352 1344 4352 1344 4231 
C 1344 4167 1402 4167 1498 4167 
C 1888 4167 1888 4116 1888 4046 
C 1888 4034 1888 3995 1862 3899 
L 998 472 
C 941 249 928 185 480 185 
C 358 185 294 185 294 70 
C 294 0 333 0 461 0 
L 3328 0 
C 3469 0 3475 6 3520 121 
L 4013 1478 
C 4026 1510 4038 1548 4038 1567 
C 4038 1605 4006 1631 3974 1631 
C 3968 1631 3936 1631 3923 1605 
C 3910 1599 3910 1586 3859 1465 
C 3654 905 3366 185 2285 185 
L 1670 185 
C 1581 185 1568 185 1530 192 
C 1459 198 1453 211 1453 262 
C 1453 307 1466 345 1478 401 
L 2349 3861 
z
" transform="scale(0.015625)"/>
      </defs>
      <use xlink:href="#CMMI12-7a" transform="scale(0.996264)"/>
      <use xlink:href="#CMMI12-3d" transform="translate(49.755145 0) scale(0.996264)"/>
      <use xlink:href="#CMMI12-4c" transform="translate(98.530064 0) scale(0.996264)"/>
     </g>
    </g>
   </g>
   <g id="matplotlib.axis_6">
    <g id="ytick_27">
     <g id="line2d_137">
      <path d="M 49.550608 275.258824 
L 350.870608 275.258824 
" clip-path="url(#p72b7348a38)" style="fill: none; stroke: #b0b0b0; stroke-width: 0.8; stroke-linecap: square"/>
     </g>
     <g id="line2d_138">
      <g>
       <use xlink:href="#mc9b3cfb049" x="49.550608" y="275.258824" style="stroke: #000000; stroke-width: 0.8"/>
      </g>
     </g>
     <g id="line2d_139">
      <g>
       <use xlink:href="#m12d5bb22a9" x="350.870608" y="275.258824" style="stroke: #000000; stroke-width: 0.8"/>
      </g>
     </g>
     <g id="text_37">
      <!-- $\mathdefault{−1}$ -->
      <g transform="translate(30.899128 279.409913) scale(0.12 -0.12)">
       <use xlink:href="#CMSY10-0" transform="scale(0.996264)"/>
       <use xlink:href="#CMR17-31" transform="translate(77.487468 0) scale(0.996264)"/>
      </g>
     </g>
    </g>
    <g id="ytick_28">
     <g id="line2d_140">
      <path d="M 49.550608 236.435294 
L 350.870608 236.435294 
" clip-path="url(#p72b7348a38)" style="fill: none; stroke: #b0b0b0; stroke-width: 0.8; stroke-linecap: square"/>
     </g>
     <g id="line2d_141">
      <g>
       <use xlink:href="#mc9b3cfb049" x="49.550608" y="236.435294" style="stroke: #000000; stroke-width: 0.8"/>
      </g>
     </g>
     <g id="line2d_142">
      <g>
       <use xlink:href="#m12d5bb22a9" x="350.870608" y="236.435294" style="stroke: #000000; stroke-width: 0.8"/>
      </g>
     </g>
     <g id="text_38">
      <!-- $\mathdefault{0}$ -->
      <g transform="translate(40.197618 240.586384) scale(0.12 -0.12)">
       <use xlink:href="#CMR17-30" transform="scale(0.996264)"/>
      </g>
     </g>
    </g>
    <g id="ytick_29">
     <g id="line2d_143">
      <path d="M 49.550608 197.611765 
L 350.870608 197.611765 
" clip-path="url(#p72b7348a38)" style="fill: none; stroke: #b0b0b0; stroke-width: 0.8; stroke-linecap: square"/>
     </g>
     <g id="line2d_144">
      <g>
       <use xlink:href="#mc9b3cfb049" x="49.550608" y="197.611765" style="stroke: #000000; stroke-width: 0.8"/>
      </g>
     </g>
     <g id="line2d_145">
      <g>
       <use xlink:href="#m12d5bb22a9" x="350.870608" y="197.611765" style="stroke: #000000; stroke-width: 0.8"/>
      </g>
     </g>
     <g id="text_39">
      <!-- $\mathdefault{1}$ -->
      <g transform="translate(40.197618 201.762855) scale(0.12 -0.12)">
       <use xlink:href="#CMR17-31" transform="scale(0.996264)"/>
      </g>
     </g>
    </g>
    <g id="ytick_30">
     <g id="line2d_146">
      <g>
       <use xlink:href="#mb605f9eb51" x="49.550608" y="267.494118" style="stroke: #000000; stroke-width: 0.6"/>
      </g>
     </g>
     <g id="line2d_147">
      <g>
       <use xlink:href="#m056979d744" x="350.870608" y="267.494118" style="stroke: #000000; stroke-width: 0.6"/>
      </g>
     </g>
    </g>
    <g id="ytick_31">
     <g id="line2d_148">
      <g>
       <use xlink:href="#mb605f9eb51" x="49.550608" y="259.729412" style="stroke: #000000; stroke-width: 0.6"/>
      </g>
     </g>
     <g id="line2d_149">
      <g>
       <use xlink:href="#m056979d744" x="350.870608" y="259.729412" style="stroke: #000000; stroke-width: 0.6"/>
      </g>
     </g>
    </g>
    <g id="ytick_32">
     <g id="line2d_150">
      <g>
       <use xlink:href="#mb605f9eb51" x="49.550608" y="251.964706" style="stroke: #000000; stroke-width: 0.6"/>
      </g>
     </g>
     <g id="line2d_151">
      <g>
       <use xlink:href="#m056979d744" x="350.870608" y="251.964706" style="stroke: #000000; stroke-width: 0.6"/>
      </g>
     </g>
    </g>
    <g id="ytick_33">
     <g id="line2d_152">
      <g>
       <use xlink:href="#mb605f9eb51" x="49.550608" y="244.2" style="stroke: #000000; stroke-width: 0.6"/>
      </g>
     </g>
     <g id="line2d_153">
      <g>
       <use xlink:href="#m056979d744" x="350.870608" y="244.2" style="stroke: #000000; stroke-width: 0.6"/>
      </g>
     </g>
    </g>
    <g id="ytick_34">
     <g id="line2d_154">
      <g>
       <use xlink:href="#mb605f9eb51" x="49.550608" y="228.670588" style="stroke: #000000; stroke-width: 0.6"/>
      </g>
     </g>
     <g id="line2d_155">
      <g>
       <use xlink:href="#m056979d744" x="350.870608" y="228.670588" style="stroke: #000000; stroke-width: 0.6"/>
      </g>
     </g>
    </g>
    <g id="ytick_35">
     <g id="line2d_156">
      <g>
       <use xlink:href="#mb605f9eb51" x="49.550608" y="220.905882" style="stroke: #000000; stroke-width: 0.6"/>
      </g>
     </g>
     <g id="line2d_157">
      <g>
       <use xlink:href="#m056979d744" x="350.870608" y="220.905882" style="stroke: #000000; stroke-width: 0.6"/>
      </g>
     </g>
    </g>
    <g id="ytick_36">
     <g id="line2d_158">
      <g>
       <use xlink:href="#mb605f9eb51" x="49.550608" y="213.141176" style="stroke: #000000; stroke-width: 0.6"/>
      </g>
     </g>
     <g id="line2d_159">
      <g>
       <use xlink:href="#m056979d744" x="350.870608" y="213.141176" style="stroke: #000000; stroke-width: 0.6"/>
      </g>
     </g>
    </g>
    <g id="ytick_37">
     <g id="line2d_160">
      <g>
       <use xlink:href="#mb605f9eb51" x="49.550608" y="205.376471" style="stroke: #000000; stroke-width: 0.6"/>
      </g>
     </g>
     <g id="line2d_161">
      <g>
       <use xlink:href="#m056979d744" x="350.870608" y="205.376471" style="stroke: #000000; stroke-width: 0.6"/>
      </g>
     </g>
    </g>
    <g id="text_40">
     <!-- $S_3(z)/S_0(z)$ -->
     <g transform="translate(23.910336 266.368698) rotate(-90) scale(0.12 -0.12)">
      <defs>
       <path id="CMR17-33" d="M 1414 2157 
C 1984 2157 2234 1662 2234 1090 
C 2234 320 1824 25 1453 25 
C 1114 25 563 194 390 693 
C 422 680 454 680 486 680 
C 640 680 755 782 755 948 
C 755 1133 614 1216 486 1216 
C 378 1216 211 1165 211 926 
C 211 335 787 -128 1466 -128 
C 2176 -128 2720 430 2720 1085 
C 2720 1707 2208 2157 1600 2227 
C 2086 2328 2554 2756 2554 3329 
C 2554 3820 2048 4179 1472 4179 
C 890 4179 378 3829 378 3329 
C 378 3110 544 3072 627 3072 
C 762 3072 877 3155 877 3321 
C 877 3486 762 3569 627 3569 
C 602 3569 570 3569 544 3557 
C 730 3959 1235 4032 1459 4032 
C 1683 4032 2106 3925 2106 3320 
C 2106 3143 2080 2828 1862 2550 
C 1670 2304 1453 2304 1242 2284 
C 1210 2284 1062 2269 1037 2269 
C 992 2263 966 2257 966 2208 
C 966 2163 973 2157 1101 2157 
L 1414 2157 
z
" transform="scale(0.015625)"/>
      </defs>
      <use xlink:href="#CMMI12-53" transform="scale(0.996264)"/>
      <use xlink:href="#CMR17-33" transform="translate(59.994488 -14.943915) scale(0.697382)"/>
      <use xlink:href="#CMR17-28" transform="translate(92.475802 0) scale(0.996264)"/>
      <use xlink:href="#CMMI12-7a" transform="translate(127.75657 0) scale(0.996264)"/>
      <use xlink:href="#CMR17-29" transform="translate(177.511714 0) scale(0.996264)"/>
      <use xlink:href="#CMMI12-3d" transform="translate(212.792482 0) scale(0.996264)"/>
      <use xlink:href="#CMMI12-53" transform="translate(261.567401 0) scale(0.996264)"/>
      <use xlink:href="#CMR17-30" transform="translate(321.561889 -14.943915) scale(0.697382)"/>
      <use xlink:href="#CMR17-28" transform="translate(354.043203 0) scale(0.996264)"/>
      <use xlink:href="#CMMI12-7a" transform="translate(389.323971 0) scale(0.996264)"/>
      <use xlink:href="#CMR17-29" transform="translate(439.079116 0) scale(0.996264)"/>
     </g>
    </g>
   </g>
   <g id="line2d_162">
    <path d="M 49.550608 236.435294 
L 58.976062 237.325301 
L 68.696062 238.018333 
L 78.710608 238.509489 
L 89.60879 238.815096 
L 101.390608 238.918678 
L 114.939699 238.806698 
L 130.845153 238.441312 
L 149.106972 237.795828 
L 167.957881 236.911152 
L 184.157881 235.937346 
L 198.001517 234.885858 
L 210.077881 233.746991 
L 220.976062 232.500444 
L 231.285153 231.103422 
L 241.594244 229.482277 
L 252.197881 227.587831 
L 264.274244 225.192791 
L 282.830608 221.24366 
L 298.441517 218.009866 
L 308.456062 216.157148 
L 316.997881 214.796095 
L 324.950608 213.75562 
L 332.314244 213.015549 
L 339.383335 212.525358 
L 346.452426 212.262566 
L 350.870608 212.216711 
L 350.870608 212.216711 
" clip-path="url(#p72b7348a38)" style="fill: none; stroke: #e50000; stroke-width: 1.5; stroke-linecap: square"/>
   </g>
   <g id="line2d_163">
    <path d="M 49.550608 236.435294 
L 86.074244 235.244812 
L 137.914244 233.59273 
L 154.997881 232.792741 
L 169.430608 231.896297 
L 182.390608 230.869413 
L 194.761517 229.665556 
L 207.132426 228.234834 
L 220.092426 226.507777 
L 235.114244 224.272509 
L 286.070608 216.477249 
L 298.146972 214.988615 
L 309.045153 213.865709 
L 319.354244 213.020965 
L 329.36879 212.417985 
L 339.383335 212.038969 
L 349.103335 211.890402 
L 350.870608 211.886795 
L 350.870608 211.886795 
" clip-path="url(#p72b7348a38)" style="fill: none; stroke: #15b01a; stroke-width: 1.5; stroke-linecap: square"/>
   </g>
   <g id="line2d_164">
    <path d="M 49.550608 236.435294 
L 350.870608 236.435294 
L 350.870608 236.435294 
" clip-path="url(#p72b7348a38)" style="fill: none; stroke: #069af3; stroke-width: 1.5; stroke-linecap: square"/>
   </g>
   <g id="line2d_165">
    <path d="M 49.550608 236.435294 
L 52.790608 233.097079 
L 56.030608 230.058677 
L 59.565153 227.059089 
L 63.099699 224.357079 
L 66.634244 221.921091 
L 70.463335 219.548138 
L 74.586972 217.264362 
L 79.005153 215.089234 
L 83.423335 213.157268 
L 88.430608 211.220445 
L 93.732426 209.420378 
L 99.32879 207.758671 
L 105.514244 206.164117 
L 111.994244 204.725169 
L 119.063335 203.384592 
L 126.721517 202.161327 
L 134.96879 201.069916 
L 144.099699 200.093058 
L 153.819699 199.279189 
L 164.423335 198.614975 
L 176.205153 198.105022 
L 189.165153 197.770816 
L 203.892426 197.618985 
L 221.270608 197.671503 
L 243.656062 197.978015 
L 333.786972 199.458181 
L 350.870608 199.51143 
L 350.870608 199.51143 
" clip-path="url(#p72b7348a38)" style="fill: none; stroke: #d1b26f; stroke-width: 1.5; stroke-linecap: square"/>
   </g>
   <g id="line2d_166">
    <path d="M 49.550608 236.435294 
L 51.317881 236.667389 
L 53.085153 237.157246 
L 54.852426 237.889721 
L 56.914244 239.017261 
L 59.270608 240.6014 
L 62.216062 242.894091 
L 67.812426 247.638098 
L 72.525153 251.493648 
L 76.059699 254.107201 
L 79.299699 256.246198 
L 82.539699 258.134525 
L 86.074244 259.923126 
L 89.60879 261.454774 
L 93.437881 262.859886 
L 97.561517 264.120528 
L 101.979699 265.228559 
L 106.692426 266.183354 
L 111.994244 267.030912 
L 117.885153 267.747786 
L 124.659699 268.340519 
L 132.023335 268.760723 
L 140.270608 269.004234 
L 148.812426 269.035345 
L 157.354244 268.850142 
L 165.601517 268.451576 
L 172.965153 267.882724 
L 179.739699 267.140979 
L 185.630608 266.282696 
L 190.932426 265.297398 
L 195.939699 264.136426 
L 200.357881 262.883854 
L 204.481517 261.481601 
L 208.310608 259.941036 
L 211.845153 258.28314 
L 215.379699 256.369485 
L 218.619699 254.36928 
L 221.859699 252.12133 
L 225.394244 249.388999 
L 229.223335 246.138656 
L 241.005153 235.868785 
L 243.361517 234.258568 
L 245.423335 233.121619 
L 247.190608 232.386543 
L 248.957881 231.89588 
L 250.725153 231.662742 
L 252.492426 231.690452 
L 254.259699 231.972385 
L 256.026972 232.492739 
L 258.08879 233.369585 
L 260.150608 234.492441 
L 262.801517 236.214152 
L 266.336062 238.819437 
L 277.234244 247.073893 
L 281.063335 249.612373 
L 284.892426 251.87607 
L 288.721517 253.865637 
L 292.550608 255.598059 
L 296.674244 257.204116 
L 300.797881 258.57297 
L 305.216062 259.812034 
L 310.223335 260.974093 
L 315.525153 261.96897 
L 321.416062 262.838209 
L 327.896062 263.555946 
L 334.670608 264.082341 
L 342.034244 264.431263 
L 349.692426 264.572518 
L 350.870608 264.575053 
L 350.870608 264.575053 
" clip-path="url(#p72b7348a38)" style="fill: none; stroke: #029386; stroke-width: 1.5; stroke-linecap: square"/>
   </g>
   <g id="patch_15">
    <path d="M 49.550608 277.2 
L 49.550608 195.670588 
" style="fill: none; stroke: #000000; stroke-width: 0.8; stroke-linejoin: miter; stroke-linecap: square"/>
   </g>
   <g id="patch_16">
    <path d="M 350.870608 277.2 
L 350.870608 195.670588 
" style="fill: none; stroke: #000000; stroke-width: 0.8; stroke-linejoin: miter; stroke-linecap: square"/>
   </g>
   <g id="patch_17">
    <path d="M 49.550608 277.2 
L 350.870608 277.2 
" style="fill: none; stroke: #000000; stroke-width: 0.8; stroke-linejoin: miter; stroke-linecap: square"/>
   </g>
   <g id="patch_18">
    <path d="M 49.550608 195.670588 
L 350.870608 195.670588 
" style="fill: none; stroke: #000000; stroke-width: 0.8; stroke-linejoin: miter; stroke-linecap: square"/>
   </g>
   <g id="legend_3">
    <g id="patch_19">
     <path d="M 260.879683 265.587898 
L 344.570608 265.587898 
Q 346.370608 265.587898 346.370608 263.787898 
L 346.370608 201.970588 
Q 346.370608 200.170588 344.570608 200.170588 
L 260.879683 200.170588 
Q 259.079683 200.170588 259.079683 201.970588 
L 259.079683 263.787898 
Q 259.079683 265.587898 260.879683 265.587898 
z
" style="fill: #ffffff; opacity: 0.8; stroke: #cccccc; stroke-linejoin: miter"/>
    </g>
    <g id="line2d_167">
     <path d="M 262.679683 206.920588 
L 280.679683 206.920588 
L 298.679683 206.920588 
" style="fill: none; stroke: #e50000; stroke-width: 1.5; stroke-linecap: square"/>
    </g>
    <g id="text_41">
     <!-- $\beta=2.0$ -->
     <g transform="translate(305.879683 210.070588) scale(0.09 -0.09)">
      <use xlink:href="#CMMI12-c" transform="scale(0.996264)"/>
      <use xlink:href="#CMR17-3d" transform="translate(88.268024 0) scale(0.996264)"/>
      <use xlink:href="#CMR17-32" transform="translate(187.656822 0) scale(0.996264)"/>
      <use xlink:href="#CMMI12-3a" transform="translate(233.347299 0) scale(0.996264)"/>
      <use xlink:href="#CMR17-30" transform="translate(260.444476 0) scale(0.996264)"/>
     </g>
    </g>
    <g id="line2d_168">
     <path d="M 262.679683 219.46405 
L 280.679683 219.46405 
L 298.679683 219.46405 
" style="fill: none; stroke: #15b01a; stroke-width: 1.5; stroke-linecap: square"/>
    </g>
    <g id="text_42">
     <!-- $\beta=1.0$ -->
     <g transform="translate(305.879683 222.61405) scale(0.09 -0.09)">
      <use xlink:href="#CMMI12-c" transform="scale(0.996264)"/>
      <use xlink:href="#CMR17-3d" transform="translate(88.268024 0) scale(0.996264)"/>
      <use xlink:href="#CMR17-31" transform="translate(187.656822 0) scale(0.996264)"/>
      <use xlink:href="#CMMI12-3a" transform="translate(233.347299 0) scale(0.996264)"/>
      <use xlink:href="#CMR17-30" transform="translate(260.444476 0) scale(0.996264)"/>
     </g>
    </g>
    <g id="line2d_169">
     <path d="M 262.679683 232.007512 
L 280.679683 232.007512 
L 298.679683 232.007512 
" style="fill: none; stroke: #069af3; stroke-width: 1.5; stroke-linecap: square"/>
    </g>
    <g id="text_43">
     <!-- $\beta=0.0$ -->
     <g transform="translate(305.879683 235.157512) scale(0.09 -0.09)">
      <use xlink:href="#CMMI12-c" transform="scale(0.996264)"/>
      <use xlink:href="#CMR17-3d" transform="translate(88.268024 0) scale(0.996264)"/>
      <use xlink:href="#CMR17-30" transform="translate(187.656822 0) scale(0.996264)"/>
      <use xlink:href="#CMMI12-3a" transform="translate(233.347299 0) scale(0.996264)"/>
      <use xlink:href="#CMR17-30" transform="translate(260.444476 0) scale(0.996264)"/>
     </g>
    </g>
    <g id="line2d_170">
     <path d="M 262.679683 244.550974 
L 280.679683 244.550974 
L 298.679683 244.550974 
" style="fill: none; stroke: #d1b26f; stroke-width: 1.5; stroke-linecap: square"/>
    </g>
    <g id="text_44">
     <!-- $\beta=-1.0$ -->
     <g transform="translate(305.879683 247.700974) scale(0.09 -0.09)">
      <use xlink:href="#CMMI12-c" transform="scale(0.996264)"/>
      <use xlink:href="#CMR17-3d" transform="translate(88.268024 0) scale(0.996264)"/>
      <use xlink:href="#CMSY10-0" transform="translate(187.656822 0) scale(0.996264)"/>
      <use xlink:href="#CMR17-31" transform="translate(265.144289 0) scale(0.996264)"/>
      <use xlink:href="#CMMI12-3a" transform="translate(310.834766 0) scale(0.996264)"/>
      <use xlink:href="#CMR17-30" transform="translate(337.931943 0) scale(0.996264)"/>
     </g>
    </g>
    <g id="line2d_171">
     <path d="M 262.679683 257.094436 
L 280.679683 257.094436 
L 298.679683 257.094436 
" style="fill: none; stroke: #029386; stroke-width: 1.5; stroke-linecap: square"/>
    </g>
    <g id="text_45">
     <!-- $\beta=-2.0$ -->
     <g transform="translate(305.879683 260.244436) scale(0.09 -0.09)">
      <use xlink:href="#CMMI12-c" transform="scale(0.996264)"/>
      <use xlink:href="#CMR17-3d" transform="translate(88.268024 0) scale(0.996264)"/>
      <use xlink:href="#CMSY10-0" transform="translate(187.656822 0) scale(0.996264)"/>
      <use xlink:href="#CMR17-32" transform="translate(265.144289 0) scale(0.996264)"/>
      <use xlink:href="#CMMI12-3a" transform="translate(310.834766 0) scale(0.996264)"/>
      <use xlink:href="#CMR17-30" transform="translate(337.931943 0) scale(0.996264)"/>
     </g>
    </g>
   </g>
  </g>
 </g>
 <defs>
  <clipPath id="p413b306855">
   <rect x="49.550608" y="0" width="301.32" height="81.529412"/>
  </clipPath>
  <clipPath id="pe3021f9b2f">
   <rect x="49.550608" y="97.835294" width="301.32" height="81.529412"/>
  </clipPath>
  <clipPath id="p72b7348a38">
   <rect x="49.550608" y="195.670588" width="301.32" height="81.529412"/>
  </clipPath>
 </defs>
</svg>
