<?xml version="1.0" encoding="utf-8" standalone="no"?>
<!DOCTYPE svg PUBLIC "-//W3C//DTD SVG 1.1//EN"
  "http://www.w3.org/Graphics/SVG/1.1/DTD/svg11.dtd">
<svg xmlns:xlink="http://www.w3.org/1999/xlink" width="356.01012pt" height="337.109034pt" viewBox="0 0 356.01012 337.109034" xmlns="http://www.w3.org/2000/svg" version="1.1">
 <metadata>
  <rdf:RDF xmlns:dc="http://purl.org/dc/elements/1.1/" xmlns:cc="http://creativecommons.org/ns#" xmlns:rdf="http://www.w3.org/1999/02/22-rdf-syntax-ns#">
   <cc:Work>
    <dc:type rdf:resource="http://purl.org/dc/dcmitype/StillImage"/>
    <dc:date>2025-04-08T12:21:51.122040</dc:date>
    <dc:format>image/svg+xml</dc:format>
    <dc:creator>
     <cc:Agent>
      <dc:title>Matplotlib v3.10.1, https://matplotlib.org/</dc:title>
     </cc:Agent>
    </dc:creator>
   </cc:Work>
  </rdf:RDF>
 </metadata>
 <defs>
  <style type="text/css">*{stroke-linejoin: round; stroke-linecap: butt}</style>
 </defs>
 <g id="figure_1">
  <g id="patch_1">
   <path d="M 0 337.109034 
L 356.01012 337.109034 
L 356.01012 0 
L 0 0 
z
" style="fill: #ffffff"/>
  </g>
  <g id="axes_1">
   <g id="patch_2">
    <path d="M 47.211299 303.52709 
L 348.531299 303.52709 
L 348.531299 4.15109 
L 47.211299 4.15109 
z
" style="fill: #ffffff"/>
   </g>
   <g id="matplotlib.axis_1">
    <g id="xtick_1">
     <g id="line2d_1">
      <defs>
       <path id="m821378d48e" d="M 0 0 
L 0 3.5 
" style="stroke: #000000; stroke-width: 0.8"/>
      </defs>
      <g>
       <use xlink:href="#m821378d48e" x="47.211299" y="303.52709" style="stroke: #000000; stroke-width: 0.8"/>
      </g>
     </g>
     <g id="text_1">
      <!-- $\mathdefault{−2.0}$ -->
      <g transform="translate(35.083234 318.82927) scale(0.12 -0.12)">
       <defs>
        <path id="CMSY10-0" d="M 4218 1472 
C 4326 1472 4442 1472 4442 1600 
C 4442 1728 4326 1728 4218 1728 
L 755 1728 
C 646 1728 531 1728 531 1600 
C 531 1472 646 1472 755 1472 
L 4218 1472 
z
" transform="scale(0.015625)"/>
        <path id="CMR17-32" d="M 2669 989 
L 2554 989 
C 2490 536 2438 459 2413 420 
C 2381 369 1920 369 1830 369 
L 602 369 
C 832 619 1280 1072 1824 1597 
C 2214 1967 2669 2402 2669 3035 
C 2669 3790 2067 4224 1395 4224 
C 691 4224 262 3604 262 3030 
C 262 2780 448 2748 525 2748 
C 589 2748 781 2787 781 3010 
C 781 3207 614 3264 525 3264 
C 486 3264 448 3258 422 3245 
C 544 3790 915 4058 1306 4058 
C 1862 4058 2227 3617 2227 3035 
C 2227 2479 1901 2000 1536 1584 
L 262 146 
L 262 0 
L 2515 0 
L 2669 989 
z
" transform="scale(0.015625)"/>
        <path id="CMMI12-3a" d="M 1178 307 
C 1178 492 1024 619 870 619 
C 685 619 557 466 557 313 
C 557 128 710 0 864 0 
C 1050 0 1178 153 1178 307 
z
" transform="scale(0.015625)"/>
        <path id="CMR17-30" d="M 2688 2025 
C 2688 2416 2682 3080 2413 3591 
C 2176 4039 1798 4198 1466 4198 
C 1158 4198 768 4058 525 3597 
C 269 3118 243 2524 243 2025 
C 243 1661 250 1106 448 619 
C 723 -39 1216 -128 1466 -128 
C 1760 -128 2208 -7 2470 600 
C 2662 1042 2688 1559 2688 2025 
z
M 1466 -26 
C 1056 -26 813 325 723 812 
C 653 1188 653 1738 653 2096 
C 653 2588 653 2997 736 3387 
C 858 3929 1216 4096 1466 4096 
C 1728 4096 2067 3923 2189 3400 
C 2272 3036 2278 2607 2278 2096 
C 2278 1680 2278 1169 2202 792 
C 2067 95 1690 -26 1466 -26 
z
" transform="scale(0.015625)"/>
       </defs>
       <use xlink:href="#CMSY10-0" transform="scale(0.996264)"/>
       <use xlink:href="#CMR17-32" transform="translate(77.487468 0) scale(0.996264)"/>
       <use xlink:href="#CMMI12-3a" transform="translate(123.177945 0) scale(0.996264)"/>
       <use xlink:href="#CMR17-30" transform="translate(150.275122 0) scale(0.996264)"/>
      </g>
     </g>
    </g>
    <g id="xtick_2">
     <g id="line2d_2">
      <g>
       <use xlink:href="#m821378d48e" x="84.876299" y="303.52709" style="stroke: #000000; stroke-width: 0.8"/>
      </g>
     </g>
     <g id="text_2">
      <!-- $\mathdefault{−1.5}$ -->
      <g transform="translate(72.748234 318.82927) scale(0.12 -0.12)">
       <defs>
        <path id="CMR17-31" d="M 1702 4058 
C 1702 4192 1696 4192 1606 4192 
C 1357 3916 979 3827 621 3827 
C 602 3827 570 3827 563 3808 
C 557 3795 557 3782 557 3648 
C 755 3648 1088 3686 1344 3839 
L 1344 461 
C 1344 236 1331 160 781 160 
L 589 160 
L 589 0 
C 896 0 1216 0 1523 0 
C 1830 0 2150 0 2458 0 
L 2458 160 
L 2266 160 
C 1715 160 1702 230 1702 458 
L 1702 4058 
z
" transform="scale(0.015625)"/>
        <path id="CMR17-35" d="M 730 3692 
C 794 3666 1056 3584 1325 3584 
C 1920 3584 2246 3911 2432 4100 
C 2432 4157 2432 4192 2394 4192 
C 2387 4192 2374 4192 2323 4163 
C 2099 4058 1837 3973 1517 3973 
C 1325 3973 1037 3999 723 4139 
C 653 4171 640 4171 634 4171 
C 602 4171 595 4164 595 4037 
L 595 2203 
C 595 2089 595 2057 659 2057 
C 691 2057 704 2070 736 2114 
C 941 2401 1222 2522 1542 2522 
C 1766 2522 2246 2382 2246 1289 
C 2246 1085 2246 715 2054 421 
C 1894 159 1645 25 1370 25 
C 947 25 518 320 403 814 
C 429 807 480 795 506 795 
C 589 795 749 840 749 1038 
C 749 1210 627 1280 506 1280 
C 358 1280 262 1190 262 1011 
C 262 454 704 -128 1382 -128 
C 2042 -128 2669 440 2669 1264 
C 2669 2030 2170 2624 1549 2624 
C 1222 2624 947 2503 730 2274 
L 730 3692 
z
" transform="scale(0.015625)"/>
       </defs>
       <use xlink:href="#CMSY10-0" transform="scale(0.996264)"/>
       <use xlink:href="#CMR17-31" transform="translate(77.487468 0) scale(0.996264)"/>
       <use xlink:href="#CMMI12-3a" transform="translate(123.177945 0) scale(0.996264)"/>
       <use xlink:href="#CMR17-35" transform="translate(150.275122 0) scale(0.996264)"/>
      </g>
     </g>
    </g>
    <g id="xtick_3">
     <g id="line2d_3">
      <g>
       <use xlink:href="#m821378d48e" x="122.541299" y="303.52709" style="stroke: #000000; stroke-width: 0.8"/>
      </g>
     </g>
     <g id="text_3">
      <!-- $\mathdefault{−1.0}$ -->
      <g transform="translate(110.413234 318.82927) scale(0.12 -0.12)">
       <use xlink:href="#CMSY10-0" transform="scale(0.996264)"/>
       <use xlink:href="#CMR17-31" transform="translate(77.487468 0) scale(0.996264)"/>
       <use xlink:href="#CMMI12-3a" transform="translate(123.177945 0) scale(0.996264)"/>
       <use xlink:href="#CMR17-30" transform="translate(150.275122 0) scale(0.996264)"/>
      </g>
     </g>
    </g>
    <g id="xtick_4">
     <g id="line2d_4">
      <g>
       <use xlink:href="#m821378d48e" x="160.206299" y="303.52709" style="stroke: #000000; stroke-width: 0.8"/>
      </g>
     </g>
     <g id="text_4">
      <!-- $\mathdefault{−0.5}$ -->
      <g transform="translate(148.078234 318.82927) scale(0.12 -0.12)">
       <use xlink:href="#CMSY10-0" transform="scale(0.996264)"/>
       <use xlink:href="#CMR17-30" transform="translate(77.487468 0) scale(0.996264)"/>
       <use xlink:href="#CMMI12-3a" transform="translate(123.177945 0) scale(0.996264)"/>
       <use xlink:href="#CMR17-35" transform="translate(150.275122 0) scale(0.996264)"/>
      </g>
     </g>
    </g>
    <g id="xtick_5">
     <g id="line2d_5">
      <g>
       <use xlink:href="#m821378d48e" x="197.871299" y="303.52709" style="stroke: #000000; stroke-width: 0.8"/>
      </g>
     </g>
     <g id="text_5">
      <!-- $\mathdefault{0.0}$ -->
      <g transform="translate(190.392478 318.82927) scale(0.12 -0.12)">
       <use xlink:href="#CMR17-30" transform="scale(0.996264)"/>
       <use xlink:href="#CMMI12-3a" transform="translate(45.690477 0) scale(0.996264)"/>
       <use xlink:href="#CMR17-30" transform="translate(72.787654 0) scale(0.996264)"/>
      </g>
     </g>
    </g>
    <g id="xtick_6">
     <g id="line2d_6">
      <g>
       <use xlink:href="#m821378d48e" x="235.536299" y="303.52709" style="stroke: #000000; stroke-width: 0.8"/>
      </g>
     </g>
     <g id="text_6">
      <!-- $\mathdefault{0.5}$ -->
      <g transform="translate(228.057478 318.82927) scale(0.12 -0.12)">
       <use xlink:href="#CMR17-30" transform="scale(0.996264)"/>
       <use xlink:href="#CMMI12-3a" transform="translate(45.690477 0) scale(0.996264)"/>
       <use xlink:href="#CMR17-35" transform="translate(72.787654 0) scale(0.996264)"/>
      </g>
     </g>
    </g>
    <g id="xtick_7">
     <g id="line2d_7">
      <g>
       <use xlink:href="#m821378d48e" x="273.201299" y="303.52709" style="stroke: #000000; stroke-width: 0.8"/>
      </g>
     </g>
     <g id="text_7">
      <!-- $\mathdefault{1.0}$ -->
      <g transform="translate(265.722478 318.82927) scale(0.12 -0.12)">
       <use xlink:href="#CMR17-31" transform="scale(0.996264)"/>
       <use xlink:href="#CMMI12-3a" transform="translate(45.690477 0) scale(0.996264)"/>
       <use xlink:href="#CMR17-30" transform="translate(72.787654 0) scale(0.996264)"/>
      </g>
     </g>
    </g>
    <g id="xtick_8">
     <g id="line2d_8">
      <g>
       <use xlink:href="#m821378d48e" x="310.866299" y="303.52709" style="stroke: #000000; stroke-width: 0.8"/>
      </g>
     </g>
     <g id="text_8">
      <!-- $\mathdefault{1.5}$ -->
      <g transform="translate(303.387478 318.82927) scale(0.12 -0.12)">
       <use xlink:href="#CMR17-31" transform="scale(0.996264)"/>
       <use xlink:href="#CMMI12-3a" transform="translate(45.690477 0) scale(0.996264)"/>
       <use xlink:href="#CMR17-35" transform="translate(72.787654 0) scale(0.996264)"/>
      </g>
     </g>
    </g>
    <g id="xtick_9">
     <g id="line2d_9">
      <g>
       <use xlink:href="#m821378d48e" x="348.531299" y="303.52709" style="stroke: #000000; stroke-width: 0.8"/>
      </g>
     </g>
     <g id="text_9">
      <!-- $\mathdefault{2.0}$ -->
      <g transform="translate(341.052478 318.82927) scale(0.12 -0.12)">
       <use xlink:href="#CMR17-32" transform="scale(0.996264)"/>
       <use xlink:href="#CMMI12-3a" transform="translate(45.690477 0) scale(0.996264)"/>
       <use xlink:href="#CMR17-30" transform="translate(72.787654 0) scale(0.996264)"/>
      </g>
     </g>
    </g>
    <g id="text_10">
     <!-- $\Delta\alpha/(\Delta k-2\pi/\Lambda)$ -->
     <g transform="translate(152.875848 334.120242) scale(0.12 -0.12)">
      <defs>
       <path id="CMR17-1" d="M 2598 4403 
C 2547 4512 2522 4512 2470 4512 
C 2394 4512 2387 4499 2342 4409 
L 269 109 
C 262 96 237 38 237 32 
C 237 6 243 0 358 0 
L 4576 0 
C 4691 0 4698 6 4698 32 
C 4698 38 4672 96 4666 109 
L 2598 4403 
z
M 2310 4038 
L 4083 358 
L 531 358 
L 2310 4038 
z
" transform="scale(0.015625)"/>
       <path id="CMMI12-b" d="M 2963 1616 
C 2963 2235 2611 2815 1933 2815 
C 1094 2815 256 1902 256 996 
C 256 441 602 -64 1254 -64 
C 1651 -64 2125 89 2579 472 
C 2669 115 2867 -64 3142 -64 
C 3488 -64 3661 294 3661 377 
C 3661 434 3616 434 3597 434 
C 3546 434 3539 415 3520 364 
C 3462 204 3315 64 3162 64 
C 2963 64 2963 472 2963 862 
C 3616 1641 3770 2446 3770 2452 
C 3770 2510 3718 2510 3699 2510 
C 3642 2510 3635 2491 3610 2376 
C 3526 2095 3360 1597 2963 1073 
L 2963 1616 
z
M 2560 626 
C 1997 121 1491 64 1267 64 
C 813 64 685 466 685 766 
C 685 1040 826 1692 1024 2044 
C 1286 2491 1645 2688 1933 2688 
C 2554 2688 2554 1877 2554 1341 
C 2554 1182 2547 1016 2547 856 
C 2547 728 2554 696 2560 626 
z
" transform="scale(0.015625)"/>
       <path id="CMMI12-3d" d="M 2746 4562 
C 2746 4569 2784 4666 2784 4678 
C 2784 4755 2720 4800 2669 4800 
C 2637 4800 2579 4800 2528 4659 
L 384 -1363 
C 384 -1370 346 -1465 346 -1478 
C 346 -1555 410 -1600 461 -1600 
C 499 -1600 557 -1593 602 -1459 
L 2746 4562 
z
" transform="scale(0.015625)"/>
       <path id="CMR17-28" d="M 1958 -1561 
C 1958 -1555 1958 -1542 1939 -1523 
C 1645 -1224 858 -407 858 1581 
C 858 3569 1632 4379 1946 4697 
C 1946 4704 1958 4717 1958 4736 
C 1958 4755 1939 4768 1914 4768 
C 1843 4768 1299 4296 986 3594 
C 666 2887 576 2199 576 1588 
C 576 1128 621 351 1005 -471 
C 1312 -1135 1837 -1600 1914 -1600 
C 1946 -1600 1958 -1587 1958 -1561 
z
" transform="scale(0.015625)"/>
       <path id="CMMI12-6b" d="M 1798 4257 
C 1805 4283 1818 4321 1818 4352 
C 1818 4416 1754 4416 1741 4416 
C 1734 4416 1504 4393 1389 4377 
C 1280 4377 1184 4358 1069 4358 
C 915 4345 870 4339 870 4224 
C 870 4160 934 4160 998 4160 
C 1325 4160 1325 4103 1325 4040 
C 1325 4015 1325 4002 1293 3888 
L 378 248 
C 352 152 352 140 352 101 
C 352 -38 461 -64 525 -64 
C 704 -64 742 77 794 275 
L 1094 1469 
C 1555 1418 1830 1226 1830 920 
C 1830 881 1830 856 1811 760 
C 1786 664 1786 588 1786 556 
C 1786 185 2029 -64 2355 -64 
C 2650 -64 2803 204 2854 294 
C 2989 530 3072 888 3072 913 
C 3072 945 3046 971 3008 971 
C 2950 971 2944 945 2918 843 
C 2829 511 2694 64 2368 64 
C 2240 64 2157 128 2157 370 
C 2157 492 2182 632 2208 728 
C 2234 843 2234 849 2234 926 
C 2234 1303 1894 1514 1306 1590 
C 1536 1731 1766 1980 1856 2076 
C 2221 2484 2470 2689 2765 2689 
C 2912 2689 2950 2650 2995 2612 
C 2758 2586 2669 2420 2669 2293 
C 2669 2139 2790 2088 2880 2088 
C 3053 2088 3206 2235 3206 2440 
C 3206 2625 3059 2816 2771 2816 
C 2419 2816 2131 2567 1677 2056 
C 1613 1980 1376 1737 1139 1648 
L 1798 4257 
z
" transform="scale(0.015625)"/>
       <path id="CMMI12-19" d="M 1658 2408 
L 2381 2408 
C 2208 1692 2099 1226 2099 716 
C 2099 626 2099 -64 2362 -64 
C 2496 -64 2611 57 2611 166 
C 2611 197 2611 210 2566 306 
C 2394 747 2394 1296 2394 1341 
C 2394 1379 2394 1832 2528 2408 
L 3245 2408 
C 3328 2408 3539 2408 3539 2612 
C 3539 2752 3418 2752 3302 2752 
L 1197 2752 
C 1050 2752 832 2752 538 2440 
C 371 2254 166 1916 166 1878 
C 166 1840 198 1827 237 1827 
C 282 1827 288 1846 320 1884 
C 653 2408 986 2408 1146 2408 
L 1510 2408 
C 1370 1929 1210 1373 685 256 
C 634 154 634 140 634 102 
C 634 -32 749 -64 806 -64 
C 992 -64 1043 102 1120 370 
C 1222 696 1222 709 1286 964 
L 1658 2408 
z
" transform="scale(0.015625)"/>
       <path id="CMR17-3" d="M 2150 4403 
C 2118 4505 2112 4512 2048 4512 
C 1984 4512 1978 4505 1946 4403 
L 685 576 
C 570 237 358 160 147 160 
L 147 0 
C 256 0 480 0 595 0 
C 755 0 1005 0 1158 -6 
L 1158 160 
C 819 160 800 404 800 449 
C 800 494 813 532 832 596 
L 1894 3835 
L 3008 461 
C 3040 372 3040 359 3040 340 
C 3040 160 2771 160 2637 160 
L 2637 0 
C 2822 0 3149 0 3347 0 
C 3507 0 3802 0 3949 -6 
L 3949 160 
C 3667 160 3552 160 3475 384 
L 2150 4403 
z
" transform="scale(0.015625)"/>
       <path id="CMR17-29" d="M 1683 1581 
C 1683 2040 1638 2817 1254 3639 
C 947 4303 422 4768 346 4768 
C 326 4768 301 4761 301 4729 
C 301 4717 307 4710 314 4697 
C 621 4378 1402 3568 1402 1584 
C 1402 -407 627 -1217 314 -1537 
C 307 -1549 301 -1556 301 -1568 
C 301 -1600 326 -1600 346 -1600 
C 416 -1600 960 -1128 1274 -426 
C 1594 281 1683 969 1683 1581 
z
" transform="scale(0.015625)"/>
      </defs>
      <use xlink:href="#CMR17-1" transform="scale(0.996264)"/>
      <use xlink:href="#CMMI12-b" transform="translate(76.91959 0) scale(0.996264)"/>
      <use xlink:href="#CMMI12-3d" transform="translate(139.600613 0) scale(0.996264)"/>
      <use xlink:href="#CMR17-28" transform="translate(188.375531 0) scale(0.996264)"/>
      <use xlink:href="#CMR17-1" transform="translate(223.656299 0) scale(0.996264)"/>
      <use xlink:href="#CMMI12-6b" transform="translate(300.575889 0) scale(0.996264)"/>
      <use xlink:href="#CMSY10-0" transform="translate(376.794297 0) scale(0.996264)"/>
      <use xlink:href="#CMR17-32" transform="translate(476.420971 0) scale(0.996264)"/>
      <use xlink:href="#CMMI12-19" transform="translate(522.111449 0) scale(0.996264)"/>
      <use xlink:href="#CMMI12-3d" transform="translate(581.022049 0) scale(0.996264)"/>
      <use xlink:href="#CMR17-3" transform="translate(629.796968 0) scale(0.996264)"/>
      <use xlink:href="#CMR17-29" transform="translate(693.66449 0) scale(0.996264)"/>
     </g>
    </g>
   </g>
   <g id="matplotlib.axis_2">
    <g id="ytick_1">
     <g id="line2d_10">
      <defs>
       <path id="md8bf167151" d="M 0 0 
L -3.5 0 
" style="stroke: #000000; stroke-width: 0.8"/>
      </defs>
      <g>
       <use xlink:href="#md8bf167151" x="47.211299" y="303.52709" style="stroke: #000000; stroke-width: 0.8"/>
      </g>
     </g>
     <g id="text_11">
      <!-- $\mathdefault{−2.0}$ -->
      <g transform="translate(15.955168 307.67818) scale(0.12 -0.12)">
       <use xlink:href="#CMSY10-0" transform="scale(0.996264)"/>
       <use xlink:href="#CMR17-32" transform="translate(77.487468 0) scale(0.996264)"/>
       <use xlink:href="#CMMI12-3a" transform="translate(123.177945 0) scale(0.996264)"/>
       <use xlink:href="#CMR17-30" transform="translate(150.275122 0) scale(0.996264)"/>
      </g>
     </g>
    </g>
    <g id="ytick_2">
     <g id="line2d_11">
      <g>
       <use xlink:href="#md8bf167151" x="47.211299" y="266.10509" style="stroke: #000000; stroke-width: 0.8"/>
      </g>
     </g>
     <g id="text_12">
      <!-- $\mathdefault{−1.5}$ -->
      <g transform="translate(15.955168 270.25618) scale(0.12 -0.12)">
       <use xlink:href="#CMSY10-0" transform="scale(0.996264)"/>
       <use xlink:href="#CMR17-31" transform="translate(77.487468 0) scale(0.996264)"/>
       <use xlink:href="#CMMI12-3a" transform="translate(123.177945 0) scale(0.996264)"/>
       <use xlink:href="#CMR17-35" transform="translate(150.275122 0) scale(0.996264)"/>
      </g>
     </g>
    </g>
    <g id="ytick_3">
     <g id="line2d_12">
      <g>
       <use xlink:href="#md8bf167151" x="47.211299" y="228.68309" style="stroke: #000000; stroke-width: 0.8"/>
      </g>
     </g>
     <g id="text_13">
      <!-- $\mathdefault{−1.0}$ -->
      <g transform="translate(15.955168 232.83418) scale(0.12 -0.12)">
       <use xlink:href="#CMSY10-0" transform="scale(0.996264)"/>
       <use xlink:href="#CMR17-31" transform="translate(77.487468 0) scale(0.996264)"/>
       <use xlink:href="#CMMI12-3a" transform="translate(123.177945 0) scale(0.996264)"/>
       <use xlink:href="#CMR17-30" transform="translate(150.275122 0) scale(0.996264)"/>
      </g>
     </g>
    </g>
    <g id="ytick_4">
     <g id="line2d_13">
      <g>
       <use xlink:href="#md8bf167151" x="47.211299" y="191.26109" style="stroke: #000000; stroke-width: 0.8"/>
      </g>
     </g>
     <g id="text_14">
      <!-- $\mathdefault{−0.5}$ -->
      <g transform="translate(15.955168 195.41218) scale(0.12 -0.12)">
       <use xlink:href="#CMSY10-0" transform="scale(0.996264)"/>
       <use xlink:href="#CMR17-30" transform="translate(77.487468 0) scale(0.996264)"/>
       <use xlink:href="#CMMI12-3a" transform="translate(123.177945 0) scale(0.996264)"/>
       <use xlink:href="#CMR17-35" transform="translate(150.275122 0) scale(0.996264)"/>
      </g>
     </g>
    </g>
    <g id="ytick_5">
     <g id="line2d_14">
      <g>
       <use xlink:href="#md8bf167151" x="47.211299" y="153.83909" style="stroke: #000000; stroke-width: 0.8"/>
      </g>
     </g>
     <g id="text_15">
      <!-- $\mathdefault{0.0}$ -->
      <g transform="translate(25.253658 157.99018) scale(0.12 -0.12)">
       <use xlink:href="#CMR17-30" transform="scale(0.996264)"/>
       <use xlink:href="#CMMI12-3a" transform="translate(45.690477 0) scale(0.996264)"/>
       <use xlink:href="#CMR17-30" transform="translate(72.787654 0) scale(0.996264)"/>
      </g>
     </g>
    </g>
    <g id="ytick_6">
     <g id="line2d_15">
      <g>
       <use xlink:href="#md8bf167151" x="47.211299" y="116.41709" style="stroke: #000000; stroke-width: 0.8"/>
      </g>
     </g>
     <g id="text_16">
      <!-- $\mathdefault{0.5}$ -->
      <g transform="translate(25.253658 120.56818) scale(0.12 -0.12)">
       <use xlink:href="#CMR17-30" transform="scale(0.996264)"/>
       <use xlink:href="#CMMI12-3a" transform="translate(45.690477 0) scale(0.996264)"/>
       <use xlink:href="#CMR17-35" transform="translate(72.787654 0) scale(0.996264)"/>
      </g>
     </g>
    </g>
    <g id="ytick_7">
     <g id="line2d_16">
      <g>
       <use xlink:href="#md8bf167151" x="47.211299" y="78.99509" style="stroke: #000000; stroke-width: 0.8"/>
      </g>
     </g>
     <g id="text_17">
      <!-- $\mathdefault{1.0}$ -->
      <g transform="translate(25.253658 83.14618) scale(0.12 -0.12)">
       <use xlink:href="#CMR17-31" transform="scale(0.996264)"/>
       <use xlink:href="#CMMI12-3a" transform="translate(45.690477 0) scale(0.996264)"/>
       <use xlink:href="#CMR17-30" transform="translate(72.787654 0) scale(0.996264)"/>
      </g>
     </g>
    </g>
    <g id="ytick_8">
     <g id="line2d_17">
      <g>
       <use xlink:href="#md8bf167151" x="47.211299" y="41.57309" style="stroke: #000000; stroke-width: 0.8"/>
      </g>
     </g>
     <g id="text_18">
      <!-- $\mathdefault{1.5}$ -->
      <g transform="translate(25.253658 45.72418) scale(0.12 -0.12)">
       <use xlink:href="#CMR17-31" transform="scale(0.996264)"/>
       <use xlink:href="#CMMI12-3a" transform="translate(45.690477 0) scale(0.996264)"/>
       <use xlink:href="#CMR17-35" transform="translate(72.787654 0) scale(0.996264)"/>
      </g>
     </g>
    </g>
    <g id="ytick_9">
     <g id="line2d_18">
      <g>
       <use xlink:href="#md8bf167151" x="47.211299" y="4.15109" style="stroke: #000000; stroke-width: 0.8"/>
      </g>
     </g>
     <g id="text_19">
      <!-- $\mathdefault{2.0}$ -->
      <g transform="translate(25.253658 8.30218) scale(0.12 -0.12)">
       <use xlink:href="#CMR17-32" transform="scale(0.996264)"/>
       <use xlink:href="#CMMI12-3a" transform="translate(45.690477 0) scale(0.996264)"/>
       <use xlink:href="#CMR17-30" transform="translate(72.787654 0) scale(0.996264)"/>
      </g>
     </g>
    </g>
    <g id="text_20">
     <!-- $(\Delta k-2\pi/\Lambda)L/2$ -->
     <g transform="translate(8.966376 197.104936) rotate(-90) scale(0.12 -0.12)">
      <defs>
       <path id="CMMI12-4c" d="M 2349 3861 
C 2406 4103 2426 4167 2989 4167 
C 3162 4167 3206 4167 3206 4288 
C 3206 4352 3136 4352 3110 4352 
C 2982 4352 2835 4352 2707 4352 
L 1850 4352 
C 1728 4352 1587 4352 1466 4352 
C 1414 4352 1344 4352 1344 4231 
C 1344 4167 1402 4167 1498 4167 
C 1888 4167 1888 4116 1888 4046 
C 1888 4034 1888 3995 1862 3899 
L 998 472 
C 941 249 928 185 480 185 
C 358 185 294 185 294 70 
C 294 0 333 0 461 0 
L 3328 0 
C 3469 0 3475 6 3520 121 
L 4013 1478 
C 4026 1510 4038 1548 4038 1567 
C 4038 1605 4006 1631 3974 1631 
C 3968 1631 3936 1631 3923 1605 
C 3910 1599 3910 1586 3859 1465 
C 3654 905 3366 185 2285 185 
L 1670 185 
C 1581 185 1568 185 1530 192 
C 1459 198 1453 211 1453 262 
C 1453 307 1466 345 1478 401 
L 2349 3861 
z
" transform="scale(0.015625)"/>
      </defs>
      <use xlink:href="#CMR17-28" transform="scale(0.996264)"/>
      <use xlink:href="#CMR17-1" transform="translate(35.280768 0) scale(0.996264)"/>
      <use xlink:href="#CMMI12-6b" transform="translate(112.200358 0) scale(0.996264)"/>
      <use xlink:href="#CMSY10-0" transform="translate(188.418765 0) scale(0.996264)"/>
      <use xlink:href="#CMR17-32" transform="translate(288.04544 0) scale(0.996264)"/>
      <use xlink:href="#CMMI12-19" transform="translate(333.735917 0) scale(0.996264)"/>
      <use xlink:href="#CMMI12-3d" transform="translate(392.646518 0) scale(0.996264)"/>
      <use xlink:href="#CMR17-3" transform="translate(441.421437 0) scale(0.996264)"/>
      <use xlink:href="#CMR17-29" transform="translate(505.288959 0) scale(0.996264)"/>
      <use xlink:href="#CMMI12-4c" transform="translate(540.569726 0) scale(0.996264)"/>
      <use xlink:href="#CMMI12-3d" transform="translate(606.940602 0) scale(0.996264)"/>
      <use xlink:href="#CMR17-32" transform="translate(655.715521 0) scale(0.996264)"/>
     </g>
    </g>
   </g>
   <g id="QuadContourSet_1">
    <path clip-path="url(#pd4d2f1ed76)" style="fill: none; stroke-dasharray: 5.55,2.4; stroke-dashoffset: 0; stroke: #000000; stroke-width: 1.5"/>
    <path d="M 260.679233 283.459421 
L 262.713244 278.581004 
L 264.696805 274.423121 
L 266.465837 271.205597 
L 268.159673 268.558229 
L 269.816201 266.379311 
L 271.39809 264.669717 
L 272.870098 263.392914 
L 274.342105 262.399777 
L 275.814113 261.6656 
L 277.286121 261.16155 
L 278.90533 260.836378 
L 280.671739 260.710066 
L 282.73255 260.803704 
L 285.087762 261.15407 
L 287.737376 261.777919 
L 290.828593 262.732755 
L 294.361412 264.062185 
L 297.74703 265.566533 
L 300.710783 267.110566 
L 303.193459 268.639908 
L 305.25427 270.164642 
L 306.873478 271.628698 
L 308.067857 272.96061 
L 309.104595 274.423121 
L 309.88656 275.885632 
L 310.49088 277.494394 
L 310.865189 279.103156 
L 311.051915 280.85817 
L 311.036998 282.759434 
L 310.791455 284.9532 
L 310.279334 287.439469 
L 309.434711 290.364491 
L 308.198285 293.805214 
L 306.431876 298.043687 
L 303.908763 303.52709 
M 310.918026 23.621444 
L 311.06927 25.796253 
L 310.985036 27.697517 
L 310.687348 29.45253 
L 310.192176 31.061292 
L 309.523092 32.52804 
L 308.620162 33.986314 
L 307.443419 35.448825 
L 305.961201 36.911336 
L 304.140695 38.373847 
L 301.951916 39.836358 
L 299.219037 41.375917 
L 296.023136 42.907631 
L 292.595002 44.310466 
L 289.209384 45.472209 
L 286.118168 46.306516 
L 283.615755 46.769714 
L 281.407743 46.961341 
L 279.494133 46.908136 
L 277.727723 46.627551 
L 276.094232 46.125155 
L 274.636507 45.445102 
L 273.164499 44.505815 
L 271.692491 43.287508 
L 270.192134 41.737622 
L 268.671778 39.836358 
L 267.0893 37.496341 
L 265.390128 34.571319 
L 263.685309 31.207543 
L 261.830039 27.056606 
L 259.885343 22.139975 
L 257.933393 16.582433 
L 256.060151 10.586138 
L 254.277301 4.15109 
L 254.277301 4.15109 
" clip-path="url(#pd4d2f1ed76)" style="fill: none; stroke-dasharray: 5.55,2.4; stroke-dashoffset: 0; stroke: #000000; stroke-width: 1.5"/>
    <path d="M 242.423948 303.52709 
L 244.715979 293.435764 
L 245.995097 286.854465 
L 246.746342 281.881927 
L 247.149782 277.786896 
L 247.28214 274.27687 
L 247.18323 271.059346 
L 246.994797 269.035294 
M 235.704442 233.590276 
L 235.138758 229.962787 
L 234.794236 226.30651 
L 234.685218 222.796483 
L 234.798182 219.432708 
L 235.124661 216.215184 
L 235.660767 213.143911 
L 236.364304 210.361849 
L 237.252229 207.73262 
L 238.328338 205.246351 
L 239.592938 202.906334 
L 240.941022 200.858818 
L 242.562507 198.811303 
L 244.366395 196.910039 
L 246.373957 195.130772 
L 248.581969 193.476548 
L 251.084382 191.88915 
L 253.881197 190.38897 
L 256.972413 188.987703 
L 260.505232 187.63983 
L 264.479653 186.372287 
L 268.895676 185.202971 
L 273.900503 184.114078 
L 279.494133 183.129419 
L 285.823766 182.249268 
L 292.742203 181.516516 
L 300.249443 180.947335 
L 308.198285 180.570654 
L 316.147127 180.415974 
L 323.654367 180.487022 
L 330.425603 180.768811 
L 336.019233 181.212253 
L 340.582457 181.785343 
L 344.115276 182.440161 
L 346.827994 183.162435 
L 348.531299 183.794522 
M 348.531299 280.053116 
L 343.673674 283.275729 
L 338.928261 286.708214 
L 334.547225 290.149267 
L 330.131202 293.906156 
L 325.862379 297.836603 
L 321.740757 301.93487 
L 320.220553 303.52709 
M 326.161342 212.107629 
L 322.862258 215.337677 
L 320.037698 218.40895 
L 317.766336 221.206737 
L 315.999927 223.728913 
L 314.664582 226.014007 
L 313.718111 228.061523 
L 313.089755 229.962787 
L 312.783577 231.571549 
L 312.722024 233.03406 
L 312.881201 234.35032 
L 313.231954 235.520329 
L 313.828064 236.690338 
L 314.604513 237.714095 
L 315.558324 238.628816 
L 316.883131 239.571797 
L 318.355139 240.359168 
L 320.268749 241.129628 
L 322.623962 241.822789 
L 325.420777 242.40047 
L 328.659194 242.837465 
L 332.486414 243.121966 
L 336.902438 243.216089 
L 341.760063 243.093439 
L 347.206492 242.727438 
L 348.531299 242.60648 
M 348.531299 123.883658 
L 346.76489 124.535596 
L 344.262477 125.204631 
L 341.17126 125.799548 
L 337.196839 126.340006 
L 332.192013 126.793542 
L 326.15678 127.114126 
L 319.091143 127.261112 
L 311.436702 127.19752 
L 303.48786 126.91123 
L 295.686219 126.411066 
L 288.32618 125.719218 
L 281.702144 124.881272 
L 275.666912 123.898948 
L 270.220483 122.78544 
L 265.510058 121.598998 
L 261.388437 120.340501 
L 257.708417 118.991364 
L 254.47 117.57482 
L 251.525984 116.043279 
L 249.023571 114.501654 
L 246.707711 112.815657 
L 244.673448 111.060643 
L 242.81982 109.159379 
L 241.221929 107.202247 
L 239.770683 105.064348 
L 238.545405 102.870582 
L 237.483239 100.530564 
L 236.540833 97.898044 
L 235.790392 95.119274 
L 235.23129 92.194252 
L 234.865028 89.122979 
L 234.693461 85.759203 
L 234.746113 82.249177 
L 235.019141 78.73915 
L 235.527404 75.082873 
L 235.82188 73.473582 
M 247.06369 38.021251 
L 247.26173 35.010072 
L 247.249557 31.792548 
L 247.005587 28.13627 
L 246.487589 23.894988 
L 245.624964 18.7762 
L 244.274575 12.1949 
L 242.423948 4.15109 
M 348.531299 65.0717 
L 342.93767 64.644873 
L 337.785642 64.46826 
L 333.222418 64.524792 
L 329.100796 64.796405 
L 325.567977 65.253063 
L 322.623962 65.855391 
L 320.268749 66.548551 
L 318.328324 67.331565 
L 316.718143 68.209071 
L 315.411123 69.174277 
L 314.476545 70.110336 
L 313.73807 71.134093 
L 313.17582 72.304102 
L 312.852119 73.474111 
L 312.717676 74.790371 
L 312.801781 76.252882 
L 313.128478 77.861644 
L 313.718111 79.616657 
L 314.588671 81.517921 
L 315.852726 83.718241 
L 317.471934 86.077541 
L 319.537699 88.684225 
L 322.035159 91.476553 
L 325.13871 94.601388 
M 320.220553 4.15109 
L 324.24317 8.268577 
L 328.538439 12.341151 
L 332.780816 16.062243 
L 337.34404 19.757124 
L 342.054465 23.264155 
L 346.912091 26.581859 
L 348.531299 27.625064 
L 348.531299 27.625064 
" clip-path="url(#pd4d2f1ed76)" style="fill: none; stroke-dasharray: 5.55,2.4; stroke-dashoffset: 0; stroke: #000000; stroke-width: 1.5"/>
    <path d="M 232.219145 303.52709 
L 232.939038 298.847055 
L 233.349191 294.752024 
L 233.488761 291.241998 
L 233.400045 288.024473 
L 233.101004 285.099451 
L 232.592692 282.320681 
L 231.888901 279.688161 
L 230.917875 276.9419 
L 229.692385 274.130619 
L 227.826658 270.451593 
L 222.570216 260.383016 
L 220.908222 256.557764 
L 219.511041 252.777958 
L 218.295324 248.829179 
L 217.267878 244.734148 
L 216.395195 240.346615 
L 215.689135 235.66658 
L 215.162508 230.694043 
L 214.840624 225.575254 
L 214.736169 220.456466 
L 214.853399 215.483928 
L 215.186893 210.803893 
L 215.714596 206.562611 
L 216.385055 202.906334 
L 217.228202 199.538996 
L 218.184992 196.617536 
L 219.289013 193.960763 
L 220.483689 191.644999 
L 221.869999 189.451233 
L 223.410635 187.447947 
L 225.077296 185.648704 
L 226.943454 183.964473 
L 229.004265 182.403768 
L 231.359477 180.905762 
L 234.009091 179.491821 
L 236.953107 178.172487 
L 240.415413 176.873638 
L 244.313146 175.654828 
L 248.87637 174.470075 
L 254.175598 173.335381 
L 260.358031 172.250586 
L 267.570869 171.220659 
L 275.961314 170.252468 
L 285.970967 169.328442 
L 297.89423 168.460043 
L 307.227771 167.909038 
M 344.506263 166.421571 
L 348.531299 166.30905 
M 348.531299 290.980125 
L 343.37054 294.313271 
L 338.521646 297.704858 
L 333.926391 301.187072 
L 331.036771 303.52709 
M 348.531299 141.36913 
L 327.334387 140.684875 
L 317.994418 140.298755 
M 280.766164 137.8958 
L 271.103688 136.890937 
L 263.007645 135.831369 
L 256.236409 134.729238 
L 250.495579 133.578865 
L 245.490752 132.351144 
L 241.221929 131.075487 
L 237.54191 129.743787 
L 234.450694 128.399332 
L 231.653879 126.94225 
L 229.298666 125.476573 
L 227.209157 123.93074 
L 225.324245 122.270137 
L 223.70015 120.566965 
L 222.1827 118.665701 
L 220.826633 116.618185 
L 219.583415 114.333468 
L 218.522107 111.93815 
L 217.522604 109.117792 
L 216.685727 106.088106 
L 215.955968 102.57808 
L 215.394015 98.775551 
L 214.990731 94.534269 
L 214.770014 89.854234 
L 214.756664 84.881697 
L 214.960809 79.762908 
L 215.383177 74.64412 
L 216.0151 69.671582 
L 216.833312 64.991547 
L 217.827779 60.604014 
L 218.994611 56.485138 
L 220.319419 52.635392 
L 221.84079 48.903926 
L 223.632107 45.101398 
L 226.175297 40.275111 
L 229.553271 33.840063 
L 230.917875 30.73628 
L 231.888901 27.990019 
L 232.592692 25.357499 
L 233.101004 22.578728 
L 233.400045 19.653706 
L 233.48957 16.582433 
L 233.359278 13.072407 
L 232.975923 9.123627 
L 232.296153 4.589843 
L 232.219145 4.15109 
M 331.036771 4.15109 
L 335.43043 7.661778 
L 339.993654 11.031822 
L 344.912282 14.388667 
L 348.531299 16.698055 
L 348.531299 16.698055 
" clip-path="url(#pd4d2f1ed76)" style="fill: none; stroke-dasharray: 5.55,2.4; stroke-dashoffset: 0; stroke: #000000; stroke-width: 1.5"/>
    <path d="M 182.860538 303.52709 
L 183.666424 302.12759 
L 184.696829 300.813233 
L 185.874436 299.686508 
L 187.230722 298.700804 
L 188.303093 298.086201 
M 197.871299 277.821686 
L 197.797699 11.692837 
L 195.442486 11.576092 
L 193.234475 11.25659 
L 191.126111 10.732389 
L 189.260054 10.046726 
L 187.640845 9.227409 
L 186.168837 8.229611 
L 184.8941 7.076112 
L 183.915694 5.906103 
L 183.077621 4.574728 
L 182.860538 4.15109 
M 212.88206 303.52709 
L 212.076175 302.12759 
L 211.045769 300.813233 
L 209.868163 299.686508 
L 208.511877 298.700804 
L 206.906848 297.823297 
L 205.072653 297.092042 
L 203.244128 296.57804 
L 201.036116 296.184895 
L 198.680904 295.99812 
L 197.871299 296.068284 
L 197.871299 303.52709 
M 47.211299 299.901367 
L 51.63988 302.795834 
L 52.695678 303.52709 
M 348.531299 299.901367 
L 344.102719 302.795834 
L 343.04692 303.52709 
M 52.695678 4.15109 
L 48.091919 7.222363 
L 47.211299 7.776812 
M 197.871299 4.15109 
L 197.9449 11.692837 
L 200.300112 11.576092 
L 202.508124 11.25659 
L 204.616487 10.732389 
L 206.482545 10.046726 
L 208.101754 9.227409 
L 209.573761 8.229611 
L 210.848498 7.076112 
L 211.826904 5.906103 
L 212.664978 4.574728 
L 212.88206 4.15109 
M 343.04692 4.15109 
L 347.65068 7.222363 
L 348.531299 7.776812 
L 348.531299 7.776812 
" clip-path="url(#pd4d2f1ed76)" style="fill: none; stroke: #000000; stroke-width: 1.5"/>
    <path d="M 163.523454 303.52709 
L 162.803561 298.847055 
L 162.393407 294.752024 
L 162.253838 291.241998 
L 162.342553 288.024473 
L 162.641595 285.099451 
L 163.149907 282.320681 
L 163.853697 279.688161 
L 164.824724 276.9419 
L 166.050213 274.130619 
L 167.91594 270.451593 
L 173.172383 260.383016 
L 174.834377 256.557764 
L 176.231557 252.777958 
L 177.447274 248.829179 
L 178.47472 244.734148 
L 179.347404 240.346615 
L 180.053463 235.66658 
L 180.58009 230.694043 
L 180.901974 225.575254 
L 181.006429 220.456466 
L 180.889199 215.483928 
L 180.555706 210.803893 
L 180.028003 206.562611 
L 179.357544 202.906334 
L 178.514397 199.538996 
L 177.557606 196.617536 
L 176.453586 193.960763 
L 175.258909 191.644999 
L 173.872599 189.451233 
L 172.331964 187.447947 
L 170.665303 185.648704 
L 168.799145 183.964473 
L 166.738334 182.403768 
L 164.383121 180.905762 
L 161.733507 179.491821 
L 158.789492 178.172487 
L 155.327186 176.873638 
L 151.429453 175.654828 
L 146.866228 174.470075 
L 141.567 173.335381 
L 135.384567 172.250586 
L 128.171729 171.220659 
L 119.781285 170.252468 
L 109.771631 169.328442 
L 97.848368 168.460043 
L 83.702678 167.659819 
L 70.481508 167.073811 
M 47.211299 290.980125 
L 52.372058 294.313271 
L 57.220952 297.704858 
L 61.816208 301.187072 
L 64.705827 303.52709 
M 63.123334 140.87822 
L 81.656282 140.11799 
L 96.965163 139.274578 
L 109.624431 138.361834 
L 120.222887 137.379743 
L 129.054934 136.342546 
L 136.414973 135.261512 
L 142.597406 134.139001 
L 147.896634 132.959683 
L 152.459858 131.72223 
L 156.287078 130.467563 
L 159.672696 129.133456 
L 162.633938 127.733269 
L 165.266326 126.241118 
L 167.589956 124.661996 
L 169.570816 123.053234 
L 171.379234 121.29822 
L 173.008942 119.396956 
L 174.460836 117.349441 
L 175.740659 115.155674 
L 176.919506 112.669405 
L 177.925593 110.021234 
L 178.808798 107.071028 
L 179.568394 103.748088 
L 180.197867 99.94556 
L 180.649129 95.850529 
L 180.92656 91.316745 
L 181.004211 86.344208 
L 180.86221 81.225419 
L 180.502854 76.106631 
L 179.937351 71.134093 
L 179.190141 66.454058 
L 178.272936 62.066525 
L 177.189589 57.945113 
L 175.928392 54.022715 
L 174.46584 50.220186 
L 172.756544 46.417658 
L 170.565554 42.123951 
L 165.707929 32.809075 
L 164.500706 29.891283 
L 163.594311 27.112512 
L 162.964179 24.479993 
L 162.527922 21.701222 
L 162.295201 18.7762 
L 162.267575 15.558676 
L 162.469511 11.947085 
L 162.920177 7.953618 
L 163.523454 4.15109 
M 64.705827 4.15109 
L 60.312169 7.661778 
L 55.748945 11.031822 
L 50.830316 14.388667 
L 47.211299 16.698055 
L 47.211299 16.698055 
" clip-path="url(#pd4d2f1ed76)" style="fill: none; stroke: #000000; stroke-width: 1.5"/>
    <path d="M 149.965506 288.079814 
L 149.130703 282.905685 
L 148.659078 278.664403 
L 148.469011 275.008126 
L 148.516176 271.790601 
L 148.786647 268.719328 
L 149.273438 265.794306 
L 149.990236 262.869284 
L 151.021602 259.65176 
L 152.543528 255.70298 
L 157.279377 243.856641 
L 158.536332 239.907862 
L 159.525496 236.072099 
L 160.264144 232.302805 
L 160.754326 228.646527 
L 161.015363 224.99025 
L 161.039504 221.480223 
L 160.838063 218.116448 
L 160.416838 214.898924 
L 159.813117 211.973902 
L 159.013171 209.195131 
L 158.053488 206.652353 
L 156.971203 204.368845 
L 155.696431 202.175078 
L 154.226268 200.088233 
L 152.607059 198.170405 
L 150.75348 196.325034 
L 148.779839 194.662299 
L 146.571827 193.078508 
L 143.974939 191.498748 
L 141.125398 190.033319 
L 137.886981 188.628017 
L 134.354162 187.337678 
L 130.262314 186.087457 
L 125.816517 184.96026 
L 120.694018 183.893691 
L 114.923659 182.926444 
L 108.594025 182.091846 
L 101.528388 181.387448 
L 93.873947 180.852422 
L 85.925105 180.520962 
L 77.976263 180.412479 
L 70.575171 180.529916 
L 63.992188 180.853705 
L 58.545759 181.338173 
L 54.276937 181.927503 
L 51.033092 182.577431 
L 48.472964 183.308686 
L 47.211299 183.794522 
M 68.759077 296.774448 
L 72.971436 300.880917 
L 75.522045 303.52709 
M 67.975369 210.633007 
L 71.646629 214.09307 
L 74.667419 217.238941 
L 77.093058 220.073129 
L 79.022394 222.650232 
L 80.513528 224.99025 
L 81.656282 227.197125 
L 82.3957 229.08528 
L 82.848121 230.840294 
L 83.023407 232.449056 
L 82.960032 233.765316 
L 82.668051 235.081575 
L 82.170566 236.251584 
L 81.504166 237.275342 
L 80.560863 238.2991 
L 79.44827 239.18779 
L 77.976263 240.06938 
L 76.209853 240.860034 
L 74.001842 241.589251 
L 71.352227 242.212897 
L 68.261011 242.702544 
L 64.580992 243.047646 
L 60.45937 243.206855 
L 55.748945 243.162338 
L 50.449716 242.880926 
L 47.211299 242.60648 
M 47.211299 123.883658 
L 48.977709 124.535596 
L 51.480122 125.204631 
L 54.571338 125.799548 
L 58.545759 126.340006 
L 63.550586 126.793542 
L 69.585818 127.114126 
L 76.651456 127.261112 
L 84.305896 127.19752 
L 92.254738 126.91123 
L 100.05638 126.411066 
L 107.416419 125.719218 
L 114.040454 124.881272 
L 120.075686 123.898948 
L 125.522115 122.78544 
L 130.23254 121.598998 
L 134.354162 120.340501 
L 138.034182 118.991364 
L 141.272599 117.57482 
L 144.216614 116.043279 
L 146.719028 114.501654 
L 149.034888 112.815657 
L 151.069151 111.060643 
L 152.922778 109.159379 
L 154.520669 107.202247 
L 155.971916 105.064348 
L 157.197193 102.870582 
L 158.259359 100.530564 
L 159.201766 97.898044 
L 159.952206 95.119274 
L 160.511309 92.194252 
L 160.87757 89.122979 
L 161.049138 85.759203 
L 160.996486 82.249177 
L 160.723458 78.73915 
L 160.215195 75.082873 
L 159.484492 71.426596 
L 158.928016 69.182995 
M 149.484013 42.845034 
L 148.927039 39.958029 
L 148.591483 37.057587 
L 148.461478 33.986314 
L 148.547079 30.622539 
L 148.874152 26.82001 
L 149.479121 22.432477 
L 150.45654 17.021187 
L 151.990045 9.854883 
L 153.318651 4.15109 
M 47.211299 65.0717 
L 52.804929 64.644873 
L 57.956956 64.46826 
L 62.520181 64.524792 
L 66.641802 64.796405 
L 70.174621 65.253063 
L 73.118637 65.855391 
L 75.473849 66.548551 
L 77.414274 67.331565 
L 79.024456 68.209071 
L 80.331475 69.174277 
L 81.266053 70.110336 
L 82.004528 71.134093 
L 82.566779 72.304102 
L 82.89048 73.474111 
L 83.024923 74.790371 
L 82.940818 76.252882 
L 82.61412 77.861644 
L 82.024488 79.616657 
L 81.153928 81.517921 
L 79.889873 83.718241 
L 78.270664 86.077541 
L 76.2049 88.684225 
L 73.70744 91.476553 
L 70.616224 94.589556 
L 67.415168 97.547517 
M 55.332576 22.07356 
L 50.88868 25.211248 
L 47.211299 27.625064 
L 47.211299 27.625064 
" clip-path="url(#pd4d2f1ed76)" style="fill: none; stroke: #000000; stroke-width: 1.5"/>
    <path d="M 141.465298 303.52709 
L 139.65339 296.993189 
L 137.663215 290.656993 
L 135.678969 285.062279 
L 133.618158 279.928291 
L 131.632893 275.59313 
L 129.785438 272.083104 
L 127.991471 269.158082 
L 126.402595 266.964315 
L 124.786111 265.111008 
L 123.314103 263.745283 
L 121.842096 262.669285 
L 120.337659 261.845527 
L 118.800181 261.260522 
L 117.278871 260.903412 
L 115.512462 260.721823 
L 113.598852 260.75398 
L 111.39084 261.020943 
L 108.741226 261.584212 
L 105.65001 262.486482 
L 102.1648 263.746791 
L 98.731573 265.218569 
L 95.55681 266.818064 
L 92.990742 268.347468 
L 90.831113 269.889337 
L 89.149701 271.351848 
L 87.793731 272.814359 
L 86.729674 274.27687 
L 85.923684 275.739381 
L 85.296587 277.348143 
L 84.894699 279.003612 
L 84.698359 280.711918 
L 84.697386 282.613183 
L 84.928171 284.806949 
L 85.427345 287.293218 
L 85.588475 287.929216 
M 85.957393 18.436445 
L 85.226119 21.262469 
L 84.80936 23.748737 
L 84.672049 25.942504 
L 84.77374 27.843768 
L 85.090926 29.598781 
L 85.630703 31.265899 
L 86.366707 32.795902 
L 87.249912 34.163388 
L 88.433092 35.595076 
L 89.947709 37.057587 
L 91.813136 38.526827 
L 94.030863 39.982609 
L 96.817963 41.527626 
L 100.05638 43.055745 
L 103.589199 44.474853 
L 106.974817 45.605999 
L 109.918832 46.372181 
L 112.421246 46.808464 
L 114.629257 46.967857 
L 116.542867 46.87817 
L 118.275811 46.563909 
L 119.781285 46.072857 
L 121.253292 45.363024 
L 122.760622 44.370142 
L 124.197308 43.149491 
L 125.67786 41.591371 
L 127.177654 39.690107 
L 128.760532 37.324672 
L 130.509879 34.278816 
L 132.195965 30.915041 
L 134.072727 26.673759 
L 136.019987 21.701222 
L 137.95391 16.14368 
L 139.853741 10.001134 
L 141.465298 4.15109 
L 141.465298 4.15109 
" clip-path="url(#pd4d2f1ed76)" style="fill: none; stroke: #000000; stroke-width: 1.5"/>
    <path clip-path="url(#pd4d2f1ed76)" style="fill: none; stroke: #000000; stroke-width: 1.5"/>
   </g>
   <g id="patch_3">
    <path d="M 47.211299 303.52709 
L 47.211299 4.15109 
" style="fill: none; stroke: #000000; stroke-width: 0.8; stroke-linejoin: miter; stroke-linecap: square"/>
   </g>
   <g id="patch_4">
    <path d="M 348.531299 303.52709 
L 348.531299 4.15109 
" style="fill: none; stroke: #000000; stroke-width: 0.8; stroke-linejoin: miter; stroke-linecap: square"/>
   </g>
   <g id="patch_5">
    <path d="M 47.211299 303.52709 
L 348.531299 303.52709 
" style="fill: none; stroke: #000000; stroke-width: 0.8; stroke-linejoin: miter; stroke-linecap: square"/>
   </g>
   <g id="patch_6">
    <path d="M 47.211299 4.15109 
L 348.531299 4.15109 
" style="fill: none; stroke: #000000; stroke-width: 0.8; stroke-linejoin: miter; stroke-linecap: square"/>
   </g>
   <g id="text_21">
    <!-- $\mathdefault{−0.75}$ -->
    <g transform="translate(253.332849 316.455218) rotate(-72.910111) scale(0.12 -0.12)">
     <defs>
      <path id="CMR17-37" d="M 2886 3941 
L 2886 4081 
L 1382 4081 
C 634 4081 621 4165 595 4288 
L 480 4288 
L 294 3094 
L 410 3094 
C 429 3215 474 3540 550 3661 
C 589 3712 1062 3712 1171 3712 
L 2579 3712 
L 1869 2661 
C 1395 1954 1069 999 1069 165 
C 1069 89 1069 -128 1299 -128 
C 1530 -128 1530 89 1530 171 
L 1530 465 
C 1530 1508 1709 2196 2003 2636 
L 2886 3941 
z
" transform="scale(0.015625)"/>
     </defs>
     <use xlink:href="#CMSY10-0" transform="scale(0.996264)"/>
     <use xlink:href="#CMR17-30" transform="translate(77.487468 0) scale(0.996264)"/>
     <use xlink:href="#CMMI12-3a" transform="translate(123.177945 0) scale(0.996264)"/>
     <use xlink:href="#CMR17-37" transform="translate(150.275122 0) scale(0.996264)"/>
     <use xlink:href="#CMR17-35" transform="translate(195.965599 0) scale(0.996264)"/>
    </g>
   </g>
   <g id="text_22">
    <!-- $\mathdefault{−0.75}$ -->
    <g transform="translate(296.475754 -6.817694) rotate(-291.671334) scale(0.12 -0.12)">
     <use xlink:href="#CMSY10-0" transform="scale(0.996264)"/>
     <use xlink:href="#CMR17-30" transform="translate(77.487468 0) scale(0.996264)"/>
     <use xlink:href="#CMMI12-3a" transform="translate(123.177945 0) scale(0.996264)"/>
     <use xlink:href="#CMR17-37" transform="translate(150.275122 0) scale(0.996264)"/>
     <use xlink:href="#CMR17-35" transform="translate(195.965599 0) scale(0.996264)"/>
    </g>
   </g>
   <g id="text_23">
    <!-- $\mathdefault{−0.50}$ -->
    <g transform="translate(233.570159 238.10439) rotate(-289.310391) scale(0.12 -0.12)">
     <use xlink:href="#CMSY10-0" transform="scale(0.996264)"/>
     <use xlink:href="#CMR17-30" transform="translate(77.487468 0) scale(0.996264)"/>
     <use xlink:href="#CMMI12-3a" transform="translate(123.177945 0) scale(0.996264)"/>
     <use xlink:href="#CMR17-35" transform="translate(150.275122 0) scale(0.996264)"/>
     <use xlink:href="#CMR17-30" transform="translate(195.965599 0) scale(0.996264)"/>
    </g>
   </g>
   <g id="text_24">
    <!-- $\mathdefault{−0.50}$ -->
    <g transform="translate(330.81019 212.068169) rotate(-39.846296) scale(0.12 -0.12)">
     <use xlink:href="#CMSY10-0" transform="scale(0.996264)"/>
     <use xlink:href="#CMR17-30" transform="translate(77.487468 0) scale(0.996264)"/>
     <use xlink:href="#CMMI12-3a" transform="translate(123.177945 0) scale(0.996264)"/>
     <use xlink:href="#CMR17-35" transform="translate(150.275122 0) scale(0.996264)"/>
     <use xlink:href="#CMR17-30" transform="translate(195.965599 0) scale(0.996264)"/>
    </g>
   </g>
   <g id="text_25">
    <!-- $\mathdefault{−0.50}$ -->
    <g transform="translate(239.465984 70.975483) rotate(-70.737522) scale(0.12 -0.12)">
     <use xlink:href="#CMSY10-0" transform="scale(0.996264)"/>
     <use xlink:href="#CMR17-30" transform="translate(77.487468 0) scale(0.996264)"/>
     <use xlink:href="#CMMI12-3a" transform="translate(123.177945 0) scale(0.996264)"/>
     <use xlink:href="#CMR17-35" transform="translate(150.275122 0) scale(0.996264)"/>
     <use xlink:href="#CMR17-30" transform="translate(195.965599 0) scale(0.996264)"/>
    </g>
   </g>
   <g id="text_26">
    <!-- $\mathdefault{−0.50}$ -->
    <g transform="translate(325.890547 99.298711) rotate(-320.055084) scale(0.12 -0.12)">
     <use xlink:href="#CMSY10-0" transform="scale(0.996264)"/>
     <use xlink:href="#CMR17-30" transform="translate(77.487468 0) scale(0.996264)"/>
     <use xlink:href="#CMMI12-3a" transform="translate(123.177945 0) scale(0.996264)"/>
     <use xlink:href="#CMR17-35" transform="translate(150.275122 0) scale(0.996264)"/>
     <use xlink:href="#CMR17-30" transform="translate(195.965599 0) scale(0.996264)"/>
    </g>
   </g>
   <g id="text_27">
    <!-- $\mathdefault{−0.25}$ -->
    <g transform="translate(310.93799 170.632828) rotate(-2.269615) scale(0.12 -0.12)">
     <use xlink:href="#CMSY10-0" transform="scale(0.996264)"/>
     <use xlink:href="#CMR17-30" transform="translate(77.487468 0) scale(0.996264)"/>
     <use xlink:href="#CMMI12-3a" transform="translate(123.177945 0) scale(0.996264)"/>
     <use xlink:href="#CMR17-32" transform="translate(150.275122 0) scale(0.996264)"/>
     <use xlink:href="#CMR17-35" transform="translate(195.965599 0) scale(0.996264)"/>
    </g>
   </g>
   <g id="text_28">
    <!-- $\mathdefault{−0.25}$ -->
    <g transform="translate(284.151805 141.334943) rotate(-356.346072) scale(0.12 -0.12)">
     <use xlink:href="#CMSY10-0" transform="scale(0.996264)"/>
     <use xlink:href="#CMR17-30" transform="translate(77.487468 0) scale(0.996264)"/>
     <use xlink:href="#CMMI12-3a" transform="translate(123.177945 0) scale(0.996264)"/>
     <use xlink:href="#CMR17-32" transform="translate(150.275122 0) scale(0.996264)"/>
     <use xlink:href="#CMR17-35" transform="translate(195.965599 0) scale(0.996264)"/>
    </g>
   </g>
   <g id="text_29">
    <!-- $\mathdefault{0.00}$ -->
    <g transform="translate(196.740827 302.593873) rotate(-67.980143) scale(0.12 -0.12)">
     <use xlink:href="#CMR17-30" transform="scale(0.996264)"/>
     <use xlink:href="#CMMI12-3a" transform="translate(45.690477 0) scale(0.996264)"/>
     <use xlink:href="#CMR17-30" transform="translate(72.787654 0) scale(0.996264)"/>
     <use xlink:href="#CMR17-30" transform="translate(118.478131 0) scale(0.996264)"/>
    </g>
   </g>
   <g id="text_30">
    <!-- $\mathdefault{0.25}$ -->
    <g transform="translate(45.989743 169.235666) rotate(-358.175343) scale(0.12 -0.12)">
     <use xlink:href="#CMR17-30" transform="scale(0.996264)"/>
     <use xlink:href="#CMMI12-3a" transform="translate(45.690477 0) scale(0.996264)"/>
     <use xlink:href="#CMR17-32" transform="translate(72.787654 0) scale(0.996264)"/>
     <use xlink:href="#CMR17-35" transform="translate(118.478131 0) scale(0.996264)"/>
    </g>
   </g>
   <g id="text_31">
    <!-- $\mathdefault{0.25}$ -->
    <g transform="translate(38.813675 144.615363) rotate(-1.714512) scale(0.12 -0.12)">
     <use xlink:href="#CMR17-30" transform="scale(0.996264)"/>
     <use xlink:href="#CMMI12-3a" transform="translate(45.690477 0) scale(0.996264)"/>
     <use xlink:href="#CMR17-32" transform="translate(72.787654 0) scale(0.996264)"/>
     <use xlink:href="#CMR17-35" transform="translate(118.478131 0) scale(0.996264)"/>
    </g>
   </g>
   <g id="text_32">
    <!-- $\mathdefault{0.50}$ -->
    <g transform="translate(147.711051 292.272294) rotate(-282.632629) scale(0.12 -0.12)">
     <use xlink:href="#CMR17-30" transform="scale(0.996264)"/>
     <use xlink:href="#CMMI12-3a" transform="translate(45.690477 0) scale(0.996264)"/>
     <use xlink:href="#CMR17-35" transform="translate(72.787654 0) scale(0.996264)"/>
     <use xlink:href="#CMR17-30" transform="translate(118.478131 0) scale(0.996264)"/>
    </g>
   </g>
   <g id="text_33">
    <!-- $\mathdefault{0.50}$ -->
    <g transform="translate(48.042111 283.698178) rotate(-322.319897) scale(0.12 -0.12)">
     <use xlink:href="#CMR17-30" transform="scale(0.996264)"/>
     <use xlink:href="#CMMI12-3a" transform="translate(45.690477 0) scale(0.996264)"/>
     <use xlink:href="#CMR17-35" transform="translate(72.787654 0) scale(0.996264)"/>
     <use xlink:href="#CMR17-30" transform="translate(118.478131 0) scale(0.996264)"/>
    </g>
   </g>
   <g id="text_34">
    <!-- $\mathdefault{0.50}$ -->
    <g transform="translate(47.276798 197.385095) rotate(-320.687401) scale(0.12 -0.12)">
     <use xlink:href="#CMR17-30" transform="scale(0.996264)"/>
     <use xlink:href="#CMMI12-3a" transform="translate(45.690477 0) scale(0.996264)"/>
     <use xlink:href="#CMR17-35" transform="translate(72.787654 0) scale(0.996264)"/>
     <use xlink:href="#CMR17-30" transform="translate(118.478131 0) scale(0.996264)"/>
    </g>
   </g>
   <g id="text_35">
    <!-- $\mathdefault{0.50}$ -->
    <g transform="translate(147.699701 47.365627) rotate(-291.048783) scale(0.12 -0.12)">
     <use xlink:href="#CMR17-30" transform="scale(0.996264)"/>
     <use xlink:href="#CMMI12-3a" transform="translate(45.690477 0) scale(0.996264)"/>
     <use xlink:href="#CMR17-35" transform="translate(72.787654 0) scale(0.996264)"/>
     <use xlink:href="#CMR17-30" transform="translate(118.478131 0) scale(0.996264)"/>
    </g>
   </g>
   <g id="text_36">
    <!-- $\mathdefault{0.50}$ -->
    <g transform="translate(50.483005 115.391902) rotate(-39.363451) scale(0.12 -0.12)">
     <use xlink:href="#CMR17-30" transform="scale(0.996264)"/>
     <use xlink:href="#CMMI12-3a" transform="translate(45.690477 0) scale(0.996264)"/>
     <use xlink:href="#CMR17-35" transform="translate(72.787654 0) scale(0.996264)"/>
     <use xlink:href="#CMR17-30" transform="translate(118.478131 0) scale(0.996264)"/>
    </g>
   </g>
   <g id="text_37">
    <!-- $\mathdefault{0.50}$ -->
    <g transform="translate(60.435461 22.411509) rotate(-41.800296) scale(0.12 -0.12)">
     <use xlink:href="#CMR17-30" transform="scale(0.996264)"/>
     <use xlink:href="#CMMI12-3a" transform="translate(45.690477 0) scale(0.996264)"/>
     <use xlink:href="#CMR17-35" transform="translate(72.787654 0) scale(0.996264)"/>
     <use xlink:href="#CMR17-30" transform="translate(118.478131 0) scale(0.996264)"/>
    </g>
   </g>
   <g id="text_38">
    <!-- $\mathdefault{0.75}$ -->
    <g transform="translate(83.802531 292.577771) rotate(-293.109905) scale(0.12 -0.12)">
     <use xlink:href="#CMR17-30" transform="scale(0.996264)"/>
     <use xlink:href="#CMMI12-3a" transform="translate(45.690477 0) scale(0.996264)"/>
     <use xlink:href="#CMR17-37" transform="translate(72.787654 0) scale(0.996264)"/>
     <use xlink:href="#CMR17-35" transform="translate(118.478131 0) scale(0.996264)"/>
    </g>
   </g>
   <g id="text_39">
    <!-- $\mathdefault{0.75}$ -->
    <g transform="translate(89.803869 16.201506) rotate(-66.503183) scale(0.12 -0.12)">
     <use xlink:href="#CMR17-30" transform="scale(0.996264)"/>
     <use xlink:href="#CMMI12-3a" transform="translate(45.690477 0) scale(0.996264)"/>
     <use xlink:href="#CMR17-37" transform="translate(72.787654 0) scale(0.996264)"/>
     <use xlink:href="#CMR17-35" transform="translate(118.478131 0) scale(0.996264)"/>
    </g>
   </g>
  </g>
 </g>
 <defs>
  <clipPath id="pd4d2f1ed76">
   <rect x="47.211299" y="4.15109" width="301.32" height="299.376"/>
  </clipPath>
 </defs>
</svg>
