<?xml version="1.0" encoding="utf-8" standalone="no"?>
<!DOCTYPE svg PUBLIC "-//W3C//DTD SVG 1.1//EN"
  "http://www.w3.org/Graphics/SVG/1.1/DTD/svg11.dtd">
<svg xmlns:xlink="http://www.w3.org/1999/xlink" width="356.01012pt" height="337.109034pt" viewBox="0 0 356.01012 337.109034" xmlns="http://www.w3.org/2000/svg" version="1.1">
 <metadata>
  <rdf:RDF xmlns:dc="http://purl.org/dc/elements/1.1/" xmlns:cc="http://creativecommons.org/ns#" xmlns:rdf="http://www.w3.org/1999/02/22-rdf-syntax-ns#">
   <cc:Work>
    <dc:type rdf:resource="http://purl.org/dc/dcmitype/StillImage"/>
    <dc:date>2025-04-08T12:21:38.987616</dc:date>
    <dc:format>image/svg+xml</dc:format>
    <dc:creator>
     <cc:Agent>
      <dc:title>Matplotlib v3.10.1, https://matplotlib.org/</dc:title>
     </cc:Agent>
    </dc:creator>
   </cc:Work>
  </rdf:RDF>
 </metadata>
 <defs>
  <style type="text/css">*{stroke-linejoin: round; stroke-linecap: butt}</style>
 </defs>
 <g id="figure_1">
  <g id="patch_1">
   <path d="M 0 337.109034 
L 356.01012 337.109034 
L 356.01012 0 
L 0 0 
z
" style="fill: #ffffff"/>
  </g>
  <g id="axes_1">
   <g id="patch_2">
    <path d="M 47.211299 303.52709 
L 348.531299 303.52709 
L 348.531299 4.15109 
L 47.211299 4.15109 
z
" style="fill: #ffffff"/>
   </g>
   <g id="matplotlib.axis_1">
    <g id="xtick_1">
     <g id="line2d_1">
      <defs>
       <path id="mdcdc42987a" d="M 0 0 
L 0 3.5 
" style="stroke: #000000; stroke-width: 0.8"/>
      </defs>
      <g>
       <use xlink:href="#mdcdc42987a" x="47.211299" y="303.52709" style="stroke: #000000; stroke-width: 0.8"/>
      </g>
     </g>
     <g id="text_1">
      <!-- $\mathdefault{−2.0}$ -->
      <g transform="translate(35.083234 318.82927) scale(0.12 -0.12)">
       <defs>
        <path id="CMSY10-0" d="M 4218 1472 
C 4326 1472 4442 1472 4442 1600 
C 4442 1728 4326 1728 4218 1728 
L 755 1728 
C 646 1728 531 1728 531 1600 
C 531 1472 646 1472 755 1472 
L 4218 1472 
z
" transform="scale(0.015625)"/>
        <path id="CMR17-32" d="M 2669 989 
L 2554 989 
C 2490 536 2438 459 2413 420 
C 2381 369 1920 369 1830 369 
L 602 369 
C 832 619 1280 1072 1824 1597 
C 2214 1967 2669 2402 2669 3035 
C 2669 3790 2067 4224 1395 4224 
C 691 4224 262 3604 262 3030 
C 262 2780 448 2748 525 2748 
C 589 2748 781 2787 781 3010 
C 781 3207 614 3264 525 3264 
C 486 3264 448 3258 422 3245 
C 544 3790 915 4058 1306 4058 
C 1862 4058 2227 3617 2227 3035 
C 2227 2479 1901 2000 1536 1584 
L 262 146 
L 262 0 
L 2515 0 
L 2669 989 
z
" transform="scale(0.015625)"/>
        <path id="CMMI12-3a" d="M 1178 307 
C 1178 492 1024 619 870 619 
C 685 619 557 466 557 313 
C 557 128 710 0 864 0 
C 1050 0 1178 153 1178 307 
z
" transform="scale(0.015625)"/>
        <path id="CMR17-30" d="M 2688 2025 
C 2688 2416 2682 3080 2413 3591 
C 2176 4039 1798 4198 1466 4198 
C 1158 4198 768 4058 525 3597 
C 269 3118 243 2524 243 2025 
C 243 1661 250 1106 448 619 
C 723 -39 1216 -128 1466 -128 
C 1760 -128 2208 -7 2470 600 
C 2662 1042 2688 1559 2688 2025 
z
M 1466 -26 
C 1056 -26 813 325 723 812 
C 653 1188 653 1738 653 2096 
C 653 2588 653 2997 736 3387 
C 858 3929 1216 4096 1466 4096 
C 1728 4096 2067 3923 2189 3400 
C 2272 3036 2278 2607 2278 2096 
C 2278 1680 2278 1169 2202 792 
C 2067 95 1690 -26 1466 -26 
z
" transform="scale(0.015625)"/>
       </defs>
       <use xlink:href="#CMSY10-0" transform="scale(0.996264)"/>
       <use xlink:href="#CMR17-32" transform="translate(77.487468 0) scale(0.996264)"/>
       <use xlink:href="#CMMI12-3a" transform="translate(123.177945 0) scale(0.996264)"/>
       <use xlink:href="#CMR17-30" transform="translate(150.275122 0) scale(0.996264)"/>
      </g>
     </g>
    </g>
    <g id="xtick_2">
     <g id="line2d_2">
      <g>
       <use xlink:href="#mdcdc42987a" x="84.876299" y="303.52709" style="stroke: #000000; stroke-width: 0.8"/>
      </g>
     </g>
     <g id="text_2">
      <!-- $\mathdefault{−1.5}$ -->
      <g transform="translate(72.748234 318.82927) scale(0.12 -0.12)">
       <defs>
        <path id="CMR17-31" d="M 1702 4058 
C 1702 4192 1696 4192 1606 4192 
C 1357 3916 979 3827 621 3827 
C 602 3827 570 3827 563 3808 
C 557 3795 557 3782 557 3648 
C 755 3648 1088 3686 1344 3839 
L 1344 461 
C 1344 236 1331 160 781 160 
L 589 160 
L 589 0 
C 896 0 1216 0 1523 0 
C 1830 0 2150 0 2458 0 
L 2458 160 
L 2266 160 
C 1715 160 1702 230 1702 458 
L 1702 4058 
z
" transform="scale(0.015625)"/>
        <path id="CMR17-35" d="M 730 3692 
C 794 3666 1056 3584 1325 3584 
C 1920 3584 2246 3911 2432 4100 
C 2432 4157 2432 4192 2394 4192 
C 2387 4192 2374 4192 2323 4163 
C 2099 4058 1837 3973 1517 3973 
C 1325 3973 1037 3999 723 4139 
C 653 4171 640 4171 634 4171 
C 602 4171 595 4164 595 4037 
L 595 2203 
C 595 2089 595 2057 659 2057 
C 691 2057 704 2070 736 2114 
C 941 2401 1222 2522 1542 2522 
C 1766 2522 2246 2382 2246 1289 
C 2246 1085 2246 715 2054 421 
C 1894 159 1645 25 1370 25 
C 947 25 518 320 403 814 
C 429 807 480 795 506 795 
C 589 795 749 840 749 1038 
C 749 1210 627 1280 506 1280 
C 358 1280 262 1190 262 1011 
C 262 454 704 -128 1382 -128 
C 2042 -128 2669 440 2669 1264 
C 2669 2030 2170 2624 1549 2624 
C 1222 2624 947 2503 730 2274 
L 730 3692 
z
" transform="scale(0.015625)"/>
       </defs>
       <use xlink:href="#CMSY10-0" transform="scale(0.996264)"/>
       <use xlink:href="#CMR17-31" transform="translate(77.487468 0) scale(0.996264)"/>
       <use xlink:href="#CMMI12-3a" transform="translate(123.177945 0) scale(0.996264)"/>
       <use xlink:href="#CMR17-35" transform="translate(150.275122 0) scale(0.996264)"/>
      </g>
     </g>
    </g>
    <g id="xtick_3">
     <g id="line2d_3">
      <g>
       <use xlink:href="#mdcdc42987a" x="122.541299" y="303.52709" style="stroke: #000000; stroke-width: 0.8"/>
      </g>
     </g>
     <g id="text_3">
      <!-- $\mathdefault{−1.0}$ -->
      <g transform="translate(110.413234 318.82927) scale(0.12 -0.12)">
       <use xlink:href="#CMSY10-0" transform="scale(0.996264)"/>
       <use xlink:href="#CMR17-31" transform="translate(77.487468 0) scale(0.996264)"/>
       <use xlink:href="#CMMI12-3a" transform="translate(123.177945 0) scale(0.996264)"/>
       <use xlink:href="#CMR17-30" transform="translate(150.275122 0) scale(0.996264)"/>
      </g>
     </g>
    </g>
    <g id="xtick_4">
     <g id="line2d_4">
      <g>
       <use xlink:href="#mdcdc42987a" x="160.206299" y="303.52709" style="stroke: #000000; stroke-width: 0.8"/>
      </g>
     </g>
     <g id="text_4">
      <!-- $\mathdefault{−0.5}$ -->
      <g transform="translate(148.078234 318.82927) scale(0.12 -0.12)">
       <use xlink:href="#CMSY10-0" transform="scale(0.996264)"/>
       <use xlink:href="#CMR17-30" transform="translate(77.487468 0) scale(0.996264)"/>
       <use xlink:href="#CMMI12-3a" transform="translate(123.177945 0) scale(0.996264)"/>
       <use xlink:href="#CMR17-35" transform="translate(150.275122 0) scale(0.996264)"/>
      </g>
     </g>
    </g>
    <g id="xtick_5">
     <g id="line2d_5">
      <g>
       <use xlink:href="#mdcdc42987a" x="197.871299" y="303.52709" style="stroke: #000000; stroke-width: 0.8"/>
      </g>
     </g>
     <g id="text_5">
      <!-- $\mathdefault{0.0}$ -->
      <g transform="translate(190.392478 318.82927) scale(0.12 -0.12)">
       <use xlink:href="#CMR17-30" transform="scale(0.996264)"/>
       <use xlink:href="#CMMI12-3a" transform="translate(45.690477 0) scale(0.996264)"/>
       <use xlink:href="#CMR17-30" transform="translate(72.787654 0) scale(0.996264)"/>
      </g>
     </g>
    </g>
    <g id="xtick_6">
     <g id="line2d_6">
      <g>
       <use xlink:href="#mdcdc42987a" x="235.536299" y="303.52709" style="stroke: #000000; stroke-width: 0.8"/>
      </g>
     </g>
     <g id="text_6">
      <!-- $\mathdefault{0.5}$ -->
      <g transform="translate(228.057478 318.82927) scale(0.12 -0.12)">
       <use xlink:href="#CMR17-30" transform="scale(0.996264)"/>
       <use xlink:href="#CMMI12-3a" transform="translate(45.690477 0) scale(0.996264)"/>
       <use xlink:href="#CMR17-35" transform="translate(72.787654 0) scale(0.996264)"/>
      </g>
     </g>
    </g>
    <g id="xtick_7">
     <g id="line2d_7">
      <g>
       <use xlink:href="#mdcdc42987a" x="273.201299" y="303.52709" style="stroke: #000000; stroke-width: 0.8"/>
      </g>
     </g>
     <g id="text_7">
      <!-- $\mathdefault{1.0}$ -->
      <g transform="translate(265.722478 318.82927) scale(0.12 -0.12)">
       <use xlink:href="#CMR17-31" transform="scale(0.996264)"/>
       <use xlink:href="#CMMI12-3a" transform="translate(45.690477 0) scale(0.996264)"/>
       <use xlink:href="#CMR17-30" transform="translate(72.787654 0) scale(0.996264)"/>
      </g>
     </g>
    </g>
    <g id="xtick_8">
     <g id="line2d_8">
      <g>
       <use xlink:href="#mdcdc42987a" x="310.866299" y="303.52709" style="stroke: #000000; stroke-width: 0.8"/>
      </g>
     </g>
     <g id="text_8">
      <!-- $\mathdefault{1.5}$ -->
      <g transform="translate(303.387478 318.82927) scale(0.12 -0.12)">
       <use xlink:href="#CMR17-31" transform="scale(0.996264)"/>
       <use xlink:href="#CMMI12-3a" transform="translate(45.690477 0) scale(0.996264)"/>
       <use xlink:href="#CMR17-35" transform="translate(72.787654 0) scale(0.996264)"/>
      </g>
     </g>
    </g>
    <g id="xtick_9">
     <g id="line2d_9">
      <g>
       <use xlink:href="#mdcdc42987a" x="348.531299" y="303.52709" style="stroke: #000000; stroke-width: 0.8"/>
      </g>
     </g>
     <g id="text_9">
      <!-- $\mathdefault{2.0}$ -->
      <g transform="translate(341.052478 318.82927) scale(0.12 -0.12)">
       <use xlink:href="#CMR17-32" transform="scale(0.996264)"/>
       <use xlink:href="#CMMI12-3a" transform="translate(45.690477 0) scale(0.996264)"/>
       <use xlink:href="#CMR17-30" transform="translate(72.787654 0) scale(0.996264)"/>
      </g>
     </g>
    </g>
    <g id="text_10">
     <!-- $\Delta\alpha/(\Delta k-2\pi/\Lambda)$ -->
     <g transform="translate(152.875848 334.120242) scale(0.12 -0.12)">
      <defs>
       <path id="CMR17-1" d="M 2598 4403 
C 2547 4512 2522 4512 2470 4512 
C 2394 4512 2387 4499 2342 4409 
L 269 109 
C 262 96 237 38 237 32 
C 237 6 243 0 358 0 
L 4576 0 
C 4691 0 4698 6 4698 32 
C 4698 38 4672 96 4666 109 
L 2598 4403 
z
M 2310 4038 
L 4083 358 
L 531 358 
L 2310 4038 
z
" transform="scale(0.015625)"/>
       <path id="CMMI12-b" d="M 2963 1616 
C 2963 2235 2611 2815 1933 2815 
C 1094 2815 256 1902 256 996 
C 256 441 602 -64 1254 -64 
C 1651 -64 2125 89 2579 472 
C 2669 115 2867 -64 3142 -64 
C 3488 -64 3661 294 3661 377 
C 3661 434 3616 434 3597 434 
C 3546 434 3539 415 3520 364 
C 3462 204 3315 64 3162 64 
C 2963 64 2963 472 2963 862 
C 3616 1641 3770 2446 3770 2452 
C 3770 2510 3718 2510 3699 2510 
C 3642 2510 3635 2491 3610 2376 
C 3526 2095 3360 1597 2963 1073 
L 2963 1616 
z
M 2560 626 
C 1997 121 1491 64 1267 64 
C 813 64 685 466 685 766 
C 685 1040 826 1692 1024 2044 
C 1286 2491 1645 2688 1933 2688 
C 2554 2688 2554 1877 2554 1341 
C 2554 1182 2547 1016 2547 856 
C 2547 728 2554 696 2560 626 
z
" transform="scale(0.015625)"/>
       <path id="CMMI12-3d" d="M 2746 4562 
C 2746 4569 2784 4666 2784 4678 
C 2784 4755 2720 4800 2669 4800 
C 2637 4800 2579 4800 2528 4659 
L 384 -1363 
C 384 -1370 346 -1465 346 -1478 
C 346 -1555 410 -1600 461 -1600 
C 499 -1600 557 -1593 602 -1459 
L 2746 4562 
z
" transform="scale(0.015625)"/>
       <path id="CMR17-28" d="M 1958 -1561 
C 1958 -1555 1958 -1542 1939 -1523 
C 1645 -1224 858 -407 858 1581 
C 858 3569 1632 4379 1946 4697 
C 1946 4704 1958 4717 1958 4736 
C 1958 4755 1939 4768 1914 4768 
C 1843 4768 1299 4296 986 3594 
C 666 2887 576 2199 576 1588 
C 576 1128 621 351 1005 -471 
C 1312 -1135 1837 -1600 1914 -1600 
C 1946 -1600 1958 -1587 1958 -1561 
z
" transform="scale(0.015625)"/>
       <path id="CMMI12-6b" d="M 1798 4257 
C 1805 4283 1818 4321 1818 4352 
C 1818 4416 1754 4416 1741 4416 
C 1734 4416 1504 4393 1389 4377 
C 1280 4377 1184 4358 1069 4358 
C 915 4345 870 4339 870 4224 
C 870 4160 934 4160 998 4160 
C 1325 4160 1325 4103 1325 4040 
C 1325 4015 1325 4002 1293 3888 
L 378 248 
C 352 152 352 140 352 101 
C 352 -38 461 -64 525 -64 
C 704 -64 742 77 794 275 
L 1094 1469 
C 1555 1418 1830 1226 1830 920 
C 1830 881 1830 856 1811 760 
C 1786 664 1786 588 1786 556 
C 1786 185 2029 -64 2355 -64 
C 2650 -64 2803 204 2854 294 
C 2989 530 3072 888 3072 913 
C 3072 945 3046 971 3008 971 
C 2950 971 2944 945 2918 843 
C 2829 511 2694 64 2368 64 
C 2240 64 2157 128 2157 370 
C 2157 492 2182 632 2208 728 
C 2234 843 2234 849 2234 926 
C 2234 1303 1894 1514 1306 1590 
C 1536 1731 1766 1980 1856 2076 
C 2221 2484 2470 2689 2765 2689 
C 2912 2689 2950 2650 2995 2612 
C 2758 2586 2669 2420 2669 2293 
C 2669 2139 2790 2088 2880 2088 
C 3053 2088 3206 2235 3206 2440 
C 3206 2625 3059 2816 2771 2816 
C 2419 2816 2131 2567 1677 2056 
C 1613 1980 1376 1737 1139 1648 
L 1798 4257 
z
" transform="scale(0.015625)"/>
       <path id="CMMI12-19" d="M 1658 2408 
L 2381 2408 
C 2208 1692 2099 1226 2099 716 
C 2099 626 2099 -64 2362 -64 
C 2496 -64 2611 57 2611 166 
C 2611 197 2611 210 2566 306 
C 2394 747 2394 1296 2394 1341 
C 2394 1379 2394 1832 2528 2408 
L 3245 2408 
C 3328 2408 3539 2408 3539 2612 
C 3539 2752 3418 2752 3302 2752 
L 1197 2752 
C 1050 2752 832 2752 538 2440 
C 371 2254 166 1916 166 1878 
C 166 1840 198 1827 237 1827 
C 282 1827 288 1846 320 1884 
C 653 2408 986 2408 1146 2408 
L 1510 2408 
C 1370 1929 1210 1373 685 256 
C 634 154 634 140 634 102 
C 634 -32 749 -64 806 -64 
C 992 -64 1043 102 1120 370 
C 1222 696 1222 709 1286 964 
L 1658 2408 
z
" transform="scale(0.015625)"/>
       <path id="CMR17-3" d="M 2150 4403 
C 2118 4505 2112 4512 2048 4512 
C 1984 4512 1978 4505 1946 4403 
L 685 576 
C 570 237 358 160 147 160 
L 147 0 
C 256 0 480 0 595 0 
C 755 0 1005 0 1158 -6 
L 1158 160 
C 819 160 800 404 800 449 
C 800 494 813 532 832 596 
L 1894 3835 
L 3008 461 
C 3040 372 3040 359 3040 340 
C 3040 160 2771 160 2637 160 
L 2637 0 
C 2822 0 3149 0 3347 0 
C 3507 0 3802 0 3949 -6 
L 3949 160 
C 3667 160 3552 160 3475 384 
L 2150 4403 
z
" transform="scale(0.015625)"/>
       <path id="CMR17-29" d="M 1683 1581 
C 1683 2040 1638 2817 1254 3639 
C 947 4303 422 4768 346 4768 
C 326 4768 301 4761 301 4729 
C 301 4717 307 4710 314 4697 
C 621 4378 1402 3568 1402 1584 
C 1402 -407 627 -1217 314 -1537 
C 307 -1549 301 -1556 301 -1568 
C 301 -1600 326 -1600 346 -1600 
C 416 -1600 960 -1128 1274 -426 
C 1594 281 1683 969 1683 1581 
z
" transform="scale(0.015625)"/>
      </defs>
      <use xlink:href="#CMR17-1" transform="scale(0.996264)"/>
      <use xlink:href="#CMMI12-b" transform="translate(76.91959 0) scale(0.996264)"/>
      <use xlink:href="#CMMI12-3d" transform="translate(139.600613 0) scale(0.996264)"/>
      <use xlink:href="#CMR17-28" transform="translate(188.375531 0) scale(0.996264)"/>
      <use xlink:href="#CMR17-1" transform="translate(223.656299 0) scale(0.996264)"/>
      <use xlink:href="#CMMI12-6b" transform="translate(300.575889 0) scale(0.996264)"/>
      <use xlink:href="#CMSY10-0" transform="translate(376.794297 0) scale(0.996264)"/>
      <use xlink:href="#CMR17-32" transform="translate(476.420971 0) scale(0.996264)"/>
      <use xlink:href="#CMMI12-19" transform="translate(522.111449 0) scale(0.996264)"/>
      <use xlink:href="#CMMI12-3d" transform="translate(581.022049 0) scale(0.996264)"/>
      <use xlink:href="#CMR17-3" transform="translate(629.796968 0) scale(0.996264)"/>
      <use xlink:href="#CMR17-29" transform="translate(693.66449 0) scale(0.996264)"/>
     </g>
    </g>
   </g>
   <g id="matplotlib.axis_2">
    <g id="ytick_1">
     <g id="line2d_10">
      <defs>
       <path id="m73f94fcd51" d="M 0 0 
L -3.5 0 
" style="stroke: #000000; stroke-width: 0.8"/>
      </defs>
      <g>
       <use xlink:href="#m73f94fcd51" x="47.211299" y="303.52709" style="stroke: #000000; stroke-width: 0.8"/>
      </g>
     </g>
     <g id="text_11">
      <!-- $\mathdefault{−2.0}$ -->
      <g transform="translate(15.955168 307.67818) scale(0.12 -0.12)">
       <use xlink:href="#CMSY10-0" transform="scale(0.996264)"/>
       <use xlink:href="#CMR17-32" transform="translate(77.487468 0) scale(0.996264)"/>
       <use xlink:href="#CMMI12-3a" transform="translate(123.177945 0) scale(0.996264)"/>
       <use xlink:href="#CMR17-30" transform="translate(150.275122 0) scale(0.996264)"/>
      </g>
     </g>
    </g>
    <g id="ytick_2">
     <g id="line2d_11">
      <g>
       <use xlink:href="#m73f94fcd51" x="47.211299" y="266.10509" style="stroke: #000000; stroke-width: 0.8"/>
      </g>
     </g>
     <g id="text_12">
      <!-- $\mathdefault{−1.5}$ -->
      <g transform="translate(15.955168 270.25618) scale(0.12 -0.12)">
       <use xlink:href="#CMSY10-0" transform="scale(0.996264)"/>
       <use xlink:href="#CMR17-31" transform="translate(77.487468 0) scale(0.996264)"/>
       <use xlink:href="#CMMI12-3a" transform="translate(123.177945 0) scale(0.996264)"/>
       <use xlink:href="#CMR17-35" transform="translate(150.275122 0) scale(0.996264)"/>
      </g>
     </g>
    </g>
    <g id="ytick_3">
     <g id="line2d_12">
      <g>
       <use xlink:href="#m73f94fcd51" x="47.211299" y="228.68309" style="stroke: #000000; stroke-width: 0.8"/>
      </g>
     </g>
     <g id="text_13">
      <!-- $\mathdefault{−1.0}$ -->
      <g transform="translate(15.955168 232.83418) scale(0.12 -0.12)">
       <use xlink:href="#CMSY10-0" transform="scale(0.996264)"/>
       <use xlink:href="#CMR17-31" transform="translate(77.487468 0) scale(0.996264)"/>
       <use xlink:href="#CMMI12-3a" transform="translate(123.177945 0) scale(0.996264)"/>
       <use xlink:href="#CMR17-30" transform="translate(150.275122 0) scale(0.996264)"/>
      </g>
     </g>
    </g>
    <g id="ytick_4">
     <g id="line2d_13">
      <g>
       <use xlink:href="#m73f94fcd51" x="47.211299" y="191.26109" style="stroke: #000000; stroke-width: 0.8"/>
      </g>
     </g>
     <g id="text_14">
      <!-- $\mathdefault{−0.5}$ -->
      <g transform="translate(15.955168 195.41218) scale(0.12 -0.12)">
       <use xlink:href="#CMSY10-0" transform="scale(0.996264)"/>
       <use xlink:href="#CMR17-30" transform="translate(77.487468 0) scale(0.996264)"/>
       <use xlink:href="#CMMI12-3a" transform="translate(123.177945 0) scale(0.996264)"/>
       <use xlink:href="#CMR17-35" transform="translate(150.275122 0) scale(0.996264)"/>
      </g>
     </g>
    </g>
    <g id="ytick_5">
     <g id="line2d_14">
      <g>
       <use xlink:href="#m73f94fcd51" x="47.211299" y="153.83909" style="stroke: #000000; stroke-width: 0.8"/>
      </g>
     </g>
     <g id="text_15">
      <!-- $\mathdefault{0.0}$ -->
      <g transform="translate(25.253658 157.99018) scale(0.12 -0.12)">
       <use xlink:href="#CMR17-30" transform="scale(0.996264)"/>
       <use xlink:href="#CMMI12-3a" transform="translate(45.690477 0) scale(0.996264)"/>
       <use xlink:href="#CMR17-30" transform="translate(72.787654 0) scale(0.996264)"/>
      </g>
     </g>
    </g>
    <g id="ytick_6">
     <g id="line2d_15">
      <g>
       <use xlink:href="#m73f94fcd51" x="47.211299" y="116.41709" style="stroke: #000000; stroke-width: 0.8"/>
      </g>
     </g>
     <g id="text_16">
      <!-- $\mathdefault{0.5}$ -->
      <g transform="translate(25.253658 120.56818) scale(0.12 -0.12)">
       <use xlink:href="#CMR17-30" transform="scale(0.996264)"/>
       <use xlink:href="#CMMI12-3a" transform="translate(45.690477 0) scale(0.996264)"/>
       <use xlink:href="#CMR17-35" transform="translate(72.787654 0) scale(0.996264)"/>
      </g>
     </g>
    </g>
    <g id="ytick_7">
     <g id="line2d_16">
      <g>
       <use xlink:href="#m73f94fcd51" x="47.211299" y="78.99509" style="stroke: #000000; stroke-width: 0.8"/>
      </g>
     </g>
     <g id="text_17">
      <!-- $\mathdefault{1.0}$ -->
      <g transform="translate(25.253658 83.14618) scale(0.12 -0.12)">
       <use xlink:href="#CMR17-31" transform="scale(0.996264)"/>
       <use xlink:href="#CMMI12-3a" transform="translate(45.690477 0) scale(0.996264)"/>
       <use xlink:href="#CMR17-30" transform="translate(72.787654 0) scale(0.996264)"/>
      </g>
     </g>
    </g>
    <g id="ytick_8">
     <g id="line2d_17">
      <g>
       <use xlink:href="#m73f94fcd51" x="47.211299" y="41.57309" style="stroke: #000000; stroke-width: 0.8"/>
      </g>
     </g>
     <g id="text_18">
      <!-- $\mathdefault{1.5}$ -->
      <g transform="translate(25.253658 45.72418) scale(0.12 -0.12)">
       <use xlink:href="#CMR17-31" transform="scale(0.996264)"/>
       <use xlink:href="#CMMI12-3a" transform="translate(45.690477 0) scale(0.996264)"/>
       <use xlink:href="#CMR17-35" transform="translate(72.787654 0) scale(0.996264)"/>
      </g>
     </g>
    </g>
    <g id="ytick_9">
     <g id="line2d_18">
      <g>
       <use xlink:href="#m73f94fcd51" x="47.211299" y="4.15109" style="stroke: #000000; stroke-width: 0.8"/>
      </g>
     </g>
     <g id="text_19">
      <!-- $\mathdefault{2.0}$ -->
      <g transform="translate(25.253658 8.30218) scale(0.12 -0.12)">
       <use xlink:href="#CMR17-32" transform="scale(0.996264)"/>
       <use xlink:href="#CMMI12-3a" transform="translate(45.690477 0) scale(0.996264)"/>
       <use xlink:href="#CMR17-30" transform="translate(72.787654 0) scale(0.996264)"/>
      </g>
     </g>
    </g>
    <g id="text_20">
     <!-- $(\Delta k-2\pi/\Lambda)L/2$ -->
     <g transform="translate(8.966376 197.104936) rotate(-90) scale(0.12 -0.12)">
      <defs>
       <path id="CMMI12-4c" d="M 2349 3861 
C 2406 4103 2426 4167 2989 4167 
C 3162 4167 3206 4167 3206 4288 
C 3206 4352 3136 4352 3110 4352 
C 2982 4352 2835 4352 2707 4352 
L 1850 4352 
C 1728 4352 1587 4352 1466 4352 
C 1414 4352 1344 4352 1344 4231 
C 1344 4167 1402 4167 1498 4167 
C 1888 4167 1888 4116 1888 4046 
C 1888 4034 1888 3995 1862 3899 
L 998 472 
C 941 249 928 185 480 185 
C 358 185 294 185 294 70 
C 294 0 333 0 461 0 
L 3328 0 
C 3469 0 3475 6 3520 121 
L 4013 1478 
C 4026 1510 4038 1548 4038 1567 
C 4038 1605 4006 1631 3974 1631 
C 3968 1631 3936 1631 3923 1605 
C 3910 1599 3910 1586 3859 1465 
C 3654 905 3366 185 2285 185 
L 1670 185 
C 1581 185 1568 185 1530 192 
C 1459 198 1453 211 1453 262 
C 1453 307 1466 345 1478 401 
L 2349 3861 
z
" transform="scale(0.015625)"/>
      </defs>
      <use xlink:href="#CMR17-28" transform="scale(0.996264)"/>
      <use xlink:href="#CMR17-1" transform="translate(35.280768 0) scale(0.996264)"/>
      <use xlink:href="#CMMI12-6b" transform="translate(112.200358 0) scale(0.996264)"/>
      <use xlink:href="#CMSY10-0" transform="translate(188.418765 0) scale(0.996264)"/>
      <use xlink:href="#CMR17-32" transform="translate(288.04544 0) scale(0.996264)"/>
      <use xlink:href="#CMMI12-19" transform="translate(333.735917 0) scale(0.996264)"/>
      <use xlink:href="#CMMI12-3d" transform="translate(392.646518 0) scale(0.996264)"/>
      <use xlink:href="#CMR17-3" transform="translate(441.421437 0) scale(0.996264)"/>
      <use xlink:href="#CMR17-29" transform="translate(505.288959 0) scale(0.996264)"/>
      <use xlink:href="#CMMI12-4c" transform="translate(540.569726 0) scale(0.996264)"/>
      <use xlink:href="#CMMI12-3d" transform="translate(606.940602 0) scale(0.996264)"/>
      <use xlink:href="#CMR17-32" transform="translate(655.715521 0) scale(0.996264)"/>
     </g>
    </g>
   </g>
   <g id="QuadContourSet_1">
    <path clip-path="url(#pe7c6201491)" style="fill: none; stroke-dasharray: 5.55,2.4; stroke-dashoffset: 0; stroke: #000000; stroke-width: 1.5"/>
    <path d="M 251.037959 303.52709 
L 252.252915 294.898275 
L 252.810205 289.340733 
L 253.01959 285.099451 
L 252.983902 281.443174 
L 252.74061 278.22565 
L 252.291345 275.154377 
L 251.613977 272.083104 
L 250.666564 268.865579 
L 249.343646 265.209302 
L 247.229396 260.090513 
L 243.544211 251.169196 
L 241.755715 246.196659 
L 240.308391 241.516624 
L 239.094028 236.836589 
L 238.104337 232.156554 
L 237.307774 227.330267 
L 236.715373 222.35773 
L 236.351438 217.385192 
L 236.223382 212.558906 
L 236.323069 208.025122 
L 236.638834 203.78384 
L 237.144413 199.981312 
L 237.813204 196.617536 
L 238.613347 193.692514 
L 239.560698 191.059995 
L 240.640117 188.719977 
L 241.825485 186.672462 
L 243.1906 184.771197 
L 244.607547 183.159956 
L 246.226756 181.642841 
L 248.047569 180.237413 
L 250.121506 178.921153 
L 252.409189 177.728356 
L 255.101848 176.581136 
L 258.150019 175.530368 
L 261.769097 174.53362 
L 265.820805 173.656114 
L 270.662086 172.851081 
L 276.108515 172.180727 
L 282.438148 171.639808 
L 289.209384 171.284822 
L 296.569423 171.12032 
L 304.076663 171.172252 
L 311.436702 171.447593 
L 317.913537 171.903062 
L 323.801568 172.53945 
L 328.659194 173.28206 
L 332.633615 174.099908 
L 336.019233 175.020612 
L 338.750247 175.996131 
L 340.928208 177.019889 
L 342.572784 178.043647 
L 343.820874 179.090468 
L 344.704079 180.12154 
L 345.292882 181.129855 
L 345.652547 182.138678 
L 345.826059 183.308686 
L 345.777906 184.478695 
L 345.50074 185.794955 
L 344.961569 187.257466 
L 344.052513 189.012479 
L 342.902068 190.785884 
M 317.410816 217.992309 
L 313.719466 222.35773 
L 310.6621 226.30651 
L 308.051084 230.037104 
L 305.914083 233.472813 
L 304.176172 236.690338 
L 302.848881 239.61536 
L 301.868652 242.320784 
L 301.226564 244.734148 
L 300.863648 246.927915 
L 300.74362 248.97543 
L 300.848424 250.876694 
L 301.153844 252.631707 
L 301.681469 254.386721 
L 302.457455 256.157169 
L 303.48786 257.926298 
L 304.849222 259.798011 
L 306.749374 261.991778 
L 310.259096 265.608869 
L 312.90871 268.467962 
L 314.527919 270.520877 
L 315.718877 272.375606 
L 316.59228 274.130619 
L 317.224942 275.885632 
L 317.633679 277.640645 
L 317.849745 279.54191 
L 317.852949 281.589425 
L 317.619135 283.877887 
L 317.155856 286.26946 
L 316.394971 289.048231 
L 315.232257 292.412006 
L 313.5658 296.507037 
L 311.142301 301.832066 
L 310.333263 303.52709 
M 310.333263 4.15109 
L 313.311143 10.586138 
L 315.176871 15.119922 
L 316.394971 18.629949 
L 317.189768 21.554971 
L 317.674425 24.18749 
L 317.865686 26.381257 
L 317.830678 28.428772 
L 317.580194 30.330037 
L 317.135597 32.08505 
L 316.441529 33.88883 
L 315.549272 35.595076 
L 314.380718 37.361189 
L 312.747125 39.397605 
L 310.406297 41.918261 
L 305.32726 47.295164 
L 303.762359 49.34268 
L 302.604655 51.238734 
L 301.850345 52.852706 
L 301.264112 54.607719 
L 300.905119 56.362732 
L 300.748317 58.263997 
L 300.819116 60.311512 
L 301.136159 62.505278 
L 301.721451 64.874311 
L 302.55894 67.331565 
L 303.75113 70.110336 
L 305.25427 73.041453 
L 307.16788 76.273369 
L 309.501224 79.762908 
L 312.211841 83.419186 
L 315.412686 87.367965 
L 317.410816 89.685871 
M 342.902068 116.892296 
L 344.137756 118.811952 
L 345.025192 120.566965 
L 345.541987 122.029476 
L 345.794824 123.345736 
L 345.817265 124.515745 
L 345.61329 125.685753 
L 345.215339 126.709511 
L 344.556878 127.75633 
L 343.645181 128.757026 
L 342.365742 129.780784 
L 340.729658 130.764008 
L 338.816048 131.6547 
L 336.460835 132.516799 
L 333.51682 133.361498 
L 329.8368 134.177349 
L 325.273576 134.938015 
L 319.974348 135.579571 
L 313.939116 136.080744 
L 307.020679 136.423522 
L 299.66064 136.563132 
L 292.1534 136.485421 
L 284.793361 136.185795 
L 278.022125 135.684974 
L 272.134094 135.030201 
L 266.982066 134.236334 
L 262.566043 133.334561 
L 258.886023 132.369991 
L 255.647606 131.302146 
L 252.850791 130.154813 
L 250.378713 128.903277 
L 248.25849 127.587018 
L 246.332028 126.124507 
L 244.747963 124.661996 
L 243.28274 123.021616 
L 241.920576 121.151969 
L 240.716641 119.104454 
L 239.682097 116.910687 
L 238.754618 114.424419 
L 237.955139 111.645648 
L 237.270172 108.428124 
L 236.752255 104.918097 
L 236.396201 100.969318 
L 236.231 96.581785 
L 236.283502 91.901749 
L 236.560742 87.075463 
L 237.072537 82.102926 
L 237.788941 77.276639 
L 238.728977 72.450353 
L 239.897122 67.650069 
L 241.231718 63.090283 
L 242.841138 58.383214 
L 244.822725 53.291459 
L 250.761981 38.520098 
L 251.68833 35.302574 
L 252.343863 32.231301 
L 252.771949 29.160028 
L 252.997992 25.873131 
L 253.016423 22.432477 
L 252.810205 18.337447 
L 252.322878 13.364909 
L 251.43616 6.78361 
L 251.037959 4.15109 
L 251.037959 4.15109 
" clip-path="url(#pe7c6201491)" style="fill: none; stroke-dasharray: 5.55,2.4; stroke-dashoffset: 0; stroke: #000000; stroke-width: 1.5"/>
    <path d="M 242.609834 303.52709 
L 243.015202 298.847055 
L 243.129258 295.044526 
L 243.007425 291.680751 
L 242.6827 288.755729 
L 242.145704 285.976958 
L 241.403931 283.344438 
L 240.423736 280.711918 
L 239.145074 277.933148 
L 237.335767 274.569372 
L 230.181871 261.770415 
L 228.415461 257.88402 
L 226.872755 253.947967 
L 225.507853 249.852937 
L 224.283365 245.465404 
L 223.2098 240.785368 
L 222.268868 235.66658 
L 221.497025 230.231721 
L 220.894478 224.405245 
L 220.484934 218.262699 
L 220.295525 212.120153 
L 220.330701 206.123858 
L 220.577174 200.712567 
L 221.01522 195.886281 
L 221.606477 191.79125 
L 222.304062 188.427475 
L 223.130246 185.502453 
L 224.057839 183.016184 
L 225.115383 180.822418 
L 226.280859 178.921153 
L 227.532257 177.287444 
L 229.004265 175.739052 
L 230.591458 174.387369 
L 232.389883 173.138912 
L 234.450694 171.972319 
L 236.827593 170.877343 
L 239.749922 169.792674 
L 243.13554 168.788864 
L 247.109961 167.851853 
L 251.820386 166.975163 
L 257.414015 166.160888 
L 264.332452 165.385734 
L 272.722897 164.677175 
L 283.026951 164.03817 
L 295.539018 163.49016 
L 310.847899 163.047759 
L 323.106333 162.823951 
M 348.531299 282.184892 
L 344.115276 285.486221 
L 339.546623 289.194482 
L 335.21844 292.997011 
L 331.014406 296.977817 
L 326.743854 301.333323 
L 324.708524 303.52709 
M 348.531299 212.658483 
L 343.816944 215.630179 
L 339.699252 218.48036 
L 336.019233 221.292692 
L 332.876149 223.966492 
L 330.275005 226.452761 
L 328.070391 228.85966 
L 326.401618 230.986545 
L 325.073167 233.03406 
L 324.183033 234.789073 
L 323.602696 236.397835 
L 323.307131 237.860346 
L 323.268594 239.176606 
L 323.454611 240.346615 
L 323.825852 241.370373 
L 324.439089 242.39413 
L 325.273576 243.335798 
L 325.701105 243.716478 
M 348.531299 145.036362 
L 328.469279 144.921896 
M 291.17243 144.019513 
L 278.758129 143.400321 
L 268.748476 142.691211 
L 260.652433 141.906671 
L 253.980096 141.042119 
L 248.581969 140.123499 
L 244.113514 139.140854 
L 240.464372 138.117097 
L 237.394709 137.03083 
L 234.884248 135.92333 
L 232.684284 134.721217 
L 230.770674 133.427134 
L 229.041762 131.974551 
L 227.636394 130.51204 
L 226.354651 128.863504 
L 225.195812 127.002013 
L 224.184198 124.954498 
L 223.263434 122.575295 
L 222.450556 119.835709 
L 221.739368 116.618185 
L 221.141279 112.815657 
L 220.685325 108.428124 
L 220.386262 103.309335 
L 220.282037 97.605542 
L 220.397427 91.462996 
L 220.733147 85.32045 
L 221.278862 79.324155 
L 222.017612 73.620362 
L 222.917772 68.355322 
L 223.958796 63.529036 
L 225.177044 58.932365 
L 226.509669 54.75397 
L 227.996189 50.805191 
L 229.659136 47.002662 
L 231.634816 43.053882 
L 234.156292 38.549179 
L 239.071586 29.891283 
L 240.423736 26.966261 
L 241.403931 24.333742 
L 242.145704 21.701222 
L 242.66028 19.068702 
L 242.996435 16.14368 
L 243.127872 12.926156 
L 243.039663 9.269878 
L 242.703586 5.028597 
L 242.609834 4.15109 
M 327.40861 62.810107 
L 326.00958 63.716084 
L 324.92248 64.699045 
L 324.143012 65.722803 
L 323.640111 66.74656 
L 323.332863 67.916569 
L 323.256275 69.086578 
L 323.396121 70.402838 
L 323.801568 71.912471 
L 324.451987 73.474111 
L 325.422706 75.229124 
L 326.745584 77.160544 
L 328.511993 79.330312 
L 330.720005 81.673304 
L 333.369619 84.152099 
L 336.516205 86.782961 
L 340.140855 89.516952 
L 344.262477 92.340975 
L 348.531299 95.019697 
M 324.708524 4.15109 
L 328.854849 8.538623 
L 333.075217 12.688449 
L 337.50784 16.728684 
L 341.907264 20.43795 
L 346.470488 23.986471 
L 348.531299 25.493288 
L 348.531299 25.493288 
" clip-path="url(#pe7c6201491)" style="fill: none; stroke-dasharray: 5.55,2.4; stroke-dashoffset: 0; stroke: #000000; stroke-width: 1.5"/>
    <path d="M 234.316994 303.52709 
L 234.08163 300.748319 
L 233.663325 298.26205 
L 233.049892 295.922033 
L 232.242682 293.715966 
L 231.201517 291.5345 
L 229.887469 289.312242 
L 228.12106 286.786717 
L 224.971815 282.759434 
L 221.748995 278.518152 
L 219.708072 275.446879 
L 218.035202 272.521857 
L 216.543535 269.450584 
L 215.231037 266.23306 
L 214.039586 262.723033 
L 212.93909 258.774254 
L 211.928974 254.283575 
L 211.034368 249.267932 
L 210.24514 243.564139 
L 209.563421 236.98284 
L 209.01772 229.524034 
L 208.632919 221.187721 
L 208.445284 212.266404 
L 208.481763 203.637589 
L 208.724485 196.178783 
L 209.132159 190.162098 
L 209.660605 185.502453 
L 210.290412 181.846175 
L 211.013385 178.921153 
L 211.808402 176.581136 
L 212.740446 174.53362 
L 213.795431 172.778607 
L 214.932291 171.316096 
L 216.235654 169.999836 
L 217.700784 168.829828 
L 219.436214 167.731463 
L 221.497025 166.701483 
L 223.889174 165.758554 
L 226.796253 164.85864 
L 230.344934 164.003541 
L 234.745095 163.187296 
L 240.191524 162.418126 
L 246.96276 161.69812 
L 255.500405 161.023141 
L 257.771374 160.874231 
M 295.048056 159.368216 
L 318.355139 158.872207 
L 348.531299 158.450302 
M 348.531299 293.270242 
L 343.772295 296.507037 
L 339.404851 299.735586 
L 335.04196 303.234588 
L 334.693087 303.52709 
M 348.531299 149.227878 
L 314.380718 148.734568 
L 289.945388 148.17055 
L 272.134094 147.548303 
L 258.886023 146.873261 
L 248.87637 146.149973 
L 241.221929 145.383786 
L 235.186697 144.561796 
L 230.623473 143.733128 
L 226.796253 142.81954 
L 223.852237 141.906625 
L 221.316411 140.895868 
L 219.289013 139.863137 
L 217.498456 138.702101 
L 216.050596 137.509667 
L 214.725789 136.121762 
L 213.695383 134.752284 
L 212.664484 132.998308 
L 211.781773 131.028967 
L 211.013385 128.757026 
L 210.321105 125.978256 
L 209.720962 122.593177 
L 209.21225 118.373198 
L 208.810819 113.108159 
L 208.533521 106.380608 
L 208.432459 98.336798 
L 208.543356 89.554123 
L 208.872719 80.786666 
L 209.392088 72.742855 
L 210.074668 65.576552 
L 210.876654 59.434005 
L 211.804729 54.022715 
L 212.830074 49.34268 
L 213.95005 45.247649 
L 215.187851 41.561434 
M 233.651265 9.471783 
L 234.062914 7.076112 
L 234.309907 4.297341 
L 234.316994 4.15109 
M 334.693087 4.15109 
L 338.851924 7.514865 
L 343.232071 10.785824 
L 347.942496 14.022424 
L 348.531299 14.407937 
L 348.531299 14.407937 
" clip-path="url(#pe7c6201491)" style="fill: none; stroke-dasharray: 5.55,2.4; stroke-dashoffset: 0; stroke: #000000; stroke-width: 1.5"/>
    <path d="M 180.60524 303.52709 
L 182.636018 302.730585 
L 184.991231 302.047171 
L 187.788046 301.471663 
L 190.509558 301.091958 
M 197.871299 280.015452 
L 197.797699 6.979305 
L 193.823278 6.864696 
L 190.143258 6.543855 
L 186.904841 6.047724 
L 184.108026 5.39967 
L 181.752814 4.629231 
L 180.60524 4.15109 
M 215.137358 303.52709 
L 213.10658 302.730585 
L 210.751368 302.047171 
L 207.954553 301.471663 
L 204.716136 301.036251 
L 201.036116 300.768501 
L 197.9449 300.698875 
L 197.871299 300.748319 
L 197.871299 303.52709 
M 47.211299 300.50668 
L 51.665005 303.52709 
M 348.531299 300.50668 
L 344.077594 303.52709 
M 51.665005 4.15109 
L 47.211299 7.171499 
M 197.871299 4.15109 
L 197.9449 6.979305 
L 201.919321 6.864696 
L 205.59934 6.543855 
L 208.837758 6.047724 
L 211.634572 5.39967 
L 213.989785 4.629231 
L 215.137358 4.15109 
M 344.077594 4.15109 
L 348.531299 7.171499 
L 348.531299 7.171499 
" clip-path="url(#pe7c6201491)" style="fill: none; stroke: #000000; stroke-width: 1.5"/>
    <path d="M 161.425605 303.52709 
L 161.660968 300.748319 
L 162.079274 298.26205 
L 162.692706 295.922033 
L 163.499917 293.715966 
L 164.541082 291.5345 
L 165.855129 289.312242 
L 167.621539 286.786717 
L 170.770784 282.759434 
L 173.993603 278.518152 
L 176.034526 275.446879 
L 177.707397 272.521857 
L 179.199064 269.450584 
L 180.511561 266.23306 
L 181.703012 262.723033 
L 182.803508 258.774254 
L 183.813625 254.283575 
L 184.70823 249.267932 
L 185.497459 243.564139 
L 186.179178 236.98284 
L 186.724879 229.524034 
L 187.10968 221.187721 
L 187.297314 212.266404 
L 187.260836 203.637589 
L 187.018113 196.178783 
L 186.61044 190.162098 
L 186.081994 185.502453 
L 185.452186 181.846175 
L 184.729213 178.921153 
L 183.934197 176.581136 
L 183.002152 174.53362 
L 181.947167 172.778607 
L 180.810308 171.316096 
L 179.506944 169.999836 
L 178.041815 168.829828 
L 176.306385 167.731463 
L 174.245574 166.701483 
L 171.853424 165.758554 
L 168.946346 164.85864 
L 165.397665 164.003541 
L 160.997504 163.187296 
L 155.551075 162.418126 
L 148.779839 161.69812 
L 140.242193 161.023141 
L 129.202135 160.385614 
L 114.923659 159.79592 
L 96.22916 159.256831 
L 71.205027 158.76974 
L 70.194477 158.753875 
M 47.211299 293.270242 
L 51.970304 296.507037 
L 56.337748 299.735586 
L 60.700638 303.234588 
L 61.049511 303.52709 
M 47.211299 149.227878 
L 67.800139 148.960884 
M 95.805679 148.431442 
L 116.248466 147.83553 
L 131.410146 147.180776 
L 142.744607 146.477696 
L 151.282252 145.73771 
L 157.906287 144.953382 
L 163.205515 144.108568 
L 167.331467 143.235885 
L 170.712755 142.29937 
L 173.403555 141.334621 
L 175.717582 140.266753 
L 177.631192 139.132277 
L 179.2504 137.903324 
L 180.575207 136.623681 
L 181.752814 135.176084 
L 182.783219 133.549275 
L 183.694423 131.682048 
L 184.50561 129.488282 
L 185.226357 126.855762 
L 185.858682 123.638238 
L 186.393685 119.689458 
L 186.830175 114.716921 
L 187.146501 108.428124 
L 187.301241 100.823066 
L 187.255259 92.194252 
L 186.986478 83.272935 
L 186.515369 74.936622 
L 185.874436 67.495441 
L 185.1192 61.189019 
L 184.239338 55.631477 
L 183.258935 50.805191 
L 182.178813 46.563909 
L 180.985026 42.76138 
L 179.692003 39.369873 
L 178.305793 36.326332 
L 176.734981 33.40131 
L 174.903701 30.476288 
L 172.705012 27.405015 
L 168.687034 22.286226 
L 166.420193 19.214953 
L 164.94586 16.874936 
L 163.794318 14.634446 
L 162.911114 12.420948 
L 162.246227 10.147385 
L 161.761542 7.661116 
L 161.476636 5.028597 
L 161.425605 4.15109 
M 61.049511 4.15109 
L 56.890674 7.514865 
L 52.510527 10.785824 
L 47.800102 14.022424 
L 47.211299 14.407937 
L 47.211299 14.407937 
" clip-path="url(#pe7c6201491)" style="fill: none; stroke: #000000; stroke-width: 1.5"/>
    <path d="M 153.132765 303.52709 
L 152.727396 298.847055 
L 152.613341 295.044526 
L 152.735173 291.680751 
L 153.059899 288.755729 
L 153.596895 285.976958 
L 154.338667 283.344438 
L 155.318862 280.711918 
L 156.597524 277.933148 
L 158.406831 274.569372 
L 165.560728 261.770415 
L 167.327137 257.88402 
L 168.869843 253.947967 
L 170.234745 249.852937 
L 171.459233 245.465404 
L 172.532799 240.785368 
L 173.47373 235.66658 
L 174.245574 230.231721 
L 174.848121 224.405245 
L 175.257664 218.262699 
L 175.447074 212.120153 
L 175.411898 206.123858 
L 175.165425 200.712567 
L 174.727379 195.886281 
L 174.136121 191.79125 
L 173.438537 188.427475 
L 172.612353 185.502453 
L 171.68476 183.016184 
L 170.627216 180.822418 
L 169.46174 178.921153 
L 168.210342 177.287444 
L 166.738334 175.739052 
L 165.151141 174.387369 
L 163.352716 173.138912 
L 161.291905 171.972319 
L 158.915006 170.877343 
L 155.992677 169.792674 
L 152.607059 168.788864 
L 148.632638 167.851853 
L 143.922213 166.975163 
L 138.328583 166.160888 
L 131.410146 165.385734 
L 123.019702 164.677175 
L 116.547652 164.251945 
M 88.56059 163.135088 
L 71.352227 162.806267 
L 51.18572 162.647785 
L 47.211299 162.641818 
M 47.211299 282.184892 
L 51.627323 285.486221 
L 56.195976 289.194482 
L 57.988563 290.734078 
M 59.946007 221.472748 
L 63.028177 224.112743 
L 65.611397 226.599838 
L 67.819409 229.034189 
L 69.445354 231.132796 
L 70.752909 233.180311 
L 71.646629 234.994128 
L 72.180086 236.544086 
L 72.451184 238.006597 
L 72.462993 239.322857 
L 72.235432 240.534671 
L 71.79383 241.61536 
L 71.192725 242.540382 
L 70.321822 243.472733 
L 69.144216 244.379205 
L 67.672208 245.212156 
L 65.758598 246.01134 
L 63.550586 246.689847 
L 60.753771 247.309234 
L 57.368153 247.818344 
L 53.393732 248.181185 
L 48.830508 248.365951 
L 47.211299 248.382005 
M 47.211299 145.036362 
L 67.819409 144.915744 
L 86.661109 144.589598 
L 102.411592 144.105767 
L 115.512462 143.486502 
L 125.963717 142.775686 
L 134.354162 141.988141 
L 141.125398 141.13563 
L 146.571827 140.236 
L 151.135051 139.262159 
L 154.962271 138.21561 
L 158.053488 137.146286 
L 160.703102 135.998832 
L 162.911114 134.810021 
L 164.824724 133.536827 
L 166.543391 132.120802 
L 167.978255 130.658291 
L 169.256813 129.049529 
L 170.418354 127.230169 
L 171.448759 125.200741 
L 172.364367 122.906982 
L 173.176479 120.274463 
L 173.889926 117.20319 
L 174.502989 113.546912 
L 174.982727 109.30563 
L 175.313558 104.333093 
L 175.456653 98.775551 
L 175.388636 92.779256 
L 175.099949 86.63671 
L 174.587945 80.494164 
L 173.895396 74.790371 
L 173.017895 69.37908 
L 171.990063 64.406543 
L 170.79349 59.726508 
L 169.483102 55.485226 
L 167.981606 51.390195 
L 166.710878 48.375236 
M 154.061379 23.443764 
L 153.40119 20.823715 
L 152.938397 18.044944 
L 152.679781 15.119922 
L 152.616766 11.902398 
L 152.773928 8.09987 
L 153.132765 4.15109 
M 47.211299 59.296175 
L 52.068925 59.420574 
L 56.337748 59.744531 
L 60.017767 60.239015 
L 63.108984 60.875269 
L 65.611397 61.614702 
L 67.525007 62.395065 
L 69.048558 63.236534 
L 70.21966 64.114041 
L 71.075361 64.991547 
L 71.79383 66.06282 
L 72.235432 67.143508 
L 72.448662 68.209071 
L 72.474422 69.37908 
L 72.28699 70.69534 
L 71.853625 72.157851 
L 71.145458 73.766613 
L 70.135829 75.521626 
L 68.686195 77.569142 
L 66.845602 79.762908 
L 64.580992 82.107704 
L 61.784177 84.666643 
L 59.856007 86.278345 
M 57.890191 17.029803 
L 53.688134 20.557001 
L 49.124909 24.096052 
L 47.211299 25.493288 
L 47.211299 25.493288 
" clip-path="url(#pe7c6201491)" style="fill: none; stroke: #000000; stroke-width: 1.5"/>
    <path d="M 144.70464 303.52709 
L 143.489683 294.898275 
L 142.932394 289.340733 
L 142.723008 285.099451 
L 142.758697 281.443174 
L 143.001989 278.22565 
L 143.451253 275.154377 
L 143.823528 273.340784 
M 153.664536 247.14688 
L 155.137657 242.540382 
L 156.402519 237.860346 
L 157.440422 233.180311 
L 158.284335 228.354025 
L 158.923979 223.381488 
L 159.326215 218.555201 
L 159.509336 213.728915 
L 159.467162 209.195131 
L 159.214739 204.953849 
L 158.757883 201.005069 
L 158.127062 197.495043 
L 157.351553 194.42377 
L 156.434279 191.696964 
L 155.396949 189.304981 
L 154.193326 187.111215 
L 152.89359 185.209951 
L 151.415434 183.454937 
L 149.751833 181.846175 
L 147.896634 180.380066 
L 145.835823 179.045914 
L 143.48061 177.798458 
L 140.978197 176.712331 
L 137.886981 175.622497 
L 134.501363 174.664989 
L 130.379741 173.745116 
L 125.669316 172.937076 
L 120.517289 172.275333 
L 114.482057 171.723828 
L 107.710821 171.331698 
L 100.497982 171.133953 
L 92.990742 171.147027 
L 85.630703 171.380644 
L 78.859467 171.815585 
L 72.971436 172.409851 
L 67.96661 173.128832 
L 63.697787 173.963556 
L 60.164968 174.885322 
L 57.356083 175.84988 
L 55.089635 176.873638 
L 53.376857 177.897396 
L 52.068925 178.948323 
L 51.167855 179.944911 
L 50.52726 180.968669 
L 50.129308 181.992426 
L 49.925333 183.162435 
L 49.947775 184.332444 
L 50.200612 185.648704 
L 50.744118 187.172451 
L 51.521221 188.719977 
L 52.72529 190.621241 
L 54.496051 192.961259 
L 57.025964 195.886281 
L 60.92157 199.981312 
L 76.877719 216.361435 
L 80.69864 220.748968 
L 83.981542 224.843999 
L 86.751826 228.646527 
L 89.042166 232.156554 
L 90.929931 235.452211 
L 92.393915 238.445351 
L 93.507685 241.224122 
L 94.27271 243.71039 
L 94.761034 246.050408 
L 94.975339 248.097923 
L 94.970169 249.999188 
L 94.741821 251.900452 
L 94.309295 253.655465 
L 93.643186 255.410478 
L 92.729206 257.165491 
L 91.518735 258.98334 
L 89.899526 260.985983 
L 87.456771 263.60054 
L 82.62013 268.719328 
L 81.041042 270.766844 
L 79.861001 272.668108 
L 79.006668 274.477701 
L 78.417865 276.240156 
L 78.039169 278.079399 
L 77.873354 279.980663 
L 77.916433 282.028178 
L 78.201669 284.368196 
L 78.766115 287.000716 
L 79.628528 289.925738 
L 80.920278 293.474179 
L 82.754514 297.823297 
L 85.409336 303.52709 
M 85.409336 4.15109 
L 82.431456 10.586138 
L 80.565727 15.119922 
L 79.347628 18.629949 
L 78.552831 21.554971 
L 78.068173 24.18749 
L 77.876912 26.381257 
L 77.911921 28.428772 
L 78.162404 30.330037 
L 78.582119 32.005009 
M 94.494453 54.668694 
L 94.837479 56.362732 
L 94.994282 58.263997 
L 94.923482 60.311512 
L 94.606439 62.505278 
L 94.021148 64.874311 
L 93.183658 67.331565 
L 91.991469 70.110336 
L 90.488329 73.041453 
L 88.574719 76.273369 
L 86.241374 79.762908 
L 83.530757 83.419186 
L 80.329912 87.367965 
L 76.480112 91.755498 
L 71.79383 96.741531 
L 64.999091 103.601837 
L 57.956956 110.782552 
L 54.978055 114.131916 
L 52.930992 116.764436 
L 51.604843 118.811952 
L 50.717407 120.566965 
L 50.200612 122.029476 
L 49.947775 123.345736 
L 49.925333 124.515745 
L 50.129308 125.685753 
L 50.52726 126.709511 
L 51.18572 127.75633 
L 52.097417 128.757026 
L 53.376857 129.780784 
L 55.012941 130.764008 
L 56.926551 131.6547 
L 59.281763 132.516799 
L 62.225779 133.361498 
L 65.905799 134.177349 
L 70.469023 134.938015 
L 75.768251 135.579571 
L 81.803483 136.080744 
L 88.72192 136.423522 
L 96.081959 136.563132 
L 103.589199 136.485421 
L 110.949238 136.185795 
L 117.720474 135.684974 
L 123.608505 135.030201 
L 128.760532 134.236334 
L 133.176556 133.334561 
L 136.856575 132.369991 
L 140.094993 131.302146 
L 142.891807 130.154813 
L 145.363886 128.903277 
L 147.484109 127.587018 
L 149.410571 126.124507 
L 150.994636 124.661996 
L 152.459858 123.021616 
L 153.822023 121.151969 
L 155.025957 119.104454 
L 156.060502 116.910687 
L 156.98798 114.424419 
L 157.78746 111.645648 
L 158.472426 108.428124 
L 158.990344 104.918097 
L 159.346398 100.969318 
L 159.511599 96.581785 
L 159.459096 91.901749 
L 159.181857 87.075463 
L 158.670061 82.102926 
L 157.953658 77.276639 
L 157.013622 72.450353 
L 155.845476 67.650069 
L 154.51088 63.090283 
L 152.901461 58.383214 
L 150.919874 53.291459 
L 144.980617 38.520098 
L 144.054269 35.302574 
L 143.398736 32.231301 
L 142.97065 29.160028 
L 142.744607 25.873131 
L 142.726175 22.432477 
L 142.932394 18.337447 
L 143.419721 13.364909 
L 144.306439 6.78361 
L 144.70464 4.15109 
L 144.70464 4.15109 
" clip-path="url(#pe7c6201491)" style="fill: none; stroke: #000000; stroke-width: 1.5"/>
    <path clip-path="url(#pe7c6201491)" style="fill: none; stroke: #000000; stroke-width: 1.5"/>
   </g>
   <g id="patch_3">
    <path d="M 47.211299 303.52709 
L 47.211299 4.15109 
" style="fill: none; stroke: #000000; stroke-width: 0.8; stroke-linejoin: miter; stroke-linecap: square"/>
   </g>
   <g id="patch_4">
    <path d="M 348.531299 303.52709 
L 348.531299 4.15109 
" style="fill: none; stroke: #000000; stroke-width: 0.8; stroke-linejoin: miter; stroke-linecap: square"/>
   </g>
   <g id="patch_5">
    <path d="M 47.211299 303.52709 
L 348.531299 303.52709 
" style="fill: none; stroke: #000000; stroke-width: 0.8; stroke-linejoin: miter; stroke-linecap: square"/>
   </g>
   <g id="patch_6">
    <path d="M 47.211299 4.15109 
L 348.531299 4.15109 
" style="fill: none; stroke: #000000; stroke-width: 0.8; stroke-linejoin: miter; stroke-linecap: square"/>
   </g>
   <g id="text_21">
    <!-- $\mathdefault{−0.75}$ -->
    <g transform="translate(322.015643 217.433366) rotate(-46.087944) scale(0.12 -0.12)">
     <defs>
      <path id="CMR17-37" d="M 2886 3941 
L 2886 4081 
L 1382 4081 
C 634 4081 621 4165 595 4288 
L 480 4288 
L 294 3094 
L 410 3094 
C 429 3215 474 3540 550 3661 
C 589 3712 1062 3712 1171 3712 
L 2579 3712 
L 1869 2661 
C 1395 1954 1069 999 1069 165 
C 1069 89 1069 -128 1299 -128 
C 1530 -128 1530 89 1530 171 
L 1530 465 
C 1530 1508 1709 2196 2003 2636 
L 2886 3941 
z
" transform="scale(0.015625)"/>
     </defs>
     <use xlink:href="#CMSY10-0" transform="scale(0.996264)"/>
     <use xlink:href="#CMR17-30" transform="translate(77.487468 0) scale(0.996264)"/>
     <use xlink:href="#CMMI12-3a" transform="translate(123.177945 0) scale(0.996264)"/>
     <use xlink:href="#CMR17-37" transform="translate(150.275122 0) scale(0.996264)"/>
     <use xlink:href="#CMR17-35" transform="translate(195.965599 0) scale(0.996264)"/>
    </g>
   </g>
   <g id="text_22">
    <!-- $\mathdefault{−0.75}$ -->
    <g transform="translate(317.709361 94.390587) rotate(-313.912056) scale(0.12 -0.12)">
     <use xlink:href="#CMSY10-0" transform="scale(0.996264)"/>
     <use xlink:href="#CMR17-30" transform="translate(77.487468 0) scale(0.996264)"/>
     <use xlink:href="#CMMI12-3a" transform="translate(123.177945 0) scale(0.996264)"/>
     <use xlink:href="#CMR17-37" transform="translate(150.275122 0) scale(0.996264)"/>
     <use xlink:href="#CMR17-35" transform="translate(195.965599 0) scale(0.996264)"/>
    </g>
   </g>
   <g id="text_23">
    <!-- $\mathdefault{−0.50}$ -->
    <g transform="translate(326.724268 165.738594) rotate(-0.354215) scale(0.12 -0.12)">
     <use xlink:href="#CMSY10-0" transform="scale(0.996264)"/>
     <use xlink:href="#CMR17-30" transform="translate(77.487468 0) scale(0.996264)"/>
     <use xlink:href="#CMMI12-3a" transform="translate(123.177945 0) scale(0.996264)"/>
     <use xlink:href="#CMR17-35" transform="translate(150.275122 0) scale(0.996264)"/>
     <use xlink:href="#CMR17-30" transform="translate(195.965599 0) scale(0.996264)"/>
    </g>
   </g>
   <g id="text_24">
    <!-- $\mathdefault{−0.50}$ -->
    <g transform="translate(328.199737 249.064841) rotate(-351.814047) scale(0.12 -0.12)">
     <use xlink:href="#CMSY10-0" transform="scale(0.996264)"/>
     <use xlink:href="#CMR17-30" transform="translate(77.487468 0) scale(0.996264)"/>
     <use xlink:href="#CMMI12-3a" transform="translate(123.177945 0) scale(0.996264)"/>
     <use xlink:href="#CMR17-35" transform="translate(150.275122 0) scale(0.996264)"/>
     <use xlink:href="#CMR17-30" transform="translate(195.965599 0) scale(0.996264)"/>
    </g>
   </g>
   <g id="text_25">
    <!-- $\mathdefault{−0.50}$ -->
    <g transform="translate(294.69591 147.235634) rotate(-358.632883) scale(0.12 -0.12)">
     <use xlink:href="#CMSY10-0" transform="scale(0.996264)"/>
     <use xlink:href="#CMR17-30" transform="translate(77.487468 0) scale(0.996264)"/>
     <use xlink:href="#CMMI12-3a" transform="translate(123.177945 0) scale(0.996264)"/>
     <use xlink:href="#CMR17-35" transform="translate(150.275122 0) scale(0.996264)"/>
     <use xlink:href="#CMR17-30" transform="translate(195.965599 0) scale(0.996264)"/>
    </g>
   </g>
   <g id="text_26">
    <!-- $\mathdefault{−0.50}$ -->
    <g transform="translate(330.99164 64.091331) rotate(-6.78952) scale(0.12 -0.12)">
     <use xlink:href="#CMSY10-0" transform="scale(0.996264)"/>
     <use xlink:href="#CMR17-30" transform="translate(77.487468 0) scale(0.996264)"/>
     <use xlink:href="#CMMI12-3a" transform="translate(123.177945 0) scale(0.996264)"/>
     <use xlink:href="#CMR17-35" transform="translate(150.275122 0) scale(0.996264)"/>
     <use xlink:href="#CMR17-30" transform="translate(195.965599 0) scale(0.996264)"/>
    </g>
   </g>
   <g id="text_27">
    <!-- $\mathdefault{−0.25}$ -->
    <g transform="translate(261.478705 163.540662) rotate(-2.272454) scale(0.12 -0.12)">
     <use xlink:href="#CMSY10-0" transform="scale(0.996264)"/>
     <use xlink:href="#CMR17-30" transform="translate(77.487468 0) scale(0.996264)"/>
     <use xlink:href="#CMMI12-3a" transform="translate(123.177945 0) scale(0.996264)"/>
     <use xlink:href="#CMR17-32" transform="translate(150.275122 0) scale(0.996264)"/>
     <use xlink:href="#CMR17-35" transform="translate(195.965599 0) scale(0.996264)"/>
    </g>
   </g>
   <g id="text_28">
    <!-- $\mathdefault{−0.25}$ -->
    <g transform="translate(218.945284 39.808194) rotate(-57.517284) scale(0.12 -0.12)">
     <use xlink:href="#CMSY10-0" transform="scale(0.996264)"/>
     <use xlink:href="#CMR17-30" transform="translate(77.487468 0) scale(0.996264)"/>
     <use xlink:href="#CMMI12-3a" transform="translate(123.177945 0) scale(0.996264)"/>
     <use xlink:href="#CMR17-32" transform="translate(150.275122 0) scale(0.996264)"/>
     <use xlink:href="#CMR17-35" transform="translate(195.965599 0) scale(0.996264)"/>
    </g>
   </g>
   <g id="text_29">
    <!-- $\mathdefault{0.00}$ -->
    <g transform="translate(198.558168 304.825013) rotate(-77.6116) scale(0.12 -0.12)">
     <use xlink:href="#CMR17-30" transform="scale(0.996264)"/>
     <use xlink:href="#CMMI12-3a" transform="translate(45.690477 0) scale(0.996264)"/>
     <use xlink:href="#CMR17-30" transform="translate(72.787654 0) scale(0.996264)"/>
     <use xlink:href="#CMR17-30" transform="translate(118.478131 0) scale(0.996264)"/>
    </g>
   </g>
   <g id="text_30">
    <!-- $\mathdefault{0.25}$ -->
    <g transform="translate(45.747685 161.412042) rotate(-359.263744) scale(0.12 -0.12)">
     <use xlink:href="#CMR17-30" transform="scale(0.996264)"/>
     <use xlink:href="#CMMI12-3a" transform="translate(45.690477 0) scale(0.996264)"/>
     <use xlink:href="#CMR17-32" transform="translate(72.787654 0) scale(0.996264)"/>
     <use xlink:href="#CMR17-35" transform="translate(118.478131 0) scale(0.996264)"/>
    </g>
   </g>
   <g id="text_31">
    <!-- $\mathdefault{0.25}$ -->
    <g transform="translate(71.456179 151.910184) rotate(-1.07694) scale(0.12 -0.12)">
     <use xlink:href="#CMR17-30" transform="scale(0.996264)"/>
     <use xlink:href="#CMMI12-3a" transform="translate(45.690477 0) scale(0.996264)"/>
     <use xlink:href="#CMR17-32" transform="translate(72.787654 0) scale(0.996264)"/>
     <use xlink:href="#CMR17-35" transform="translate(118.478131 0) scale(0.996264)"/>
    </g>
   </g>
   <g id="text_32">
    <!-- $\mathdefault{0.50}$ -->
    <g transform="translate(92.043917 166.155132) rotate(-357.744604) scale(0.12 -0.12)">
     <use xlink:href="#CMR17-30" transform="scale(0.996264)"/>
     <use xlink:href="#CMMI12-3a" transform="translate(45.690477 0) scale(0.996264)"/>
     <use xlink:href="#CMR17-35" transform="translate(72.787654 0) scale(0.996264)"/>
     <use xlink:href="#CMR17-30" transform="translate(118.478131 0) scale(0.996264)"/>
    </g>
   </g>
   <g id="text_33">
    <!-- $\mathdefault{0.50}$ -->
    <g transform="translate(58.6511 295.144289) rotate(-314.908862) scale(0.12 -0.12)">
     <use xlink:href="#CMR17-30" transform="scale(0.996264)"/>
     <use xlink:href="#CMMI12-3a" transform="translate(45.690477 0) scale(0.996264)"/>
     <use xlink:href="#CMR17-35" transform="translate(72.787654 0) scale(0.996264)"/>
     <use xlink:href="#CMR17-30" transform="translate(118.478131 0) scale(0.996264)"/>
    </g>
   </g>
   <g id="text_34">
    <!-- $\mathdefault{0.50}$ -->
    <g transform="translate(38.173754 210.145464) rotate(-326.276919) scale(0.12 -0.12)">
     <use xlink:href="#CMR17-30" transform="scale(0.996264)"/>
     <use xlink:href="#CMMI12-3a" transform="translate(45.690477 0) scale(0.996264)"/>
     <use xlink:href="#CMR17-35" transform="translate(72.787654 0) scale(0.996264)"/>
     <use xlink:href="#CMR17-30" transform="translate(118.478131 0) scale(0.996264)"/>
    </g>
   </g>
   <g id="text_35">
    <!-- $\mathdefault{0.50}$ -->
    <g transform="translate(152.523105 28.309234) rotate(-298.452027) scale(0.12 -0.12)">
     <use xlink:href="#CMR17-30" transform="scale(0.996264)"/>
     <use xlink:href="#CMMI12-3a" transform="translate(45.690477 0) scale(0.996264)"/>
     <use xlink:href="#CMR17-35" transform="translate(72.787654 0) scale(0.996264)"/>
     <use xlink:href="#CMR17-30" transform="translate(118.478131 0) scale(0.996264)"/>
    </g>
   </g>
   <g id="text_36">
    <!-- $\mathdefault{0.50}$ -->
    <g transform="translate(41.389564 102.561673) rotate(-33.69368) scale(0.12 -0.12)">
     <use xlink:href="#CMR17-30" transform="scale(0.996264)"/>
     <use xlink:href="#CMMI12-3a" transform="translate(45.690477 0) scale(0.996264)"/>
     <use xlink:href="#CMR17-35" transform="translate(72.787654 0) scale(0.996264)"/>
     <use xlink:href="#CMR17-30" transform="translate(118.478131 0) scale(0.996264)"/>
    </g>
   </g>
   <g id="text_37">
    <!-- $\mathdefault{0.50}$ -->
    <g transform="translate(62.790346 16.845886) rotate(-45.06789) scale(0.12 -0.12)">
     <use xlink:href="#CMR17-30" transform="scale(0.996264)"/>
     <use xlink:href="#CMMI12-3a" transform="translate(45.690477 0) scale(0.996264)"/>
     <use xlink:href="#CMR17-35" transform="translate(72.787654 0) scale(0.996264)"/>
     <use xlink:href="#CMR17-30" transform="translate(118.478131 0) scale(0.996264)"/>
    </g>
   </g>
   <g id="text_38">
    <!-- $\mathdefault{0.75}$ -->
    <g transform="translate(147.419788 270.929109) rotate(-68.324987) scale(0.12 -0.12)">
     <use xlink:href="#CMR17-30" transform="scale(0.996264)"/>
     <use xlink:href="#CMMI12-3a" transform="translate(45.690477 0) scale(0.996264)"/>
     <use xlink:href="#CMR17-37" transform="translate(72.787654 0) scale(0.996264)"/>
     <use xlink:href="#CMR17-35" transform="translate(118.478131 0) scale(0.996264)"/>
    </g>
   </g>
   <g id="text_39">
    <!-- $\mathdefault{0.75}$ -->
    <g transform="translate(77.747568 37.123108) rotate(-309.394682) scale(0.12 -0.12)">
     <use xlink:href="#CMR17-30" transform="scale(0.996264)"/>
     <use xlink:href="#CMMI12-3a" transform="translate(45.690477 0) scale(0.996264)"/>
     <use xlink:href="#CMR17-37" transform="translate(72.787654 0) scale(0.996264)"/>
     <use xlink:href="#CMR17-35" transform="translate(118.478131 0) scale(0.996264)"/>
    </g>
   </g>
  </g>
 </g>
 <defs>
  <clipPath id="pe7c6201491">
   <rect x="47.211299" y="4.15109" width="301.32" height="299.376"/>
  </clipPath>
 </defs>
</svg>
