<?xml version="1.0" encoding="utf-8" standalone="no"?>
<!DOCTYPE svg PUBLIC "-//W3C//DTD SVG 1.1//EN"
  "http://www.w3.org/Graphics/SVG/1.1/DTD/svg11.dtd">
<svg xmlns:xlink="http://www.w3.org/1999/xlink" width="344.194152pt" height="240.753944pt" viewBox="0 0 344.194152 240.753944" xmlns="http://www.w3.org/2000/svg" version="1.1">
 <metadata>
  <rdf:RDF xmlns:dc="http://purl.org/dc/elements/1.1/" xmlns:cc="http://creativecommons.org/ns#" xmlns:rdf="http://www.w3.org/1999/02/22-rdf-syntax-ns#">
   <cc:Work>
    <dc:type rdf:resource="http://purl.org/dc/dcmitype/StillImage"/>
    <dc:date>2025-04-08T15:25:48.967610</dc:date>
    <dc:format>image/svg+xml</dc:format>
    <dc:creator>
     <cc:Agent>
      <dc:title>Matplotlib v3.10.1, https://matplotlib.org/</dc:title>
     </cc:Agent>
    </dc:creator>
   </cc:Work>
  </rdf:RDF>
 </metadata>
 <defs>
  <style type="text/css">*{stroke-linejoin: round; stroke-linecap: butt}</style>
 </defs>
 <g id="figure_1">
  <g id="patch_1">
   <path d="M -0 240.753944 
L 344.194152 240.753944 
L 344.194152 0 
L -0 0 
z
" style="fill: #ffffff"/>
  </g>
  <g id="axes_1">
   <g id="patch_2">
    <path d="M 35.395331 95.76 
L 336.715331 95.76 
L 336.715331 -0 
L 35.395331 -0 
z
" style="fill: #ffffff"/>
   </g>
   <g id="matplotlib.axis_1">
    <g id="xtick_1">
     <g id="line2d_1">
      <path d="M 35.395331 95.76 
L 35.395331 -0 
" clip-path="url(#pc3e2bd6cea)" style="fill: none; stroke: #b0b0b0; stroke-width: 0.8; stroke-linecap: square"/>
     </g>
     <g id="line2d_2">
      <defs>
       <path id="mf535537c4e" d="M 0 0 
L 0 -3.5 
" style="stroke: #000000; stroke-width: 0.8"/>
      </defs>
      <g>
       <use xlink:href="#mf535537c4e" x="35.395331" y="95.76" style="stroke: #000000; stroke-width: 0.8"/>
      </g>
     </g>
     <g id="line2d_3">
      <defs>
       <path id="mad7ab0ad0e" d="M 0 0 
L 0 3.5 
" style="stroke: #000000; stroke-width: 0.8"/>
      </defs>
      <g>
       <use xlink:href="#mad7ab0ad0e" x="35.395331" y="-0" style="stroke: #000000; stroke-width: 0.8"/>
      </g>
     </g>
     <g id="text_1">
      <!-- $\mathdefault{0.0}$ -->
      <g transform="translate(27.916511 107.56218) scale(0.12 -0.12)">
       <defs>
        <path id="CMR17-30" d="M 2688 2025 
C 2688 2416 2682 3080 2413 3591 
C 2176 4039 1798 4198 1466 4198 
C 1158 4198 768 4058 525 3597 
C 269 3118 243 2524 243 2025 
C 243 1661 250 1106 448 619 
C 723 -39 1216 -128 1466 -128 
C 1760 -128 2208 -7 2470 600 
C 2662 1042 2688 1559 2688 2025 
z
M 1466 -26 
C 1056 -26 813 325 723 812 
C 653 1188 653 1738 653 2096 
C 653 2588 653 2997 736 3387 
C 858 3929 1216 4096 1466 4096 
C 1728 4096 2067 3923 2189 3400 
C 2272 3036 2278 2607 2278 2096 
C 2278 1680 2278 1169 2202 792 
C 2067 95 1690 -26 1466 -26 
z
" transform="scale(0.015625)"/>
        <path id="CMMI12-3a" d="M 1178 307 
C 1178 492 1024 619 870 619 
C 685 619 557 466 557 313 
C 557 128 710 0 864 0 
C 1050 0 1178 153 1178 307 
z
" transform="scale(0.015625)"/>
       </defs>
       <use xlink:href="#CMR17-30" transform="scale(0.996264)"/>
       <use xlink:href="#CMMI12-3a" transform="translate(45.690477 0) scale(0.996264)"/>
       <use xlink:href="#CMR17-30" transform="translate(72.787654 0) scale(0.996264)"/>
      </g>
     </g>
    </g>
    <g id="xtick_2">
     <g id="line2d_4">
      <path d="M 95.659331 95.76 
L 95.659331 -0 
" clip-path="url(#pc3e2bd6cea)" style="fill: none; stroke: #b0b0b0; stroke-width: 0.8; stroke-linecap: square"/>
     </g>
     <g id="line2d_5">
      <g>
       <use xlink:href="#mf535537c4e" x="95.659331" y="95.76" style="stroke: #000000; stroke-width: 0.8"/>
      </g>
     </g>
     <g id="line2d_6">
      <g>
       <use xlink:href="#mad7ab0ad0e" x="95.659331" y="-0" style="stroke: #000000; stroke-width: 0.8"/>
      </g>
     </g>
     <g id="text_2">
      <!-- $\mathdefault{0.2}$ -->
      <g transform="translate(88.180511 107.56218) scale(0.12 -0.12)">
       <defs>
        <path id="CMR17-32" d="M 2669 989 
L 2554 989 
C 2490 536 2438 459 2413 420 
C 2381 369 1920 369 1830 369 
L 602 369 
C 832 619 1280 1072 1824 1597 
C 2214 1967 2669 2402 2669 3035 
C 2669 3790 2067 4224 1395 4224 
C 691 4224 262 3604 262 3030 
C 262 2780 448 2748 525 2748 
C 589 2748 781 2787 781 3010 
C 781 3207 614 3264 525 3264 
C 486 3264 448 3258 422 3245 
C 544 3790 915 4058 1306 4058 
C 1862 4058 2227 3617 2227 3035 
C 2227 2479 1901 2000 1536 1584 
L 262 146 
L 262 0 
L 2515 0 
L 2669 989 
z
" transform="scale(0.015625)"/>
       </defs>
       <use xlink:href="#CMR17-30" transform="scale(0.996264)"/>
       <use xlink:href="#CMMI12-3a" transform="translate(45.690477 0) scale(0.996264)"/>
       <use xlink:href="#CMR17-32" transform="translate(72.787654 0) scale(0.996264)"/>
      </g>
     </g>
    </g>
    <g id="xtick_3">
     <g id="line2d_7">
      <path d="M 155.923331 95.76 
L 155.923331 -0 
" clip-path="url(#pc3e2bd6cea)" style="fill: none; stroke: #b0b0b0; stroke-width: 0.8; stroke-linecap: square"/>
     </g>
     <g id="line2d_8">
      <g>
       <use xlink:href="#mf535537c4e" x="155.923331" y="95.76" style="stroke: #000000; stroke-width: 0.8"/>
      </g>
     </g>
     <g id="line2d_9">
      <g>
       <use xlink:href="#mad7ab0ad0e" x="155.923331" y="-0" style="stroke: #000000; stroke-width: 0.8"/>
      </g>
     </g>
     <g id="text_3">
      <!-- $\mathdefault{0.4}$ -->
      <g transform="translate(148.444511 107.56218) scale(0.12 -0.12)">
       <defs>
        <path id="CMR17-34" d="M 2150 4122 
C 2150 4256 2144 4256 2029 4256 
L 128 1254 
L 128 1088 
L 1779 1088 
L 1779 457 
C 1779 224 1766 160 1318 160 
L 1197 160 
L 1197 0 
C 1402 0 1747 0 1965 0 
C 2182 0 2528 0 2733 0 
L 2733 160 
L 2611 160 
C 2163 160 2150 224 2150 457 
L 2150 1088 
L 2803 1088 
L 2803 1254 
L 2150 1254 
L 2150 4122 
z
M 1798 3703 
L 1798 1254 
L 256 1254 
L 1798 3703 
z
" transform="scale(0.015625)"/>
       </defs>
       <use xlink:href="#CMR17-30" transform="scale(0.996264)"/>
       <use xlink:href="#CMMI12-3a" transform="translate(45.690477 0) scale(0.996264)"/>
       <use xlink:href="#CMR17-34" transform="translate(72.787654 0) scale(0.996264)"/>
      </g>
     </g>
    </g>
    <g id="xtick_4">
     <g id="line2d_10">
      <path d="M 216.187331 95.76 
L 216.187331 -0 
" clip-path="url(#pc3e2bd6cea)" style="fill: none; stroke: #b0b0b0; stroke-width: 0.8; stroke-linecap: square"/>
     </g>
     <g id="line2d_11">
      <g>
       <use xlink:href="#mf535537c4e" x="216.187331" y="95.76" style="stroke: #000000; stroke-width: 0.8"/>
      </g>
     </g>
     <g id="line2d_12">
      <g>
       <use xlink:href="#mad7ab0ad0e" x="216.187331" y="-0" style="stroke: #000000; stroke-width: 0.8"/>
      </g>
     </g>
     <g id="text_4">
      <!-- $\mathdefault{0.6}$ -->
      <g transform="translate(208.708511 107.56218) scale(0.12 -0.12)">
       <defs>
        <path id="CMR17-36" d="M 678 2176 
C 678 3690 1395 4032 1811 4032 
C 1946 4032 2272 4009 2400 3776 
C 2298 3776 2106 3776 2106 3553 
C 2106 3381 2246 3323 2336 3323 
C 2394 3323 2566 3348 2566 3560 
C 2566 3954 2246 4179 1805 4179 
C 1043 4179 243 3390 243 1984 
C 243 253 966 -128 1478 -128 
C 2099 -128 2688 427 2688 1283 
C 2688 2081 2170 2662 1517 2662 
C 1126 2662 838 2407 678 1960 
L 678 2176 
z
M 1478 25 
C 691 25 691 1200 691 1436 
C 691 1896 909 2560 1504 2560 
C 1613 2560 1926 2560 2138 2120 
C 2253 1870 2253 1609 2253 1289 
C 2253 944 2253 690 2118 434 
C 1978 171 1773 25 1478 25 
z
" transform="scale(0.015625)"/>
       </defs>
       <use xlink:href="#CMR17-30" transform="scale(0.996264)"/>
       <use xlink:href="#CMMI12-3a" transform="translate(45.690477 0) scale(0.996264)"/>
       <use xlink:href="#CMR17-36" transform="translate(72.787654 0) scale(0.996264)"/>
      </g>
     </g>
    </g>
    <g id="xtick_5">
     <g id="line2d_13">
      <path d="M 276.451331 95.76 
L 276.451331 -0 
" clip-path="url(#pc3e2bd6cea)" style="fill: none; stroke: #b0b0b0; stroke-width: 0.8; stroke-linecap: square"/>
     </g>
     <g id="line2d_14">
      <g>
       <use xlink:href="#mf535537c4e" x="276.451331" y="95.76" style="stroke: #000000; stroke-width: 0.8"/>
      </g>
     </g>
     <g id="line2d_15">
      <g>
       <use xlink:href="#mad7ab0ad0e" x="276.451331" y="-0" style="stroke: #000000; stroke-width: 0.8"/>
      </g>
     </g>
     <g id="text_5">
      <!-- $\mathdefault{0.8}$ -->
      <g transform="translate(268.972511 107.56218) scale(0.12 -0.12)">
       <defs>
        <path id="CMR17-38" d="M 1741 2264 
C 2144 2467 2554 2773 2554 3263 
C 2554 3841 1990 4179 1472 4179 
C 890 4179 378 3759 378 3180 
C 378 3021 416 2747 666 2505 
C 730 2442 998 2251 1171 2130 
C 883 1983 211 1634 211 934 
C 211 279 838 -128 1459 -128 
C 2144 -128 2720 362 2720 1010 
C 2720 1590 2330 1857 2074 2029 
L 1741 2264 
z
M 902 2822 
C 851 2854 595 3051 595 3351 
C 595 3739 998 4032 1459 4032 
C 1965 4032 2336 3676 2336 3262 
C 2336 2669 1670 2331 1638 2331 
C 1632 2331 1626 2331 1574 2370 
L 902 2822 
z
M 2080 1519 
C 2176 1449 2483 1240 2483 851 
C 2483 381 2010 25 1472 25 
C 890 25 448 438 448 940 
C 448 1443 838 1862 1280 2060 
L 2080 1519 
z
" transform="scale(0.015625)"/>
       </defs>
       <use xlink:href="#CMR17-30" transform="scale(0.996264)"/>
       <use xlink:href="#CMMI12-3a" transform="translate(45.690477 0) scale(0.996264)"/>
       <use xlink:href="#CMR17-38" transform="translate(72.787654 0) scale(0.996264)"/>
      </g>
     </g>
    </g>
    <g id="xtick_6">
     <g id="line2d_16">
      <path d="M 336.715331 95.76 
L 336.715331 -0 
" clip-path="url(#pc3e2bd6cea)" style="fill: none; stroke: #b0b0b0; stroke-width: 0.8; stroke-linecap: square"/>
     </g>
     <g id="line2d_17">
      <g>
       <use xlink:href="#mf535537c4e" x="336.715331" y="95.76" style="stroke: #000000; stroke-width: 0.8"/>
      </g>
     </g>
     <g id="line2d_18">
      <g>
       <use xlink:href="#mad7ab0ad0e" x="336.715331" y="-0" style="stroke: #000000; stroke-width: 0.8"/>
      </g>
     </g>
     <g id="text_6">
      <!-- $\mathdefault{1.0}$ -->
      <g transform="translate(329.236511 107.56218) scale(0.12 -0.12)">
       <defs>
        <path id="CMR17-31" d="M 1702 4058 
C 1702 4192 1696 4192 1606 4192 
C 1357 3916 979 3827 621 3827 
C 602 3827 570 3827 563 3808 
C 557 3795 557 3782 557 3648 
C 755 3648 1088 3686 1344 3839 
L 1344 461 
C 1344 236 1331 160 781 160 
L 589 160 
L 589 0 
C 896 0 1216 0 1523 0 
C 1830 0 2150 0 2458 0 
L 2458 160 
L 2266 160 
C 1715 160 1702 230 1702 458 
L 1702 4058 
z
" transform="scale(0.015625)"/>
       </defs>
       <use xlink:href="#CMR17-31" transform="scale(0.996264)"/>
       <use xlink:href="#CMMI12-3a" transform="translate(45.690477 0) scale(0.996264)"/>
       <use xlink:href="#CMR17-30" transform="translate(72.787654 0) scale(0.996264)"/>
      </g>
     </g>
    </g>
   </g>
   <g id="matplotlib.axis_2">
    <g id="ytick_1">
     <g id="line2d_19">
      <path d="M 35.395331 79.336884 
L 336.715331 79.336884 
" clip-path="url(#pc3e2bd6cea)" style="fill: none; stroke: #b0b0b0; stroke-width: 0.8; stroke-linecap: square"/>
     </g>
     <g id="line2d_20">
      <defs>
       <path id="mdd25dd0f74" d="M 0 0 
L 3.5 0 
" style="stroke: #000000; stroke-width: 0.8"/>
      </defs>
      <g>
       <use xlink:href="#mdd25dd0f74" x="35.395331" y="79.336884" style="stroke: #000000; stroke-width: 0.8"/>
      </g>
     </g>
     <g id="line2d_21">
      <defs>
       <path id="mb94d9e7eeb" d="M 0 0 
L -3.5 0 
" style="stroke: #000000; stroke-width: 0.8"/>
      </defs>
      <g>
       <use xlink:href="#mb94d9e7eeb" x="336.715331" y="79.336884" style="stroke: #000000; stroke-width: 0.8"/>
      </g>
     </g>
     <g id="text_7">
      <!-- $\mathdefault{10^{0}}$ -->
      <g transform="translate(15.955168 83.487974) scale(0.12 -0.12)">
       <use xlink:href="#CMR17-31" transform="scale(0.996264)"/>
       <use xlink:href="#CMR17-30" transform="translate(45.690477 0) scale(0.996264)"/>
       <use xlink:href="#CMR17-30" transform="translate(91.380954 36.153639) scale(0.697382)"/>
      </g>
     </g>
    </g>
    <g id="ytick_2">
     <g id="line2d_22">
      <path d="M 35.395331 22.693412 
L 336.715331 22.693412 
" clip-path="url(#pc3e2bd6cea)" style="fill: none; stroke: #b0b0b0; stroke-width: 0.8; stroke-linecap: square"/>
     </g>
     <g id="line2d_23">
      <g>
       <use xlink:href="#mdd25dd0f74" x="35.395331" y="22.693412" style="stroke: #000000; stroke-width: 0.8"/>
      </g>
     </g>
     <g id="line2d_24">
      <g>
       <use xlink:href="#mb94d9e7eeb" x="336.715331" y="22.693412" style="stroke: #000000; stroke-width: 0.8"/>
      </g>
     </g>
     <g id="text_8">
      <!-- $\mathdefault{10^{1}}$ -->
      <g transform="translate(15.955168 26.844502) scale(0.12 -0.12)">
       <use xlink:href="#CMR17-31" transform="scale(0.996264)"/>
       <use xlink:href="#CMR17-30" transform="translate(45.690477 0) scale(0.996264)"/>
       <use xlink:href="#CMR17-31" transform="translate(91.380954 36.153639) scale(0.697382)"/>
      </g>
     </g>
    </g>
    <g id="ytick_3">
     <g id="line2d_25">
      <defs>
       <path id="mae9c505134" d="M 0 0 
L 2 0 
" style="stroke: #000000; stroke-width: 0.6"/>
      </defs>
      <g>
       <use xlink:href="#mae9c505134" x="35.395331" y="91.903167" style="stroke: #000000; stroke-width: 0.6"/>
      </g>
     </g>
     <g id="line2d_26">
      <defs>
       <path id="m976abc16a3" d="M 0 0 
L -2 0 
" style="stroke: #000000; stroke-width: 0.6"/>
      </defs>
      <g>
       <use xlink:href="#m976abc16a3" x="336.715331" y="91.903167" style="stroke: #000000; stroke-width: 0.6"/>
      </g>
     </g>
    </g>
    <g id="ytick_4">
     <g id="line2d_27">
      <g>
       <use xlink:href="#mae9c505134" x="35.395331" y="88.111069" style="stroke: #000000; stroke-width: 0.6"/>
      </g>
     </g>
     <g id="line2d_28">
      <g>
       <use xlink:href="#m976abc16a3" x="336.715331" y="88.111069" style="stroke: #000000; stroke-width: 0.6"/>
      </g>
     </g>
    </g>
    <g id="ytick_5">
     <g id="line2d_29">
      <g>
       <use xlink:href="#mae9c505134" x="35.395331" y="84.826203" style="stroke: #000000; stroke-width: 0.6"/>
      </g>
     </g>
     <g id="line2d_30">
      <g>
       <use xlink:href="#m976abc16a3" x="336.715331" y="84.826203" style="stroke: #000000; stroke-width: 0.6"/>
      </g>
     </g>
    </g>
    <g id="ytick_6">
     <g id="line2d_31">
      <g>
       <use xlink:href="#mae9c505134" x="35.395331" y="81.928747" style="stroke: #000000; stroke-width: 0.6"/>
      </g>
     </g>
     <g id="line2d_32">
      <g>
       <use xlink:href="#m976abc16a3" x="336.715331" y="81.928747" style="stroke: #000000; stroke-width: 0.6"/>
      </g>
     </g>
    </g>
    <g id="ytick_7">
     <g id="line2d_33">
      <g>
       <use xlink:href="#mae9c505134" x="35.395331" y="62.2855" style="stroke: #000000; stroke-width: 0.6"/>
      </g>
     </g>
     <g id="line2d_34">
      <g>
       <use xlink:href="#m976abc16a3" x="336.715331" y="62.2855" style="stroke: #000000; stroke-width: 0.6"/>
      </g>
     </g>
    </g>
    <g id="ytick_8">
     <g id="line2d_35">
      <g>
       <use xlink:href="#mae9c505134" x="35.395331" y="52.31108" style="stroke: #000000; stroke-width: 0.6"/>
      </g>
     </g>
     <g id="line2d_36">
      <g>
       <use xlink:href="#m976abc16a3" x="336.715331" y="52.31108" style="stroke: #000000; stroke-width: 0.6"/>
      </g>
     </g>
    </g>
    <g id="ytick_9">
     <g id="line2d_37">
      <g>
       <use xlink:href="#mae9c505134" x="35.395331" y="45.234116" style="stroke: #000000; stroke-width: 0.6"/>
      </g>
     </g>
     <g id="line2d_38">
      <g>
       <use xlink:href="#m976abc16a3" x="336.715331" y="45.234116" style="stroke: #000000; stroke-width: 0.6"/>
      </g>
     </g>
    </g>
    <g id="ytick_10">
     <g id="line2d_39">
      <g>
       <use xlink:href="#mae9c505134" x="35.395331" y="39.744796" style="stroke: #000000; stroke-width: 0.6"/>
      </g>
     </g>
     <g id="line2d_40">
      <g>
       <use xlink:href="#m976abc16a3" x="336.715331" y="39.744796" style="stroke: #000000; stroke-width: 0.6"/>
      </g>
     </g>
    </g>
    <g id="ytick_11">
     <g id="line2d_41">
      <g>
       <use xlink:href="#mae9c505134" x="35.395331" y="35.259695" style="stroke: #000000; stroke-width: 0.6"/>
      </g>
     </g>
     <g id="line2d_42">
      <g>
       <use xlink:href="#m976abc16a3" x="336.715331" y="35.259695" style="stroke: #000000; stroke-width: 0.6"/>
      </g>
     </g>
    </g>
    <g id="ytick_12">
     <g id="line2d_43">
      <g>
       <use xlink:href="#mae9c505134" x="35.395331" y="31.467597" style="stroke: #000000; stroke-width: 0.6"/>
      </g>
     </g>
     <g id="line2d_44">
      <g>
       <use xlink:href="#m976abc16a3" x="336.715331" y="31.467597" style="stroke: #000000; stroke-width: 0.6"/>
      </g>
     </g>
    </g>
    <g id="ytick_13">
     <g id="line2d_45">
      <g>
       <use xlink:href="#mae9c505134" x="35.395331" y="28.182732" style="stroke: #000000; stroke-width: 0.6"/>
      </g>
     </g>
     <g id="line2d_46">
      <g>
       <use xlink:href="#m976abc16a3" x="336.715331" y="28.182732" style="stroke: #000000; stroke-width: 0.6"/>
      </g>
     </g>
    </g>
    <g id="ytick_14">
     <g id="line2d_47">
      <g>
       <use xlink:href="#mae9c505134" x="35.395331" y="25.285275" style="stroke: #000000; stroke-width: 0.6"/>
      </g>
     </g>
     <g id="line2d_48">
      <g>
       <use xlink:href="#m976abc16a3" x="336.715331" y="25.285275" style="stroke: #000000; stroke-width: 0.6"/>
      </g>
     </g>
    </g>
    <g id="ytick_15">
     <g id="line2d_49">
      <g>
       <use xlink:href="#mae9c505134" x="35.395331" y="5.642028" style="stroke: #000000; stroke-width: 0.6"/>
      </g>
     </g>
     <g id="line2d_50">
      <g>
       <use xlink:href="#m976abc16a3" x="336.715331" y="5.642028" style="stroke: #000000; stroke-width: 0.6"/>
      </g>
     </g>
    </g>
    <g id="text_9">
     <!-- $S_0(z)/S_0(0)$ -->
     <g transform="translate(8.966376 77.754596) rotate(-90) scale(0.12 -0.12)">
      <defs>
       <path id="CMMI12-53" d="M 4064 4423 
C 4064 4480 4019 4480 4006 4480 
C 3981 4480 3974 4474 3898 4378 
C 3859 4333 3597 4001 3590 3995 
C 3379 4410 2957 4480 2688 4480 
C 1875 4480 1139 3743 1139 3025 
C 1139 2549 1427 2269 1741 2161 
C 1811 2135 2189 2033 2381 1989 
C 2707 1900 2790 1875 2925 1735 
C 2950 1703 3078 1557 3078 1258 
C 3078 667 2528 57 1888 57 
C 1363 57 781 280 781 991 
C 781 1112 806 1265 826 1328 
C 826 1348 832 1378 832 1391 
C 832 1417 819 1449 768 1449 
C 710 1449 704 1436 678 1328 
L 352 24 
C 352 18 326 -64 326 -71 
C 326 -128 378 -128 390 -128 
C 416 -128 422 -122 499 -26 
L 794 356 
C 947 126 1280 -128 1875 -128 
C 2701 -128 3456 666 3456 1460 
C 3456 1728 3392 1963 3149 2197 
C 3014 2331 2899 2363 2310 2516 
C 1882 2630 1824 2649 1709 2751 
C 1600 2858 1517 3011 1517 3227 
C 1517 3761 2061 4308 2669 4308 
C 3296 4308 3590 3926 3590 3323 
C 3590 3158 3558 2986 3558 2961 
C 3558 2903 3610 2903 3629 2903 
C 3686 2903 3693 2922 3718 3024 
L 4064 4423 
z
" transform="scale(0.015625)"/>
       <path id="CMR17-28" d="M 1958 -1561 
C 1958 -1555 1958 -1542 1939 -1523 
C 1645 -1224 858 -407 858 1581 
C 858 3569 1632 4379 1946 4697 
C 1946 4704 1958 4717 1958 4736 
C 1958 4755 1939 4768 1914 4768 
C 1843 4768 1299 4296 986 3594 
C 666 2887 576 2199 576 1588 
C 576 1128 621 351 1005 -471 
C 1312 -1135 1837 -1600 1914 -1600 
C 1946 -1600 1958 -1587 1958 -1561 
z
" transform="scale(0.015625)"/>
       <path id="CMMI12-7a" d="M 813 486 
C 1088 803 1312 1004 1632 1296 
C 2016 1632 2182 1793 2272 1891 
C 2720 2338 2944 2713 2944 2764 
C 2944 2816 2893 2816 2880 2816 
C 2835 2816 2822 2793 2790 2750 
C 2630 2494 2477 2367 2310 2367 
C 2176 2367 2106 2421 1984 2565 
C 1850 2715 1741 2816 1555 2816 
C 1088 2816 806 2257 806 2128 
C 806 2108 813 2068 870 2068 
C 922 2068 928 2091 947 2133 
C 1056 2372 1363 2414 1485 2414 
C 1619 2414 1747 2376 1882 2327 
C 2125 2240 2227 2240 2291 2240 
C 2336 2240 2362 2240 2394 2246 
C 2182 1994 1837 1683 1549 1418 
L 902 816 
C 512 415 275 33 275 -12 
C 275 -51 307 -64 346 -64 
C 384 -64 390 -57 435 14 
C 538 163 742 384 979 384 
C 1114 384 1178 342 1306 193 
C 1427 61 1536 -64 1741 -64 
C 2368 -64 2726 732 2726 876 
C 2726 903 2720 942 2656 942 
C 2605 942 2598 917 2579 855 
C 2438 488 2061 338 1811 338 
C 1677 338 1549 376 1414 425 
C 1158 512 1088 512 1005 512 
C 941 512 870 512 813 486 
z
" transform="scale(0.015625)"/>
       <path id="CMR17-29" d="M 1683 1581 
C 1683 2040 1638 2817 1254 3639 
C 947 4303 422 4768 346 4768 
C 326 4768 301 4761 301 4729 
C 301 4717 307 4710 314 4697 
C 621 4378 1402 3568 1402 1584 
C 1402 -407 627 -1217 314 -1537 
C 307 -1549 301 -1556 301 -1568 
C 301 -1600 326 -1600 346 -1600 
C 416 -1600 960 -1128 1274 -426 
C 1594 281 1683 969 1683 1581 
z
" transform="scale(0.015625)"/>
       <path id="CMMI12-3d" d="M 2746 4562 
C 2746 4569 2784 4666 2784 4678 
C 2784 4755 2720 4800 2669 4800 
C 2637 4800 2579 4800 2528 4659 
L 384 -1363 
C 384 -1370 346 -1465 346 -1478 
C 346 -1555 410 -1600 461 -1600 
C 499 -1600 557 -1593 602 -1459 
L 2746 4562 
z
" transform="scale(0.015625)"/>
      </defs>
      <use xlink:href="#CMMI12-53" transform="scale(0.996264)"/>
      <use xlink:href="#CMR17-30" transform="translate(59.994488 -14.943915) scale(0.697382)"/>
      <use xlink:href="#CMR17-28" transform="translate(92.475802 0) scale(0.996264)"/>
      <use xlink:href="#CMMI12-7a" transform="translate(127.75657 0) scale(0.996264)"/>
      <use xlink:href="#CMR17-29" transform="translate(177.511714 0) scale(0.996264)"/>
      <use xlink:href="#CMMI12-3d" transform="translate(212.792482 0) scale(0.996264)"/>
      <use xlink:href="#CMMI12-53" transform="translate(261.567401 0) scale(0.996264)"/>
      <use xlink:href="#CMR17-30" transform="translate(321.561889 -14.943915) scale(0.697382)"/>
      <use xlink:href="#CMR17-28" transform="translate(354.043203 0) scale(0.996264)"/>
      <use xlink:href="#CMR17-30" transform="translate(389.323971 0) scale(0.996264)"/>
      <use xlink:href="#CMR17-29" transform="translate(435.014448 0) scale(0.996264)"/>
     </g>
    </g>
   </g>
   <g id="line2d_51">
    <path d="M 35.395331 79.336884 
L 61.904422 77.675538 
L 79.871695 76.768543 
L 94.893513 76.229073 
L 108.442604 75.960466 
L 121.402604 75.926412 
L 133.773513 76.113677 
L 146.144422 76.521831 
L 158.809877 77.164304 
L 172.064422 78.062456 
L 186.791695 79.291113 
L 205.053513 81.053339 
L 248.646241 85.355319 
L 263.668059 86.552173 
L 277.511695 87.435718 
L 291.355331 88.098566 
L 306.082604 88.576336 
L 321.988059 88.863036 
L 336.715331 88.94541 
L 336.715331 88.94541 
" clip-path="url(#pc3e2bd6cea)" style="fill: none; stroke: #e50000; stroke-width: 1.5; stroke-linecap: square"/>
   </g>
   <g id="line2d_52">
    <path d="M 35.395331 79.336884 
L 50.711695 79.532621 
L 66.028059 79.951308 
L 81.638968 80.604306 
L 97.838968 81.507055 
L 115.806241 82.737727 
L 138.191695 84.509497 
L 186.49715 88.404149 
L 203.875331 89.52837 
L 219.486241 90.316259 
L 234.802604 90.866767 
L 251.002604 91.220942 
L 269.264422 91.389606 
L 294.006241 91.376524 
L 336.715331 91.254753 
L 336.715331 91.254753 
" clip-path="url(#pc3e2bd6cea)" style="fill: none; stroke: #15b01a; stroke-width: 1.5; stroke-linecap: square"/>
   </g>
   <g id="line2d_53">
    <path d="M 35.395331 79.336884 
L 53.362604 81.092952 
L 67.206241 82.227815 
L 79.282604 82.99771 
L 90.475331 83.488487 
L 101.078968 83.732032 
L 111.388059 83.750811 
L 121.991695 83.544982 
L 132.889877 83.10597 
L 144.37715 82.417324 
L 157.042604 81.431281 
L 172.064422 80.028924 
L 192.97715 77.831724 
L 232.446241 73.660249 
L 250.708059 71.977385 
L 267.202604 70.679173 
L 282.518968 69.693131 
L 297.540786 68.949689 
L 311.973513 68.454887 
L 326.406241 68.181671 
L 336.715331 68.124109 
L 336.715331 68.124109 
" clip-path="url(#pc3e2bd6cea)" style="fill: none; stroke: #069af3; stroke-width: 1.5; stroke-linecap: square"/>
   </g>
   <g id="line2d_54">
    <path d="M 35.395331 79.336884 
L 41.875331 74.430653 
L 48.060786 70.033119 
L 54.246241 65.920056 
L 60.431695 62.080389 
L 66.61715 58.496024 
L 73.09715 54.992584 
L 79.871695 51.580266 
L 86.940786 48.265926 
L 94.304422 45.053932 
L 102.25715 41.831765 
L 110.504422 38.732247 
L 119.340786 35.655424 
L 128.471695 32.713243 
L 138.191695 29.818592 
L 148.206241 27.06664 
L 158.809877 24.383363 
L 170.002604 21.785239 
L 181.489877 19.348236 
L 193.566241 17.018287 
L 205.93715 14.862099 
L 218.602604 12.882949 
L 231.562604 11.086014 
L 244.522604 9.511486 
L 257.77715 8.124628 
L 271.031695 6.958822 
L 284.580786 5.991882 
L 298.129877 5.249541 
L 311.678968 4.729998 
L 325.228059 4.432115 
L 336.715331 4.352727 
L 336.715331 4.352727 
" clip-path="url(#pc3e2bd6cea)" style="fill: none; stroke: #d1b26f; stroke-width: 1.5; stroke-linecap: square"/>
   </g>
   <g id="line2d_55">
    <path d="M 35.395331 79.336884 
L 37.45715 79.361562 
L 39.518968 79.157436 
L 41.580786 78.731295 
L 43.642604 78.096498 
L 45.998968 77.139719 
L 48.649877 75.809231 
L 51.595331 74.077506 
L 55.424422 71.542369 
L 61.020786 67.528766 
L 71.329877 60.111116 
L 76.631695 56.579429 
L 81.638968 53.506952 
L 86.351695 50.870727 
L 91.064422 48.489881 
L 95.77715 46.364806 
L 100.489877 44.492135 
L 105.202604 42.866689 
L 109.915331 41.482669 
L 114.628059 40.334377 
L 119.340786 39.416638 
L 124.053513 38.72505 
L 128.766241 38.256115 
L 133.478968 38.00731 
L 138.191695 37.977116 
L 142.904422 38.165014 
L 147.61715 38.571469 
L 152.329877 39.197882 
L 157.042604 40.046516 
L 161.755331 41.120379 
L 166.468059 42.423018 
L 171.180786 43.958214 
L 175.893513 45.729467 
L 180.606241 47.739198 
L 185.318968 49.98748 
L 190.326241 52.632788 
L 195.333513 55.528134 
L 200.929877 59.022159 
L 208.882604 64.289773 
L 216.540786 69.294841 
L 220.664422 71.714889 
L 223.904422 73.35564 
L 226.555331 74.466312 
L 228.911695 75.241777 
L 231.268059 75.791158 
L 233.624422 76.09496 
L 235.686241 76.150074 
L 237.748059 76.0063 
L 240.104422 75.603405 
L 242.460786 74.959561 
L 244.81715 74.096133 
L 247.468059 72.895813 
L 250.708059 71.159933 
L 254.53715 68.829619 
L 259.838968 65.315814 
L 272.798968 56.629959 
L 278.395331 53.198745 
L 283.402604 50.379838 
L 288.409877 47.81885 
L 293.122604 45.651197 
L 297.835331 43.719895 
L 302.548059 42.022869 
L 307.260786 40.556537 
L 311.973513 39.316747 
L 316.686241 38.299374 
L 321.398968 37.500684 
L 326.111695 36.917559 
L 330.824422 36.547633 
L 335.53715 36.38937 
L 336.715331 36.38278 
L 336.715331 36.38278 
" clip-path="url(#pc3e2bd6cea)" style="fill: none; stroke: #029386; stroke-width: 1.5; stroke-linecap: square"/>
   </g>
   <g id="patch_3">
    <path d="M 35.395331 95.76 
L 35.395331 -0 
" style="fill: none; stroke: #000000; stroke-width: 0.8; stroke-linejoin: miter; stroke-linecap: square"/>
   </g>
   <g id="patch_4">
    <path d="M 336.715331 95.76 
L 336.715331 -0 
" style="fill: none; stroke: #000000; stroke-width: 0.8; stroke-linejoin: miter; stroke-linecap: square"/>
   </g>
   <g id="patch_5">
    <path d="M 35.395331 95.76 
L 336.715331 95.76 
" style="fill: none; stroke: #000000; stroke-width: 0.8; stroke-linejoin: miter; stroke-linecap: square"/>
   </g>
   <g id="patch_6">
    <path d="M 35.395331 -0 
L 336.715331 -0 
" style="fill: none; stroke: #000000; stroke-width: 0.8; stroke-linejoin: miter; stroke-linecap: square"/>
   </g>
   <g id="legend_1">
    <g id="patch_7">
     <path d="M 246.724406 69.91731 
L 330.415331 69.91731 
Q 332.215331 69.91731 332.215331 68.11731 
L 332.215331 6.3 
Q 332.215331 4.5 330.415331 4.5 
L 246.724406 4.5 
Q 244.924406 4.5 244.924406 6.3 
L 244.924406 68.11731 
Q 244.924406 69.91731 246.724406 69.91731 
z
" style="fill: #ffffff; opacity: 0.8; stroke: #cccccc; stroke-linejoin: miter"/>
    </g>
    <g id="line2d_56">
     <path d="M 248.524406 11.25 
L 266.524406 11.25 
L 284.524406 11.25 
" style="fill: none; stroke: #e50000; stroke-width: 1.5; stroke-linecap: square"/>
    </g>
    <g id="text_10">
     <!-- $\beta=2.0$ -->
     <g transform="translate(291.724406 14.4) scale(0.09 -0.09)">
      <defs>
       <path id="CMMI12-c" d="M 3622 3701 
C 3622 4081 3296 4480 2714 4480 
C 1888 4480 1363 3477 1197 2816 
L 186 -1172 
C 173 -1223 211 -1236 243 -1236 
C 288 -1236 320 -1230 326 -1198 
L 774 586 
C 838 229 1190 -64 1568 -64 
C 2483 -64 3347 650 3347 1599 
C 3347 1841 3290 2083 3155 2287 
C 3078 2408 2982 2497 2880 2574 
C 3341 2815 3622 3200 3622 3701 
z
M 2509 2580 
C 2406 2542 2304 2529 2182 2529 
C 2093 2529 2010 2523 1894 2561 
C 1958 2606 2054 2618 2189 2618 
C 2304 2618 2419 2606 2509 2580 
z
M 3290 3758 
C 3290 3410 3117 2903 2701 2669 
C 2579 2718 2413 2752 2272 2752 
C 2138 2752 1754 2752 1754 2555 
C 1754 2389 2106 2389 2214 2389 
C 2381 2389 2528 2432 2682 2484 
C 2886 2318 2976 2101 2976 1783 
C 2976 1413 2874 1115 2752 841 
C 2541 369 2042 64 1600 64 
C 1133 64 890 432 890 864 
C 890 922 890 1005 915 1099 
L 1331 2771 
C 1542 3603 2080 4353 2701 4353 
C 3162 4353 3290 4036 3290 3758 
z
" transform="scale(0.015625)"/>
       <path id="CMR17-3d" d="M 4115 2017 
C 4211 2017 4307 2017 4307 2125 
C 4307 2240 4198 2240 4090 2240 
L 512 2240 
C 403 2240 294 2240 294 2125 
C 294 2017 390 2017 486 2017 
L 4115 2017 
z
M 4090 896 
C 4198 896 4307 896 4307 1011 
C 4307 1119 4211 1119 4115 1119 
L 486 1119 
C 390 1119 294 1119 294 1011 
C 294 896 403 896 512 896 
L 4090 896 
z
" transform="scale(0.015625)"/>
      </defs>
      <use xlink:href="#CMMI12-c" transform="scale(0.996264)"/>
      <use xlink:href="#CMR17-3d" transform="translate(88.268024 0) scale(0.996264)"/>
      <use xlink:href="#CMR17-32" transform="translate(187.656822 0) scale(0.996264)"/>
      <use xlink:href="#CMMI12-3a" transform="translate(233.347299 0) scale(0.996264)"/>
      <use xlink:href="#CMR17-30" transform="translate(260.444476 0) scale(0.996264)"/>
     </g>
    </g>
    <g id="line2d_57">
     <path d="M 248.524406 23.793462 
L 266.524406 23.793462 
L 284.524406 23.793462 
" style="fill: none; stroke: #15b01a; stroke-width: 1.5; stroke-linecap: square"/>
    </g>
    <g id="text_11">
     <!-- $\beta=1.0$ -->
     <g transform="translate(291.724406 26.943462) scale(0.09 -0.09)">
      <use xlink:href="#CMMI12-c" transform="scale(0.996264)"/>
      <use xlink:href="#CMR17-3d" transform="translate(88.268024 0) scale(0.996264)"/>
      <use xlink:href="#CMR17-31" transform="translate(187.656822 0) scale(0.996264)"/>
      <use xlink:href="#CMMI12-3a" transform="translate(233.347299 0) scale(0.996264)"/>
      <use xlink:href="#CMR17-30" transform="translate(260.444476 0) scale(0.996264)"/>
     </g>
    </g>
    <g id="line2d_58">
     <path d="M 248.524406 36.336924 
L 266.524406 36.336924 
L 284.524406 36.336924 
" style="fill: none; stroke: #069af3; stroke-width: 1.5; stroke-linecap: square"/>
    </g>
    <g id="text_12">
     <!-- $\beta=0.0$ -->
     <g transform="translate(291.724406 39.486924) scale(0.09 -0.09)">
      <use xlink:href="#CMMI12-c" transform="scale(0.996264)"/>
      <use xlink:href="#CMR17-3d" transform="translate(88.268024 0) scale(0.996264)"/>
      <use xlink:href="#CMR17-30" transform="translate(187.656822 0) scale(0.996264)"/>
      <use xlink:href="#CMMI12-3a" transform="translate(233.347299 0) scale(0.996264)"/>
      <use xlink:href="#CMR17-30" transform="translate(260.444476 0) scale(0.996264)"/>
     </g>
    </g>
    <g id="line2d_59">
     <path d="M 248.524406 48.880386 
L 266.524406 48.880386 
L 284.524406 48.880386 
" style="fill: none; stroke: #d1b26f; stroke-width: 1.5; stroke-linecap: square"/>
    </g>
    <g id="text_13">
     <!-- $\beta=-1.0$ -->
     <g transform="translate(291.724406 52.030386) scale(0.09 -0.09)">
      <defs>
       <path id="CMSY10-0" d="M 4218 1472 
C 4326 1472 4442 1472 4442 1600 
C 4442 1728 4326 1728 4218 1728 
L 755 1728 
C 646 1728 531 1728 531 1600 
C 531 1472 646 1472 755 1472 
L 4218 1472 
z
" transform="scale(0.015625)"/>
      </defs>
      <use xlink:href="#CMMI12-c" transform="scale(0.996264)"/>
      <use xlink:href="#CMR17-3d" transform="translate(88.268024 0) scale(0.996264)"/>
      <use xlink:href="#CMSY10-0" transform="translate(187.656822 0) scale(0.996264)"/>
      <use xlink:href="#CMR17-31" transform="translate(265.144289 0) scale(0.996264)"/>
      <use xlink:href="#CMMI12-3a" transform="translate(310.834766 0) scale(0.996264)"/>
      <use xlink:href="#CMR17-30" transform="translate(337.931943 0) scale(0.996264)"/>
     </g>
    </g>
    <g id="line2d_60">
     <path d="M 248.524406 61.423848 
L 266.524406 61.423848 
L 284.524406 61.423848 
" style="fill: none; stroke: #029386; stroke-width: 1.5; stroke-linecap: square"/>
    </g>
    <g id="text_14">
     <!-- $\beta=-2.0$ -->
     <g transform="translate(291.724406 64.573848) scale(0.09 -0.09)">
      <use xlink:href="#CMMI12-c" transform="scale(0.996264)"/>
      <use xlink:href="#CMR17-3d" transform="translate(88.268024 0) scale(0.996264)"/>
      <use xlink:href="#CMSY10-0" transform="translate(187.656822 0) scale(0.996264)"/>
      <use xlink:href="#CMR17-32" transform="translate(265.144289 0) scale(0.996264)"/>
      <use xlink:href="#CMMI12-3a" transform="translate(310.834766 0) scale(0.996264)"/>
      <use xlink:href="#CMR17-30" transform="translate(337.931943 0) scale(0.996264)"/>
     </g>
    </g>
   </g>
  </g>
  <g id="axes_2">
   <g id="patch_8">
    <path d="M 35.395331 210.672 
L 336.715331 210.672 
L 336.715331 114.912 
L 35.395331 114.912 
z
" style="fill: #ffffff"/>
   </g>
   <g id="matplotlib.axis_3">
    <g id="xtick_7">
     <g id="line2d_61">
      <path d="M 35.395331 210.672 
L 35.395331 114.912 
" clip-path="url(#p2bc47f1f57)" style="fill: none; stroke: #b0b0b0; stroke-width: 0.8; stroke-linecap: square"/>
     </g>
     <g id="line2d_62">
      <g>
       <use xlink:href="#mf535537c4e" x="35.395331" y="210.672" style="stroke: #000000; stroke-width: 0.8"/>
      </g>
     </g>
     <g id="line2d_63">
      <g>
       <use xlink:href="#mad7ab0ad0e" x="35.395331" y="114.912" style="stroke: #000000; stroke-width: 0.8"/>
      </g>
     </g>
     <g id="text_15">
      <!-- $\mathdefault{0.0}$ -->
      <g transform="translate(27.916511 222.47418) scale(0.12 -0.12)">
       <use xlink:href="#CMR17-30" transform="scale(0.996264)"/>
       <use xlink:href="#CMMI12-3a" transform="translate(45.690477 0) scale(0.996264)"/>
       <use xlink:href="#CMR17-30" transform="translate(72.787654 0) scale(0.996264)"/>
      </g>
     </g>
    </g>
    <g id="xtick_8">
     <g id="line2d_64">
      <path d="M 95.659331 210.672 
L 95.659331 114.912 
" clip-path="url(#p2bc47f1f57)" style="fill: none; stroke: #b0b0b0; stroke-width: 0.8; stroke-linecap: square"/>
     </g>
     <g id="line2d_65">
      <g>
       <use xlink:href="#mf535537c4e" x="95.659331" y="210.672" style="stroke: #000000; stroke-width: 0.8"/>
      </g>
     </g>
     <g id="line2d_66">
      <g>
       <use xlink:href="#mad7ab0ad0e" x="95.659331" y="114.912" style="stroke: #000000; stroke-width: 0.8"/>
      </g>
     </g>
     <g id="text_16">
      <!-- $\mathdefault{0.2}$ -->
      <g transform="translate(88.180511 222.47418) scale(0.12 -0.12)">
       <use xlink:href="#CMR17-30" transform="scale(0.996264)"/>
       <use xlink:href="#CMMI12-3a" transform="translate(45.690477 0) scale(0.996264)"/>
       <use xlink:href="#CMR17-32" transform="translate(72.787654 0) scale(0.996264)"/>
      </g>
     </g>
    </g>
    <g id="xtick_9">
     <g id="line2d_67">
      <path d="M 155.923331 210.672 
L 155.923331 114.912 
" clip-path="url(#p2bc47f1f57)" style="fill: none; stroke: #b0b0b0; stroke-width: 0.8; stroke-linecap: square"/>
     </g>
     <g id="line2d_68">
      <g>
       <use xlink:href="#mf535537c4e" x="155.923331" y="210.672" style="stroke: #000000; stroke-width: 0.8"/>
      </g>
     </g>
     <g id="line2d_69">
      <g>
       <use xlink:href="#mad7ab0ad0e" x="155.923331" y="114.912" style="stroke: #000000; stroke-width: 0.8"/>
      </g>
     </g>
     <g id="text_17">
      <!-- $\mathdefault{0.4}$ -->
      <g transform="translate(148.444511 222.47418) scale(0.12 -0.12)">
       <use xlink:href="#CMR17-30" transform="scale(0.996264)"/>
       <use xlink:href="#CMMI12-3a" transform="translate(45.690477 0) scale(0.996264)"/>
       <use xlink:href="#CMR17-34" transform="translate(72.787654 0) scale(0.996264)"/>
      </g>
     </g>
    </g>
    <g id="xtick_10">
     <g id="line2d_70">
      <path d="M 216.187331 210.672 
L 216.187331 114.912 
" clip-path="url(#p2bc47f1f57)" style="fill: none; stroke: #b0b0b0; stroke-width: 0.8; stroke-linecap: square"/>
     </g>
     <g id="line2d_71">
      <g>
       <use xlink:href="#mf535537c4e" x="216.187331" y="210.672" style="stroke: #000000; stroke-width: 0.8"/>
      </g>
     </g>
     <g id="line2d_72">
      <g>
       <use xlink:href="#mad7ab0ad0e" x="216.187331" y="114.912" style="stroke: #000000; stroke-width: 0.8"/>
      </g>
     </g>
     <g id="text_18">
      <!-- $\mathdefault{0.6}$ -->
      <g transform="translate(208.708511 222.47418) scale(0.12 -0.12)">
       <use xlink:href="#CMR17-30" transform="scale(0.996264)"/>
       <use xlink:href="#CMMI12-3a" transform="translate(45.690477 0) scale(0.996264)"/>
       <use xlink:href="#CMR17-36" transform="translate(72.787654 0) scale(0.996264)"/>
      </g>
     </g>
    </g>
    <g id="xtick_11">
     <g id="line2d_73">
      <path d="M 276.451331 210.672 
L 276.451331 114.912 
" clip-path="url(#p2bc47f1f57)" style="fill: none; stroke: #b0b0b0; stroke-width: 0.8; stroke-linecap: square"/>
     </g>
     <g id="line2d_74">
      <g>
       <use xlink:href="#mf535537c4e" x="276.451331" y="210.672" style="stroke: #000000; stroke-width: 0.8"/>
      </g>
     </g>
     <g id="line2d_75">
      <g>
       <use xlink:href="#mad7ab0ad0e" x="276.451331" y="114.912" style="stroke: #000000; stroke-width: 0.8"/>
      </g>
     </g>
     <g id="text_19">
      <!-- $\mathdefault{0.8}$ -->
      <g transform="translate(268.972511 222.47418) scale(0.12 -0.12)">
       <use xlink:href="#CMR17-30" transform="scale(0.996264)"/>
       <use xlink:href="#CMMI12-3a" transform="translate(45.690477 0) scale(0.996264)"/>
       <use xlink:href="#CMR17-38" transform="translate(72.787654 0) scale(0.996264)"/>
      </g>
     </g>
    </g>
    <g id="xtick_12">
     <g id="line2d_76">
      <path d="M 336.715331 210.672 
L 336.715331 114.912 
" clip-path="url(#p2bc47f1f57)" style="fill: none; stroke: #b0b0b0; stroke-width: 0.8; stroke-linecap: square"/>
     </g>
     <g id="line2d_77">
      <g>
       <use xlink:href="#mf535537c4e" x="336.715331" y="210.672" style="stroke: #000000; stroke-width: 0.8"/>
      </g>
     </g>
     <g id="line2d_78">
      <g>
       <use xlink:href="#mad7ab0ad0e" x="336.715331" y="114.912" style="stroke: #000000; stroke-width: 0.8"/>
      </g>
     </g>
     <g id="text_20">
      <!-- $\mathdefault{1.0}$ -->
      <g transform="translate(329.236511 222.47418) scale(0.12 -0.12)">
       <use xlink:href="#CMR17-31" transform="scale(0.996264)"/>
       <use xlink:href="#CMMI12-3a" transform="translate(45.690477 0) scale(0.996264)"/>
       <use xlink:href="#CMR17-30" transform="translate(72.787654 0) scale(0.996264)"/>
      </g>
     </g>
    </g>
    <g id="text_21">
     <!-- $z/L$ -->
     <g transform="translate(176.161282 237.765152) scale(0.12 -0.12)">
      <defs>
       <path id="CMMI12-4c" d="M 2349 3861 
C 2406 4103 2426 4167 2989 4167 
C 3162 4167 3206 4167 3206 4288 
C 3206 4352 3136 4352 3110 4352 
C 2982 4352 2835 4352 2707 4352 
L 1850 4352 
C 1728 4352 1587 4352 1466 4352 
C 1414 4352 1344 4352 1344 4231 
C 1344 4167 1402 4167 1498 4167 
C 1888 4167 1888 4116 1888 4046 
C 1888 4034 1888 3995 1862 3899 
L 998 472 
C 941 249 928 185 480 185 
C 358 185 294 185 294 70 
C 294 0 333 0 461 0 
L 3328 0 
C 3469 0 3475 6 3520 121 
L 4013 1478 
C 4026 1510 4038 1548 4038 1567 
C 4038 1605 4006 1631 3974 1631 
C 3968 1631 3936 1631 3923 1605 
C 3910 1599 3910 1586 3859 1465 
C 3654 905 3366 185 2285 185 
L 1670 185 
C 1581 185 1568 185 1530 192 
C 1459 198 1453 211 1453 262 
C 1453 307 1466 345 1478 401 
L 2349 3861 
z
" transform="scale(0.015625)"/>
      </defs>
      <use xlink:href="#CMMI12-7a" transform="scale(0.996264)"/>
      <use xlink:href="#CMMI12-3d" transform="translate(49.755145 0) scale(0.996264)"/>
      <use xlink:href="#CMMI12-4c" transform="translate(98.530064 0) scale(0.996264)"/>
     </g>
    </g>
   </g>
   <g id="matplotlib.axis_4">
    <g id="ytick_16">
     <g id="line2d_79">
      <path d="M 35.395331 208.392 
L 336.715331 208.392 
" clip-path="url(#p2bc47f1f57)" style="fill: none; stroke: #b0b0b0; stroke-width: 0.8; stroke-linecap: square"/>
     </g>
     <g id="line2d_80">
      <g>
       <use xlink:href="#mdd25dd0f74" x="35.395331" y="208.392" style="stroke: #000000; stroke-width: 0.8"/>
      </g>
     </g>
     <g id="line2d_81">
      <g>
       <use xlink:href="#mb94d9e7eeb" x="336.715331" y="208.392" style="stroke: #000000; stroke-width: 0.8"/>
      </g>
     </g>
     <g id="text_22">
      <!-- $\mathdefault{−1}$ -->
      <g transform="translate(16.743852 212.54309) scale(0.12 -0.12)">
       <use xlink:href="#CMSY10-0" transform="scale(0.996264)"/>
       <use xlink:href="#CMR17-31" transform="translate(77.487468 0) scale(0.996264)"/>
      </g>
     </g>
    </g>
    <g id="ytick_17">
     <g id="line2d_82">
      <path d="M 35.395331 162.792 
L 336.715331 162.792 
" clip-path="url(#p2bc47f1f57)" style="fill: none; stroke: #b0b0b0; stroke-width: 0.8; stroke-linecap: square"/>
     </g>
     <g id="line2d_83">
      <g>
       <use xlink:href="#mdd25dd0f74" x="35.395331" y="162.792" style="stroke: #000000; stroke-width: 0.8"/>
      </g>
     </g>
     <g id="line2d_84">
      <g>
       <use xlink:href="#mb94d9e7eeb" x="336.715331" y="162.792" style="stroke: #000000; stroke-width: 0.8"/>
      </g>
     </g>
     <g id="text_23">
      <!-- $\mathdefault{0}$ -->
      <g transform="translate(26.042341 166.94309) scale(0.12 -0.12)">
       <use xlink:href="#CMR17-30" transform="scale(0.996264)"/>
      </g>
     </g>
    </g>
    <g id="ytick_18">
     <g id="line2d_85">
      <path d="M 35.395331 117.192 
L 336.715331 117.192 
" clip-path="url(#p2bc47f1f57)" style="fill: none; stroke: #b0b0b0; stroke-width: 0.8; stroke-linecap: square"/>
     </g>
     <g id="line2d_86">
      <g>
       <use xlink:href="#mdd25dd0f74" x="35.395331" y="117.192" style="stroke: #000000; stroke-width: 0.8"/>
      </g>
     </g>
     <g id="line2d_87">
      <g>
       <use xlink:href="#mb94d9e7eeb" x="336.715331" y="117.192" style="stroke: #000000; stroke-width: 0.8"/>
      </g>
     </g>
     <g id="text_24">
      <!-- $\mathdefault{1}$ -->
      <g transform="translate(26.042341 121.34309) scale(0.12 -0.12)">
       <use xlink:href="#CMR17-31" transform="scale(0.996264)"/>
      </g>
     </g>
    </g>
    <g id="ytick_19">
     <g id="line2d_88">
      <g>
       <use xlink:href="#mae9c505134" x="35.395331" y="199.272" style="stroke: #000000; stroke-width: 0.6"/>
      </g>
     </g>
     <g id="line2d_89">
      <g>
       <use xlink:href="#m976abc16a3" x="336.715331" y="199.272" style="stroke: #000000; stroke-width: 0.6"/>
      </g>
     </g>
    </g>
    <g id="ytick_20">
     <g id="line2d_90">
      <g>
       <use xlink:href="#mae9c505134" x="35.395331" y="190.152" style="stroke: #000000; stroke-width: 0.6"/>
      </g>
     </g>
     <g id="line2d_91">
      <g>
       <use xlink:href="#m976abc16a3" x="336.715331" y="190.152" style="stroke: #000000; stroke-width: 0.6"/>
      </g>
     </g>
    </g>
    <g id="ytick_21">
     <g id="line2d_92">
      <g>
       <use xlink:href="#mae9c505134" x="35.395331" y="181.032" style="stroke: #000000; stroke-width: 0.6"/>
      </g>
     </g>
     <g id="line2d_93">
      <g>
       <use xlink:href="#m976abc16a3" x="336.715331" y="181.032" style="stroke: #000000; stroke-width: 0.6"/>
      </g>
     </g>
    </g>
    <g id="ytick_22">
     <g id="line2d_94">
      <g>
       <use xlink:href="#mae9c505134" x="35.395331" y="171.912" style="stroke: #000000; stroke-width: 0.6"/>
      </g>
     </g>
     <g id="line2d_95">
      <g>
       <use xlink:href="#m976abc16a3" x="336.715331" y="171.912" style="stroke: #000000; stroke-width: 0.6"/>
      </g>
     </g>
    </g>
    <g id="ytick_23">
     <g id="line2d_96">
      <g>
       <use xlink:href="#mae9c505134" x="35.395331" y="153.672" style="stroke: #000000; stroke-width: 0.6"/>
      </g>
     </g>
     <g id="line2d_97">
      <g>
       <use xlink:href="#m976abc16a3" x="336.715331" y="153.672" style="stroke: #000000; stroke-width: 0.6"/>
      </g>
     </g>
    </g>
    <g id="ytick_24">
     <g id="line2d_98">
      <g>
       <use xlink:href="#mae9c505134" x="35.395331" y="144.552" style="stroke: #000000; stroke-width: 0.6"/>
      </g>
     </g>
     <g id="line2d_99">
      <g>
       <use xlink:href="#m976abc16a3" x="336.715331" y="144.552" style="stroke: #000000; stroke-width: 0.6"/>
      </g>
     </g>
    </g>
    <g id="ytick_25">
     <g id="line2d_100">
      <g>
       <use xlink:href="#mae9c505134" x="35.395331" y="135.432" style="stroke: #000000; stroke-width: 0.6"/>
      </g>
     </g>
     <g id="line2d_101">
      <g>
       <use xlink:href="#m976abc16a3" x="336.715331" y="135.432" style="stroke: #000000; stroke-width: 0.6"/>
      </g>
     </g>
    </g>
    <g id="ytick_26">
     <g id="line2d_102">
      <g>
       <use xlink:href="#mae9c505134" x="35.395331" y="126.312" style="stroke: #000000; stroke-width: 0.6"/>
      </g>
     </g>
     <g id="line2d_103">
      <g>
       <use xlink:href="#m976abc16a3" x="336.715331" y="126.312" style="stroke: #000000; stroke-width: 0.6"/>
      </g>
     </g>
    </g>
    <g id="text_25">
     <!-- $S_3(z)/S_0(z)$ -->
     <g transform="translate(9.75506 192.725404) rotate(-90) scale(0.12 -0.12)">
      <defs>
       <path id="CMR17-33" d="M 1414 2157 
C 1984 2157 2234 1662 2234 1090 
C 2234 320 1824 25 1453 25 
C 1114 25 563 194 390 693 
C 422 680 454 680 486 680 
C 640 680 755 782 755 948 
C 755 1133 614 1216 486 1216 
C 378 1216 211 1165 211 926 
C 211 335 787 -128 1466 -128 
C 2176 -128 2720 430 2720 1085 
C 2720 1707 2208 2157 1600 2227 
C 2086 2328 2554 2756 2554 3329 
C 2554 3820 2048 4179 1472 4179 
C 890 4179 378 3829 378 3329 
C 378 3110 544 3072 627 3072 
C 762 3072 877 3155 877 3321 
C 877 3486 762 3569 627 3569 
C 602 3569 570 3569 544 3557 
C 730 3959 1235 4032 1459 4032 
C 1683 4032 2106 3925 2106 3320 
C 2106 3143 2080 2828 1862 2550 
C 1670 2304 1453 2304 1242 2284 
C 1210 2284 1062 2269 1037 2269 
C 992 2263 966 2257 966 2208 
C 966 2163 973 2157 1101 2157 
L 1414 2157 
z
" transform="scale(0.015625)"/>
      </defs>
      <use xlink:href="#CMMI12-53" transform="scale(0.996264)"/>
      <use xlink:href="#CMR17-33" transform="translate(59.994488 -14.943915) scale(0.697382)"/>
      <use xlink:href="#CMR17-28" transform="translate(92.475802 0) scale(0.996264)"/>
      <use xlink:href="#CMMI12-7a" transform="translate(127.75657 0) scale(0.996264)"/>
      <use xlink:href="#CMR17-29" transform="translate(177.511714 0) scale(0.996264)"/>
      <use xlink:href="#CMMI12-3d" transform="translate(212.792482 0) scale(0.996264)"/>
      <use xlink:href="#CMMI12-53" transform="translate(261.567401 0) scale(0.996264)"/>
      <use xlink:href="#CMR17-30" transform="translate(321.561889 -14.943915) scale(0.697382)"/>
      <use xlink:href="#CMR17-28" transform="translate(354.043203 0) scale(0.996264)"/>
      <use xlink:href="#CMMI12-7a" transform="translate(389.323971 0) scale(0.996264)"/>
      <use xlink:href="#CMR17-29" transform="translate(439.079116 0) scale(0.996264)"/>
     </g>
    </g>
   </g>
   <g id="line2d_104">
    <path d="M 35.395331 162.792 
L 44.231695 163.779526 
L 53.068059 164.544668 
L 62.198968 165.115036 
L 71.918968 165.49902 
L 82.522604 165.689925 
L 94.304422 165.671776 
L 107.853513 165.41779 
L 123.464422 164.89612 
L 140.842604 164.093939 
L 157.631695 163.104558 
L 172.064422 162.040312 
L 184.435331 160.913021 
L 195.628059 159.670458 
L 205.93715 158.299064 
L 215.65715 156.779872 
L 225.082604 155.083815 
L 234.802604 153.107194 
L 245.406241 150.714855 
L 258.366241 147.548021 
L 284.580786 141.08274 
L 294.006241 139.034168 
L 301.958968 137.528245 
L 309.322604 136.358734 
L 316.09715 135.500916 
L 322.57715 134.893883 
L 329.05715 134.507747 
L 335.53715 134.350006 
L 336.715331 134.346173 
L 336.715331 134.346173 
" clip-path="url(#p2bc47f1f57)" style="fill: none; stroke: #e50000; stroke-width: 1.5; stroke-linecap: square"/>
   </g>
   <g id="line2d_105">
    <path d="M 35.395331 162.792 
L 68.973513 161.49737 
L 124.053513 159.439271 
L 139.958968 158.569534 
L 153.213513 157.628617 
L 165.289877 156.552592 
L 176.77715 155.306784 
L 187.969877 153.872069 
L 199.45715 152.177844 
L 212.122604 150.080422 
L 228.028059 147.203107 
L 262.784422 140.83943 
L 275.155331 138.854451 
L 286.053513 137.332347 
L 296.068059 136.156605 
L 305.788059 135.242036 
L 315.213513 134.582579 
L 324.344422 134.165915 
L 333.475331 133.972909 
L 336.715331 133.958672 
L 336.715331 133.958672 
" clip-path="url(#p2bc47f1f57)" style="fill: none; stroke: #15b01a; stroke-width: 1.5; stroke-linecap: square"/>
   </g>
   <g id="line2d_106">
    <path d="M 35.395331 162.792 
L 336.715331 162.792 
L 336.715331 162.792 
" clip-path="url(#p2bc47f1f57)" style="fill: none; stroke: #069af3; stroke-width: 1.5; stroke-linecap: square"/>
   </g>
   <g id="line2d_107">
    <path d="M 35.395331 162.792 
L 38.635331 158.871114 
L 41.875331 155.302374 
L 45.115331 152.058945 
L 48.355331 149.11185 
L 51.889877 146.201082 
L 55.424422 143.573671 
L 59.253513 141.010037 
L 63.082604 138.705334 
L 67.206241 136.476919 
L 71.624422 134.343876 
L 76.33715 132.320387 
L 81.344422 130.416467 
L 86.646241 128.638751 
L 92.242604 126.991266 
L 98.428059 125.405683 
L 104.908059 123.972448 
L 111.97715 122.637248 
L 119.635331 121.421664 
L 127.882604 120.342842 
L 136.718968 119.413891 
L 146.438968 118.623322 
L 156.748059 118.009281 
L 168.235331 117.552743 
L 180.900786 117.277236 
L 195.333513 117.192786 
L 212.41715 117.324813 
L 234.802604 117.73562 
L 308.438968 119.253945 
L 332.002604 119.418453 
L 336.715331 119.423243 
L 336.715331 119.423243 
" clip-path="url(#p2bc47f1f57)" style="fill: none; stroke: #d1b26f; stroke-width: 1.5; stroke-linecap: square"/>
   </g>
   <g id="line2d_108">
    <path d="M 35.395331 162.792 
L 36.868059 162.997853 
L 38.340786 163.415381 
L 39.813513 164.036095 
L 41.580786 165.028555 
L 43.642604 166.483947 
L 45.998968 168.458386 
L 48.944422 171.237314 
L 59.548059 181.53817 
L 62.788059 184.263021 
L 66.028059 186.694556 
L 69.268059 188.834098 
L 72.508059 190.699361 
L 75.748059 192.315939 
L 79.282604 193.828884 
L 83.111695 195.212919 
L 87.235331 196.452571 
L 91.653513 197.540681 
L 96.366241 198.476336 
L 101.668059 199.303105 
L 107.558968 199.995141 
L 114.038968 200.53381 
L 121.402604 200.914161 
L 129.060786 201.087045 
L 137.013513 201.04786 
L 144.966241 200.786836 
L 152.329877 200.329796 
L 159.104422 199.696081 
L 165.289877 198.90103 
L 170.886241 197.962081 
L 175.893513 196.90355 
L 180.606241 195.675866 
L 184.729877 194.378579 
L 188.558968 192.951377 
L 192.093513 191.41105 
L 195.628059 189.623589 
L 198.868059 187.739027 
L 202.108059 185.593152 
L 205.348059 183.165333 
L 208.588059 180.445103 
L 211.828059 177.440471 
L 215.65715 173.576803 
L 225.966241 162.917982 
L 228.322604 160.9034 
L 230.384422 159.431609 
L 232.151695 158.433748 
L 233.918968 157.711298 
L 235.391695 157.33493 
L 236.864422 157.170637 
L 238.33715 157.218968 
L 239.809877 157.474849 
L 241.57715 158.041053 
L 243.344422 158.864894 
L 245.406241 160.107218 
L 247.762604 161.824425 
L 250.708059 164.282382 
L 255.715331 168.822273 
L 261.311695 173.810287 
L 265.140786 176.932033 
L 268.675331 179.53689 
L 272.209877 181.863979 
L 275.744422 183.921766 
L 279.278968 185.729155 
L 283.108059 187.431773 
L 286.93715 188.898884 
L 291.060786 190.249043 
L 295.478968 191.46745 
L 300.191695 192.544857 
L 305.493513 193.524741 
L 311.089877 194.33375 
L 317.275331 194.99989 
L 323.755331 195.4767 
L 330.824422 195.768703 
L 336.715331 195.843426 
L 336.715331 195.843426 
" clip-path="url(#p2bc47f1f57)" style="fill: none; stroke: #029386; stroke-width: 1.5; stroke-linecap: square"/>
   </g>
   <g id="patch_9">
    <path d="M 35.395331 210.672 
L 35.395331 114.912 
" style="fill: none; stroke: #000000; stroke-width: 0.8; stroke-linejoin: miter; stroke-linecap: square"/>
   </g>
   <g id="patch_10">
    <path d="M 336.715331 210.672 
L 336.715331 114.912 
" style="fill: none; stroke: #000000; stroke-width: 0.8; stroke-linejoin: miter; stroke-linecap: square"/>
   </g>
   <g id="patch_11">
    <path d="M 35.395331 210.672 
L 336.715331 210.672 
" style="fill: none; stroke: #000000; stroke-width: 0.8; stroke-linejoin: miter; stroke-linecap: square"/>
   </g>
   <g id="patch_12">
    <path d="M 35.395331 114.912 
L 336.715331 114.912 
" style="fill: none; stroke: #000000; stroke-width: 0.8; stroke-linejoin: miter; stroke-linecap: square"/>
   </g>
   <g id="legend_2">
    <g id="patch_13">
     <path d="M 246.724406 184.82931 
L 330.415331 184.82931 
Q 332.215331 184.82931 332.215331 183.02931 
L 332.215331 121.212 
Q 332.215331 119.412 330.415331 119.412 
L 246.724406 119.412 
Q 244.924406 119.412 244.924406 121.212 
L 244.924406 183.02931 
Q 244.924406 184.82931 246.724406 184.82931 
z
" style="fill: #ffffff; opacity: 0.8; stroke: #cccccc; stroke-linejoin: miter"/>
    </g>
    <g id="line2d_109">
     <path d="M 248.524406 126.162 
L 266.524406 126.162 
L 284.524406 126.162 
" style="fill: none; stroke: #e50000; stroke-width: 1.5; stroke-linecap: square"/>
    </g>
    <g id="text_26">
     <!-- $\beta=2.0$ -->
     <g transform="translate(291.724406 129.312) scale(0.09 -0.09)">
      <use xlink:href="#CMMI12-c" transform="scale(0.996264)"/>
      <use xlink:href="#CMR17-3d" transform="translate(88.268024 0) scale(0.996264)"/>
      <use xlink:href="#CMR17-32" transform="translate(187.656822 0) scale(0.996264)"/>
      <use xlink:href="#CMMI12-3a" transform="translate(233.347299 0) scale(0.996264)"/>
      <use xlink:href="#CMR17-30" transform="translate(260.444476 0) scale(0.996264)"/>
     </g>
    </g>
    <g id="line2d_110">
     <path d="M 248.524406 138.705462 
L 266.524406 138.705462 
L 284.524406 138.705462 
" style="fill: none; stroke: #15b01a; stroke-width: 1.5; stroke-linecap: square"/>
    </g>
    <g id="text_27">
     <!-- $\beta=1.0$ -->
     <g transform="translate(291.724406 141.855462) scale(0.09 -0.09)">
      <use xlink:href="#CMMI12-c" transform="scale(0.996264)"/>
      <use xlink:href="#CMR17-3d" transform="translate(88.268024 0) scale(0.996264)"/>
      <use xlink:href="#CMR17-31" transform="translate(187.656822 0) scale(0.996264)"/>
      <use xlink:href="#CMMI12-3a" transform="translate(233.347299 0) scale(0.996264)"/>
      <use xlink:href="#CMR17-30" transform="translate(260.444476 0) scale(0.996264)"/>
     </g>
    </g>
    <g id="line2d_111">
     <path d="M 248.524406 151.248924 
L 266.524406 151.248924 
L 284.524406 151.248924 
" style="fill: none; stroke: #069af3; stroke-width: 1.5; stroke-linecap: square"/>
    </g>
    <g id="text_28">
     <!-- $\beta=0.0$ -->
     <g transform="translate(291.724406 154.398924) scale(0.09 -0.09)">
      <use xlink:href="#CMMI12-c" transform="scale(0.996264)"/>
      <use xlink:href="#CMR17-3d" transform="translate(88.268024 0) scale(0.996264)"/>
      <use xlink:href="#CMR17-30" transform="translate(187.656822 0) scale(0.996264)"/>
      <use xlink:href="#CMMI12-3a" transform="translate(233.347299 0) scale(0.996264)"/>
      <use xlink:href="#CMR17-30" transform="translate(260.444476 0) scale(0.996264)"/>
     </g>
    </g>
    <g id="line2d_112">
     <path d="M 248.524406 163.792386 
L 266.524406 163.792386 
L 284.524406 163.792386 
" style="fill: none; stroke: #d1b26f; stroke-width: 1.5; stroke-linecap: square"/>
    </g>
    <g id="text_29">
     <!-- $\beta=-1.0$ -->
     <g transform="translate(291.724406 166.942386) scale(0.09 -0.09)">
      <use xlink:href="#CMMI12-c" transform="scale(0.996264)"/>
      <use xlink:href="#CMR17-3d" transform="translate(88.268024 0) scale(0.996264)"/>
      <use xlink:href="#CMSY10-0" transform="translate(187.656822 0) scale(0.996264)"/>
      <use xlink:href="#CMR17-31" transform="translate(265.144289 0) scale(0.996264)"/>
      <use xlink:href="#CMMI12-3a" transform="translate(310.834766 0) scale(0.996264)"/>
      <use xlink:href="#CMR17-30" transform="translate(337.931943 0) scale(0.996264)"/>
     </g>
    </g>
    <g id="line2d_113">
     <path d="M 248.524406 176.335848 
L 266.524406 176.335848 
L 284.524406 176.335848 
" style="fill: none; stroke: #029386; stroke-width: 1.5; stroke-linecap: square"/>
    </g>
    <g id="text_30">
     <!-- $\beta=-2.0$ -->
     <g transform="translate(291.724406 179.485848) scale(0.09 -0.09)">
      <use xlink:href="#CMMI12-c" transform="scale(0.996264)"/>
      <use xlink:href="#CMR17-3d" transform="translate(88.268024 0) scale(0.996264)"/>
      <use xlink:href="#CMSY10-0" transform="translate(187.656822 0) scale(0.996264)"/>
      <use xlink:href="#CMR17-32" transform="translate(265.144289 0) scale(0.996264)"/>
      <use xlink:href="#CMMI12-3a" transform="translate(310.834766 0) scale(0.996264)"/>
      <use xlink:href="#CMR17-30" transform="translate(337.931943 0) scale(0.996264)"/>
     </g>
    </g>
   </g>
  </g>
 </g>
 <defs>
  <clipPath id="pc3e2bd6cea">
   <rect x="35.395331" y="-0" width="301.32" height="95.76"/>
  </clipPath>
  <clipPath id="p2bc47f1f57">
   <rect x="35.395331" y="114.912" width="301.32" height="95.76"/>
  </clipPath>
 </defs>
</svg>
