<?xml version="1.0" encoding="utf-8" standalone="no"?>
<!DOCTYPE svg PUBLIC "-//W3C//DTD SVG 1.1//EN"
  "http://www.w3.org/Graphics/SVG/1.1/DTD/svg11.dtd">
<svg xmlns:xlink="http://www.w3.org/1999/xlink" width="337.223694pt" height="251.841944pt" viewBox="0 0 337.223694 251.841944" xmlns="http://www.w3.org/2000/svg" version="1.1">
 <metadata>
  <rdf:RDF xmlns:dc="http://purl.org/dc/elements/1.1/" xmlns:cc="http://creativecommons.org/ns#" xmlns:rdf="http://www.w3.org/1999/02/22-rdf-syntax-ns#">
   <cc:Work>
    <dc:type rdf:resource="http://purl.org/dc/dcmitype/StillImage"/>
    <dc:date>2025-04-05T20:30:15.434976</dc:date>
    <dc:format>image/svg+xml</dc:format>
    <dc:creator>
     <cc:Agent>
      <dc:title>Matplotlib v3.10.1, https://matplotlib.org/</dc:title>
     </cc:Agent>
    </dc:creator>
   </cc:Work>
  </rdf:RDF>
 </metadata>
 <defs>
  <style type="text/css">*{stroke-linejoin: round; stroke-linecap: butt}</style>
 </defs>
 <g id="figure_1">
  <g id="patch_1">
   <path d="M 0 251.841944 
L 337.223694 251.841944 
L 337.223694 0 
L 0 0 
z
" style="fill: #ffffff"/>
  </g>
  <g id="axes_1">
   <g id="patch_2">
    <path d="M 35.903694 221.76 
L 337.223694 221.76 
L 337.223694 -0 
L 35.903694 -0 
z
" style="fill: #ffffff"/>
   </g>
   <g id="matplotlib.axis_1">
    <g id="xtick_1">
     <g id="line2d_1">
      <path d="M 57.426551 221.76 
L 57.426551 -0 
" clip-path="url(#p75b1672834)" style="fill: none; stroke: #b0b0b0; stroke-width: 0.8; stroke-linecap: square"/>
     </g>
     <g id="line2d_2">
      <defs>
       <path id="md1acf53318" d="M 0 0 
L 0 -3.5 
" style="stroke: #000000; stroke-width: 0.8"/>
      </defs>
      <g>
       <use xlink:href="#md1acf53318" x="57.426551" y="221.76" style="stroke: #000000; stroke-width: 0.8"/>
      </g>
     </g>
     <g id="text_1">
      <!-- $\mathdefault{−6}$ -->
      <g transform="translate(49.850812 233.56218) scale(0.12 -0.12)">
       <defs>
        <path id="CMSY10-0" d="M 4218 1472 
C 4326 1472 4442 1472 4442 1600 
C 4442 1728 4326 1728 4218 1728 
L 755 1728 
C 646 1728 531 1728 531 1600 
C 531 1472 646 1472 755 1472 
L 4218 1472 
z
" transform="scale(0.015625)"/>
        <path id="CMR17-36" d="M 678 2176 
C 678 3690 1395 4032 1811 4032 
C 1946 4032 2272 4009 2400 3776 
C 2298 3776 2106 3776 2106 3553 
C 2106 3381 2246 3323 2336 3323 
C 2394 3323 2566 3348 2566 3560 
C 2566 3954 2246 4179 1805 4179 
C 1043 4179 243 3390 243 1984 
C 243 253 966 -128 1478 -128 
C 2099 -128 2688 427 2688 1283 
C 2688 2081 2170 2662 1517 2662 
C 1126 2662 838 2407 678 1960 
L 678 2176 
z
M 1478 25 
C 691 25 691 1200 691 1436 
C 691 1896 909 2560 1504 2560 
C 1613 2560 1926 2560 2138 2120 
C 2253 1870 2253 1609 2253 1289 
C 2253 944 2253 690 2118 434 
C 1978 171 1773 25 1478 25 
z
" transform="scale(0.015625)"/>
       </defs>
       <use xlink:href="#CMSY10-0" transform="scale(0.996264)"/>
       <use xlink:href="#CMR17-36" transform="translate(77.487468 0) scale(0.996264)"/>
      </g>
     </g>
    </g>
    <g id="xtick_2">
     <g id="line2d_3">
      <path d="M 100.472266 221.76 
L 100.472266 -0 
" clip-path="url(#p75b1672834)" style="fill: none; stroke: #b0b0b0; stroke-width: 0.8; stroke-linecap: square"/>
     </g>
     <g id="line2d_4">
      <g>
       <use xlink:href="#md1acf53318" x="100.472266" y="221.76" style="stroke: #000000; stroke-width: 0.8"/>
      </g>
     </g>
     <g id="text_2">
      <!-- $\mathdefault{−4}$ -->
      <g transform="translate(92.896526 233.56218) scale(0.12 -0.12)">
       <defs>
        <path id="CMR17-34" d="M 2150 4122 
C 2150 4256 2144 4256 2029 4256 
L 128 1254 
L 128 1088 
L 1779 1088 
L 1779 457 
C 1779 224 1766 160 1318 160 
L 1197 160 
L 1197 0 
C 1402 0 1747 0 1965 0 
C 2182 0 2528 0 2733 0 
L 2733 160 
L 2611 160 
C 2163 160 2150 224 2150 457 
L 2150 1088 
L 2803 1088 
L 2803 1254 
L 2150 1254 
L 2150 4122 
z
M 1798 3703 
L 1798 1254 
L 256 1254 
L 1798 3703 
z
" transform="scale(0.015625)"/>
       </defs>
       <use xlink:href="#CMSY10-0" transform="scale(0.996264)"/>
       <use xlink:href="#CMR17-34" transform="translate(77.487468 0) scale(0.996264)"/>
      </g>
     </g>
    </g>
    <g id="xtick_3">
     <g id="line2d_5">
      <path d="M 143.51798 221.76 
L 143.51798 -0 
" clip-path="url(#p75b1672834)" style="fill: none; stroke: #b0b0b0; stroke-width: 0.8; stroke-linecap: square"/>
     </g>
     <g id="line2d_6">
      <g>
       <use xlink:href="#md1acf53318" x="143.51798" y="221.76" style="stroke: #000000; stroke-width: 0.8"/>
      </g>
     </g>
     <g id="text_3">
      <!-- $\mathdefault{−2}$ -->
      <g transform="translate(135.94224 233.56218) scale(0.12 -0.12)">
       <defs>
        <path id="CMR17-32" d="M 2669 989 
L 2554 989 
C 2490 536 2438 459 2413 420 
C 2381 369 1920 369 1830 369 
L 602 369 
C 832 619 1280 1072 1824 1597 
C 2214 1967 2669 2402 2669 3035 
C 2669 3790 2067 4224 1395 4224 
C 691 4224 262 3604 262 3030 
C 262 2780 448 2748 525 2748 
C 589 2748 781 2787 781 3010 
C 781 3207 614 3264 525 3264 
C 486 3264 448 3258 422 3245 
C 544 3790 915 4058 1306 4058 
C 1862 4058 2227 3617 2227 3035 
C 2227 2479 1901 2000 1536 1584 
L 262 146 
L 262 0 
L 2515 0 
L 2669 989 
z
" transform="scale(0.015625)"/>
       </defs>
       <use xlink:href="#CMSY10-0" transform="scale(0.996264)"/>
       <use xlink:href="#CMR17-32" transform="translate(77.487468 0) scale(0.996264)"/>
      </g>
     </g>
    </g>
    <g id="xtick_4">
     <g id="line2d_7">
      <path d="M 186.563694 221.76 
L 186.563694 -0 
" clip-path="url(#p75b1672834)" style="fill: none; stroke: #b0b0b0; stroke-width: 0.8; stroke-linecap: square"/>
     </g>
     <g id="line2d_8">
      <g>
       <use xlink:href="#md1acf53318" x="186.563694" y="221.76" style="stroke: #000000; stroke-width: 0.8"/>
      </g>
     </g>
     <g id="text_4">
      <!-- $\mathdefault{0}$ -->
      <g transform="translate(183.637199 233.56218) scale(0.12 -0.12)">
       <defs>
        <path id="CMR17-30" d="M 2688 2025 
C 2688 2416 2682 3080 2413 3591 
C 2176 4039 1798 4198 1466 4198 
C 1158 4198 768 4058 525 3597 
C 269 3118 243 2524 243 2025 
C 243 1661 250 1106 448 619 
C 723 -39 1216 -128 1466 -128 
C 1760 -128 2208 -7 2470 600 
C 2662 1042 2688 1559 2688 2025 
z
M 1466 -26 
C 1056 -26 813 325 723 812 
C 653 1188 653 1738 653 2096 
C 653 2588 653 2997 736 3387 
C 858 3929 1216 4096 1466 4096 
C 1728 4096 2067 3923 2189 3400 
C 2272 3036 2278 2607 2278 2096 
C 2278 1680 2278 1169 2202 792 
C 2067 95 1690 -26 1466 -26 
z
" transform="scale(0.015625)"/>
       </defs>
       <use xlink:href="#CMR17-30" transform="scale(0.996264)"/>
      </g>
     </g>
    </g>
    <g id="xtick_5">
     <g id="line2d_9">
      <path d="M 229.609409 221.76 
L 229.609409 -0 
" clip-path="url(#p75b1672834)" style="fill: none; stroke: #b0b0b0; stroke-width: 0.8; stroke-linecap: square"/>
     </g>
     <g id="line2d_10">
      <g>
       <use xlink:href="#md1acf53318" x="229.609409" y="221.76" style="stroke: #000000; stroke-width: 0.8"/>
      </g>
     </g>
     <g id="text_5">
      <!-- $\mathdefault{2}$ -->
      <g transform="translate(226.682913 233.56218) scale(0.12 -0.12)">
       <use xlink:href="#CMR17-32" transform="scale(0.996264)"/>
      </g>
     </g>
    </g>
    <g id="xtick_6">
     <g id="line2d_11">
      <path d="M 272.655123 221.76 
L 272.655123 -0 
" clip-path="url(#p75b1672834)" style="fill: none; stroke: #b0b0b0; stroke-width: 0.8; stroke-linecap: square"/>
     </g>
     <g id="line2d_12">
      <g>
       <use xlink:href="#md1acf53318" x="272.655123" y="221.76" style="stroke: #000000; stroke-width: 0.8"/>
      </g>
     </g>
     <g id="text_6">
      <!-- $\mathdefault{4}$ -->
      <g transform="translate(269.728628 233.56218) scale(0.12 -0.12)">
       <use xlink:href="#CMR17-34" transform="scale(0.996264)"/>
      </g>
     </g>
    </g>
    <g id="xtick_7">
     <g id="line2d_13">
      <path d="M 315.700837 221.76 
L 315.700837 -0 
" clip-path="url(#p75b1672834)" style="fill: none; stroke: #b0b0b0; stroke-width: 0.8; stroke-linecap: square"/>
     </g>
     <g id="line2d_14">
      <g>
       <use xlink:href="#md1acf53318" x="315.700837" y="221.76" style="stroke: #000000; stroke-width: 0.8"/>
      </g>
     </g>
     <g id="text_7">
      <!-- $\mathdefault{6}$ -->
      <g transform="translate(312.774342 233.56218) scale(0.12 -0.12)">
       <use xlink:href="#CMR17-36" transform="scale(0.996264)"/>
      </g>
     </g>
    </g>
    <g id="text_8">
     <!-- $\Delta\alpha L/2$ -->
     <g transform="translate(168.090101 248.853152) scale(0.12 -0.12)">
      <defs>
       <path id="CMR17-1" d="M 2598 4403 
C 2547 4512 2522 4512 2470 4512 
C 2394 4512 2387 4499 2342 4409 
L 269 109 
C 262 96 237 38 237 32 
C 237 6 243 0 358 0 
L 4576 0 
C 4691 0 4698 6 4698 32 
C 4698 38 4672 96 4666 109 
L 2598 4403 
z
M 2310 4038 
L 4083 358 
L 531 358 
L 2310 4038 
z
" transform="scale(0.015625)"/>
       <path id="CMMI12-b" d="M 2963 1616 
C 2963 2235 2611 2815 1933 2815 
C 1094 2815 256 1902 256 996 
C 256 441 602 -64 1254 -64 
C 1651 -64 2125 89 2579 472 
C 2669 115 2867 -64 3142 -64 
C 3488 -64 3661 294 3661 377 
C 3661 434 3616 434 3597 434 
C 3546 434 3539 415 3520 364 
C 3462 204 3315 64 3162 64 
C 2963 64 2963 472 2963 862 
C 3616 1641 3770 2446 3770 2452 
C 3770 2510 3718 2510 3699 2510 
C 3642 2510 3635 2491 3610 2376 
C 3526 2095 3360 1597 2963 1073 
L 2963 1616 
z
M 2560 626 
C 1997 121 1491 64 1267 64 
C 813 64 685 466 685 766 
C 685 1040 826 1692 1024 2044 
C 1286 2491 1645 2688 1933 2688 
C 2554 2688 2554 1877 2554 1341 
C 2554 1182 2547 1016 2547 856 
C 2547 728 2554 696 2560 626 
z
" transform="scale(0.015625)"/>
       <path id="CMMI12-4c" d="M 2349 3861 
C 2406 4103 2426 4167 2989 4167 
C 3162 4167 3206 4167 3206 4288 
C 3206 4352 3136 4352 3110 4352 
C 2982 4352 2835 4352 2707 4352 
L 1850 4352 
C 1728 4352 1587 4352 1466 4352 
C 1414 4352 1344 4352 1344 4231 
C 1344 4167 1402 4167 1498 4167 
C 1888 4167 1888 4116 1888 4046 
C 1888 4034 1888 3995 1862 3899 
L 998 472 
C 941 249 928 185 480 185 
C 358 185 294 185 294 70 
C 294 0 333 0 461 0 
L 3328 0 
C 3469 0 3475 6 3520 121 
L 4013 1478 
C 4026 1510 4038 1548 4038 1567 
C 4038 1605 4006 1631 3974 1631 
C 3968 1631 3936 1631 3923 1605 
C 3910 1599 3910 1586 3859 1465 
C 3654 905 3366 185 2285 185 
L 1670 185 
C 1581 185 1568 185 1530 192 
C 1459 198 1453 211 1453 262 
C 1453 307 1466 345 1478 401 
L 2349 3861 
z
" transform="scale(0.015625)"/>
       <path id="CMMI12-3d" d="M 2746 4562 
C 2746 4569 2784 4666 2784 4678 
C 2784 4755 2720 4800 2669 4800 
C 2637 4800 2579 4800 2528 4659 
L 384 -1363 
C 384 -1370 346 -1465 346 -1478 
C 346 -1555 410 -1600 461 -1600 
C 499 -1600 557 -1593 602 -1459 
L 2746 4562 
z
" transform="scale(0.015625)"/>
      </defs>
      <use xlink:href="#CMR17-1" transform="scale(0.996264)"/>
      <use xlink:href="#CMMI12-b" transform="translate(76.91959 0) scale(0.996264)"/>
      <use xlink:href="#CMMI12-4c" transform="translate(139.600613 0) scale(0.996264)"/>
      <use xlink:href="#CMMI12-3d" transform="translate(205.971488 0) scale(0.996264)"/>
      <use xlink:href="#CMR17-32" transform="translate(254.746407 0) scale(0.996264)"/>
     </g>
    </g>
   </g>
   <g id="matplotlib.axis_2">
    <g id="ytick_1">
     <g id="line2d_15">
      <path d="M 35.903694 211.680003 
L 337.223694 211.680003 
" clip-path="url(#p75b1672834)" style="fill: none; stroke: #b0b0b0; stroke-width: 0.8; stroke-linecap: square"/>
     </g>
     <g id="line2d_16">
      <defs>
       <path id="m16b88d9b18" d="M 0 0 
L 3.5 0 
" style="stroke: #000000; stroke-width: 0.8"/>
      </defs>
      <g>
       <use xlink:href="#m16b88d9b18" x="35.903694" y="211.680003" style="stroke: #000000; stroke-width: 0.8"/>
      </g>
     </g>
     <g id="text_9">
      <!-- $\mathdefault{10^{0}}$ -->
      <g transform="translate(16.463531 215.831093) scale(0.12 -0.12)">
       <defs>
        <path id="CMR17-31" d="M 1702 4058 
C 1702 4192 1696 4192 1606 4192 
C 1357 3916 979 3827 621 3827 
C 602 3827 570 3827 563 3808 
C 557 3795 557 3782 557 3648 
C 755 3648 1088 3686 1344 3839 
L 1344 461 
C 1344 236 1331 160 781 160 
L 589 160 
L 589 0 
C 896 0 1216 0 1523 0 
C 1830 0 2150 0 2458 0 
L 2458 160 
L 2266 160 
C 1715 160 1702 230 1702 458 
L 1702 4058 
z
" transform="scale(0.015625)"/>
       </defs>
       <use xlink:href="#CMR17-31" transform="scale(0.996264)"/>
       <use xlink:href="#CMR17-30" transform="translate(45.690477 0) scale(0.996264)"/>
       <use xlink:href="#CMR17-30" transform="translate(91.380954 36.153639) scale(0.697382)"/>
      </g>
     </g>
    </g>
    <g id="ytick_2">
     <g id="line2d_17">
      <path d="M 35.903694 86.752213 
L 337.223694 86.752213 
" clip-path="url(#p75b1672834)" style="fill: none; stroke: #b0b0b0; stroke-width: 0.8; stroke-linecap: square"/>
     </g>
     <g id="line2d_18">
      <g>
       <use xlink:href="#m16b88d9b18" x="35.903694" y="86.752213" style="stroke: #000000; stroke-width: 0.8"/>
      </g>
     </g>
     <g id="text_10">
      <!-- $\mathdefault{10^{1}}$ -->
      <g transform="translate(16.463531 90.903303) scale(0.12 -0.12)">
       <use xlink:href="#CMR17-31" transform="scale(0.996264)"/>
       <use xlink:href="#CMR17-30" transform="translate(45.690477 0) scale(0.996264)"/>
       <use xlink:href="#CMR17-31" transform="translate(91.380954 36.153639) scale(0.697382)"/>
      </g>
     </g>
    </g>
    <g id="ytick_3">
     <g id="line2d_19">
      <path d="M 35.903694 217.396385 
L 337.223694 217.396385 
" clip-path="url(#p75b1672834)" style="fill: none; stroke: #b0b0b0; stroke-width: 0.8; stroke-linecap: square"/>
     </g>
     <g id="line2d_20">
      <defs>
       <path id="m434343e24c" d="M 0 0 
L -2 0 
" style="stroke: #000000; stroke-width: 0.6"/>
      </defs>
      <g>
       <use xlink:href="#m434343e24c" x="35.903694" y="217.396385" style="stroke: #000000; stroke-width: 0.6"/>
      </g>
     </g>
    </g>
    <g id="ytick_4">
     <g id="line2d_21">
      <path d="M 35.903694 174.072991 
L 337.223694 174.072991 
" clip-path="url(#p75b1672834)" style="fill: none; stroke: #b0b0b0; stroke-width: 0.8; stroke-linecap: square"/>
     </g>
     <g id="line2d_22">
      <g>
       <use xlink:href="#m434343e24c" x="35.903694" y="174.072991" style="stroke: #000000; stroke-width: 0.6"/>
      </g>
     </g>
    </g>
    <g id="ytick_5">
     <g id="line2d_23">
      <path d="M 35.903694 152.074299 
L 337.223694 152.074299 
" clip-path="url(#p75b1672834)" style="fill: none; stroke: #b0b0b0; stroke-width: 0.8; stroke-linecap: square"/>
     </g>
     <g id="line2d_24">
      <g>
       <use xlink:href="#m434343e24c" x="35.903694" y="152.074299" style="stroke: #000000; stroke-width: 0.6"/>
      </g>
     </g>
    </g>
    <g id="ytick_6">
     <g id="line2d_25">
      <path d="M 35.903694 136.465979 
L 337.223694 136.465979 
" clip-path="url(#p75b1672834)" style="fill: none; stroke: #b0b0b0; stroke-width: 0.8; stroke-linecap: square"/>
     </g>
     <g id="line2d_26">
      <g>
       <use xlink:href="#m434343e24c" x="35.903694" y="136.465979" style="stroke: #000000; stroke-width: 0.6"/>
      </g>
     </g>
    </g>
    <g id="ytick_7">
     <g id="line2d_27">
      <path d="M 35.903694 124.359225 
L 337.223694 124.359225 
" clip-path="url(#p75b1672834)" style="fill: none; stroke: #b0b0b0; stroke-width: 0.8; stroke-linecap: square"/>
     </g>
     <g id="line2d_28">
      <g>
       <use xlink:href="#m434343e24c" x="35.903694" y="124.359225" style="stroke: #000000; stroke-width: 0.6"/>
      </g>
     </g>
    </g>
    <g id="ytick_8">
     <g id="line2d_29">
      <path d="M 35.903694 114.467287 
L 337.223694 114.467287 
" clip-path="url(#p75b1672834)" style="fill: none; stroke: #b0b0b0; stroke-width: 0.8; stroke-linecap: square"/>
     </g>
     <g id="line2d_30">
      <g>
       <use xlink:href="#m434343e24c" x="35.903694" y="114.467287" style="stroke: #000000; stroke-width: 0.6"/>
      </g>
     </g>
    </g>
    <g id="ytick_9">
     <g id="line2d_31">
      <path d="M 35.903694 106.103772 
L 337.223694 106.103772 
" clip-path="url(#p75b1672834)" style="fill: none; stroke: #b0b0b0; stroke-width: 0.8; stroke-linecap: square"/>
     </g>
     <g id="line2d_32">
      <g>
       <use xlink:href="#m434343e24c" x="35.903694" y="106.103772" style="stroke: #000000; stroke-width: 0.6"/>
      </g>
     </g>
    </g>
    <g id="ytick_10">
     <g id="line2d_33">
      <path d="M 35.903694 98.858967 
L 337.223694 98.858967 
" clip-path="url(#p75b1672834)" style="fill: none; stroke: #b0b0b0; stroke-width: 0.8; stroke-linecap: square"/>
     </g>
     <g id="line2d_34">
      <g>
       <use xlink:href="#m434343e24c" x="35.903694" y="98.858967" style="stroke: #000000; stroke-width: 0.6"/>
      </g>
     </g>
    </g>
    <g id="ytick_11">
     <g id="line2d_35">
      <path d="M 35.903694 92.468595 
L 337.223694 92.468595 
" clip-path="url(#p75b1672834)" style="fill: none; stroke: #b0b0b0; stroke-width: 0.8; stroke-linecap: square"/>
     </g>
     <g id="line2d_36">
      <g>
       <use xlink:href="#m434343e24c" x="35.903694" y="92.468595" style="stroke: #000000; stroke-width: 0.6"/>
      </g>
     </g>
    </g>
    <g id="ytick_12">
     <g id="line2d_37">
      <path d="M 35.903694 49.145201 
L 337.223694 49.145201 
" clip-path="url(#p75b1672834)" style="fill: none; stroke: #b0b0b0; stroke-width: 0.8; stroke-linecap: square"/>
     </g>
     <g id="line2d_38">
      <g>
       <use xlink:href="#m434343e24c" x="35.903694" y="49.145201" style="stroke: #000000; stroke-width: 0.6"/>
      </g>
     </g>
    </g>
    <g id="ytick_13">
     <g id="line2d_39">
      <path d="M 35.903694 27.146509 
L 337.223694 27.146509 
" clip-path="url(#p75b1672834)" style="fill: none; stroke: #b0b0b0; stroke-width: 0.8; stroke-linecap: square"/>
     </g>
     <g id="line2d_40">
      <g>
       <use xlink:href="#m434343e24c" x="35.903694" y="27.146509" style="stroke: #000000; stroke-width: 0.6"/>
      </g>
     </g>
    </g>
    <g id="ytick_14">
     <g id="line2d_41">
      <path d="M 35.903694 11.538188 
L 337.223694 11.538188 
" clip-path="url(#p75b1672834)" style="fill: none; stroke: #b0b0b0; stroke-width: 0.8; stroke-linecap: square"/>
     </g>
     <g id="line2d_42">
      <g>
       <use xlink:href="#m434343e24c" x="35.903694" y="11.538188" style="stroke: #000000; stroke-width: 0.6"/>
      </g>
     </g>
    </g>
    <g id="text_11">
     <!-- $G_{\pm}=|A^{\pm}_{\rm s}(L)/A^{\pm}_{\rm s}(0)|^2$ -->
     <g transform="translate(9.474739 166.824969) rotate(-90) scale(0.12 -0.12)">
      <defs>
       <path id="CMMI12-47" d="M 4774 4423 
C 4774 4480 4730 4480 4717 4480 
C 4704 4480 4678 4480 4627 4416 
L 4186 3889 
C 4154 3940 4026 4163 3776 4309 
C 3501 4480 3226 4480 3130 4480 
C 1760 4480 320 3095 320 1595 
C 320 546 1050 -128 2010 -128 
C 2470 -128 3053 25 3373 427 
C 3443 185 3584 12 3629 12 
C 3661 12 3667 32 3674 32 
C 3680 44 3731 270 3763 385 
L 3866 797 
C 3917 1009 3942 1099 3987 1291 
C 4051 1536 4064 1536 4416 1536 
C 4442 1536 4518 1536 4518 1666 
C 4518 1734 4454 1734 4435 1734 
C 4326 1734 4205 1734 4090 1734 
L 3744 1734 
C 3475 1734 3194 1734 2931 1734 
C 2874 1734 2797 1734 2797 1611 
C 2797 1542 2848 1542 2848 1536 
L 3008 1536 
C 3514 1536 3514 1489 3514 1402 
C 3514 1395 3392 751 3270 561 
C 3027 204 2522 57 2144 57 
C 1651 57 851 312 851 1410 
C 851 1836 1005 2808 1626 3526 
C 2029 3984 2624 4295 3187 4295 
C 3942 4295 4211 3655 4211 3071 
C 4211 2970 4186 2831 4186 2742 
C 4186 2685 4250 2685 4269 2685 
C 4339 2685 4346 2691 4371 2805 
L 4774 4423 
z
" transform="scale(0.015625)"/>
       <path id="CMSY10-6" d="M 2618 1984 
L 4397 1984 
C 4506 1984 4621 1984 4621 2112 
C 4621 2240 4506 2240 4397 2240 
L 2618 2240 
L 2618 4018 
C 2618 4121 2618 4256 2490 4256 
C 2362 4256 2362 4140 2362 4038 
L 2362 2240 
L 576 2240 
C 467 2240 352 2240 352 2112 
C 352 1984 467 1984 576 1984 
L 2362 1984 
L 2362 256 
L 576 256 
C 467 256 352 256 352 128 
C 352 0 467 0 576 0 
L 4397 0 
C 4506 0 4621 0 4621 128 
C 4621 256 4506 256 4397 256 
L 2618 256 
L 2618 1984 
z
" transform="scale(0.015625)"/>
       <path id="CMR17-3d" d="M 4115 2017 
C 4211 2017 4307 2017 4307 2125 
C 4307 2240 4198 2240 4090 2240 
L 512 2240 
C 403 2240 294 2240 294 2125 
C 294 2017 390 2017 486 2017 
L 4115 2017 
z
M 4090 896 
C 4198 896 4307 896 4307 1011 
C 4307 1119 4211 1119 4115 1119 
L 486 1119 
C 390 1119 294 1119 294 1011 
C 294 896 403 896 512 896 
L 4090 896 
z
" transform="scale(0.015625)"/>
       <path id="CMSY10-6a" d="M 1018 4570 
C 1018 4685 1018 4800 890 4800 
C 762 4800 762 4685 762 4570 
L 762 -1370 
C 762 -1485 762 -1600 890 -1600 
C 1018 -1600 1018 -1485 1018 -1370 
L 1018 4570 
z
" transform="scale(0.015625)"/>
       <path id="CMMI12-41" d="M 1088 691 
C 864 314 646 186 339 186 
C 269 180 218 180 218 58 
C 218 24 250 0 294 0 
C 410 0 698 0 813 0 
C 998 0 1203 0 1382 0 
C 1421 0 1498 0 1498 122 
C 1498 180 1446 186 1408 186 
C 1261 186 1139 236 1139 388 
C 1139 476 1178 546 1261 685 
L 1747 1479 
L 3379 1479 
C 3386 1423 3386 1373 3392 1316 
C 3411 1152 3488 495 3488 376 
C 3488 186 3162 186 3059 186 
C 2989 186 2918 186 2918 70 
C 2918 0 2976 0 3014 0 
C 3123 0 3251 0 3360 0 
L 3725 0 
C 4115 0 4397 0 4403 0 
C 4448 0 4518 0 4518 122 
C 4518 186 4461 186 4365 186 
C 4013 186 4006 244 3987 434 
L 3597 4404 
C 3584 4531 3558 4544 3488 4544 
C 3424 4544 3386 4531 3328 4435 
L 1088 691 
z
M 1856 1664 
L 3142 3819 
L 3360 1664 
L 1856 1664 
z
" transform="scale(0.015625)"/>
       <path id="CMR17-73" d="M 1978 2697 
C 1978 2813 1971 2819 1933 2819 
C 1907 2819 1901 2813 1824 2717 
C 1805 2691 1747 2626 1728 2601 
C 1523 2819 1235 2819 1126 2819 
C 416 2819 160 2447 160 2076 
C 160 1498 813 1365 998 1325 
C 1402 1243 1542 1217 1677 1101 
C 1760 1025 1901 884 1901 654 
C 1901 384 1747 38 1158 38 
C 602 38 403 460 288 1021 
C 269 1110 269 1117 218 1117 
C 166 1117 160 1110 160 983 
L 160 63 
C 160 -51 166 -58 205 -58 
C 237 -58 243 -51 275 0 
C 314 57 410 211 448 276 
C 576 103 800 -64 1158 -64 
C 1792 -64 2131 283 2131 784 
C 2131 1112 1958 1285 1875 1362 
C 1683 1561 1459 1606 1190 1657 
C 838 1735 390 1825 390 2217 
C 390 2383 480 2737 1126 2737 
C 1811 2737 1850 2094 1862 1888 
C 1869 1856 1901 1849 1920 1849 
C 1978 1849 1978 1869 1978 1978 
L 1978 2697 
z
" transform="scale(0.015625)"/>
       <path id="CMR17-28" d="M 1958 -1561 
C 1958 -1555 1958 -1542 1939 -1523 
C 1645 -1224 858 -407 858 1581 
C 858 3569 1632 4379 1946 4697 
C 1946 4704 1958 4717 1958 4736 
C 1958 4755 1939 4768 1914 4768 
C 1843 4768 1299 4296 986 3594 
C 666 2887 576 2199 576 1588 
C 576 1128 621 351 1005 -471 
C 1312 -1135 1837 -1600 1914 -1600 
C 1946 -1600 1958 -1587 1958 -1561 
z
" transform="scale(0.015625)"/>
       <path id="CMR17-29" d="M 1683 1581 
C 1683 2040 1638 2817 1254 3639 
C 947 4303 422 4768 346 4768 
C 326 4768 301 4761 301 4729 
C 301 4717 307 4710 314 4697 
C 621 4378 1402 3568 1402 1584 
C 1402 -407 627 -1217 314 -1537 
C 307 -1549 301 -1556 301 -1568 
C 301 -1600 326 -1600 346 -1600 
C 416 -1600 960 -1128 1274 -426 
C 1594 281 1683 969 1683 1581 
z
" transform="scale(0.015625)"/>
      </defs>
      <use xlink:href="#CMMI12-47" transform="scale(0.996264)"/>
      <use xlink:href="#CMSY10-6" transform="translate(76.946862 -14.943915) scale(0.697382)"/>
      <use xlink:href="#CMR17-3d" transform="translate(159.359996 0) scale(0.996264)"/>
      <use xlink:href="#CMSY10-6a" transform="translate(258.748793 0) scale(0.996264)"/>
      <use xlink:href="#CMMI12-41" transform="translate(286.422878 0) scale(0.996264)"/>
      <use xlink:href="#CMSY10-6" transform="translate(359.550763 36.153639) scale(0.697382)"/>
      <use xlink:href="#CMR17-73" transform="translate(359.550763 -24.62935) scale(0.697382)"/>
      <use xlink:href="#CMR17-28" transform="translate(414.289888 0) scale(0.996264)"/>
      <use xlink:href="#CMMI12-4c" transform="translate(449.570656 0) scale(0.996264)"/>
      <use xlink:href="#CMR17-29" transform="translate(515.941532 0) scale(0.996264)"/>
      <use xlink:href="#CMMI12-3d" transform="translate(551.222299 0) scale(0.996264)"/>
      <use xlink:href="#CMMI12-41" transform="translate(594.577783 0) scale(0.996264)"/>
      <use xlink:href="#CMSY10-6" transform="translate(667.705668 36.153639) scale(0.697382)"/>
      <use xlink:href="#CMR17-73" transform="translate(667.705668 -24.62935) scale(0.697382)"/>
      <use xlink:href="#CMR17-28" transform="translate(722.444793 0) scale(0.996264)"/>
      <use xlink:href="#CMR17-30" transform="translate(757.725561 0) scale(0.996264)"/>
      <use xlink:href="#CMR17-29" transform="translate(803.416038 0) scale(0.996264)"/>
      <use xlink:href="#CMSY10-6a" transform="translate(838.696806 0) scale(0.996264)"/>
      <use xlink:href="#CMR17-32" transform="translate(866.370891 36.153639) scale(0.697382)"/>
     </g>
    </g>
   </g>
   <g id="line2d_43">
    <path d="M 35.903694 210.447843 
L 51.286397 211.614229 
L 55.810721 211.674189 
L 60.033424 211.516694 
L 64.256127 211.134144 
L 68.780451 210.485028 
L 73.908019 209.512718 
L 86.877748 206.929168 
L 90.497208 206.494704 
L 93.815046 206.311226 
L 97.132883 206.363389 
L 100.450721 206.659076 
L 103.768559 207.18209 
L 107.68964 208.036451 
L 114.928559 209.91808 
L 119.452883 210.957192 
L 122.4691 211.441141 
L 125.183694 211.661431 
L 127.596667 211.641124 
L 129.708019 211.426332 
L 131.81937 211.002312 
L 133.930721 210.345156 
L 136.042073 209.431012 
L 138.153424 208.235819 
L 139.963154 206.969042 
L 141.772883 205.461674 
L 143.582613 203.696949 
L 145.392343 201.657113 
L 147.202073 199.323138 
L 149.313424 196.200751 
L 151.424775 192.613479 
L 153.536127 188.520163 
L 155.647478 183.873499 
L 157.758829 178.618378 
L 159.870181 172.68975 
L 161.981532 166.009892 
L 164.092883 158.484869 
L 166.204235 150.000004 
L 168.013965 141.857215 
L 169.823694 132.798297 
L 171.633424 122.694761 
L 173.443154 111.396351 
L 175.252883 98.736182 
L 177.062613 84.554107 
L 179.173965 65.990049 
L 184.301532 18.642362 
L 185.206397 13.29863 
L 185.80964 11.066198 
L 186.111262 10.410767 
L 186.412883 10.08 
L 186.714505 10.08 
L 187.016127 10.410767 
L 187.317748 11.066198 
L 187.920992 13.29863 
L 188.524235 16.627641 
L 189.4291 23.238436 
L 190.635586 33.981049 
L 195.763154 82.034372 
L 197.572883 96.481971 
L 199.382613 109.385509 
L 201.192343 120.899029 
L 203.002073 131.190709 
L 205.113424 141.857215 
L 207.224775 151.275915 
L 209.336127 159.615707 
L 211.447478 167.01351 
L 213.558829 173.58072 
L 215.670181 179.408704 
L 217.781532 184.573179 
L 219.892883 189.137621 
L 222.004235 193.155909 
L 224.115586 196.674374 
L 226.226938 199.733414 
L 228.338289 202.368771 
L 230.44964 204.612565 
L 232.560992 206.494129 
L 234.672343 208.040709 
L 236.783694 209.278044 
L 238.895046 210.230855 
L 241.006397 210.923262 
L 243.117748 211.379127 
L 245.2291 211.622337 
L 247.642073 211.670862 
L 250.356667 211.476775 
L 253.372883 211.014907 
L 256.992343 210.220363 
L 270.565316 206.967653 
L 273.883154 206.523865 
L 277.200992 206.31616 
L 280.518829 206.351795 
L 283.836667 206.61475 
L 287.757748 207.169316 
L 292.583694 208.096908 
L 304.950181 210.584563 
L 309.474505 211.202556 
L 313.697208 211.552822 
L 317.91991 211.67907 
L 322.444235 211.590722 
L 327.873424 211.254869 
L 337.223694 210.447843 
L 337.223694 210.447843 
" clip-path="url(#p75b1672834)" style="fill: none; stroke: #1f77b4; stroke-width: 1.5; stroke-linecap: square"/>
   </g>
   <g id="line2d_44">
    <path d="M 35.903694 209.636865 
L 44.047478 210.686789 
L 50.381532 211.396554 
L 54.604235 211.649089 
L 58.223694 211.657071 
L 61.843154 211.438074 
L 65.160992 211.024454 
L 68.780451 210.344077 
L 72.701532 209.36535 
L 77.527478 207.907317 
L 87.480992 204.818243 
L 90.798829 204.056709 
L 93.815046 203.595457 
L 96.52964 203.408209 
L 99.244235 203.458693 
L 101.958829 203.752702 
L 104.673424 204.279648 
L 107.68964 205.105167 
L 111.3091 206.348432 
L 123.072343 210.6128 
L 125.786938 211.248264 
L 128.19991 211.58912 
L 130.311262 211.679376 
L 132.422613 211.546749 
L 134.533965 211.164674 
L 136.343694 210.618917 
L 138.153424 209.854532 
L 139.963154 208.855181 
L 141.772883 207.604212 
L 143.582613 206.084406 
L 145.392343 204.2777 
L 147.202073 202.164861 
L 149.011802 199.725119 
L 150.821532 196.935738 
L 152.631262 193.771517 
L 154.440992 190.204177 
L 156.250721 186.201645 
L 158.060451 181.727149 
L 160.171802 175.853227 
L 162.283154 169.198526 
L 164.092883 162.799899 
L 165.902613 155.682685 
L 167.712343 147.758407 
L 169.522073 138.920713 
L 171.331802 129.042036 
L 173.141532 117.971412 
L 174.951262 105.537033 
L 176.760992 91.563515 
L 178.570721 75.930678 
L 180.682073 55.765513 
L 183.698289 26.822419 
L 184.603154 20.01478 
L 185.206397 16.576314 
L 185.80964 14.266303 
L 186.111262 13.587433 
L 186.412883 13.24472 
L 186.714505 13.24472 
L 187.016127 13.587433 
L 187.317748 14.266303 
L 187.920992 16.576314 
L 188.524235 20.01478 
L 189.4291 26.822419 
L 190.635586 37.833557 
L 195.461532 83.956511 
L 197.271262 98.752657 
L 199.080992 111.935951 
L 200.890721 123.666059 
L 202.700451 134.120377 
L 204.510181 143.461176 
L 206.621532 153.135784 
L 208.732883 161.66579 
L 210.844235 169.198526 
L 212.955586 175.853227 
L 215.066938 181.727149 
L 217.178289 186.90045 
L 219.28964 191.439974 
L 221.400992 195.40217 
L 223.512343 198.835362 
L 225.322073 201.389014 
L 227.131802 203.608426 
L 228.941532 205.514971 
L 230.751262 207.128352 
L 232.560992 208.466985 
L 234.370721 209.548336 
L 236.180451 210.389217 
L 237.990181 211.006044 
L 239.79991 211.415073 
L 241.911262 211.651394 
L 244.022613 211.653357 
L 246.133965 211.447983 
L 248.546938 210.995348 
L 251.261532 210.260523 
L 254.57937 209.129801 
L 266.945856 204.66379 
L 269.962073 203.959374 
L 272.676667 203.559543 
L 275.391262 203.400584 
L 278.105856 203.483894 
L 280.820451 203.79512 
L 283.836667 204.373972 
L 287.456127 205.319361 
L 292.583694 206.926392 
L 300.124235 209.281151 
L 304.045316 210.277166 
L 307.664775 210.976713 
L 311.284235 211.438074 
L 314.903694 211.657071 
L 318.523154 211.649089 
L 322.444235 211.421916 
L 327.270181 210.916099 
L 337.223694 209.636865 
L 337.223694 209.636865 
" clip-path="url(#p75b1672834)" style="fill: none; stroke: #ff7f0e; stroke-width: 1.5; stroke-linecap: square"/>
   </g>
   <g id="line2d_45">
    <path d="M 35.903694 208.712385 
L 41.332883 209.583634 
L 50.984775 211.168061 
L 54.905856 211.558823 
L 58.223694 211.679789 
L 61.541532 211.568378 
L 64.557748 211.244619 
L 67.573965 210.700914 
L 70.590181 209.941314 
L 73.908019 208.876812 
L 77.8291 207.366487 
L 84.163154 204.625906 
L 88.9891 202.638341 
L 92.306938 201.519675 
L 95.021532 200.843549 
L 97.434505 200.467538 
L 99.847478 200.330393 
L 101.958829 200.417776 
L 104.371802 200.756193 
L 106.784775 201.337806 
L 109.49937 202.251621 
L 112.515586 203.5264 
L 116.738289 205.59553 
L 123.373965 208.865346 
L 126.390181 210.095222 
L 128.803154 210.868285 
L 131.216127 211.404607 
L 133.327478 211.646884 
L 135.438829 211.650237 
L 137.248559 211.444683 
L 139.058289 211.031617 
L 140.868019 210.397379 
L 142.677748 209.528791 
L 144.487478 208.413031 
L 146.297208 207.037504 
L 148.106938 205.389746 
L 149.916667 203.457345 
L 151.726397 201.227913 
L 153.837748 198.23503 
L 155.9491 194.801732 
L 158.060451 190.909489 
L 160.171802 186.541531 
L 162.283154 181.684524 
L 164.696127 175.526128 
L 167.1091 168.727208 
L 169.823694 160.364336 
L 173.141532 149.333663 
L 178.570721 131.101791 
L 180.380451 125.799613 
L 181.888559 122.06049 
L 183.095046 119.662234 
L 183.99991 118.274399 
L 184.904775 117.277792 
L 185.508019 116.8441 
L 186.111262 116.601418 
L 186.714505 116.55273 
L 187.317748 116.698641 
L 187.920992 117.037347 
L 188.825856 117.897237 
L 189.730721 119.158144 
L 190.635586 120.787976 
L 191.842073 123.467109 
L 193.350181 127.483522 
L 195.15991 133.011195 
L 198.176127 143.124859 
L 203.303694 160.364336 
L 206.018289 168.727208 
L 208.431262 175.526128 
L 210.844235 181.684524 
L 213.257208 187.195208 
L 215.368559 191.494286 
L 217.47991 195.319883 
L 219.591262 198.689104 
L 221.702613 201.620637 
L 223.813965 204.133871 
L 225.623694 205.970013 
L 227.433424 207.525647 
L 229.243154 208.813195 
L 231.052883 209.845157 
L 232.862613 210.634188 
L 234.672343 211.193217 
L 236.482073 211.535566 
L 238.291802 211.67509 
L 240.403154 211.600951 
L 242.514505 211.295057 
L 244.927478 210.695508 
L 247.340451 209.87019 
L 250.356667 208.591861 
L 254.57937 206.520219 
L 261.215046 203.253585 
L 264.231262 202.027117 
L 266.945856 201.170736 
L 269.358829 200.648111 
L 271.771802 200.372803 
L 273.883154 200.341294 
L 276.296127 200.539971 
L 278.7091 200.97208 
L 281.423694 201.701711 
L 284.43991 202.752617 
L 288.662613 204.494733 
L 297.711262 208.323841 
L 301.330721 209.580328 
L 304.648559 210.495195 
L 307.664775 211.104652 
L 310.680992 211.494107 
L 313.697208 211.667749 
L 317.015046 211.627591 
L 320.634505 211.345802 
L 324.857208 210.779723 
L 332.096127 209.530857 
L 337.223694 208.712385 
L 337.223694 208.712385 
" clip-path="url(#p75b1672834)" style="fill: none; stroke: #2ca02c; stroke-width: 1.5; stroke-linecap: square"/>
   </g>
   <g id="line2d_46">
    <path d="M 35.903694 207.691326 
L 40.126397 208.451049 
L 54.604235 211.310058 
L 57.922073 211.615713 
L 60.938289 211.672584 
L 63.652883 211.518043 
L 66.367478 211.153433 
L 69.082073 210.571952 
L 71.796667 209.775219 
L 74.812883 208.651032 
L 78.130721 207.158925 
L 82.051802 205.135599 
L 92.306938 199.692707 
L 95.021532 198.568303 
L 97.434505 197.799238 
L 99.545856 197.340879 
L 101.657208 197.106737 
L 103.768559 197.110962 
L 105.87991 197.357963 
L 107.991262 197.841842 
L 110.102613 198.54663 
L 112.515586 199.590114 
L 115.230181 201.007957 
L 119.151262 203.346586 
L 126.390181 207.724987 
L 129.406397 209.262413 
L 131.81937 210.269308 
L 134.232343 211.031619 
L 136.343694 211.468874 
L 138.455046 211.669044 
L 140.264775 211.637634 
L 142.074505 211.407897 
L 143.884235 210.970791 
L 145.693965 210.318502 
L 147.503694 209.444432 
L 149.313424 208.343231 
L 151.123154 207.010898 
L 153.234505 205.161154 
L 155.345856 202.992624 
L 157.457208 200.508531 
L 159.870181 197.294299 
L 162.283154 193.702839 
L 164.997748 189.261232 
L 168.315586 183.3843 
L 176.45937 168.71475 
L 178.570721 165.483608 
L 180.380451 163.135517 
L 181.888559 161.553067 
L 183.095046 160.569904 
L 184.301532 159.862142 
L 185.508019 159.44619 
L 186.412883 159.331945 
L 187.317748 159.38911 
L 188.524235 159.730293 
L 189.730721 160.366401 
L 190.937208 161.282573 
L 192.143694 162.458169 
L 193.651802 164.253758 
L 195.461532 166.812209 
L 197.572883 170.223201 
L 200.5891 175.58902 
L 208.431262 189.773443 
L 211.447478 194.634232 
L 213.860451 198.134379 
L 216.273424 201.250091 
L 218.384775 203.644632 
L 220.496127 205.722212 
L 222.607478 207.480878 
L 224.718829 208.922506 
L 226.528559 209.909554 
L 228.338289 210.671986 
L 230.148019 211.215782 
L 231.957748 211.548151 
L 233.767478 211.677515 
L 235.878829 211.584845 
L 237.990181 211.246731 
L 240.101532 210.683467 
L 242.514505 209.793916 
L 245.2291 208.527502 
L 248.245316 206.867237 
L 253.071262 203.910246 
L 258.198829 200.840025 
L 261.215046 199.307787 
L 263.628019 198.324025 
L 265.73937 197.680169 
L 267.850721 197.262768 
L 269.962073 197.084984 
L 272.073424 197.149757 
L 274.184775 197.449804 
L 276.296127 197.9684 
L 278.7091 198.796697 
L 281.423694 199.972924 
L 285.043154 201.817506 
L 296.203154 207.729235 
L 299.520992 209.129431 
L 302.537208 210.155426 
L 305.251802 210.857263 
L 307.966397 211.342037 
L 310.680992 211.611972 
L 313.697208 211.672694 
L 316.713424 211.505666 
L 320.031262 211.100136 
L 324.253965 210.336853 
L 337.223694 207.691326 
L 337.223694 207.691326 
" clip-path="url(#p75b1672834)" style="fill: none; stroke: #d62728; stroke-width: 1.5; stroke-linecap: square"/>
   </g>
   <g id="patch_3">
    <path d="M 35.903694 221.76 
L 35.903694 -0 
" style="fill: none; stroke: #000000; stroke-width: 0.8; stroke-linejoin: miter; stroke-linecap: square"/>
   </g>
   <g id="patch_4">
    <path d="M 337.223694 221.76 
L 337.223694 -0 
" style="fill: none; stroke: #000000; stroke-width: 0.8; stroke-linejoin: miter; stroke-linecap: square"/>
   </g>
   <g id="patch_5">
    <path d="M 35.903694 221.76 
L 337.223694 221.76 
" style="fill: none; stroke: #000000; stroke-width: 0.8; stroke-linejoin: miter; stroke-linecap: square"/>
   </g>
   <g id="patch_6">
    <path d="M 35.903694 -0 
L 337.223694 -0 
" style="fill: none; stroke: #000000; stroke-width: 0.8; stroke-linejoin: miter; stroke-linecap: square"/>
   </g>
   <g id="legend_1">
    <g id="patch_7">
     <path d="M 256.836116 76.498383 
L 328.823694 76.498383 
Q 331.223694 76.498383 331.223694 74.098383 
L 331.223694 8.4 
Q 331.223694 6 328.823694 6 
L 256.836116 6 
Q 254.436116 6 254.436116 8.4 
L 254.436116 74.098383 
Q 254.436116 76.498383 256.836116 76.498383 
z
" style="fill: #ffffff; opacity: 0.8; stroke: #cccccc; stroke-linejoin: miter"/>
    </g>
    <g id="line2d_47">
     <path d="M 259.236116 15 
L 271.236116 15 
L 283.236116 15 
" style="fill: none; stroke: #1f77b4; stroke-width: 1.5; stroke-linecap: square"/>
    </g>
    <g id="text_12">
     <!-- $\eta=$2.0 -->
     <g transform="translate(292.836116 19.2) scale(0.12 -0.12)">
      <defs>
       <path id="CMMI12-11" d="M 3040 1768 
C 3072 1895 3091 1973 3091 2145 
C 3091 2528 2867 2815 2381 2815 
C 1811 2815 1510 2413 1395 2254 
C 1376 2618 1114 2815 832 2815 
C 646 2815 499 2726 378 2483 
C 262 2254 173 1864 173 1839 
C 173 1813 198 1781 243 1781 
C 294 1781 301 1788 339 1934 
C 435 2311 557 2688 813 2688 
C 960 2688 1011 2586 1011 2394 
C 1011 2254 947 2005 902 1807 
L 723 1118 
C 698 996 627 709 595 593 
C 550 428 480 127 480 96 
C 480 6 550 -64 646 -64 
C 723 -64 813 -25 864 70 
C 877 102 934 326 966 453 
L 1107 1028 
L 1318 1871 
C 1331 1909 1491 2228 1728 2432 
C 1894 2586 2112 2688 2362 2688 
C 2618 2688 2707 2496 2707 2241 
C 2707 2055 2682 1953 2650 1831 
L 1907 -1107 
C 1901 -1139 1888 -1177 1888 -1216 
C 1888 -1312 1965 -1376 2061 -1376 
C 2118 -1376 2253 -1350 2304 -1158 
L 3040 1768 
z
" transform="scale(0.015625)"/>
       <path id="CMR17-2e" d="M 1062 261 
C 1062 420 934 522 800 522 
C 672 522 538 420 538 261 
C 538 102 666 0 800 0 
C 928 0 1062 102 1062 261 
z
" transform="scale(0.015625)"/>
      </defs>
      <use xlink:href="#CMMI12-11" transform="scale(0.996264)"/>
      <use xlink:href="#CMR17-3d" transform="translate(79.377824 0) scale(0.996264)"/>
      <use xlink:href="#CMR17-32" transform="translate(151.092613 0) scale(0.996264)"/>
      <use xlink:href="#CMR17-2e" transform="translate(196.78309 0) scale(0.996264)"/>
      <use xlink:href="#CMR17-30" transform="translate(221.654149 0) scale(0.996264)"/>
     </g>
    </g>
    <g id="line2d_48">
     <path d="M 259.236116 31.724596 
L 271.236116 31.724596 
L 283.236116 31.724596 
" style="fill: none; stroke: #ff7f0e; stroke-width: 1.5; stroke-linecap: square"/>
    </g>
    <g id="text_13">
     <!-- $\eta=$3.0 -->
     <g transform="translate(292.836116 35.924596) scale(0.12 -0.12)">
      <defs>
       <path id="CMR17-33" d="M 1414 2157 
C 1984 2157 2234 1662 2234 1090 
C 2234 320 1824 25 1453 25 
C 1114 25 563 194 390 693 
C 422 680 454 680 486 680 
C 640 680 755 782 755 948 
C 755 1133 614 1216 486 1216 
C 378 1216 211 1165 211 926 
C 211 335 787 -128 1466 -128 
C 2176 -128 2720 430 2720 1085 
C 2720 1707 2208 2157 1600 2227 
C 2086 2328 2554 2756 2554 3329 
C 2554 3820 2048 4179 1472 4179 
C 890 4179 378 3829 378 3329 
C 378 3110 544 3072 627 3072 
C 762 3072 877 3155 877 3321 
C 877 3486 762 3569 627 3569 
C 602 3569 570 3569 544 3557 
C 730 3959 1235 4032 1459 4032 
C 1683 4032 2106 3925 2106 3320 
C 2106 3143 2080 2828 1862 2550 
C 1670 2304 1453 2304 1242 2284 
C 1210 2284 1062 2269 1037 2269 
C 992 2263 966 2257 966 2208 
C 966 2163 973 2157 1101 2157 
L 1414 2157 
z
" transform="scale(0.015625)"/>
      </defs>
      <use xlink:href="#CMMI12-11" transform="scale(0.996264)"/>
      <use xlink:href="#CMR17-3d" transform="translate(79.377824 0) scale(0.996264)"/>
      <use xlink:href="#CMR17-33" transform="translate(151.092613 0) scale(0.996264)"/>
      <use xlink:href="#CMR17-2e" transform="translate(196.78309 0) scale(0.996264)"/>
      <use xlink:href="#CMR17-30" transform="translate(221.654149 0) scale(0.996264)"/>
     </g>
    </g>
    <g id="line2d_49">
     <path d="M 259.236116 48.449192 
L 271.236116 48.449192 
L 283.236116 48.449192 
" style="fill: none; stroke: #2ca02c; stroke-width: 1.5; stroke-linecap: square"/>
    </g>
    <g id="text_14">
     <!-- $\eta=$4.0 -->
     <g transform="translate(292.836116 52.649192) scale(0.12 -0.12)">
      <use xlink:href="#CMMI12-11" transform="scale(0.996264)"/>
      <use xlink:href="#CMR17-3d" transform="translate(79.377824 0) scale(0.996264)"/>
      <use xlink:href="#CMR17-34" transform="translate(151.092613 0) scale(0.996264)"/>
      <use xlink:href="#CMR17-2e" transform="translate(196.78309 0) scale(0.996264)"/>
      <use xlink:href="#CMR17-30" transform="translate(221.654149 0) scale(0.996264)"/>
     </g>
    </g>
    <g id="line2d_50">
     <path d="M 259.236116 65.173787 
L 271.236116 65.173787 
L 283.236116 65.173787 
" style="fill: none; stroke: #d62728; stroke-width: 1.5; stroke-linecap: square"/>
    </g>
    <g id="text_15">
     <!-- $\eta=$5.0 -->
     <g transform="translate(292.836116 69.373787) scale(0.12 -0.12)">
      <defs>
       <path id="CMR17-35" d="M 730 3692 
C 794 3666 1056 3584 1325 3584 
C 1920 3584 2246 3911 2432 4100 
C 2432 4157 2432 4192 2394 4192 
C 2387 4192 2374 4192 2323 4163 
C 2099 4058 1837 3973 1517 3973 
C 1325 3973 1037 3999 723 4139 
C 653 4171 640 4171 634 4171 
C 602 4171 595 4164 595 4037 
L 595 2203 
C 595 2089 595 2057 659 2057 
C 691 2057 704 2070 736 2114 
C 941 2401 1222 2522 1542 2522 
C 1766 2522 2246 2382 2246 1289 
C 2246 1085 2246 715 2054 421 
C 1894 159 1645 25 1370 25 
C 947 25 518 320 403 814 
C 429 807 480 795 506 795 
C 589 795 749 840 749 1038 
C 749 1210 627 1280 506 1280 
C 358 1280 262 1190 262 1011 
C 262 454 704 -128 1382 -128 
C 2042 -128 2669 440 2669 1264 
C 2669 2030 2170 2624 1549 2624 
C 1222 2624 947 2503 730 2274 
L 730 3692 
z
" transform="scale(0.015625)"/>
      </defs>
      <use xlink:href="#CMMI12-11" transform="scale(0.996264)"/>
      <use xlink:href="#CMR17-3d" transform="translate(79.377824 0) scale(0.996264)"/>
      <use xlink:href="#CMR17-35" transform="translate(151.092613 0) scale(0.996264)"/>
      <use xlink:href="#CMR17-2e" transform="translate(196.78309 0) scale(0.996264)"/>
      <use xlink:href="#CMR17-30" transform="translate(221.654149 0) scale(0.996264)"/>
     </g>
    </g>
   </g>
  </g>
 </g>
 <defs>
  <clipPath id="p75b1672834">
   <rect x="35.903694" y="-0" width="301.32" height="221.76"/>
  </clipPath>
 </defs>
</svg>
