<?xml version="1.0" encoding="utf-8" standalone="no"?>
<!DOCTYPE svg PUBLIC "-//W3C//DTD SVG 1.1//EN"
  "http://www.w3.org/Graphics/SVG/1.1/DTD/svg11.dtd">
<svg xmlns:xlink="http://www.w3.org/1999/xlink" width="356.01012pt" height="337.109034pt" viewBox="0 0 356.01012 337.109034" xmlns="http://www.w3.org/2000/svg" version="1.1">
 <metadata>
  <rdf:RDF xmlns:dc="http://purl.org/dc/elements/1.1/" xmlns:cc="http://creativecommons.org/ns#" xmlns:rdf="http://www.w3.org/1999/02/22-rdf-syntax-ns#">
   <cc:Work>
    <dc:type rdf:resource="http://purl.org/dc/dcmitype/StillImage"/>
    <dc:date>2025-04-08T12:21:44.974218</dc:date>
    <dc:format>image/svg+xml</dc:format>
    <dc:creator>
     <cc:Agent>
      <dc:title>Matplotlib v3.10.1, https://matplotlib.org/</dc:title>
     </cc:Agent>
    </dc:creator>
   </cc:Work>
  </rdf:RDF>
 </metadata>
 <defs>
  <style type="text/css">*{stroke-linejoin: round; stroke-linecap: butt}</style>
 </defs>
 <g id="figure_1">
  <g id="patch_1">
   <path d="M 0 337.109034 
L 356.01012 337.109034 
L 356.01012 0 
L 0 0 
z
" style="fill: #ffffff"/>
  </g>
  <g id="axes_1">
   <g id="patch_2">
    <path d="M 47.211299 303.52709 
L 348.531299 303.52709 
L 348.531299 4.15109 
L 47.211299 4.15109 
z
" style="fill: #ffffff"/>
   </g>
   <g id="matplotlib.axis_1">
    <g id="xtick_1">
     <g id="line2d_1">
      <defs>
       <path id="meed3031d6e" d="M 0 0 
L 0 3.5 
" style="stroke: #000000; stroke-width: 0.8"/>
      </defs>
      <g>
       <use xlink:href="#meed3031d6e" x="47.211299" y="303.52709" style="stroke: #000000; stroke-width: 0.8"/>
      </g>
     </g>
     <g id="text_1">
      <!-- $\mathdefault{−2.0}$ -->
      <g transform="translate(35.083234 318.82927) scale(0.12 -0.12)">
       <defs>
        <path id="CMSY10-0" d="M 4218 1472 
C 4326 1472 4442 1472 4442 1600 
C 4442 1728 4326 1728 4218 1728 
L 755 1728 
C 646 1728 531 1728 531 1600 
C 531 1472 646 1472 755 1472 
L 4218 1472 
z
" transform="scale(0.015625)"/>
        <path id="CMR17-32" d="M 2669 989 
L 2554 989 
C 2490 536 2438 459 2413 420 
C 2381 369 1920 369 1830 369 
L 602 369 
C 832 619 1280 1072 1824 1597 
C 2214 1967 2669 2402 2669 3035 
C 2669 3790 2067 4224 1395 4224 
C 691 4224 262 3604 262 3030 
C 262 2780 448 2748 525 2748 
C 589 2748 781 2787 781 3010 
C 781 3207 614 3264 525 3264 
C 486 3264 448 3258 422 3245 
C 544 3790 915 4058 1306 4058 
C 1862 4058 2227 3617 2227 3035 
C 2227 2479 1901 2000 1536 1584 
L 262 146 
L 262 0 
L 2515 0 
L 2669 989 
z
" transform="scale(0.015625)"/>
        <path id="CMMI12-3a" d="M 1178 307 
C 1178 492 1024 619 870 619 
C 685 619 557 466 557 313 
C 557 128 710 0 864 0 
C 1050 0 1178 153 1178 307 
z
" transform="scale(0.015625)"/>
        <path id="CMR17-30" d="M 2688 2025 
C 2688 2416 2682 3080 2413 3591 
C 2176 4039 1798 4198 1466 4198 
C 1158 4198 768 4058 525 3597 
C 269 3118 243 2524 243 2025 
C 243 1661 250 1106 448 619 
C 723 -39 1216 -128 1466 -128 
C 1760 -128 2208 -7 2470 600 
C 2662 1042 2688 1559 2688 2025 
z
M 1466 -26 
C 1056 -26 813 325 723 812 
C 653 1188 653 1738 653 2096 
C 653 2588 653 2997 736 3387 
C 858 3929 1216 4096 1466 4096 
C 1728 4096 2067 3923 2189 3400 
C 2272 3036 2278 2607 2278 2096 
C 2278 1680 2278 1169 2202 792 
C 2067 95 1690 -26 1466 -26 
z
" transform="scale(0.015625)"/>
       </defs>
       <use xlink:href="#CMSY10-0" transform="scale(0.996264)"/>
       <use xlink:href="#CMR17-32" transform="translate(77.487468 0) scale(0.996264)"/>
       <use xlink:href="#CMMI12-3a" transform="translate(123.177945 0) scale(0.996264)"/>
       <use xlink:href="#CMR17-30" transform="translate(150.275122 0) scale(0.996264)"/>
      </g>
     </g>
    </g>
    <g id="xtick_2">
     <g id="line2d_2">
      <g>
       <use xlink:href="#meed3031d6e" x="84.876299" y="303.52709" style="stroke: #000000; stroke-width: 0.8"/>
      </g>
     </g>
     <g id="text_2">
      <!-- $\mathdefault{−1.5}$ -->
      <g transform="translate(72.748234 318.82927) scale(0.12 -0.12)">
       <defs>
        <path id="CMR17-31" d="M 1702 4058 
C 1702 4192 1696 4192 1606 4192 
C 1357 3916 979 3827 621 3827 
C 602 3827 570 3827 563 3808 
C 557 3795 557 3782 557 3648 
C 755 3648 1088 3686 1344 3839 
L 1344 461 
C 1344 236 1331 160 781 160 
L 589 160 
L 589 0 
C 896 0 1216 0 1523 0 
C 1830 0 2150 0 2458 0 
L 2458 160 
L 2266 160 
C 1715 160 1702 230 1702 458 
L 1702 4058 
z
" transform="scale(0.015625)"/>
        <path id="CMR17-35" d="M 730 3692 
C 794 3666 1056 3584 1325 3584 
C 1920 3584 2246 3911 2432 4100 
C 2432 4157 2432 4192 2394 4192 
C 2387 4192 2374 4192 2323 4163 
C 2099 4058 1837 3973 1517 3973 
C 1325 3973 1037 3999 723 4139 
C 653 4171 640 4171 634 4171 
C 602 4171 595 4164 595 4037 
L 595 2203 
C 595 2089 595 2057 659 2057 
C 691 2057 704 2070 736 2114 
C 941 2401 1222 2522 1542 2522 
C 1766 2522 2246 2382 2246 1289 
C 2246 1085 2246 715 2054 421 
C 1894 159 1645 25 1370 25 
C 947 25 518 320 403 814 
C 429 807 480 795 506 795 
C 589 795 749 840 749 1038 
C 749 1210 627 1280 506 1280 
C 358 1280 262 1190 262 1011 
C 262 454 704 -128 1382 -128 
C 2042 -128 2669 440 2669 1264 
C 2669 2030 2170 2624 1549 2624 
C 1222 2624 947 2503 730 2274 
L 730 3692 
z
" transform="scale(0.015625)"/>
       </defs>
       <use xlink:href="#CMSY10-0" transform="scale(0.996264)"/>
       <use xlink:href="#CMR17-31" transform="translate(77.487468 0) scale(0.996264)"/>
       <use xlink:href="#CMMI12-3a" transform="translate(123.177945 0) scale(0.996264)"/>
       <use xlink:href="#CMR17-35" transform="translate(150.275122 0) scale(0.996264)"/>
      </g>
     </g>
    </g>
    <g id="xtick_3">
     <g id="line2d_3">
      <g>
       <use xlink:href="#meed3031d6e" x="122.541299" y="303.52709" style="stroke: #000000; stroke-width: 0.8"/>
      </g>
     </g>
     <g id="text_3">
      <!-- $\mathdefault{−1.0}$ -->
      <g transform="translate(110.413234 318.82927) scale(0.12 -0.12)">
       <use xlink:href="#CMSY10-0" transform="scale(0.996264)"/>
       <use xlink:href="#CMR17-31" transform="translate(77.487468 0) scale(0.996264)"/>
       <use xlink:href="#CMMI12-3a" transform="translate(123.177945 0) scale(0.996264)"/>
       <use xlink:href="#CMR17-30" transform="translate(150.275122 0) scale(0.996264)"/>
      </g>
     </g>
    </g>
    <g id="xtick_4">
     <g id="line2d_4">
      <g>
       <use xlink:href="#meed3031d6e" x="160.206299" y="303.52709" style="stroke: #000000; stroke-width: 0.8"/>
      </g>
     </g>
     <g id="text_4">
      <!-- $\mathdefault{−0.5}$ -->
      <g transform="translate(148.078234 318.82927) scale(0.12 -0.12)">
       <use xlink:href="#CMSY10-0" transform="scale(0.996264)"/>
       <use xlink:href="#CMR17-30" transform="translate(77.487468 0) scale(0.996264)"/>
       <use xlink:href="#CMMI12-3a" transform="translate(123.177945 0) scale(0.996264)"/>
       <use xlink:href="#CMR17-35" transform="translate(150.275122 0) scale(0.996264)"/>
      </g>
     </g>
    </g>
    <g id="xtick_5">
     <g id="line2d_5">
      <g>
       <use xlink:href="#meed3031d6e" x="197.871299" y="303.52709" style="stroke: #000000; stroke-width: 0.8"/>
      </g>
     </g>
     <g id="text_5">
      <!-- $\mathdefault{0.0}$ -->
      <g transform="translate(190.392478 318.82927) scale(0.12 -0.12)">
       <use xlink:href="#CMR17-30" transform="scale(0.996264)"/>
       <use xlink:href="#CMMI12-3a" transform="translate(45.690477 0) scale(0.996264)"/>
       <use xlink:href="#CMR17-30" transform="translate(72.787654 0) scale(0.996264)"/>
      </g>
     </g>
    </g>
    <g id="xtick_6">
     <g id="line2d_6">
      <g>
       <use xlink:href="#meed3031d6e" x="235.536299" y="303.52709" style="stroke: #000000; stroke-width: 0.8"/>
      </g>
     </g>
     <g id="text_6">
      <!-- $\mathdefault{0.5}$ -->
      <g transform="translate(228.057478 318.82927) scale(0.12 -0.12)">
       <use xlink:href="#CMR17-30" transform="scale(0.996264)"/>
       <use xlink:href="#CMMI12-3a" transform="translate(45.690477 0) scale(0.996264)"/>
       <use xlink:href="#CMR17-35" transform="translate(72.787654 0) scale(0.996264)"/>
      </g>
     </g>
    </g>
    <g id="xtick_7">
     <g id="line2d_7">
      <g>
       <use xlink:href="#meed3031d6e" x="273.201299" y="303.52709" style="stroke: #000000; stroke-width: 0.8"/>
      </g>
     </g>
     <g id="text_7">
      <!-- $\mathdefault{1.0}$ -->
      <g transform="translate(265.722478 318.82927) scale(0.12 -0.12)">
       <use xlink:href="#CMR17-31" transform="scale(0.996264)"/>
       <use xlink:href="#CMMI12-3a" transform="translate(45.690477 0) scale(0.996264)"/>
       <use xlink:href="#CMR17-30" transform="translate(72.787654 0) scale(0.996264)"/>
      </g>
     </g>
    </g>
    <g id="xtick_8">
     <g id="line2d_8">
      <g>
       <use xlink:href="#meed3031d6e" x="310.866299" y="303.52709" style="stroke: #000000; stroke-width: 0.8"/>
      </g>
     </g>
     <g id="text_8">
      <!-- $\mathdefault{1.5}$ -->
      <g transform="translate(303.387478 318.82927) scale(0.12 -0.12)">
       <use xlink:href="#CMR17-31" transform="scale(0.996264)"/>
       <use xlink:href="#CMMI12-3a" transform="translate(45.690477 0) scale(0.996264)"/>
       <use xlink:href="#CMR17-35" transform="translate(72.787654 0) scale(0.996264)"/>
      </g>
     </g>
    </g>
    <g id="xtick_9">
     <g id="line2d_9">
      <g>
       <use xlink:href="#meed3031d6e" x="348.531299" y="303.52709" style="stroke: #000000; stroke-width: 0.8"/>
      </g>
     </g>
     <g id="text_9">
      <!-- $\mathdefault{2.0}$ -->
      <g transform="translate(341.052478 318.82927) scale(0.12 -0.12)">
       <use xlink:href="#CMR17-32" transform="scale(0.996264)"/>
       <use xlink:href="#CMMI12-3a" transform="translate(45.690477 0) scale(0.996264)"/>
       <use xlink:href="#CMR17-30" transform="translate(72.787654 0) scale(0.996264)"/>
      </g>
     </g>
    </g>
    <g id="text_10">
     <!-- $\Delta\alpha/(\Delta k-2\pi/\Lambda)$ -->
     <g transform="translate(152.875848 334.120242) scale(0.12 -0.12)">
      <defs>
       <path id="CMR17-1" d="M 2598 4403 
C 2547 4512 2522 4512 2470 4512 
C 2394 4512 2387 4499 2342 4409 
L 269 109 
C 262 96 237 38 237 32 
C 237 6 243 0 358 0 
L 4576 0 
C 4691 0 4698 6 4698 32 
C 4698 38 4672 96 4666 109 
L 2598 4403 
z
M 2310 4038 
L 4083 358 
L 531 358 
L 2310 4038 
z
" transform="scale(0.015625)"/>
       <path id="CMMI12-b" d="M 2963 1616 
C 2963 2235 2611 2815 1933 2815 
C 1094 2815 256 1902 256 996 
C 256 441 602 -64 1254 -64 
C 1651 -64 2125 89 2579 472 
C 2669 115 2867 -64 3142 -64 
C 3488 -64 3661 294 3661 377 
C 3661 434 3616 434 3597 434 
C 3546 434 3539 415 3520 364 
C 3462 204 3315 64 3162 64 
C 2963 64 2963 472 2963 862 
C 3616 1641 3770 2446 3770 2452 
C 3770 2510 3718 2510 3699 2510 
C 3642 2510 3635 2491 3610 2376 
C 3526 2095 3360 1597 2963 1073 
L 2963 1616 
z
M 2560 626 
C 1997 121 1491 64 1267 64 
C 813 64 685 466 685 766 
C 685 1040 826 1692 1024 2044 
C 1286 2491 1645 2688 1933 2688 
C 2554 2688 2554 1877 2554 1341 
C 2554 1182 2547 1016 2547 856 
C 2547 728 2554 696 2560 626 
z
" transform="scale(0.015625)"/>
       <path id="CMMI12-3d" d="M 2746 4562 
C 2746 4569 2784 4666 2784 4678 
C 2784 4755 2720 4800 2669 4800 
C 2637 4800 2579 4800 2528 4659 
L 384 -1363 
C 384 -1370 346 -1465 346 -1478 
C 346 -1555 410 -1600 461 -1600 
C 499 -1600 557 -1593 602 -1459 
L 2746 4562 
z
" transform="scale(0.015625)"/>
       <path id="CMR17-28" d="M 1958 -1561 
C 1958 -1555 1958 -1542 1939 -1523 
C 1645 -1224 858 -407 858 1581 
C 858 3569 1632 4379 1946 4697 
C 1946 4704 1958 4717 1958 4736 
C 1958 4755 1939 4768 1914 4768 
C 1843 4768 1299 4296 986 3594 
C 666 2887 576 2199 576 1588 
C 576 1128 621 351 1005 -471 
C 1312 -1135 1837 -1600 1914 -1600 
C 1946 -1600 1958 -1587 1958 -1561 
z
" transform="scale(0.015625)"/>
       <path id="CMMI12-6b" d="M 1798 4257 
C 1805 4283 1818 4321 1818 4352 
C 1818 4416 1754 4416 1741 4416 
C 1734 4416 1504 4393 1389 4377 
C 1280 4377 1184 4358 1069 4358 
C 915 4345 870 4339 870 4224 
C 870 4160 934 4160 998 4160 
C 1325 4160 1325 4103 1325 4040 
C 1325 4015 1325 4002 1293 3888 
L 378 248 
C 352 152 352 140 352 101 
C 352 -38 461 -64 525 -64 
C 704 -64 742 77 794 275 
L 1094 1469 
C 1555 1418 1830 1226 1830 920 
C 1830 881 1830 856 1811 760 
C 1786 664 1786 588 1786 556 
C 1786 185 2029 -64 2355 -64 
C 2650 -64 2803 204 2854 294 
C 2989 530 3072 888 3072 913 
C 3072 945 3046 971 3008 971 
C 2950 971 2944 945 2918 843 
C 2829 511 2694 64 2368 64 
C 2240 64 2157 128 2157 370 
C 2157 492 2182 632 2208 728 
C 2234 843 2234 849 2234 926 
C 2234 1303 1894 1514 1306 1590 
C 1536 1731 1766 1980 1856 2076 
C 2221 2484 2470 2689 2765 2689 
C 2912 2689 2950 2650 2995 2612 
C 2758 2586 2669 2420 2669 2293 
C 2669 2139 2790 2088 2880 2088 
C 3053 2088 3206 2235 3206 2440 
C 3206 2625 3059 2816 2771 2816 
C 2419 2816 2131 2567 1677 2056 
C 1613 1980 1376 1737 1139 1648 
L 1798 4257 
z
" transform="scale(0.015625)"/>
       <path id="CMMI12-19" d="M 1658 2408 
L 2381 2408 
C 2208 1692 2099 1226 2099 716 
C 2099 626 2099 -64 2362 -64 
C 2496 -64 2611 57 2611 166 
C 2611 197 2611 210 2566 306 
C 2394 747 2394 1296 2394 1341 
C 2394 1379 2394 1832 2528 2408 
L 3245 2408 
C 3328 2408 3539 2408 3539 2612 
C 3539 2752 3418 2752 3302 2752 
L 1197 2752 
C 1050 2752 832 2752 538 2440 
C 371 2254 166 1916 166 1878 
C 166 1840 198 1827 237 1827 
C 282 1827 288 1846 320 1884 
C 653 2408 986 2408 1146 2408 
L 1510 2408 
C 1370 1929 1210 1373 685 256 
C 634 154 634 140 634 102 
C 634 -32 749 -64 806 -64 
C 992 -64 1043 102 1120 370 
C 1222 696 1222 709 1286 964 
L 1658 2408 
z
" transform="scale(0.015625)"/>
       <path id="CMR17-3" d="M 2150 4403 
C 2118 4505 2112 4512 2048 4512 
C 1984 4512 1978 4505 1946 4403 
L 685 576 
C 570 237 358 160 147 160 
L 147 0 
C 256 0 480 0 595 0 
C 755 0 1005 0 1158 -6 
L 1158 160 
C 819 160 800 404 800 449 
C 800 494 813 532 832 596 
L 1894 3835 
L 3008 461 
C 3040 372 3040 359 3040 340 
C 3040 160 2771 160 2637 160 
L 2637 0 
C 2822 0 3149 0 3347 0 
C 3507 0 3802 0 3949 -6 
L 3949 160 
C 3667 160 3552 160 3475 384 
L 2150 4403 
z
" transform="scale(0.015625)"/>
       <path id="CMR17-29" d="M 1683 1581 
C 1683 2040 1638 2817 1254 3639 
C 947 4303 422 4768 346 4768 
C 326 4768 301 4761 301 4729 
C 301 4717 307 4710 314 4697 
C 621 4378 1402 3568 1402 1584 
C 1402 -407 627 -1217 314 -1537 
C 307 -1549 301 -1556 301 -1568 
C 301 -1600 326 -1600 346 -1600 
C 416 -1600 960 -1128 1274 -426 
C 1594 281 1683 969 1683 1581 
z
" transform="scale(0.015625)"/>
      </defs>
      <use xlink:href="#CMR17-1" transform="scale(0.996264)"/>
      <use xlink:href="#CMMI12-b" transform="translate(76.91959 0) scale(0.996264)"/>
      <use xlink:href="#CMMI12-3d" transform="translate(139.600613 0) scale(0.996264)"/>
      <use xlink:href="#CMR17-28" transform="translate(188.375531 0) scale(0.996264)"/>
      <use xlink:href="#CMR17-1" transform="translate(223.656299 0) scale(0.996264)"/>
      <use xlink:href="#CMMI12-6b" transform="translate(300.575889 0) scale(0.996264)"/>
      <use xlink:href="#CMSY10-0" transform="translate(376.794297 0) scale(0.996264)"/>
      <use xlink:href="#CMR17-32" transform="translate(476.420971 0) scale(0.996264)"/>
      <use xlink:href="#CMMI12-19" transform="translate(522.111449 0) scale(0.996264)"/>
      <use xlink:href="#CMMI12-3d" transform="translate(581.022049 0) scale(0.996264)"/>
      <use xlink:href="#CMR17-3" transform="translate(629.796968 0) scale(0.996264)"/>
      <use xlink:href="#CMR17-29" transform="translate(693.66449 0) scale(0.996264)"/>
     </g>
    </g>
   </g>
   <g id="matplotlib.axis_2">
    <g id="ytick_1">
     <g id="line2d_10">
      <defs>
       <path id="mee027967d1" d="M 0 0 
L -3.5 0 
" style="stroke: #000000; stroke-width: 0.8"/>
      </defs>
      <g>
       <use xlink:href="#mee027967d1" x="47.211299" y="303.52709" style="stroke: #000000; stroke-width: 0.8"/>
      </g>
     </g>
     <g id="text_11">
      <!-- $\mathdefault{−2.0}$ -->
      <g transform="translate(15.955168 307.67818) scale(0.12 -0.12)">
       <use xlink:href="#CMSY10-0" transform="scale(0.996264)"/>
       <use xlink:href="#CMR17-32" transform="translate(77.487468 0) scale(0.996264)"/>
       <use xlink:href="#CMMI12-3a" transform="translate(123.177945 0) scale(0.996264)"/>
       <use xlink:href="#CMR17-30" transform="translate(150.275122 0) scale(0.996264)"/>
      </g>
     </g>
    </g>
    <g id="ytick_2">
     <g id="line2d_11">
      <g>
       <use xlink:href="#mee027967d1" x="47.211299" y="266.10509" style="stroke: #000000; stroke-width: 0.8"/>
      </g>
     </g>
     <g id="text_12">
      <!-- $\mathdefault{−1.5}$ -->
      <g transform="translate(15.955168 270.25618) scale(0.12 -0.12)">
       <use xlink:href="#CMSY10-0" transform="scale(0.996264)"/>
       <use xlink:href="#CMR17-31" transform="translate(77.487468 0) scale(0.996264)"/>
       <use xlink:href="#CMMI12-3a" transform="translate(123.177945 0) scale(0.996264)"/>
       <use xlink:href="#CMR17-35" transform="translate(150.275122 0) scale(0.996264)"/>
      </g>
     </g>
    </g>
    <g id="ytick_3">
     <g id="line2d_12">
      <g>
       <use xlink:href="#mee027967d1" x="47.211299" y="228.68309" style="stroke: #000000; stroke-width: 0.8"/>
      </g>
     </g>
     <g id="text_13">
      <!-- $\mathdefault{−1.0}$ -->
      <g transform="translate(15.955168 232.83418) scale(0.12 -0.12)">
       <use xlink:href="#CMSY10-0" transform="scale(0.996264)"/>
       <use xlink:href="#CMR17-31" transform="translate(77.487468 0) scale(0.996264)"/>
       <use xlink:href="#CMMI12-3a" transform="translate(123.177945 0) scale(0.996264)"/>
       <use xlink:href="#CMR17-30" transform="translate(150.275122 0) scale(0.996264)"/>
      </g>
     </g>
    </g>
    <g id="ytick_4">
     <g id="line2d_13">
      <g>
       <use xlink:href="#mee027967d1" x="47.211299" y="191.26109" style="stroke: #000000; stroke-width: 0.8"/>
      </g>
     </g>
     <g id="text_14">
      <!-- $\mathdefault{−0.5}$ -->
      <g transform="translate(15.955168 195.41218) scale(0.12 -0.12)">
       <use xlink:href="#CMSY10-0" transform="scale(0.996264)"/>
       <use xlink:href="#CMR17-30" transform="translate(77.487468 0) scale(0.996264)"/>
       <use xlink:href="#CMMI12-3a" transform="translate(123.177945 0) scale(0.996264)"/>
       <use xlink:href="#CMR17-35" transform="translate(150.275122 0) scale(0.996264)"/>
      </g>
     </g>
    </g>
    <g id="ytick_5">
     <g id="line2d_14">
      <g>
       <use xlink:href="#mee027967d1" x="47.211299" y="153.83909" style="stroke: #000000; stroke-width: 0.8"/>
      </g>
     </g>
     <g id="text_15">
      <!-- $\mathdefault{0.0}$ -->
      <g transform="translate(25.253658 157.99018) scale(0.12 -0.12)">
       <use xlink:href="#CMR17-30" transform="scale(0.996264)"/>
       <use xlink:href="#CMMI12-3a" transform="translate(45.690477 0) scale(0.996264)"/>
       <use xlink:href="#CMR17-30" transform="translate(72.787654 0) scale(0.996264)"/>
      </g>
     </g>
    </g>
    <g id="ytick_6">
     <g id="line2d_15">
      <g>
       <use xlink:href="#mee027967d1" x="47.211299" y="116.41709" style="stroke: #000000; stroke-width: 0.8"/>
      </g>
     </g>
     <g id="text_16">
      <!-- $\mathdefault{0.5}$ -->
      <g transform="translate(25.253658 120.56818) scale(0.12 -0.12)">
       <use xlink:href="#CMR17-30" transform="scale(0.996264)"/>
       <use xlink:href="#CMMI12-3a" transform="translate(45.690477 0) scale(0.996264)"/>
       <use xlink:href="#CMR17-35" transform="translate(72.787654 0) scale(0.996264)"/>
      </g>
     </g>
    </g>
    <g id="ytick_7">
     <g id="line2d_16">
      <g>
       <use xlink:href="#mee027967d1" x="47.211299" y="78.99509" style="stroke: #000000; stroke-width: 0.8"/>
      </g>
     </g>
     <g id="text_17">
      <!-- $\mathdefault{1.0}$ -->
      <g transform="translate(25.253658 83.14618) scale(0.12 -0.12)">
       <use xlink:href="#CMR17-31" transform="scale(0.996264)"/>
       <use xlink:href="#CMMI12-3a" transform="translate(45.690477 0) scale(0.996264)"/>
       <use xlink:href="#CMR17-30" transform="translate(72.787654 0) scale(0.996264)"/>
      </g>
     </g>
    </g>
    <g id="ytick_8">
     <g id="line2d_17">
      <g>
       <use xlink:href="#mee027967d1" x="47.211299" y="41.57309" style="stroke: #000000; stroke-width: 0.8"/>
      </g>
     </g>
     <g id="text_18">
      <!-- $\mathdefault{1.5}$ -->
      <g transform="translate(25.253658 45.72418) scale(0.12 -0.12)">
       <use xlink:href="#CMR17-31" transform="scale(0.996264)"/>
       <use xlink:href="#CMMI12-3a" transform="translate(45.690477 0) scale(0.996264)"/>
       <use xlink:href="#CMR17-35" transform="translate(72.787654 0) scale(0.996264)"/>
      </g>
     </g>
    </g>
    <g id="ytick_9">
     <g id="line2d_18">
      <g>
       <use xlink:href="#mee027967d1" x="47.211299" y="4.15109" style="stroke: #000000; stroke-width: 0.8"/>
      </g>
     </g>
     <g id="text_19">
      <!-- $\mathdefault{2.0}$ -->
      <g transform="translate(25.253658 8.30218) scale(0.12 -0.12)">
       <use xlink:href="#CMR17-32" transform="scale(0.996264)"/>
       <use xlink:href="#CMMI12-3a" transform="translate(45.690477 0) scale(0.996264)"/>
       <use xlink:href="#CMR17-30" transform="translate(72.787654 0) scale(0.996264)"/>
      </g>
     </g>
    </g>
    <g id="text_20">
     <!-- $(\Delta k-2\pi/\Lambda)L/2$ -->
     <g transform="translate(8.966376 197.104936) rotate(-90) scale(0.12 -0.12)">
      <defs>
       <path id="CMMI12-4c" d="M 2349 3861 
C 2406 4103 2426 4167 2989 4167 
C 3162 4167 3206 4167 3206 4288 
C 3206 4352 3136 4352 3110 4352 
C 2982 4352 2835 4352 2707 4352 
L 1850 4352 
C 1728 4352 1587 4352 1466 4352 
C 1414 4352 1344 4352 1344 4231 
C 1344 4167 1402 4167 1498 4167 
C 1888 4167 1888 4116 1888 4046 
C 1888 4034 1888 3995 1862 3899 
L 998 472 
C 941 249 928 185 480 185 
C 358 185 294 185 294 70 
C 294 0 333 0 461 0 
L 3328 0 
C 3469 0 3475 6 3520 121 
L 4013 1478 
C 4026 1510 4038 1548 4038 1567 
C 4038 1605 4006 1631 3974 1631 
C 3968 1631 3936 1631 3923 1605 
C 3910 1599 3910 1586 3859 1465 
C 3654 905 3366 185 2285 185 
L 1670 185 
C 1581 185 1568 185 1530 192 
C 1459 198 1453 211 1453 262 
C 1453 307 1466 345 1478 401 
L 2349 3861 
z
" transform="scale(0.015625)"/>
      </defs>
      <use xlink:href="#CMR17-28" transform="scale(0.996264)"/>
      <use xlink:href="#CMR17-1" transform="translate(35.280768 0) scale(0.996264)"/>
      <use xlink:href="#CMMI12-6b" transform="translate(112.200358 0) scale(0.996264)"/>
      <use xlink:href="#CMSY10-0" transform="translate(188.418765 0) scale(0.996264)"/>
      <use xlink:href="#CMR17-32" transform="translate(288.04544 0) scale(0.996264)"/>
      <use xlink:href="#CMMI12-19" transform="translate(333.735917 0) scale(0.996264)"/>
      <use xlink:href="#CMMI12-3d" transform="translate(392.646518 0) scale(0.996264)"/>
      <use xlink:href="#CMR17-3" transform="translate(441.421437 0) scale(0.996264)"/>
      <use xlink:href="#CMR17-29" transform="translate(505.288959 0) scale(0.996264)"/>
      <use xlink:href="#CMMI12-4c" transform="translate(540.569726 0) scale(0.996264)"/>
      <use xlink:href="#CMMI12-3d" transform="translate(606.940602 0) scale(0.996264)"/>
      <use xlink:href="#CMR17-32" transform="translate(655.715521 0) scale(0.996264)"/>
     </g>
    </g>
   </g>
   <g id="QuadContourSet_1">
    <path clip-path="url(#p69b45e1fd0)" style="fill: none; stroke-dasharray: 5.55,2.4; stroke-dashoffset: 0; stroke: #000000; stroke-width: 1.5"/>
    <path d="M 250.40221 303.52709 
L 251.967587 292.50654 
L 252.623193 286.415711 
L 252.933535 281.589425 
L 252.985823 277.494394 
L 252.822012 273.838117 
L 252.445354 270.32809 
L 251.837389 266.818064 
L 251.004402 263.308038 
L 249.792914 259.213007 
L 247.89052 253.655465 
L 244.099557 242.686633 
L 242.490725 237.275342 
L 241.196471 232.156554 
L 240.134612 227.037765 
L 239.327245 222.065228 
L 238.743292 217.09269 
L 238.39899 212.266404 
L 238.293615 207.73262 
L 238.415918 203.491338 
L 238.746301 199.688809 
L 239.258489 196.325034 
L 239.920785 193.400012 
L 240.742685 190.767492 
L 241.709328 188.427475 
L 242.794858 186.379959 
L 244.018744 184.542706 
L 245.401573 182.869933 
L 246.96276 181.337473 
L 248.729169 179.924509 
L 250.713577 178.628651 
L 252.997992 177.41303 
L 255.647606 176.271264 
L 258.738823 175.203921 
L 262.254814 174.241118 
L 266.246062 173.38581 
L 270.809287 172.635901 
L 275.961314 172.009195 
L 281.996546 171.502257 
L 288.620581 171.171964 
L 295.539018 171.045135 
L 302.604655 171.134929 
L 309.228691 171.4363 
L 315.116722 171.918396 
L 320.268749 172.561256 
L 324.390371 173.286596 
L 327.788719 174.094867 
L 330.572804 174.976668 
L 332.780816 175.902495 
L 334.526796 176.873638 
L 335.88821 177.897396 
L 336.902438 178.964788 
L 337.544947 179.944911 
L 337.974517 180.968669 
L 338.217152 182.138678 
L 338.241124 183.308686 
L 338.053193 184.624946 
L 337.625976 186.087457 
L 336.87 187.84247 
L 335.724831 189.89339 
L 335.530868 190.204551 
M 312.019913 219.143217 
L 309.186559 223.235236 
L 306.873478 226.960786 
L 304.995381 230.40154 
L 303.495149 233.619065 
L 302.376699 236.544086 
L 301.57425 239.276326 
L 301.092125 241.662875 
L 300.84579 244.002893 
L 300.845578 246.196659 
L 301.071863 248.244174 
L 301.498497 250.145439 
L 302.163053 252.076388 
L 303.046258 253.95735 
L 304.223864 255.92877 
L 305.754283 258.042998 
L 307.903884 260.609094 
L 313.524539 267.110566 
L 314.969521 269.214104 
L 315.999927 271.099835 
L 316.73593 272.898479 
L 317.208925 274.569372 
L 317.517049 276.470637 
L 317.605514 278.371901 
L 317.487679 280.419416 
L 317.125618 282.759434 
L 316.483842 285.391954 
L 315.493178 288.463227 
L 314.067437 292.119504 
L 311.985378 296.799539 
L 308.721135 303.52709 
M 308.721135 4.15109 
L 312.459031 11.902398 
L 314.54734 16.728684 
L 315.896801 20.384962 
L 316.796143 23.456235 
L 317.334169 26.088755 
L 317.580107 28.428772 
L 317.575532 30.476288 
L 317.355182 32.377552 
L 316.942719 34.132565 
L 316.294328 35.926906 
L 315.411123 37.713401 
L 314.233517 39.588297 
L 312.614309 41.725441 
L 310.328181 44.370142 
L 305.98525 49.34268 
L 304.268135 51.682697 
L 303.041259 53.730213 
L 302.150959 55.631477 
L 301.498497 57.532741 
L 301.071863 59.434005 
L 300.845578 61.481521 
L 300.838513 63.529036 
L 301.048483 65.722803 
L 301.492556 68.06282 
L 302.184064 70.549089 
L 303.193459 73.33062 
L 304.518266 76.312251 
L 306.162393 79.470406 
L 308.246197 82.980432 
L 310.771961 86.782961 
L 311.888466 88.353711 
M 335.410727 117.284693 
L 336.646285 119.396956 
L 337.516863 121.29822 
L 338.020063 122.906982 
L 338.241124 124.369493 
L 338.199652 125.685753 
L 337.926548 126.855762 
L 337.464559 127.87952 
L 336.748456 128.903277 
L 335.71923 129.927035 
L 334.400024 130.884894 
L 332.780816 131.775685 
L 330.867206 132.59188 
L 328.307194 133.437062 
L 325.126375 134.235604 
L 321.299155 134.956341 
L 316.73593 135.583334 
L 311.436702 136.087689 
L 305.107069 136.455797 
L 298.335833 136.624311 
L 291.270195 136.579723 
L 284.351759 136.318208 
L 277.874924 135.853559 
L 272.134094 135.223148 
L 267.164574 134.460819 
L 262.860444 133.581293 
L 259.033224 132.564248 
L 255.942008 131.519521 
L 253.145193 130.335398 
L 250.78998 129.094325 
L 248.87637 127.85921 
L 247.04916 126.417009 
L 245.490752 124.904648 
L 244.165945 123.331349 
L 242.972106 121.590723 
L 241.849178 119.543207 
L 240.905019 117.349441 
L 240.0828 114.863172 
L 239.402921 112.084401 
L 238.857739 108.866877 
L 238.493142 105.356851 
L 238.309723 101.408071 
L 238.336096 97.020538 
L 238.591945 92.340503 
L 239.077337 87.514216 
L 239.799788 82.541679 
L 240.743671 77.569142 
L 241.907937 72.596604 
L 243.331287 67.477816 
L 245.108991 61.920274 
L 248.098258 53.43771 
L 250.201177 47.164589 
L 251.305598 43.200133 
L 252.09265 39.543856 
L 252.61326 36.03383 
L 252.90639 32.523803 
L 252.99315 28.721275 
L 252.85607 24.479993 
L 252.459081 19.507455 
L 251.715432 13.218658 
L 250.40221 4.15109 
L 250.40221 4.15109 
" clip-path="url(#p69b45e1fd0)" style="fill: none; stroke-dasharray: 5.55,2.4; stroke-dashoffset: 0; stroke: #000000; stroke-width: 1.5"/>
    <path d="M 241.344612 303.52709 
L 242.042294 297.823297 
L 242.382851 293.289513 
L 242.461375 289.340733 
L 242.308242 285.830707 
L 241.941311 282.613183 
L 241.36913 279.592664 
L 240.617866 276.763139 
L 239.569468 273.691866 
L 238.130713 270.218702 
L 235.971166 265.648055 
L 231.506678 256.286514 
L 229.593068 251.671845 
L 228.038818 247.366668 
L 226.636428 242.832884 
L 225.383915 238.006597 
L 224.293778 232.887809 
L 223.373502 227.476518 
L 222.629854 221.772725 
L 222.074278 215.77643 
L 221.740833 209.780135 
L 221.639534 204.076342 
L 221.764246 198.811303 
L 222.087328 194.277519 
L 222.568862 190.47499 
L 223.186414 187.257466 
L 223.937634 184.478695 
L 224.788538 182.138678 
L 225.765847 180.077579 
L 226.816813 178.336149 
L 228.033463 176.727387 
L 229.445867 175.232374 
L 231.065076 173.856763 
L 232.848613 172.632356 
L 235.039497 171.420205 
L 237.54191 170.310289 
L 240.338725 169.312542 
L 243.724343 168.344282 
L 247.845965 167.411634 
L 252.55639 166.573826 
L 258.451417 165.758554 
L 265.80446 164.986945 
L 274.66503 164.296043 
L 285.676566 163.677404 
L 299.071837 163.160705 
L 313.539155 162.801146 
M 348.531299 281.783926 
L 343.968075 284.985674 
L 339.417015 288.463227 
L 335.283229 291.88593 
L 330.938483 295.775782 
L 326.857126 299.724561 
L 323.199418 303.52709 
M 348.531299 209.300811 
L 344.115276 212.175633 
L 340.112369 215.045175 
L 336.62077 217.823946 
L 333.66402 220.460259 
L 331.161607 222.994665 
L 329.207426 225.282752 
L 327.727028 227.330267 
L 326.598383 229.245152 
L 325.816301 230.986545 
L 325.334103 232.595307 
L 325.13233 234.057818 
L 325.182301 235.374078 
L 325.450458 236.544086 
L 325.652479 237.068764 
M 348.531299 145.168553 
L 328.511993 145.089698 
L 316.690406 144.933851 
M 279.404924 143.675204 
L 269.337279 142.992431 
L 261.094035 142.223006 
L 254.617201 141.414153 
L 249.170772 140.523069 
L 244.715626 139.579608 
L 240.927528 138.550646 
L 237.836312 137.48339 
L 235.186697 136.330434 
L 232.978686 135.12552 
L 231.13652 133.875815 
L 229.566726 132.559555 
L 228.12106 131.053569 
L 226.916616 129.488282 
L 225.837831 127.733269 
L 224.850004 125.685753 
L 223.984198 123.345736 
L 223.254662 120.713216 
L 222.640136 117.641943 
L 222.147217 113.985665 
L 221.809226 109.744384 
L 221.649234 104.918097 
L 221.693877 99.360555 
L 221.963003 93.510511 
L 222.458758 87.514216 
L 223.161757 81.664172 
L 224.049225 76.106631 
L 225.114306 70.841591 
L 226.311121 66.015305 
L 227.701745 61.33527 
L 229.234027 56.947737 
L 230.998598 52.560204 
L 233.187391 47.733917 
L 239.344258 34.571319 
L 240.485926 31.343172 
L 241.323637 28.282521 
L 241.895909 25.357499 
L 242.271862 22.286226 
L 242.451832 18.922451 
L 242.420125 15.266173 
L 242.151554 11.024892 
L 241.603885 6.052354 
L 241.344612 4.15109 
M 327.721395 67.965182 
L 326.714345 68.940327 
L 325.979922 69.964085 
L 325.501178 70.987842 
L 325.203387 72.157851 
L 325.122913 73.32786 
L 325.247991 74.64412 
L 325.612227 76.106631 
L 326.245893 77.715393 
L 327.187186 79.487013 
L 328.511993 81.478916 
L 330.131202 83.521133 
L 332.192013 85.769707 
L 334.774564 88.245472 
L 337.785642 90.815523 
L 341.293713 93.510511 
L 345.283266 96.289282 
L 348.531299 98.377369 
M 323.199418 4.15109 
L 327.039985 8.137079 
L 331.308808 12.246308 
L 335.693615 16.14368 
L 339.846453 19.555958 
L 344.414002 23.017482 
L 348.531299 25.894253 
L 348.531299 25.894253 
" clip-path="url(#p69b45e1fd0)" style="fill: none; stroke-dasharray: 5.55,2.4; stroke-dashoffset: 0; stroke: #000000; stroke-width: 1.5"/>
    <path d="M 232.59237 303.52709 
L 232.654992 300.017064 
L 232.48838 296.799539 
L 232.300318 295.133515 
M 216.466593 261.62883 
L 215.188276 257.896747 
L 214.022979 253.801716 
L 212.959379 249.230352 
L 212.009159 244.149144 
L 211.149957 238.2991 
L 210.414677 231.7178 
L 209.810502 224.258994 
L 209.371946 216.068933 
L 209.133748 207.440118 
L 209.12939 199.396307 
L 209.338782 192.668757 
L 209.720962 187.323618 
L 210.214936 183.308686 
L 210.819064 180.091162 
L 211.529487 177.458642 
L 212.347453 175.264876 
L 213.253781 173.448787 
L 214.284186 171.869327 
L 215.492057 170.43859 
L 216.7866 169.237025 
L 218.405808 168.05441 
L 220.172218 167.037961 
L 222.380229 166.036355 
L 225.029844 165.098571 
L 228.12106 164.245742 
L 231.993147 163.418537 
L 236.805906 162.63328 
L 242.693937 161.906118 
L 250.201177 161.212987 
L 259.769228 160.563766 
L 272.134094 159.958423 
L 288.32618 159.399467 
L 309.817494 158.891544 
L 338.668847 158.443539 
L 348.531299 158.329725 
M 348.531299 292.473578 
L 343.526473 295.797611 
L 338.899956 299.139557 
L 334.547225 302.551271 
L 333.365028 303.52709 
M 348.531299 149.348455 
L 314.086316 148.866407 
L 289.503786 148.312237 
L 271.545291 147.695202 
L 258.29722 147.027138 
L 248.284005 146.307158 
L 240.633126 145.540324 
L 234.745095 144.734763 
L 230.181871 143.899579 
L 226.501851 143.012154 
L 223.496479 142.065876 
L 220.993625 141.042119 
L 218.994611 139.989126 
L 217.29959 138.848352 
L 215.903395 137.652248 
L 214.715065 136.362084 
L 213.65845 134.899573 
L 212.682625 133.144559 
L 211.880099 131.243295 
L 211.1441 128.903277 
L 210.515292 126.124507 
L 209.989106 122.760731 
L 209.561267 118.519449 
L 209.254671 113.108159 
L 209.108946 106.380608 
L 209.163792 98.483049 
L 209.448005 89.854234 
L 209.94438 81.517921 
L 210.605397 74.059115 
L 211.405344 67.477816 
L 212.313264 61.774023 
L 213.350064 56.655235 
L 214.495029 52.12145 
L 215.761144 48.02642 
L 216.092753 47.073891 
M 232.136699 13.622902 
L 232.48838 10.87864 
L 232.652457 7.807367 
L 232.605932 4.443592 
L 232.59237 4.15109 
M 333.365028 4.15109 
L 337.556611 7.514865 
L 342.054465 10.846994 
L 346.912091 14.159976 
L 348.531299 15.204602 
L 348.531299 15.204602 
" clip-path="url(#p69b45e1fd0)" style="fill: none; stroke-dasharray: 5.55,2.4; stroke-dashoffset: 0; stroke: #000000; stroke-width: 1.5"/>
    <path d="M 181.150703 303.52709 
L 182.392247 302.503332 
L 183.813625 301.583242 
L 185.580034 300.701634 
L 187.640845 299.93336 
L 188.8244 299.588871 
M 197.871299 279.576699 
L 197.797699 9.181236 
L 194.853683 9.069555 
L 192.056868 8.754912 
L 189.407254 8.237208 
L 187.052042 7.549031 
L 184.991231 6.709268 
L 183.224822 5.740899 
L 181.752814 4.67873 
L 181.150703 4.15109 
M 214.591895 303.52709 
L 213.350352 302.503332 
L 211.928974 301.583242 
L 210.162565 300.701634 
L 208.101754 299.93336 
L 205.746541 299.304914 
L 203.096927 298.838763 
L 200.300112 298.569009 
L 197.9449 298.496944 
L 197.871299 298.554553 
L 197.871299 303.52709 
M 47.211299 300.35077 
L 51.627323 303.297116 
L 51.956451 303.52709 
M 348.531299 300.35077 
L 344.115276 303.297116 
L 343.786148 303.52709 
M 51.956451 4.15109 
L 47.3585 7.233508 
L 47.211299 7.32741 
M 197.871299 4.15109 
L 197.9449 9.181236 
L 200.888915 9.069555 
L 203.68573 8.754912 
L 206.335344 8.237208 
L 208.690557 7.549031 
L 210.751368 6.709268 
L 212.517777 5.740899 
L 213.989785 4.67873 
L 214.591895 4.15109 
M 343.786148 4.15109 
L 348.384099 7.233508 
L 348.531299 7.32741 
L 348.531299 7.32741 
" clip-path="url(#p69b45e1fd0)" style="fill: none; stroke: #000000; stroke-width: 1.5"/>
    <path d="M 163.150228 303.52709 
L 163.087607 300.017064 
L 163.254219 296.799539 
L 163.611646 294.020768 
L 164.167971 291.388249 
L 164.914163 288.90198 
L 165.889969 286.415711 
L 167.179936 283.761244 
L 168.946346 280.675907 
L 176.306385 268.390397 
L 177.946338 264.9168 
L 179.397601 261.301117 
L 180.645238 257.604245 
L 181.794599 253.509214 
L 182.836239 248.97543 
L 183.781865 243.856641 
L 184.63007 238.006597 
L 185.35583 231.425298 
L 185.951558 223.966492 
L 186.382415 215.77643 
L 186.61291 207.147616 
L 186.608736 199.103805 
L 186.388813 192.376255 
L 186.000863 187.111215 
L 185.481843 183.016184 
L 184.855925 179.79866 
L 184.117911 177.16614 
L 183.330974 175.118625 
L 182.439858 173.363612 
L 181.372683 171.75485 
L 180.250541 170.43859 
L 178.955999 169.237025 
L 177.33679 168.05441 
L 175.570381 167.037961 
L 173.362369 166.036355 
L 170.712755 165.098571 
L 167.621539 164.245742 
L 163.749451 163.418537 
L 158.936693 162.63328 
L 153.048661 161.906118 
L 145.541421 161.212987 
L 135.973371 160.563766 
L 123.608505 159.958423 
L 107.416419 159.399467 
L 85.925105 158.891544 
L 75.493573 158.705923 
M 47.485463 158.332688 
L 47.211299 158.329725 
M 47.211299 292.473578 
L 52.216126 295.797611 
L 56.842643 299.139557 
L 61.195374 302.551271 
L 62.377571 303.52709 
M 47.211299 149.348455 
L 71.774684 149.031263 
M 99.779846 148.482854 
L 119.339682 147.887628 
L 133.765359 147.238327 
L 144.658217 146.534319 
L 152.901461 145.787808 
L 159.312821 144.990898 
L 164.235921 144.166974 
L 168.210342 143.285632 
L 171.399694 142.358379 
L 173.951172 141.397926 
L 176.011983 140.4073 
L 177.839626 139.287106 
L 179.397601 138.061853 
L 180.722408 136.723285 
L 181.794141 135.338326 
L 182.783219 133.692902 
L 183.638585 131.828299 
L 184.402428 129.601354 
L 185.051625 127.002013 
L 185.614722 123.784489 
L 186.07031 119.835709 
L 186.411102 114.863172 
L 186.608736 108.574375 
L 186.618484 100.969318 
L 186.405166 92.486754 
L 185.970725 84.00419 
L 185.35583 76.252882 
L 184.592642 69.37908 
L 183.708994 63.382785 
L 182.713656 58.117746 
L 181.605217 53.43771 
L 180.41556 49.34268 
L 179.083368 45.540151 
L 177.621896 42.030125 
L 175.986295 38.666349 
L 174.030693 35.156323 
L 171.220617 30.622539 
L 167.891485 25.211248 
L 166.358466 22.286226 
L 165.232033 19.653706 
L 164.383121 17.088422 
L 163.771916 14.534918 
L 163.343691 11.756147 
L 163.120698 8.831125 
L 163.096822 5.613601 
L 163.150228 4.15109 
M 62.377571 4.15109 
L 58.185988 7.514865 
L 53.688134 10.846994 
L 48.830508 14.159976 
L 47.211299 15.204602 
L 47.211299 15.204602 
" clip-path="url(#p69b45e1fd0)" style="fill: none; stroke: #000000; stroke-width: 1.5"/>
    <path d="M 154.397987 303.52709 
L 153.700304 297.823297 
L 153.359748 293.289513 
L 153.281224 289.340733 
L 153.434357 285.830707 
L 153.801287 282.613183 
L 154.373468 279.592664 
L 154.899186 277.534278 
M 166.068918 251.8794 
L 167.654633 247.512919 
L 169.064478 242.979135 
L 170.289308 238.2991 
L 171.392536 233.180311 
L 172.324955 227.769021 
L 173.079883 222.065228 
L 173.646383 216.068933 
L 173.990721 210.072638 
L 174.103328 204.222594 
L 173.985108 198.957554 
L 173.669494 194.42377 
L 173.19671 190.621241 
L 172.556184 187.257466 
L 171.804965 184.478695 
L 170.95406 182.138678 
L 169.976751 180.077579 
L 168.925786 178.336149 
L 167.709135 176.727387 
L 166.296732 175.232374 
L 164.677523 173.856763 
L 162.893985 172.632356 
L 160.703102 171.420205 
L 158.200689 170.310289 
L 155.403874 169.312542 
L 152.018256 168.344282 
L 147.896634 167.411634 
L 143.186209 166.573826 
L 137.291182 165.758554 
L 129.938139 164.986945 
L 121.077568 164.296043 
L 110.066033 163.677404 
L 96.670762 163.160705 
L 80.773078 162.774555 
L 62.078578 162.54654 
L 47.211299 162.509627 
M 47.211299 281.783926 
L 48.965421 282.982222 
M 70.254939 301.117981 
L 72.543181 303.52709 
M 59.727627 218.339567 
L 62.532266 220.895219 
L 64.93246 223.381488 
L 66.874624 225.721505 
L 68.297144 227.769021 
L 69.357968 229.670285 
L 70.082302 231.425298 
L 70.494607 233.03406 
L 70.619686 234.35032 
L 70.514768 235.66658 
L 70.174621 236.866716 
L 69.674792 237.860346 
L 68.898461 238.884104 
L 67.962315 239.761611 
L 66.641802 240.668788 
L 65.022594 241.485589 
L 63.108984 242.197946 
L 60.753771 242.833117 
L 57.956956 243.353705 
L 54.571338 243.746333 
L 50.744118 243.961284 
L 47.211299 243.992566 
M 47.211299 145.168553 
L 67.230606 145.089698 
L 86.072306 144.79735 
L 102.117191 144.332505 
L 115.21806 143.737896 
L 125.669316 143.05059 
L 134.206961 142.270463 
L 140.978197 141.435204 
L 146.571827 140.523069 
L 151.026972 139.579608 
L 154.815071 138.550646 
L 157.906287 137.48339 
L 160.555901 136.330434 
L 162.763913 135.12552 
L 164.606079 133.875815 
L 166.175872 132.559555 
L 167.621539 131.053569 
L 168.825982 129.488282 
L 169.904768 127.733269 
L 170.892595 125.685753 
L 171.7584 123.345736 
L 172.487937 120.713216 
L 173.102462 117.641943 
L 173.595382 113.985665 
L 173.933373 109.744384 
L 174.093364 104.918097 
L 174.048722 99.360555 
L 173.779596 93.510511 
L 173.28384 87.514216 
L 172.580842 81.664172 
L 171.693373 76.106631 
L 170.628292 70.841591 
L 169.431478 66.015305 
L 168.040854 61.33527 
L 166.761331 57.628154 
M 155.472922 32.013758 
L 154.596708 29.013777 
L 153.969344 26.088755 
L 153.540696 23.017482 
L 153.316565 19.799958 
L 153.292643 16.289931 
L 153.495834 12.1949 
L 153.95633 7.514865 
L 154.397987 4.15109 
M 47.211299 63.685614 
L 51.627323 63.748238 
L 55.454543 64.013502 
L 58.840161 64.466555 
L 61.636976 65.058174 
L 63.992188 65.782166 
L 65.905799 66.607013 
L 67.377806 67.479266 
L 68.555413 68.44076 
L 69.378362 69.37908 
L 70.02742 70.470113 
L 70.420266 71.572847 
L 70.604122 72.742855 
L 70.575902 74.059115 
L 70.302153 75.521626 
L 69.753153 77.130388 
L 68.901616 78.885402 
L 67.672208 80.85734 
L 66.184089 82.834181 
L 64.261307 85.027948 
L 61.919805 87.367965 
L 61.649815 87.620541 
M 61.50041 14.888338 
L 57.368153 18.376291 
L 52.804929 21.930851 
L 48.094504 25.295903 
L 47.211299 25.894253 
L 47.211299 25.894253 
" clip-path="url(#p69b45e1fd0)" style="fill: none; stroke: #000000; stroke-width: 1.5"/>
    <path d="M 143.255431 287.887009 
L 142.870317 282.905685 
L 142.748429 278.518152 
L 142.86105 274.715623 
L 143.186209 271.169666 
L 143.731417 267.695571 
L 144.511016 264.182413 
L 145.626652 260.236765 
L 147.307831 255.194732 
L 152.145598 241.077871 
L 153.645085 235.812831 
L 154.873351 230.694043 
L 155.86844 225.575254 
L 156.610516 220.602717 
L 157.127434 215.630179 
L 157.397081 210.950144 
L 157.43567 206.41636 
L 157.249457 202.321329 
L 156.864846 198.665052 
L 156.309241 195.447528 
L 155.617555 192.668757 
L 154.781635 190.182488 
L 153.784665 187.914173 
L 152.679456 185.941206 
L 151.429453 184.155814 
L 150.06725 182.577431 
L 148.485437 181.081184 
L 146.719028 179.715209 
L 144.77837 178.4824 
L 142.450205 177.273493 
L 139.757653 176.142383 
L 136.709375 175.113931 
L 133.176556 174.166551 
L 129.202135 173.330865 
L 124.49171 172.574152 
L 119.045281 171.935346 
L 113.010049 171.454498 
L 106.238813 171.143993 
L 99.173175 171.04431 
L 92.107538 171.166984 
L 85.630703 171.494501 
L 79.742672 172.012022 
L 74.885046 172.6513 
L 70.763424 173.410577 
L 67.377806 174.257974 
L 64.728192 175.142331 
L 62.667381 176.04785 
L 60.994221 177.019889 
L 59.693135 178.043647 
L 58.760519 179.067405 
L 58.104157 180.128577 
L 57.724264 181.11492 
L 57.511352 182.284929 
L 57.525051 183.601189 
L 57.757917 184.917448 
L 58.282986 186.526211 
L 59.134563 188.353405 
L 60.312169 190.362679 
L 62.002917 192.815008 
L 64.580992 196.121179 
L 68.344668 200.566316 
L 78.712267 212.66049 
L 82.539487 217.541576 
L 85.576418 221.772725 
L 88.040902 225.575254 
L 90.060188 229.08528 
L 91.665935 232.303097 
L 92.89366 235.227827 
L 93.826708 238.006597 
L 94.470533 240.639117 
L 94.818489 242.979135 
L 94.926497 245.172901 
L 94.812728 247.220417 
L 94.468162 249.267932 
L 93.921753 251.169196 
L 93.137943 253.079506 
L 92.107538 254.996012 
L 90.761557 257.01924 
L 88.917509 259.359258 
L 86.072306 262.578212 
L 82.784628 266.379311 
L 81.181911 268.573077 
L 80.037074 270.509153 
L 79.195713 272.375606 
L 78.638813 274.130619 
L 78.276151 276.031883 
L 78.139483 277.933148 
L 78.212769 279.980663 
L 78.532694 282.320681 
L 79.136911 284.9532 
L 80.043886 287.878222 
L 81.372881 291.388249 
L 83.283567 295.775782 
L 86.223699 301.918328 
L 87.021463 303.52709 
M 87.021463 4.15109 
L 83.283567 11.902398 
L 81.195258 16.728684 
L 79.845798 20.384962 
L 78.946456 23.456235 
L 78.40843 26.088755 
L 78.162492 28.428772 
L 78.167066 30.476288 
L 78.387416 32.377552 
L 78.799879 34.132565 
L 79.44827 35.926906 
L 80.331475 37.713401 
L 81.509081 39.588297 
L 83.12829 41.725441 
L 85.414418 44.370142 
L 89.757348 49.34268 
L 91.474464 51.682697 
L 92.70134 53.730213 
L 93.591639 55.631477 
L 94.244102 57.532741 
L 94.670735 59.434005 
L 94.897021 61.481521 
L 94.904086 63.529036 
L 94.694115 65.722803 
L 94.250043 68.06282 
L 93.558535 70.549089 
L 92.54914 73.33062 
L 91.224333 76.312251 
L 89.580206 79.470406 
L 87.496402 82.980432 
L 85.141821 86.536825 
M 67.406789 108.197776 
L 63.403385 113.024955 
L 61.166825 116.033181 
L 59.576165 118.525587 
L 58.529079 120.566965 
L 57.877124 122.321978 
L 57.559413 123.784489 
L 57.493056 125.100749 
L 57.662555 126.327662 
L 57.986042 127.294515 
L 58.550785 128.318273 
L 59.392783 129.342031 
L 60.45937 130.275434 
L 61.784177 131.152221 
L 63.550586 132.048726 
L 65.758598 132.909379 
L 68.555413 133.74427 
L 72.088231 134.538606 
L 76.209853 135.22446 
L 81.21468 135.8186 
L 86.95551 136.269138 
L 93.432345 136.551508 
L 100.497982 136.631947 
L 107.56362 136.49068 
L 114.334856 136.135708 
L 120.517289 135.591493 
L 125.963717 134.890839 
L 130.674142 134.061937 
L 134.648564 133.144116 
L 138.181382 132.095964 
L 141.125398 130.991709 
L 143.627811 129.824595 
L 145.746507 128.610775 
L 147.627687 127.294515 
L 149.368642 125.799319 
L 150.858428 124.223242 
L 152.200017 122.468229 
L 153.365291 120.566965 
L 154.373468 118.495809 
L 155.256673 116.169437 
L 156.009522 113.546912 
L 156.615899 110.62189 
L 157.078379 107.258115 
L 157.364738 103.455586 
L 157.448249 99.360555 
L 157.314141 94.826771 
L 156.942374 90.000485 
L 156.331848 85.027948 
L 155.49847 80.05541 
L 154.44421 75.082873 
L 153.130345 69.964085 
L 151.54965 64.699045 
L 149.416603 58.410248 
L 145.447573 46.856411 
L 144.363815 42.901516 
L 143.623611 39.397605 
L 143.112683 35.887578 
L 142.82865 32.377552 
L 142.750382 28.575023 
L 142.89496 24.333742 
L 143.298232 19.361204 
L 144.046707 13.072407 
L 145.340389 4.15109 
L 145.340389 4.15109 
" clip-path="url(#p69b45e1fd0)" style="fill: none; stroke: #000000; stroke-width: 1.5"/>
    <path clip-path="url(#p69b45e1fd0)" style="fill: none; stroke: #000000; stroke-width: 1.5"/>
   </g>
   <g id="patch_3">
    <path d="M 47.211299 303.52709 
L 47.211299 4.15109 
" style="fill: none; stroke: #000000; stroke-width: 0.8; stroke-linejoin: miter; stroke-linecap: square"/>
   </g>
   <g id="patch_4">
    <path d="M 348.531299 303.52709 
L 348.531299 4.15109 
" style="fill: none; stroke: #000000; stroke-width: 0.8; stroke-linejoin: miter; stroke-linecap: square"/>
   </g>
   <g id="patch_5">
    <path d="M 47.211299 303.52709 
L 348.531299 303.52709 
" style="fill: none; stroke: #000000; stroke-width: 0.8; stroke-linejoin: miter; stroke-linecap: square"/>
   </g>
   <g id="patch_6">
    <path d="M 47.211299 4.15109 
L 348.531299 4.15109 
" style="fill: none; stroke: #000000; stroke-width: 0.8; stroke-linejoin: miter; stroke-linecap: square"/>
   </g>
   <g id="text_21">
    <!-- $\mathdefault{−0.75}$ -->
    <g transform="translate(316.440261 218.156187) rotate(-50.110797) scale(0.12 -0.12)">
     <defs>
      <path id="CMR17-37" d="M 2886 3941 
L 2886 4081 
L 1382 4081 
C 634 4081 621 4165 595 4288 
L 480 4288 
L 294 3094 
L 410 3094 
C 429 3215 474 3540 550 3661 
C 589 3712 1062 3712 1171 3712 
L 2579 3712 
L 1869 2661 
C 1395 1954 1069 999 1069 165 
C 1069 89 1069 -128 1299 -128 
C 1530 -128 1530 89 1530 171 
L 1530 465 
C 1530 1508 1709 2196 2003 2636 
L 2886 3941 
z
" transform="scale(0.015625)"/>
     </defs>
     <use xlink:href="#CMSY10-0" transform="scale(0.996264)"/>
     <use xlink:href="#CMR17-30" transform="translate(77.487468 0) scale(0.996264)"/>
     <use xlink:href="#CMMI12-3a" transform="translate(123.177945 0) scale(0.996264)"/>
     <use xlink:href="#CMR17-37" transform="translate(150.275122 0) scale(0.996264)"/>
     <use xlink:href="#CMR17-35" transform="translate(195.965599 0) scale(0.996264)"/>
    </g>
   </g>
   <g id="text_22">
    <!-- $\mathdefault{−0.75}$ -->
    <g transform="translate(311.705669 93.187822) rotate(-309.894398) scale(0.12 -0.12)">
     <use xlink:href="#CMSY10-0" transform="scale(0.996264)"/>
     <use xlink:href="#CMR17-30" transform="translate(77.487468 0) scale(0.996264)"/>
     <use xlink:href="#CMMI12-3a" transform="translate(123.177945 0) scale(0.996264)"/>
     <use xlink:href="#CMR17-37" transform="translate(150.275122 0) scale(0.996264)"/>
     <use xlink:href="#CMR17-35" transform="translate(195.965599 0) scale(0.996264)"/>
    </g>
   </g>
   <g id="text_23">
    <!-- $\mathdefault{−0.50}$ -->
    <g transform="translate(317.160589 165.660052) rotate(-0.435227) scale(0.12 -0.12)">
     <use xlink:href="#CMSY10-0" transform="scale(0.996264)"/>
     <use xlink:href="#CMR17-30" transform="translate(77.487468 0) scale(0.996264)"/>
     <use xlink:href="#CMMI12-3a" transform="translate(123.177945 0) scale(0.996264)"/>
     <use xlink:href="#CMR17-35" transform="translate(150.275122 0) scale(0.996264)"/>
     <use xlink:href="#CMR17-30" transform="translate(195.965599 0) scale(0.996264)"/>
    </g>
   </g>
   <g id="text_24">
    <!-- $\mathdefault{−0.50}$ -->
    <g transform="translate(326.853328 243.790426) rotate(-348.640708) scale(0.12 -0.12)">
     <use xlink:href="#CMSY10-0" transform="scale(0.996264)"/>
     <use xlink:href="#CMR17-30" transform="translate(77.487468 0) scale(0.996264)"/>
     <use xlink:href="#CMMI12-3a" transform="translate(123.177945 0) scale(0.996264)"/>
     <use xlink:href="#CMR17-35" transform="translate(150.275122 0) scale(0.996264)"/>
     <use xlink:href="#CMR17-30" transform="translate(195.965599 0) scale(0.996264)"/>
    </g>
   </g>
   <g id="text_25">
    <!-- $\mathdefault{−0.50}$ -->
    <g transform="translate(282.895992 146.972395) rotate(-358.098578) scale(0.12 -0.12)">
     <use xlink:href="#CMSY10-0" transform="scale(0.996264)"/>
     <use xlink:href="#CMR17-30" transform="translate(77.487468 0) scale(0.996264)"/>
     <use xlink:href="#CMMI12-3a" transform="translate(123.177945 0) scale(0.996264)"/>
     <use xlink:href="#CMR17-35" transform="translate(150.275122 0) scale(0.996264)"/>
     <use xlink:href="#CMR17-30" transform="translate(195.965599 0) scale(0.996264)"/>
    </g>
   </g>
   <g id="text_26">
    <!-- $\mathdefault{−0.50}$ -->
    <g transform="translate(331.088426 68.736984) rotate(-7.923155) scale(0.12 -0.12)">
     <use xlink:href="#CMSY10-0" transform="scale(0.996264)"/>
     <use xlink:href="#CMR17-30" transform="translate(77.487468 0) scale(0.996264)"/>
     <use xlink:href="#CMMI12-3a" transform="translate(123.177945 0) scale(0.996264)"/>
     <use xlink:href="#CMR17-35" transform="translate(150.275122 0) scale(0.996264)"/>
     <use xlink:href="#CMR17-30" transform="translate(195.965599 0) scale(0.996264)"/>
    </g>
   </g>
   <g id="text_27">
    <!-- $\mathdefault{−0.25}$ -->
    <g transform="translate(215.590862 266.090498) rotate(-297.407943) scale(0.12 -0.12)">
     <use xlink:href="#CMSY10-0" transform="scale(0.996264)"/>
     <use xlink:href="#CMR17-30" transform="translate(77.487468 0) scale(0.996264)"/>
     <use xlink:href="#CMMI12-3a" transform="translate(123.177945 0) scale(0.996264)"/>
     <use xlink:href="#CMR17-32" transform="translate(150.275122 0) scale(0.996264)"/>
     <use xlink:href="#CMR17-35" transform="translate(195.965599 0) scale(0.996264)"/>
    </g>
   </g>
   <g id="text_28">
    <!-- $\mathdefault{−0.25}$ -->
    <g transform="translate(220.235835 45.237006) rotate(-62.297387) scale(0.12 -0.12)">
     <use xlink:href="#CMSY10-0" transform="scale(0.996264)"/>
     <use xlink:href="#CMR17-30" transform="translate(77.487468 0) scale(0.996264)"/>
     <use xlink:href="#CMMI12-3a" transform="translate(123.177945 0) scale(0.996264)"/>
     <use xlink:href="#CMR17-32" transform="translate(150.275122 0) scale(0.996264)"/>
     <use xlink:href="#CMR17-35" transform="translate(195.965599 0) scale(0.996264)"/>
    </g>
   </g>
   <g id="text_29">
    <!-- $\mathdefault{0.00}$ -->
    <g transform="translate(197.240497 304.389678) rotate(-70.633628) scale(0.12 -0.12)">
     <use xlink:href="#CMR17-30" transform="scale(0.996264)"/>
     <use xlink:href="#CMMI12-3a" transform="translate(45.690477 0) scale(0.996264)"/>
     <use xlink:href="#CMR17-30" transform="translate(72.787654 0) scale(0.996264)"/>
     <use xlink:href="#CMR17-30" transform="translate(118.478131 0) scale(0.996264)"/>
    </g>
   </g>
   <g id="text_30">
    <!-- $\mathdefault{0.25}$ -->
    <g transform="translate(51.045716 161.350573) rotate(-359.2397) scale(0.12 -0.12)">
     <use xlink:href="#CMR17-30" transform="scale(0.996264)"/>
     <use xlink:href="#CMMI12-3a" transform="translate(45.690477 0) scale(0.996264)"/>
     <use xlink:href="#CMR17-32" transform="translate(72.787654 0) scale(0.996264)"/>
     <use xlink:href="#CMR17-35" transform="translate(118.478131 0) scale(0.996264)"/>
    </g>
   </g>
   <g id="text_31">
    <!-- $\mathdefault{0.25}$ -->
    <g transform="translate(75.43273 151.980231) rotate(-1.115213) scale(0.12 -0.12)">
     <use xlink:href="#CMR17-30" transform="scale(0.996264)"/>
     <use xlink:href="#CMMI12-3a" transform="translate(45.690477 0) scale(0.996264)"/>
     <use xlink:href="#CMR17-32" transform="translate(72.787654 0) scale(0.996264)"/>
     <use xlink:href="#CMR17-35" transform="translate(118.478131 0) scale(0.996264)"/>
    </g>
   </g>
   <g id="text_32">
    <!-- $\mathdefault{0.50}$ -->
    <g transform="translate(158.644351 275.326935) rotate(-65.31422) scale(0.12 -0.12)">
     <use xlink:href="#CMR17-30" transform="scale(0.996264)"/>
     <use xlink:href="#CMMI12-3a" transform="translate(45.690477 0) scale(0.996264)"/>
     <use xlink:href="#CMR17-35" transform="translate(72.787654 0) scale(0.996264)"/>
     <use xlink:href="#CMR17-30" transform="translate(118.478131 0) scale(0.996264)"/>
    </g>
   </g>
   <g id="text_33">
    <!-- $\mathdefault{0.50}$ -->
    <g transform="translate(50.191752 287.058065) rotate(-319.549893) scale(0.12 -0.12)">
     <use xlink:href="#CMR17-30" transform="scale(0.996264)"/>
     <use xlink:href="#CMMI12-3a" transform="translate(45.690477 0) scale(0.996264)"/>
     <use xlink:href="#CMR17-35" transform="translate(72.787654 0) scale(0.996264)"/>
     <use xlink:href="#CMR17-30" transform="translate(118.478131 0) scale(0.996264)"/>
    </g>
   </g>
   <g id="text_34">
    <!-- $\mathdefault{0.50}$ -->
    <g transform="translate(38.184699 206.595103) rotate(-325.237313) scale(0.12 -0.12)">
     <use xlink:href="#CMR17-30" transform="scale(0.996264)"/>
     <use xlink:href="#CMMI12-3a" transform="translate(45.690477 0) scale(0.996264)"/>
     <use xlink:href="#CMR17-35" transform="translate(72.787654 0) scale(0.996264)"/>
     <use xlink:href="#CMR17-30" transform="translate(118.478131 0) scale(0.996264)"/>
    </g>
   </g>
   <g id="text_35">
    <!-- $\mathdefault{0.50}$ -->
    <g transform="translate(154.057197 36.619667) rotate(-294.822891) scale(0.12 -0.12)">
     <use xlink:href="#CMR17-30" transform="scale(0.996264)"/>
     <use xlink:href="#CMMI12-3a" transform="translate(45.690477 0) scale(0.996264)"/>
     <use xlink:href="#CMR17-35" transform="translate(72.787654 0) scale(0.996264)"/>
     <use xlink:href="#CMR17-30" transform="translate(118.478131 0) scale(0.996264)"/>
    </g>
   </g>
   <g id="text_36">
    <!-- $\mathdefault{0.50}$ -->
    <g transform="translate(43.864074 104.675443) rotate(-35.518153) scale(0.12 -0.12)">
     <use xlink:href="#CMR17-30" transform="scale(0.996264)"/>
     <use xlink:href="#CMMI12-3a" transform="translate(45.690477 0) scale(0.996264)"/>
     <use xlink:href="#CMR17-35" transform="translate(72.787654 0) scale(0.996264)"/>
     <use xlink:href="#CMR17-30" transform="translate(118.478131 0) scale(0.996264)"/>
    </g>
   </g>
   <g id="text_37">
    <!-- $\mathdefault{0.50}$ -->
    <g transform="translate(66.319299 14.635217) rotate(-44.883362) scale(0.12 -0.12)">
     <use xlink:href="#CMR17-30" transform="scale(0.996264)"/>
     <use xlink:href="#CMMI12-3a" transform="translate(45.690477 0) scale(0.996264)"/>
     <use xlink:href="#CMR17-35" transform="translate(72.787654 0) scale(0.996264)"/>
     <use xlink:href="#CMR17-30" transform="translate(118.478131 0) scale(0.996264)"/>
    </g>
   </g>
   <g id="text_38">
    <!-- $\mathdefault{0.75}$ -->
    <g transform="translate(140.668836 291.883187) rotate(-277.989643) scale(0.12 -0.12)">
     <use xlink:href="#CMR17-30" transform="scale(0.996264)"/>
     <use xlink:href="#CMMI12-3a" transform="translate(45.690477 0) scale(0.996264)"/>
     <use xlink:href="#CMR17-37" transform="translate(72.787654 0) scale(0.996264)"/>
     <use xlink:href="#CMR17-35" transform="translate(118.478131 0) scale(0.996264)"/>
    </g>
   </g>
   <g id="text_39">
    <!-- $\mathdefault{0.75}$ -->
    <g transform="translate(72.229894 107.523946) rotate(-50.345045) scale(0.12 -0.12)">
     <use xlink:href="#CMR17-30" transform="scale(0.996264)"/>
     <use xlink:href="#CMMI12-3a" transform="translate(45.690477 0) scale(0.996264)"/>
     <use xlink:href="#CMR17-37" transform="translate(72.787654 0) scale(0.996264)"/>
     <use xlink:href="#CMR17-35" transform="translate(118.478131 0) scale(0.996264)"/>
    </g>
   </g>
  </g>
 </g>
 <defs>
  <clipPath id="p69b45e1fd0">
   <rect x="47.211299" y="4.15109" width="301.32" height="299.376"/>
  </clipPath>
 </defs>
</svg>
